<?xml version="1.0" encoding="utf-8" standalone="no"?>
<!DOCTYPE svg PUBLIC "-//W3C//DTD SVG 1.1//EN"
  "http://www.w3.org/Graphics/SVG/1.1/DTD/svg11.dtd">
<svg height="288pt" version="1.1" viewBox="0 0 432 288" width="432pt" xmlns="http://www.w3.org/2000/svg" xmlns:xlink="http://www.w3.org/1999/xlink">
 <metadata>
  <rdf:RDF xmlns:cc="http://creativecommons.org/ns#" xmlns:dc="http://purl.org/dc/elements/1.1/" xmlns:rdf="http://www.w3.org/1999/02/22-rdf-syntax-ns#">
   <cc:Work>
    <dc:type rdf:resource="http://purl.org/dc/dcmitype/StillImage"/>
    <dc:date>2022-06-13T11:52:31.798211</dc:date>
    <dc:format>image/svg+xml</dc:format>
    <dc:creator>
     <cc:Agent>
      <dc:title>Matplotlib v3.4.3, https://matplotlib.org/</dc:title>
     </cc:Agent>
    </dc:creator>
   </cc:Work>
  </rdf:RDF>
 </metadata>
 <defs>
  <style type="text/css">*{stroke-linecap:butt;stroke-linejoin:round;}</style>
 </defs>
 <g id="figure_1">
  <g id="patch_1">
   <path d="M 0 288 
L 432 288 
L 432 0 
L 0 0 
z
" style="fill:none;"/>
  </g>
  <g id="axes_1">
   <g id="patch_2">
    <path d="M 60.870332 242.4 
L 341.321816 242.4 
L 341.321816 10.8 
L 60.870332 10.8 
z
" style="fill:#ffffff;"/>
   </g>
   <g id="matplotlib.axis_1">
    <g id="xtick_1">
     <g id="line2d_1">
      <defs>
       <path d="M 0 0 
L 0 3.5 
" id="mdd73715285" style="stroke:#000000;stroke-width:0.8;"/>
      </defs>
      <g>
       <use style="stroke:#000000;stroke-width:0.8;" x="178.509045" xlink:href="#mdd73715285" y="242.4"/>
      </g>
     </g>
     <g id="text_1">
      <!-- $\mathdefault{10^{-1}}$ -->
      <g transform="translate(166.759045 256.998438)scale(0.1 -0.1)">
       <defs>
        <path d="M 794 531 
L 1825 531 
L 1825 4091 
L 703 3866 
L 703 4441 
L 1819 4666 
L 2450 4666 
L 2450 531 
L 3481 531 
L 3481 0 
L 794 0 
L 794 531 
z
" id="DejaVuSans-31" transform="scale(0.015625)"/>
        <path d="M 2034 4250 
Q 1547 4250 1301 3770 
Q 1056 3291 1056 2328 
Q 1056 1369 1301 889 
Q 1547 409 2034 409 
Q 2525 409 2770 889 
Q 3016 1369 3016 2328 
Q 3016 3291 2770 3770 
Q 2525 4250 2034 4250 
z
M 2034 4750 
Q 2819 4750 3233 4129 
Q 3647 3509 3647 2328 
Q 3647 1150 3233 529 
Q 2819 -91 2034 -91 
Q 1250 -91 836 529 
Q 422 1150 422 2328 
Q 422 3509 836 4129 
Q 1250 4750 2034 4750 
z
" id="DejaVuSans-30" transform="scale(0.015625)"/>
        <path d="M 678 2272 
L 4684 2272 
L 4684 1741 
L 678 1741 
L 678 2272 
z
" id="DejaVuSans-2212" transform="scale(0.015625)"/>
       </defs>
       <use transform="translate(0 0.684375)" xlink:href="#DejaVuSans-31"/>
       <use transform="translate(63.623047 0.684375)" xlink:href="#DejaVuSans-30"/>
       <use transform="translate(128.203125 38.965625)scale(0.7)" xlink:href="#DejaVuSans-2212"/>
       <use transform="translate(186.855469 38.965625)scale(0.7)" xlink:href="#DejaVuSans-31"/>
      </g>
     </g>
    </g>
    <g id="xtick_2">
     <g id="line2d_2">
      <g>
       <use style="stroke:#000000;stroke-width:0.8;" x="328.574022" xlink:href="#mdd73715285" y="242.4"/>
      </g>
     </g>
     <g id="text_2">
      <!-- $\mathdefault{10^{0}}$ -->
      <g transform="translate(319.774022 256.998438)scale(0.1 -0.1)">
       <use transform="translate(0 0.765625)" xlink:href="#DejaVuSans-31"/>
       <use transform="translate(63.623047 0.765625)" xlink:href="#DejaVuSans-30"/>
       <use transform="translate(128.203125 39.046875)scale(0.7)" xlink:href="#DejaVuSans-30"/>
      </g>
     </g>
    </g>
    <g id="xtick_3">
     <g id="line2d_3">
      <defs>
       <path d="M 0 0 
L 0 2 
" id="m7b719d3257" style="stroke:#000000;stroke-width:0.6;"/>
      </defs>
      <g>
       <use style="stroke:#000000;stroke-width:0.6;" x="73.618127" xlink:href="#m7b719d3257" y="242.4"/>
      </g>
     </g>
    </g>
    <g id="xtick_4">
     <g id="line2d_4">
      <g>
       <use style="stroke:#000000;stroke-width:0.6;" x="100.043258" xlink:href="#m7b719d3257" y="242.4"/>
      </g>
     </g>
    </g>
    <g id="xtick_5">
     <g id="line2d_5">
      <g>
       <use style="stroke:#000000;stroke-width:0.6;" x="118.792186" xlink:href="#m7b719d3257" y="242.4"/>
      </g>
     </g>
    </g>
    <g id="xtick_6">
     <g id="line2d_6">
      <g>
       <use style="stroke:#000000;stroke-width:0.6;" x="133.334985" xlink:href="#m7b719d3257" y="242.4"/>
      </g>
     </g>
    </g>
    <g id="xtick_7">
     <g id="line2d_7">
      <g>
       <use style="stroke:#000000;stroke-width:0.6;" x="145.217317" xlink:href="#m7b719d3257" y="242.4"/>
      </g>
     </g>
    </g>
    <g id="xtick_8">
     <g id="line2d_8">
      <g>
       <use style="stroke:#000000;stroke-width:0.6;" x="155.263685" xlink:href="#m7b719d3257" y="242.4"/>
      </g>
     </g>
    </g>
    <g id="xtick_9">
     <g id="line2d_9">
      <g>
       <use style="stroke:#000000;stroke-width:0.6;" x="163.966246" xlink:href="#m7b719d3257" y="242.4"/>
      </g>
     </g>
    </g>
    <g id="xtick_10">
     <g id="line2d_10">
      <g>
       <use style="stroke:#000000;stroke-width:0.6;" x="171.642448" xlink:href="#m7b719d3257" y="242.4"/>
      </g>
     </g>
    </g>
    <g id="xtick_11">
     <g id="line2d_11">
      <g>
       <use style="stroke:#000000;stroke-width:0.6;" x="223.683104" xlink:href="#m7b719d3257" y="242.4"/>
      </g>
     </g>
    </g>
    <g id="xtick_12">
     <g id="line2d_12">
      <g>
       <use style="stroke:#000000;stroke-width:0.6;" x="250.108235" xlink:href="#m7b719d3257" y="242.4"/>
      </g>
     </g>
    </g>
    <g id="xtick_13">
     <g id="line2d_13">
      <g>
       <use style="stroke:#000000;stroke-width:0.6;" x="268.857163" xlink:href="#m7b719d3257" y="242.4"/>
      </g>
     </g>
    </g>
    <g id="xtick_14">
     <g id="line2d_14">
      <g>
       <use style="stroke:#000000;stroke-width:0.6;" x="283.399962" xlink:href="#m7b719d3257" y="242.4"/>
      </g>
     </g>
    </g>
    <g id="xtick_15">
     <g id="line2d_15">
      <g>
       <use style="stroke:#000000;stroke-width:0.6;" x="295.282294" xlink:href="#m7b719d3257" y="242.4"/>
      </g>
     </g>
    </g>
    <g id="xtick_16">
     <g id="line2d_16">
      <g>
       <use style="stroke:#000000;stroke-width:0.6;" x="305.328663" xlink:href="#m7b719d3257" y="242.4"/>
      </g>
     </g>
    </g>
    <g id="xtick_17">
     <g id="line2d_17">
      <g>
       <use style="stroke:#000000;stroke-width:0.6;" x="314.031223" xlink:href="#m7b719d3257" y="242.4"/>
      </g>
     </g>
    </g>
    <g id="xtick_18">
     <g id="line2d_18">
      <g>
       <use style="stroke:#000000;stroke-width:0.6;" x="321.707425" xlink:href="#m7b719d3257" y="242.4"/>
      </g>
     </g>
    </g>
    <g id="text_3">
     <!-- Fraction of All Possible Samples -->
     <g transform="translate(122.278105 270.676562)scale(0.1 -0.1)">
      <defs>
       <path d="M 628 4666 
L 3309 4666 
L 3309 4134 
L 1259 4134 
L 1259 2759 
L 3109 2759 
L 3109 2228 
L 1259 2228 
L 1259 0 
L 628 0 
L 628 4666 
z
" id="DejaVuSans-46" transform="scale(0.015625)"/>
       <path d="M 2631 2963 
Q 2534 3019 2420 3045 
Q 2306 3072 2169 3072 
Q 1681 3072 1420 2755 
Q 1159 2438 1159 1844 
L 1159 0 
L 581 0 
L 581 3500 
L 1159 3500 
L 1159 2956 
Q 1341 3275 1631 3429 
Q 1922 3584 2338 3584 
Q 2397 3584 2469 3576 
Q 2541 3569 2628 3553 
L 2631 2963 
z
" id="DejaVuSans-72" transform="scale(0.015625)"/>
       <path d="M 2194 1759 
Q 1497 1759 1228 1600 
Q 959 1441 959 1056 
Q 959 750 1161 570 
Q 1363 391 1709 391 
Q 2188 391 2477 730 
Q 2766 1069 2766 1631 
L 2766 1759 
L 2194 1759 
z
M 3341 1997 
L 3341 0 
L 2766 0 
L 2766 531 
Q 2569 213 2275 61 
Q 1981 -91 1556 -91 
Q 1019 -91 701 211 
Q 384 513 384 1019 
Q 384 1609 779 1909 
Q 1175 2209 1959 2209 
L 2766 2209 
L 2766 2266 
Q 2766 2663 2505 2880 
Q 2244 3097 1772 3097 
Q 1472 3097 1187 3025 
Q 903 2953 641 2809 
L 641 3341 
Q 956 3463 1253 3523 
Q 1550 3584 1831 3584 
Q 2591 3584 2966 3190 
Q 3341 2797 3341 1997 
z
" id="DejaVuSans-61" transform="scale(0.015625)"/>
       <path d="M 3122 3366 
L 3122 2828 
Q 2878 2963 2633 3030 
Q 2388 3097 2138 3097 
Q 1578 3097 1268 2742 
Q 959 2388 959 1747 
Q 959 1106 1268 751 
Q 1578 397 2138 397 
Q 2388 397 2633 464 
Q 2878 531 3122 666 
L 3122 134 
Q 2881 22 2623 -34 
Q 2366 -91 2075 -91 
Q 1284 -91 818 406 
Q 353 903 353 1747 
Q 353 2603 823 3093 
Q 1294 3584 2113 3584 
Q 2378 3584 2631 3529 
Q 2884 3475 3122 3366 
z
" id="DejaVuSans-63" transform="scale(0.015625)"/>
       <path d="M 1172 4494 
L 1172 3500 
L 2356 3500 
L 2356 3053 
L 1172 3053 
L 1172 1153 
Q 1172 725 1289 603 
Q 1406 481 1766 481 
L 2356 481 
L 2356 0 
L 1766 0 
Q 1100 0 847 248 
Q 594 497 594 1153 
L 594 3053 
L 172 3053 
L 172 3500 
L 594 3500 
L 594 4494 
L 1172 4494 
z
" id="DejaVuSans-74" transform="scale(0.015625)"/>
       <path d="M 603 3500 
L 1178 3500 
L 1178 0 
L 603 0 
L 603 3500 
z
M 603 4863 
L 1178 4863 
L 1178 4134 
L 603 4134 
L 603 4863 
z
" id="DejaVuSans-69" transform="scale(0.015625)"/>
       <path d="M 1959 3097 
Q 1497 3097 1228 2736 
Q 959 2375 959 1747 
Q 959 1119 1226 758 
Q 1494 397 1959 397 
Q 2419 397 2687 759 
Q 2956 1122 2956 1747 
Q 2956 2369 2687 2733 
Q 2419 3097 1959 3097 
z
M 1959 3584 
Q 2709 3584 3137 3096 
Q 3566 2609 3566 1747 
Q 3566 888 3137 398 
Q 2709 -91 1959 -91 
Q 1206 -91 779 398 
Q 353 888 353 1747 
Q 353 2609 779 3096 
Q 1206 3584 1959 3584 
z
" id="DejaVuSans-6f" transform="scale(0.015625)"/>
       <path d="M 3513 2113 
L 3513 0 
L 2938 0 
L 2938 2094 
Q 2938 2591 2744 2837 
Q 2550 3084 2163 3084 
Q 1697 3084 1428 2787 
Q 1159 2491 1159 1978 
L 1159 0 
L 581 0 
L 581 3500 
L 1159 3500 
L 1159 2956 
Q 1366 3272 1645 3428 
Q 1925 3584 2291 3584 
Q 2894 3584 3203 3211 
Q 3513 2838 3513 2113 
z
" id="DejaVuSans-6e" transform="scale(0.015625)"/>
       <path id="DejaVuSans-20" transform="scale(0.015625)"/>
       <path d="M 2375 4863 
L 2375 4384 
L 1825 4384 
Q 1516 4384 1395 4259 
Q 1275 4134 1275 3809 
L 1275 3500 
L 2222 3500 
L 2222 3053 
L 1275 3053 
L 1275 0 
L 697 0 
L 697 3053 
L 147 3053 
L 147 3500 
L 697 3500 
L 697 3744 
Q 697 4328 969 4595 
Q 1241 4863 1831 4863 
L 2375 4863 
z
" id="DejaVuSans-66" transform="scale(0.015625)"/>
       <path d="M 2188 4044 
L 1331 1722 
L 3047 1722 
L 2188 4044 
z
M 1831 4666 
L 2547 4666 
L 4325 0 
L 3669 0 
L 3244 1197 
L 1141 1197 
L 716 0 
L 50 0 
L 1831 4666 
z
" id="DejaVuSans-41" transform="scale(0.015625)"/>
       <path d="M 603 4863 
L 1178 4863 
L 1178 0 
L 603 0 
L 603 4863 
z
" id="DejaVuSans-6c" transform="scale(0.015625)"/>
       <path d="M 1259 4147 
L 1259 2394 
L 2053 2394 
Q 2494 2394 2734 2622 
Q 2975 2850 2975 3272 
Q 2975 3691 2734 3919 
Q 2494 4147 2053 4147 
L 1259 4147 
z
M 628 4666 
L 2053 4666 
Q 2838 4666 3239 4311 
Q 3641 3956 3641 3272 
Q 3641 2581 3239 2228 
Q 2838 1875 2053 1875 
L 1259 1875 
L 1259 0 
L 628 0 
L 628 4666 
z
" id="DejaVuSans-50" transform="scale(0.015625)"/>
       <path d="M 2834 3397 
L 2834 2853 
Q 2591 2978 2328 3040 
Q 2066 3103 1784 3103 
Q 1356 3103 1142 2972 
Q 928 2841 928 2578 
Q 928 2378 1081 2264 
Q 1234 2150 1697 2047 
L 1894 2003 
Q 2506 1872 2764 1633 
Q 3022 1394 3022 966 
Q 3022 478 2636 193 
Q 2250 -91 1575 -91 
Q 1294 -91 989 -36 
Q 684 19 347 128 
L 347 722 
Q 666 556 975 473 
Q 1284 391 1588 391 
Q 1994 391 2212 530 
Q 2431 669 2431 922 
Q 2431 1156 2273 1281 
Q 2116 1406 1581 1522 
L 1381 1569 
Q 847 1681 609 1914 
Q 372 2147 372 2553 
Q 372 3047 722 3315 
Q 1072 3584 1716 3584 
Q 2034 3584 2315 3537 
Q 2597 3491 2834 3397 
z
" id="DejaVuSans-73" transform="scale(0.015625)"/>
       <path d="M 3116 1747 
Q 3116 2381 2855 2742 
Q 2594 3103 2138 3103 
Q 1681 3103 1420 2742 
Q 1159 2381 1159 1747 
Q 1159 1113 1420 752 
Q 1681 391 2138 391 
Q 2594 391 2855 752 
Q 3116 1113 3116 1747 
z
M 1159 2969 
Q 1341 3281 1617 3432 
Q 1894 3584 2278 3584 
Q 2916 3584 3314 3078 
Q 3713 2572 3713 1747 
Q 3713 922 3314 415 
Q 2916 -91 2278 -91 
Q 1894 -91 1617 61 
Q 1341 213 1159 525 
L 1159 0 
L 581 0 
L 581 4863 
L 1159 4863 
L 1159 2969 
z
" id="DejaVuSans-62" transform="scale(0.015625)"/>
       <path d="M 3597 1894 
L 3597 1613 
L 953 1613 
Q 991 1019 1311 708 
Q 1631 397 2203 397 
Q 2534 397 2845 478 
Q 3156 559 3463 722 
L 3463 178 
Q 3153 47 2828 -22 
Q 2503 -91 2169 -91 
Q 1331 -91 842 396 
Q 353 884 353 1716 
Q 353 2575 817 3079 
Q 1281 3584 2069 3584 
Q 2775 3584 3186 3129 
Q 3597 2675 3597 1894 
z
M 3022 2063 
Q 3016 2534 2758 2815 
Q 2500 3097 2075 3097 
Q 1594 3097 1305 2825 
Q 1016 2553 972 2059 
L 3022 2063 
z
" id="DejaVuSans-65" transform="scale(0.015625)"/>
       <path d="M 3425 4513 
L 3425 3897 
Q 3066 4069 2747 4153 
Q 2428 4238 2131 4238 
Q 1616 4238 1336 4038 
Q 1056 3838 1056 3469 
Q 1056 3159 1242 3001 
Q 1428 2844 1947 2747 
L 2328 2669 
Q 3034 2534 3370 2195 
Q 3706 1856 3706 1288 
Q 3706 609 3251 259 
Q 2797 -91 1919 -91 
Q 1588 -91 1214 -16 
Q 841 59 441 206 
L 441 856 
Q 825 641 1194 531 
Q 1563 422 1919 422 
Q 2459 422 2753 634 
Q 3047 847 3047 1241 
Q 3047 1584 2836 1778 
Q 2625 1972 2144 2069 
L 1759 2144 
Q 1053 2284 737 2584 
Q 422 2884 422 3419 
Q 422 4038 858 4394 
Q 1294 4750 2059 4750 
Q 2388 4750 2728 4690 
Q 3069 4631 3425 4513 
z
" id="DejaVuSans-53" transform="scale(0.015625)"/>
       <path d="M 3328 2828 
Q 3544 3216 3844 3400 
Q 4144 3584 4550 3584 
Q 5097 3584 5394 3201 
Q 5691 2819 5691 2113 
L 5691 0 
L 5113 0 
L 5113 2094 
Q 5113 2597 4934 2840 
Q 4756 3084 4391 3084 
Q 3944 3084 3684 2787 
Q 3425 2491 3425 1978 
L 3425 0 
L 2847 0 
L 2847 2094 
Q 2847 2600 2669 2842 
Q 2491 3084 2119 3084 
Q 1678 3084 1418 2786 
Q 1159 2488 1159 1978 
L 1159 0 
L 581 0 
L 581 3500 
L 1159 3500 
L 1159 2956 
Q 1356 3278 1631 3431 
Q 1906 3584 2284 3584 
Q 2666 3584 2933 3390 
Q 3200 3197 3328 2828 
z
" id="DejaVuSans-6d" transform="scale(0.015625)"/>
       <path d="M 1159 525 
L 1159 -1331 
L 581 -1331 
L 581 3500 
L 1159 3500 
L 1159 2969 
Q 1341 3281 1617 3432 
Q 1894 3584 2278 3584 
Q 2916 3584 3314 3078 
Q 3713 2572 3713 1747 
Q 3713 922 3314 415 
Q 2916 -91 2278 -91 
Q 1894 -91 1617 61 
Q 1341 213 1159 525 
z
M 3116 1747 
Q 3116 2381 2855 2742 
Q 2594 3103 2138 3103 
Q 1681 3103 1420 2742 
Q 1159 2381 1159 1747 
Q 1159 1113 1420 752 
Q 1681 391 2138 391 
Q 2594 391 2855 752 
Q 3116 1113 3116 1747 
z
" id="DejaVuSans-70" transform="scale(0.015625)"/>
      </defs>
      <use xlink:href="#DejaVuSans-46"/>
      <use x="50.269531" xlink:href="#DejaVuSans-72"/>
      <use x="91.382812" xlink:href="#DejaVuSans-61"/>
      <use x="152.662109" xlink:href="#DejaVuSans-63"/>
      <use x="207.642578" xlink:href="#DejaVuSans-74"/>
      <use x="246.851562" xlink:href="#DejaVuSans-69"/>
      <use x="274.634766" xlink:href="#DejaVuSans-6f"/>
      <use x="335.816406" xlink:href="#DejaVuSans-6e"/>
      <use x="399.195312" xlink:href="#DejaVuSans-20"/>
      <use x="430.982422" xlink:href="#DejaVuSans-6f"/>
      <use x="492.164062" xlink:href="#DejaVuSans-66"/>
      <use x="527.369141" xlink:href="#DejaVuSans-20"/>
      <use x="559.15625" xlink:href="#DejaVuSans-41"/>
      <use x="627.564453" xlink:href="#DejaVuSans-6c"/>
      <use x="655.347656" xlink:href="#DejaVuSans-6c"/>
      <use x="683.130859" xlink:href="#DejaVuSans-20"/>
      <use x="714.917969" xlink:href="#DejaVuSans-50"/>
      <use x="771.595703" xlink:href="#DejaVuSans-6f"/>
      <use x="832.777344" xlink:href="#DejaVuSans-73"/>
      <use x="884.876953" xlink:href="#DejaVuSans-73"/>
      <use x="936.976562" xlink:href="#DejaVuSans-69"/>
      <use x="964.759766" xlink:href="#DejaVuSans-62"/>
      <use x="1028.236328" xlink:href="#DejaVuSans-6c"/>
      <use x="1056.019531" xlink:href="#DejaVuSans-65"/>
      <use x="1117.542969" xlink:href="#DejaVuSans-20"/>
      <use x="1149.330078" xlink:href="#DejaVuSans-53"/>
      <use x="1212.806641" xlink:href="#DejaVuSans-61"/>
      <use x="1274.085938" xlink:href="#DejaVuSans-6d"/>
      <use x="1371.498047" xlink:href="#DejaVuSans-70"/>
      <use x="1434.974609" xlink:href="#DejaVuSans-6c"/>
      <use x="1462.757812" xlink:href="#DejaVuSans-65"/>
      <use x="1524.28125" xlink:href="#DejaVuSans-73"/>
     </g>
    </g>
   </g>
   <g id="matplotlib.axis_2">
    <g id="ytick_1">
     <g id="line2d_19">
      <defs>
       <path d="M 0 0 
L -3.5 0 
" id="m9a82e4d4a0" style="stroke:#000000;stroke-width:0.8;"/>
      </defs>
      <g>
       <use style="stroke:#000000;stroke-width:0.8;" x="60.870332" xlink:href="#m9a82e4d4a0" y="220.398141"/>
      </g>
     </g>
     <g id="text_4">
      <!-- $\mathdefault{10^{-29}}$ -->
      <g transform="translate(26.070332 224.19736)scale(0.1 -0.1)">
       <defs>
        <path d="M 1228 531 
L 3431 531 
L 3431 0 
L 469 0 
L 469 531 
Q 828 903 1448 1529 
Q 2069 2156 2228 2338 
Q 2531 2678 2651 2914 
Q 2772 3150 2772 3378 
Q 2772 3750 2511 3984 
Q 2250 4219 1831 4219 
Q 1534 4219 1204 4116 
Q 875 4013 500 3803 
L 500 4441 
Q 881 4594 1212 4672 
Q 1544 4750 1819 4750 
Q 2544 4750 2975 4387 
Q 3406 4025 3406 3419 
Q 3406 3131 3298 2873 
Q 3191 2616 2906 2266 
Q 2828 2175 2409 1742 
Q 1991 1309 1228 531 
z
" id="DejaVuSans-32" transform="scale(0.015625)"/>
        <path d="M 703 97 
L 703 672 
Q 941 559 1184 500 
Q 1428 441 1663 441 
Q 2288 441 2617 861 
Q 2947 1281 2994 2138 
Q 2813 1869 2534 1725 
Q 2256 1581 1919 1581 
Q 1219 1581 811 2004 
Q 403 2428 403 3163 
Q 403 3881 828 4315 
Q 1253 4750 1959 4750 
Q 2769 4750 3195 4129 
Q 3622 3509 3622 2328 
Q 3622 1225 3098 567 
Q 2575 -91 1691 -91 
Q 1453 -91 1209 -44 
Q 966 3 703 97 
z
M 1959 2075 
Q 2384 2075 2632 2365 
Q 2881 2656 2881 3163 
Q 2881 3666 2632 3958 
Q 2384 4250 1959 4250 
Q 1534 4250 1286 3958 
Q 1038 3666 1038 3163 
Q 1038 2656 1286 2365 
Q 1534 2075 1959 2075 
z
" id="DejaVuSans-39" transform="scale(0.015625)"/>
       </defs>
       <use transform="translate(0 0.765625)" xlink:href="#DejaVuSans-31"/>
       <use transform="translate(63.623047 0.765625)" xlink:href="#DejaVuSans-30"/>
       <use transform="translate(128.203125 39.046875)scale(0.7)" xlink:href="#DejaVuSans-2212"/>
       <use transform="translate(186.855469 39.046875)scale(0.7)" xlink:href="#DejaVuSans-32"/>
       <use transform="translate(230.166602 39.046875)scale(0.7)" xlink:href="#DejaVuSans-39"/>
      </g>
     </g>
    </g>
    <g id="ytick_2">
     <g id="line2d_20">
      <g>
       <use style="stroke:#000000;stroke-width:0.8;" x="60.870332" xlink:href="#m9a82e4d4a0" y="192.658747"/>
      </g>
     </g>
     <g id="text_5">
      <!-- $\mathdefault{10^{-25}}$ -->
      <g transform="translate(25.970332 196.457966)scale(0.1 -0.1)">
       <defs>
        <path d="M 691 4666 
L 3169 4666 
L 3169 4134 
L 1269 4134 
L 1269 2991 
Q 1406 3038 1543 3061 
Q 1681 3084 1819 3084 
Q 2600 3084 3056 2656 
Q 3513 2228 3513 1497 
Q 3513 744 3044 326 
Q 2575 -91 1722 -91 
Q 1428 -91 1123 -41 
Q 819 9 494 109 
L 494 744 
Q 775 591 1075 516 
Q 1375 441 1709 441 
Q 2250 441 2565 725 
Q 2881 1009 2881 1497 
Q 2881 1984 2565 2268 
Q 2250 2553 1709 2553 
Q 1456 2553 1204 2497 
Q 953 2441 691 2322 
L 691 4666 
z
" id="DejaVuSans-35" transform="scale(0.015625)"/>
       </defs>
       <use transform="translate(0 0.765625)" xlink:href="#DejaVuSans-31"/>
       <use transform="translate(63.623047 0.765625)" xlink:href="#DejaVuSans-30"/>
       <use transform="translate(128.203125 39.046875)scale(0.7)" xlink:href="#DejaVuSans-2212"/>
       <use transform="translate(186.855469 39.046875)scale(0.7)" xlink:href="#DejaVuSans-32"/>
       <use transform="translate(231.391602 39.046875)scale(0.7)" xlink:href="#DejaVuSans-35"/>
      </g>
     </g>
    </g>
    <g id="ytick_3">
     <g id="line2d_21">
      <g>
       <use style="stroke:#000000;stroke-width:0.8;" x="60.870332" xlink:href="#m9a82e4d4a0" y="164.919354"/>
      </g>
     </g>
     <g id="text_6">
      <!-- $\mathdefault{10^{-21}}$ -->
      <g transform="translate(25.970332 168.718573)scale(0.1 -0.1)">
       <use transform="translate(0 0.765625)" xlink:href="#DejaVuSans-31"/>
       <use transform="translate(63.623047 0.765625)" xlink:href="#DejaVuSans-30"/>
       <use transform="translate(128.203125 39.046875)scale(0.7)" xlink:href="#DejaVuSans-2212"/>
       <use transform="translate(186.855469 39.046875)scale(0.7)" xlink:href="#DejaVuSans-32"/>
       <use transform="translate(231.391602 39.046875)scale(0.7)" xlink:href="#DejaVuSans-31"/>
      </g>
     </g>
    </g>
    <g id="ytick_4">
     <g id="line2d_22">
      <g>
       <use style="stroke:#000000;stroke-width:0.8;" x="60.870332" xlink:href="#m9a82e4d4a0" y="137.179961"/>
      </g>
     </g>
     <g id="text_7">
      <!-- $\mathdefault{10^{-17}}$ -->
      <g transform="translate(25.970332 140.979179)scale(0.1 -0.1)">
       <defs>
        <path d="M 525 4666 
L 3525 4666 
L 3525 4397 
L 1831 0 
L 1172 0 
L 2766 4134 
L 525 4134 
L 525 4666 
z
" id="DejaVuSans-37" transform="scale(0.015625)"/>
       </defs>
       <use transform="translate(0 0.684375)" xlink:href="#DejaVuSans-31"/>
       <use transform="translate(63.623047 0.684375)" xlink:href="#DejaVuSans-30"/>
       <use transform="translate(128.203125 38.965625)scale(0.7)" xlink:href="#DejaVuSans-2212"/>
       <use transform="translate(186.855469 38.965625)scale(0.7)" xlink:href="#DejaVuSans-31"/>
       <use transform="translate(231.391602 38.965625)scale(0.7)" xlink:href="#DejaVuSans-37"/>
      </g>
     </g>
    </g>
    <g id="ytick_5">
     <g id="line2d_23">
      <g>
       <use style="stroke:#000000;stroke-width:0.8;" x="60.870332" xlink:href="#m9a82e4d4a0" y="109.440567"/>
      </g>
     </g>
     <g id="text_8">
      <!-- $\mathdefault{10^{-13}}$ -->
      <g transform="translate(25.970332 113.239786)scale(0.1 -0.1)">
       <defs>
        <path d="M 2597 2516 
Q 3050 2419 3304 2112 
Q 3559 1806 3559 1356 
Q 3559 666 3084 287 
Q 2609 -91 1734 -91 
Q 1441 -91 1130 -33 
Q 819 25 488 141 
L 488 750 
Q 750 597 1062 519 
Q 1375 441 1716 441 
Q 2309 441 2620 675 
Q 2931 909 2931 1356 
Q 2931 1769 2642 2001 
Q 2353 2234 1838 2234 
L 1294 2234 
L 1294 2753 
L 1863 2753 
Q 2328 2753 2575 2939 
Q 2822 3125 2822 3475 
Q 2822 3834 2567 4026 
Q 2313 4219 1838 4219 
Q 1578 4219 1281 4162 
Q 984 4106 628 3988 
L 628 4550 
Q 988 4650 1302 4700 
Q 1616 4750 1894 4750 
Q 2613 4750 3031 4423 
Q 3450 4097 3450 3541 
Q 3450 3153 3228 2886 
Q 3006 2619 2597 2516 
z
" id="DejaVuSans-33" transform="scale(0.015625)"/>
       </defs>
       <use transform="translate(0 0.765625)" xlink:href="#DejaVuSans-31"/>
       <use transform="translate(63.623047 0.765625)" xlink:href="#DejaVuSans-30"/>
       <use transform="translate(128.203125 39.046875)scale(0.7)" xlink:href="#DejaVuSans-2212"/>
       <use transform="translate(186.855469 39.046875)scale(0.7)" xlink:href="#DejaVuSans-31"/>
       <use transform="translate(231.391602 39.046875)scale(0.7)" xlink:href="#DejaVuSans-33"/>
      </g>
     </g>
    </g>
    <g id="ytick_6">
     <g id="line2d_24">
      <g>
       <use style="stroke:#000000;stroke-width:0.8;" x="60.870332" xlink:href="#m9a82e4d4a0" y="81.701174"/>
      </g>
     </g>
     <g id="text_9">
      <!-- $\mathdefault{10^{-9}}$ -->
      <g transform="translate(30.370332 85.500393)scale(0.1 -0.1)">
       <use transform="translate(0 0.765625)" xlink:href="#DejaVuSans-31"/>
       <use transform="translate(63.623047 0.765625)" xlink:href="#DejaVuSans-30"/>
       <use transform="translate(128.203125 39.046875)scale(0.7)" xlink:href="#DejaVuSans-2212"/>
       <use transform="translate(186.855469 39.046875)scale(0.7)" xlink:href="#DejaVuSans-39"/>
      </g>
     </g>
    </g>
    <g id="ytick_7">
     <g id="line2d_25">
      <g>
       <use style="stroke:#000000;stroke-width:0.8;" x="60.870332" xlink:href="#m9a82e4d4a0" y="53.96178"/>
      </g>
     </g>
     <g id="text_10">
      <!-- $\mathdefault{10^{-5}}$ -->
      <g transform="translate(30.370332 57.760999)scale(0.1 -0.1)">
       <use transform="translate(0 0.684375)" xlink:href="#DejaVuSans-31"/>
       <use transform="translate(63.623047 0.684375)" xlink:href="#DejaVuSans-30"/>
       <use transform="translate(128.203125 38.965625)scale(0.7)" xlink:href="#DejaVuSans-2212"/>
       <use transform="translate(186.855469 38.965625)scale(0.7)" xlink:href="#DejaVuSans-35"/>
      </g>
     </g>
    </g>
    <g id="ytick_8">
     <g id="line2d_26">
      <g>
       <use style="stroke:#000000;stroke-width:0.8;" x="60.870332" xlink:href="#m9a82e4d4a0" y="26.222387"/>
      </g>
     </g>
     <g id="text_11">
      <!-- $\mathdefault{10^{-1}}$ -->
      <g transform="translate(30.370332 30.021606)scale(0.1 -0.1)">
       <use transform="translate(0 0.684375)" xlink:href="#DejaVuSans-31"/>
       <use transform="translate(63.623047 0.684375)" xlink:href="#DejaVuSans-30"/>
       <use transform="translate(128.203125 38.965625)scale(0.7)" xlink:href="#DejaVuSans-2212"/>
       <use transform="translate(186.855469 38.965625)scale(0.7)" xlink:href="#DejaVuSans-31"/>
      </g>
     </g>
    </g>
    <g id="text_12">
     <!-- p-value -->
     <g transform="translate(19.890645 145.104688)rotate(-90)scale(0.1 -0.1)">
      <defs>
       <path d="M 313 2009 
L 1997 2009 
L 1997 1497 
L 313 1497 
L 313 2009 
z
" id="DejaVuSans-2d" transform="scale(0.015625)"/>
       <path d="M 191 3500 
L 800 3500 
L 1894 563 
L 2988 3500 
L 3597 3500 
L 2284 0 
L 1503 0 
L 191 3500 
z
" id="DejaVuSans-76" transform="scale(0.015625)"/>
       <path d="M 544 1381 
L 544 3500 
L 1119 3500 
L 1119 1403 
Q 1119 906 1312 657 
Q 1506 409 1894 409 
Q 2359 409 2629 706 
Q 2900 1003 2900 1516 
L 2900 3500 
L 3475 3500 
L 3475 0 
L 2900 0 
L 2900 538 
Q 2691 219 2414 64 
Q 2138 -91 1772 -91 
Q 1169 -91 856 284 
Q 544 659 544 1381 
z
M 1991 3584 
L 1991 3584 
z
" id="DejaVuSans-75" transform="scale(0.015625)"/>
      </defs>
      <use xlink:href="#DejaVuSans-70"/>
      <use x="63.476562" xlink:href="#DejaVuSans-2d"/>
      <use x="96.935547" xlink:href="#DejaVuSans-76"/>
      <use x="156.115234" xlink:href="#DejaVuSans-61"/>
      <use x="217.394531" xlink:href="#DejaVuSans-6c"/>
      <use x="245.177734" xlink:href="#DejaVuSans-75"/>
      <use x="308.556641" xlink:href="#DejaVuSans-65"/>
     </g>
    </g>
   </g>
   <g id="line2d_27">
    <path clip-path="url(#p5576d13a67)" d="M 73.618127 22.80983 
L 100.043258 24.384643 
L 118.792186 24.520343 
L 133.334985 26.147717 
L 145.217317 27.28324 
L 155.263685 29.071513 
L 163.966246 29.755206 
L 171.642448 31.046593 
L 178.509045 30.287057 
L 184.720637 32.525245 
L 190.391376 32.002777 
L 195.607951 32.784805 
L 200.437745 33.717673 
L 204.934175 35.329389 
L 209.140305 37.565412 
L 213.091357 34.913346 
L 216.816507 41.043957 
L 220.340197 40.319535 
L 223.683104 42.862251 
L 226.862876 44.042356 
L 229.894696 41.788699 
L 232.791724 43.630805 
L 235.565436 48.997871 
L 238.225903 47.264082 
L 240.78201 50.030033 
L 243.241638 47.144378 
L 245.611804 52.728796 
L 247.898789 55.649951 
L 250.108235 50.624726 
L 252.245226 59.319821 
L 254.314364 60.633547 
L 256.319827 61.784549 
L 258.265416 57.472339 
L 260.154603 57.423468 
L 261.990567 57.090679 
L 263.776223 66.500056 
L 265.514257 66.638666 
L 267.207141 69.072722 
L 268.857163 65.887645 
L 270.46644 63.902475 
L 272.036935 70.339217 
L 273.570474 76.417132 
L 275.068756 73.790878 
L 276.533365 77.134249 
L 277.965783 69.223909 
L 279.367394 79.041471 
L 280.739495 79.388074 
L 282.083303 78.47601 
L 283.399962 82.316963 
L 284.690547 84.699652 
L 285.95607 76.511856 
L 287.197486 85.486784 
L 288.415697 89.941045 
L 289.611555 81.209573 
L 290.785864 87.647687 
L 291.939387 84.506404 
L 293.072849 94.231707 
L 294.186934 86.112864 
L 295.282294 94.981425 
L 296.359548 95.902785 
L 297.419285 102.276321 
L 298.462066 104.306505 
L 299.488424 104.800862 
L 300.498869 103.424721 
L 301.493886 108.496576 
L 302.473941 108.579968 
L 303.439475 112.973938 
L 304.390914 103.800011 
L 305.328663 111.140085 
L 306.253109 117.385704 
L 307.164626 108.117072 
L 308.06357 119.944926 
L 308.950283 124.378924 
L 309.825093 119.505256 
L 310.688316 125.274483 
L 311.540255 125.707859 
L 312.381201 132.710722 
L 313.211433 127.878935 
L 314.031223 127.674478 
L 314.840828 133.210485 
L 315.640499 134.198438 
L 316.430477 135.628699 
L 317.210994 139.951421 
L 317.982274 144.655069 
L 318.744533 140.908706 
L 319.49798 145.725169 
L 320.242815 142.74474 
L 320.979234 150.004297 
L 321.707425 152.066755 
L 322.427569 154.203481 
L 323.139843 156.144104 
L 323.844416 158.18504 
L 324.541454 161.665197 
L 325.231115 164.526008 
L 325.913555 164.806179 
L 326.588922 168.533042 
L 327.257363 170.528956 
L 327.919017 173.062878 
L 328.574022 176.490126 
" style="fill:none;stroke:#1f77b4;stroke-linecap:square;stroke-width:1.5;"/>
   </g>
   <g id="line2d_28">
    <path clip-path="url(#p5576d13a67)" d="M 73.618127 23.770242 
L 100.043258 24.150141 
L 118.792186 24.745169 
L 133.334985 26.706777 
L 145.217317 27.258292 
L 155.263685 28.262871 
L 163.966246 28.972536 
L 171.642448 31.069663 
L 178.509045 30.850278 
L 184.720637 31.920686 
L 190.391376 35.492482 
L 195.607951 35.842032 
L 200.437745 35.869757 
L 204.934175 39.118469 
L 209.140305 39.652297 
L 213.091357 39.888869 
L 216.816507 34.262544 
L 220.340197 37.7257 
L 223.683104 43.296566 
L 226.862876 47.616193 
L 229.894696 48.461362 
L 232.791724 42.99035 
L 235.565436 44.184262 
L 238.225903 43.860795 
L 240.78201 51.401606 
L 243.241638 52.939946 
L 245.611804 53.357647 
L 247.898789 52.508648 
L 250.108235 54.055056 
L 252.245226 46.750936 
L 254.314364 55.757225 
L 256.319827 57.680958 
L 258.265416 64.003131 
L 260.154603 54.166814 
L 261.990567 64.73901 
L 263.776223 66.519335 
L 265.514257 63.831959 
L 267.207141 61.967852 
L 268.857163 63.805239 
L 270.46644 72.685661 
L 272.036935 66.848467 
L 273.570474 73.77323 
L 275.068756 77.577866 
L 276.533365 77.510635 
L 277.965783 77.956901 
L 279.367394 82.842412 
L 280.739495 80.893015 
L 282.083303 81.531877 
L 283.399962 66.988274 
L 284.690547 78.008115 
L 285.95607 87.017151 
L 287.197486 85.65241 
L 288.415697 94.785292 
L 289.611555 90.814717 
L 290.785864 100.150165 
L 291.939387 94.677508 
L 293.072849 102.027179 
L 294.186934 103.125695 
L 295.282294 100.288448 
L 296.359548 102.254541 
L 297.419285 105.721676 
L 298.462066 107.193346 
L 299.488424 108.108853 
L 300.498869 89.905211 
L 301.493886 116.372651 
L 302.473941 113.197573 
L 303.439475 110.744533 
L 304.390914 114.230242 
L 305.328663 118.162619 
L 306.253109 114.8557 
L 307.164626 111.033369 
L 308.06357 117.572999 
L 308.950283 129.234123 
L 309.825093 127.16107 
L 310.688316 128.488455 
L 311.540255 133.624393 
L 312.381201 134.456004 
L 313.211433 129.003844 
L 314.031223 135.465388 
L 314.840828 140.280699 
L 315.640499 140.3562 
L 316.430477 146.763346 
L 317.210994 141.974616 
L 317.982274 150.811426 
L 318.744533 144.594507 
L 319.49798 154.188509 
L 320.242815 152.684177 
L 320.979234 157.885047 
L 321.707425 157.680729 
L 322.427569 164.459909 
L 323.139843 162.65312 
L 323.844416 162.873226 
L 324.541454 169.131579 
L 325.231115 172.185056 
L 325.913555 173.851739 
L 326.588922 176.618356 
L 327.257363 179.727597 
L 327.919017 181.494918 
L 328.574022 184.732831 
" style="fill:none;stroke:#ff7f0e;stroke-linecap:square;stroke-width:1.5;"/>
   </g>
   <g id="line2d_29">
    <path clip-path="url(#p5576d13a67)" d="M 73.618127 23.452233 
L 100.043258 24.330409 
L 118.792186 24.975825 
L 133.334985 25.502325 
L 145.217317 27.291623 
L 155.263685 26.386257 
L 163.966246 27.854806 
L 171.642448 31.007814 
L 178.509045 29.623401 
L 184.720637 31.499852 
L 190.391376 33.226234 
L 195.607951 33.01527 
L 200.437745 37.235365 
L 204.934175 35.748128 
L 209.140305 38.851774 
L 213.091357 37.57856 
L 216.816507 39.438799 
L 220.340197 42.02103 
L 223.683104 40.017841 
L 226.862876 44.149463 
L 229.894696 43.893037 
L 232.791724 44.946085 
L 235.565436 45.066716 
L 238.225903 44.517702 
L 240.78201 48.878971 
L 243.241638 52.681408 
L 245.611804 48.899591 
L 247.898789 50.332867 
L 250.108235 55.090761 
L 252.245226 51.655012 
L 254.314364 54.440838 
L 256.319827 56.184309 
L 258.265416 55.804695 
L 260.154603 58.482924 
L 261.990567 58.275952 
L 263.776223 60.752365 
L 265.514257 58.838757 
L 267.207141 58.37775 
L 268.857163 64.925645 
L 270.46644 65.817333 
L 272.036935 65.81444 
L 273.570474 65.736689 
L 275.068756 75.953491 
L 276.533365 73.941066 
L 277.965783 74.072949 
L 279.367394 71.26467 
L 280.739495 67.093363 
L 282.083303 74.491387 
L 283.399962 74.854445 
L 284.690547 79.710789 
L 285.95607 72.739282 
L 287.197486 84.317705 
L 288.415697 84.056966 
L 289.611555 85.333226 
L 290.785864 83.711402 
L 291.939387 82.698637 
L 293.072849 93.214703 
L 294.186934 95.176882 
L 295.282294 93.634935 
L 296.359548 95.787193 
L 297.419285 93.38252 
L 298.462066 94.442739 
L 299.488424 98.091146 
L 300.498869 102.015552 
L 301.493886 102.792731 
L 302.473941 103.175763 
L 303.439475 107.626742 
L 304.390914 111.923926 
L 305.328663 104.723272 
L 306.253109 115.69898 
L 307.164626 109.765214 
L 308.06357 114.722134 
L 308.950283 115.19135 
L 309.825093 111.822023 
L 310.688316 116.411884 
L 311.540255 121.50222 
L 312.381201 124.80564 
L 313.211433 126.165751 
L 314.031223 124.378191 
L 314.840828 124.674062 
L 315.640499 130.597286 
L 316.430477 131.12057 
L 317.210994 132.215343 
L 317.982274 138.624262 
L 318.744533 134.712049 
L 319.49798 140.143023 
L 320.242815 137.249413 
L 320.979234 141.770749 
L 321.707425 146.154404 
L 322.427569 142.879182 
L 323.139843 151.40099 
L 323.844416 153.560818 
L 324.541454 153.480432 
L 325.231115 154.517286 
L 325.913555 159.490502 
L 326.588922 159.499302 
L 327.257363 163.171884 
L 327.919017 165.874116 
L 328.574022 168.43041 
" style="fill:none;stroke:#2ca02c;stroke-linecap:square;stroke-width:1.5;"/>
   </g>
   <g id="line2d_30">
    <path clip-path="url(#p5576d13a67)" d="M 73.618127 23.60625 
L 100.043258 24.523429 
L 118.792186 25.955275 
L 133.334985 27.020523 
L 145.217317 26.499507 
L 155.263685 29.194777 
L 163.966246 29.756966 
L 171.642448 30.482748 
L 178.509045 32.953822 
L 184.720637 34.255117 
L 190.391376 32.666253 
L 195.607951 33.299306 
L 200.437745 36.036637 
L 204.934175 36.570595 
L 209.140305 39.046799 
L 213.091357 35.581662 
L 216.816507 41.203208 
L 220.340197 39.459813 
L 223.683104 41.377708 
L 226.862876 45.224339 
L 229.894696 44.113951 
L 232.791724 45.968408 
L 235.565436 44.771026 
L 238.225903 48.41154 
L 240.78201 46.967183 
L 243.241638 48.798454 
L 245.611804 52.593916 
L 247.898789 49.802133 
L 250.108235 54.134679 
L 252.245226 58.36601 
L 254.314364 54.743692 
L 256.319827 60.286138 
L 258.265416 56.32248 
L 260.154603 56.123821 
L 261.990567 59.626906 
L 263.776223 60.723788 
L 265.514257 62.664475 
L 267.207141 64.871283 
L 268.857163 67.302288 
L 270.46644 66.806902 
L 272.036935 71.160024 
L 273.570474 76.280141 
L 275.068756 71.149993 
L 276.533365 75.307899 
L 277.965783 80.808128 
L 279.367394 78.04837 
L 280.739495 83.885048 
L 282.083303 79.301892 
L 283.399962 79.197409 
L 284.690547 84.216438 
L 285.95607 86.493023 
L 287.197486 86.451494 
L 288.415697 90.689468 
L 289.611555 88.317118 
L 290.785864 90.816602 
L 291.939387 90.733249 
L 293.072849 96.283766 
L 294.186934 86.301288 
L 295.282294 92.804863 
L 296.359548 97.578016 
L 297.419285 103.065905 
L 298.462066 96.564358 
L 299.488424 106.484955 
L 300.498869 100.933383 
L 301.493886 103.522407 
L 302.473941 116.276763 
L 303.439475 107.240501 
L 304.390914 115.585759 
L 305.328663 112.029818 
L 306.253109 116.367531 
L 307.164626 119.519466 
L 308.06357 122.594984 
L 308.950283 124.315405 
L 309.825093 119.44944 
L 310.688316 124.635462 
L 311.540255 130.809297 
L 312.381201 125.639587 
L 313.211433 129.061624 
L 314.031223 138.808781 
L 314.840828 135.529107 
L 315.640499 140.197003 
L 316.430477 136.004518 
L 317.210994 145.144269 
L 317.982274 146.817846 
L 318.744533 143.875109 
L 319.49798 147.5241 
L 320.242815 148.222861 
L 320.979234 153.004792 
L 321.707425 149.774193 
L 322.427569 156.547443 
L 323.139843 157.518785 
L 323.844416 161.403988 
L 324.541454 163.690024 
L 325.231115 165.197675 
L 325.913555 168.834549 
L 326.588922 172.493123 
L 327.257363 174.122901 
L 327.919017 178.004383 
L 328.574022 180.448602 
" style="fill:none;stroke:#d62728;stroke-linecap:square;stroke-width:1.5;"/>
   </g>
   <g id="line2d_31">
    <path clip-path="url(#p5576d13a67)" d="M 73.618127 21.425962 
L 100.043258 21.327273 
L 118.792186 21.871947 
L 133.334985 21.626764 
L 145.217317 21.867473 
L 155.263685 21.502902 
L 163.966246 21.868045 
L 171.642448 21.991586 
L 178.509045 22.316103 
L 184.720637 22.357449 
L 190.391376 22.342695 
L 195.607951 22.283872 
L 200.437745 22.585757 
L 204.934175 22.195594 
L 209.140305 22.69571 
L 213.091357 22.742639 
L 216.816507 22.801792 
L 220.340197 23.613604 
L 223.683104 22.817016 
L 226.862876 23.248299 
L 229.894696 23.412236 
L 232.791724 23.242193 
L 235.565436 23.726814 
L 238.225903 23.139668 
L 240.78201 23.915758 
L 243.241638 24.679275 
L 245.611804 24.329682 
L 247.898789 24.365705 
L 250.108235 24.45456 
L 252.245226 24.144021 
L 254.314364 24.474373 
L 256.319827 24.347171 
L 258.265416 24.676806 
L 260.154603 25.324699 
L 261.990567 24.442464 
L 263.776223 25.314419 
L 265.514257 25.157324 
L 267.207141 25.334739 
L 268.857163 25.619673 
L 270.46644 26.622432 
L 272.036935 25.460264 
L 273.570474 25.192485 
L 275.068756 25.853703 
L 276.533365 26.418307 
L 277.965783 26.062513 
L 279.367394 26.84726 
L 280.739495 28.238719 
L 282.083303 27.521016 
L 283.399962 27.506234 
L 284.690547 27.519795 
L 285.95607 27.374864 
L 287.197486 28.578455 
L 288.415697 28.28815 
L 289.611555 27.529307 
L 290.785864 28.071229 
L 291.939387 28.053471 
L 293.072849 28.238797 
L 294.186934 29.115358 
L 295.282294 28.800345 
L 296.359548 28.811315 
L 297.419285 29.329801 
L 298.462066 29.314477 
L 299.488424 29.947046 
L 300.498869 29.219389 
L 301.493886 31.283015 
L 302.473941 29.970396 
L 303.439475 30.284176 
L 304.390914 30.397097 
L 305.328663 30.175443 
L 306.253109 31.155228 
L 307.164626 31.443252 
L 308.06357 29.817492 
L 308.950283 31.570128 
L 309.825093 32.246675 
L 310.688316 32.12431 
L 311.540255 32.721738 
L 312.381201 32.287805 
L 313.211433 33.099859 
L 314.031223 33.336697 
L 314.840828 33.502101 
L 315.640499 33.582107 
L 316.430477 33.863266 
L 317.210994 33.88557 
L 317.982274 34.146385 
L 318.744533 33.930639 
L 319.49798 34.752177 
L 320.242815 35.017566 
L 320.979234 34.876572 
L 321.707425 35.065769 
L 322.427569 35.777141 
L 323.139843 35.731673 
L 323.844416 35.720355 
L 324.541454 36.343119 
L 325.231115 36.943716 
L 325.913555 36.94127 
L 326.588922 37.223451 
L 327.257363 37.559493 
L 327.919017 37.940502 
L 328.574022 38.253774 
" style="fill:none;stroke:#9467bd;stroke-linecap:square;stroke-width:1.5;"/>
   </g>
   <g id="line2d_32">
    <path clip-path="url(#p5576d13a67)" d="M 73.618127 23.23423 
L 100.043258 25.020274 
L 118.792186 25.844177 
L 133.334985 27.356022 
L 145.217317 28.737849 
L 155.263685 31.050462 
L 163.966246 32.312589 
L 171.642448 33.405656 
L 178.509045 36.20587 
L 184.720637 35.443704 
L 190.391376 38.790269 
L 195.607951 41.999377 
L 200.437745 38.958533 
L 204.934175 41.769611 
L 209.140305 40.265024 
L 213.091357 47.978998 
L 216.816507 44.968704 
L 220.340197 51.02543 
L 223.683104 45.643519 
L 226.862876 50.660494 
L 229.894696 52.515962 
L 232.791724 53.659574 
L 235.565436 54.946928 
L 238.225903 58.82856 
L 240.78201 58.399875 
L 243.241638 60.821832 
L 245.611804 58.792884 
L 247.898789 61.922414 
L 250.108235 65.800657 
L 252.245226 56.928941 
L 254.314364 74.138965 
L 256.319827 68.890284 
L 258.265416 74.301404 
L 260.154603 68.532472 
L 261.990567 81.616885 
L 263.776223 85.349336 
L 265.514257 80.221472 
L 267.207141 77.931567 
L 268.857163 79.529584 
L 270.46644 77.84935 
L 272.036935 88.708895 
L 273.570474 90.822906 
L 275.068756 95.650137 
L 276.533365 99.022142 
L 277.965783 100.832108 
L 279.367394 95.048867 
L 280.739495 107.863926 
L 282.083303 104.742079 
L 283.399962 104.274823 
L 284.690547 116.070378 
L 285.95607 109.704152 
L 287.197486 105.580558 
L 288.415697 115.102439 
L 289.611555 119.63229 
L 290.785864 125.749546 
L 291.939387 127.462264 
L 293.072849 125.668506 
L 294.186934 120.300082 
L 295.282294 119.656466 
L 296.359548 123.031586 
L 297.419285 128.644248 
L 298.462066 124.871114 
L 299.488424 130.250935 
L 300.498869 128.445467 
L 301.493886 143.51391 
L 302.473941 137.429212 
L 303.439475 143.808796 
L 304.390914 145.748173 
L 305.328663 151.784471 
L 306.253109 151.810597 
L 307.164626 156.484693 
L 308.06357 155.645182 
L 308.950283 158.7735 
L 309.825093 163.354111 
L 310.688316 161.713095 
L 311.540255 159.639315 
L 312.381201 164.249247 
L 313.211433 160.511579 
L 314.031223 169.878434 
L 314.840828 171.15779 
L 315.640499 176.968065 
L 316.430477 180.736187 
L 317.210994 186.696743 
L 317.982274 182.227629 
L 318.744533 186.110557 
L 319.49798 192.091007 
L 320.242815 193.119578 
L 320.979234 197.973556 
L 321.707425 201.765363 
L 322.427569 194.420587 
L 323.139843 204.663167 
L 323.844416 208.86647 
L 324.541454 211.976523 
L 325.231115 214.090615 
L 325.913555 217.713905 
L 326.588922 220.41269 
L 327.257363 224.636128 
L 327.919017 228.273037 
L 328.574022 231.872727 
" style="fill:none;stroke:#8c564b;stroke-linecap:square;stroke-width:1.5;"/>
   </g>
   <g id="line2d_33">
    <path clip-path="url(#p5576d13a67)" d="M 73.618127 23.166597 
L 100.043258 25.541408 
L 118.792186 26.258272 
L 133.334985 27.725493 
L 145.217317 29.34236 
L 155.263685 30.685595 
L 163.966246 34.147493 
L 171.642448 33.785005 
L 178.509045 31.757606 
L 184.720637 36.48395 
L 190.391376 37.145437 
L 195.607951 37.936113 
L 200.437745 40.689655 
L 204.934175 42.885907 
L 209.140305 41.51446 
L 213.091357 49.428587 
L 216.816507 45.552967 
L 220.340197 44.045566 
L 223.683104 48.406571 
L 226.862876 47.948882 
L 229.894696 52.144065 
L 232.791724 57.026605 
L 235.565436 52.319152 
L 238.225903 57.421047 
L 240.78201 52.333263 
L 243.241638 56.581534 
L 245.611804 56.251735 
L 247.898789 66.569612 
L 250.108235 66.465887 
L 252.245226 65.579434 
L 254.314364 69.321722 
L 256.319827 73.593229 
L 258.265416 75.474622 
L 260.154603 72.793836 
L 261.990567 76.142627 
L 263.776223 80.244468 
L 265.514257 78.369548 
L 267.207141 79.799711 
L 268.857163 83.966066 
L 270.46644 88.650199 
L 272.036935 82.477919 
L 273.570474 88.570867 
L 275.068756 88.846825 
L 276.533365 95.168199 
L 277.965783 88.955202 
L 279.367394 104.39633 
L 280.739495 100.531217 
L 282.083303 100.706655 
L 283.399962 103.349719 
L 284.690547 101.212433 
L 285.95607 108.928871 
L 287.197486 112.845344 
L 288.415697 112.195182 
L 289.611555 117.615368 
L 290.785864 118.397032 
L 291.939387 117.729174 
L 293.072849 119.963448 
L 294.186934 123.450745 
L 295.282294 129.135661 
L 296.359548 128.533485 
L 297.419285 123.705335 
L 298.462066 121.366535 
L 299.488424 130.689796 
L 300.498869 126.250071 
L 301.493886 134.824045 
L 302.473941 134.371866 
L 303.439475 136.66831 
L 304.390914 143.908386 
L 305.328663 143.242968 
L 306.253109 153.313334 
L 307.164626 145.751702 
L 308.06357 148.206864 
L 308.950283 154.253225 
L 309.825093 156.840085 
L 310.688316 163.428631 
L 311.540255 161.936833 
L 312.381201 169.918658 
L 313.211433 163.530898 
L 314.031223 166.888762 
L 314.840828 175.238398 
L 315.640499 176.934669 
L 316.430477 172.527075 
L 317.210994 178.43511 
L 317.982274 183.862745 
L 318.744533 183.634308 
L 319.49798 187.662082 
L 320.242815 193.543033 
L 320.979234 193.546517 
L 321.707425 194.560803 
L 322.427569 199.785414 
L 323.139843 201.377292 
L 323.844416 204.503128 
L 324.541454 205.25923 
L 325.231115 212.368221 
L 325.913555 216.176024 
L 326.588922 218.155787 
L 327.257363 222.82118 
L 327.919017 225.381289 
L 328.574022 229.212499 
" style="fill:none;stroke:#e377c2;stroke-linecap:square;stroke-width:1.5;"/>
   </g>
   <g id="line2d_34">
    <path clip-path="url(#p5576d13a67)" d="M 73.618127 23.214011 
L 100.043258 25.077842 
L 118.792186 27.282429 
L 133.334985 27.765069 
L 145.217317 29.630585 
L 155.263685 30.728867 
L 163.966246 31.597313 
L 171.642448 34.457422 
L 178.509045 33.21344 
L 184.720637 33.624808 
L 190.391376 33.741879 
L 195.607951 38.897397 
L 200.437745 39.648666 
L 204.934175 40.407085 
L 209.140305 44.339984 
L 213.091357 47.368102 
L 216.816507 47.837078 
L 220.340197 47.561128 
L 223.683104 49.397666 
L 226.862876 47.626149 
L 229.894696 52.234408 
L 232.791724 54.539405 
L 235.565436 54.449183 
L 238.225903 53.519533 
L 240.78201 61.588486 
L 243.241638 62.030174 
L 245.611804 59.01332 
L 247.898789 59.267845 
L 250.108235 66.219346 
L 252.245226 68.039976 
L 254.314364 65.948715 
L 256.319827 73.783098 
L 258.265416 73.575224 
L 260.154603 68.28122 
L 261.990567 81.894045 
L 263.776223 81.588189 
L 265.514257 81.065667 
L 267.207141 73.435914 
L 268.857163 80.849833 
L 270.46644 81.772226 
L 272.036935 88.747666 
L 273.570474 87.814445 
L 275.068756 85.673267 
L 276.533365 86.605215 
L 277.965783 91.267529 
L 279.367394 93.213934 
L 280.739495 94.969829 
L 282.083303 103.567539 
L 283.399962 90.382623 
L 284.690547 101.507236 
L 285.95607 105.193612 
L 287.197486 98.925973 
L 288.415697 105.736307 
L 289.611555 113.746285 
L 290.785864 111.908685 
L 291.939387 119.842308 
L 293.072849 108.817949 
L 294.186934 116.838592 
L 295.282294 125.256005 
L 296.359548 118.324073 
L 297.419285 124.69613 
L 298.462066 130.092156 
L 299.488424 132.561051 
L 300.498869 111.510012 
L 301.493886 142.676702 
L 302.473941 127.156559 
L 303.439475 139.538173 
L 304.390914 145.029217 
L 305.328663 144.34191 
L 306.253109 149.51787 
L 307.164626 151.543093 
L 308.06357 144.392286 
L 308.950283 148.517974 
L 309.825093 152.200386 
L 310.688316 156.208341 
L 311.540255 152.148204 
L 312.381201 164.079645 
L 313.211433 163.612911 
L 314.031223 167.30215 
L 314.840828 164.916552 
L 315.640499 177.748781 
L 316.430477 177.88302 
L 317.210994 179.538262 
L 317.982274 180.418431 
L 318.744533 186.761989 
L 319.49798 190.161723 
L 320.242815 186.962021 
L 320.979234 193.75171 
L 321.707425 190.941516 
L 322.427569 195.606974 
L 323.139843 199.050364 
L 323.844416 205.62749 
L 324.541454 208.388357 
L 325.231115 209.738844 
L 325.913555 213.559433 
L 326.588922 217.401545 
L 327.257363 220.582761 
L 327.919017 223.378567 
L 328.574022 227.602184 
" style="fill:none;stroke:#7f7f7f;stroke-linecap:square;stroke-width:1.5;"/>
   </g>
   <g id="line2d_35">
    <path clip-path="url(#p5576d13a67)" d="M 73.618127 23.791955 
L 100.043258 25.208917 
L 118.792186 25.719914 
L 133.334985 27.513521 
L 145.217317 28.922748 
L 155.263685 30.490667 
L 163.966246 31.098314 
L 171.642448 33.227816 
L 178.509045 35.280879 
L 184.720637 34.967255 
L 190.391376 36.65834 
L 195.607951 39.016102 
L 200.437745 37.692317 
L 204.934175 39.287828 
L 209.140305 40.500618 
L 213.091357 43.492602 
L 216.816507 46.710147 
L 220.340197 45.784668 
L 223.683104 44.972472 
L 226.862876 53.476675 
L 229.894696 54.534907 
L 232.791724 52.943853 
L 235.565436 56.316236 
L 238.225903 58.707098 
L 240.78201 58.931466 
L 243.241638 56.744886 
L 245.611804 62.561603 
L 247.898789 67.19493 
L 250.108235 58.64023 
L 252.245226 66.256555 
L 254.314364 61.23778 
L 256.319827 69.851146 
L 258.265416 76.520375 
L 260.154603 68.837196 
L 261.990567 70.273692 
L 263.776223 81.573603 
L 265.514257 66.25323 
L 267.207141 80.873673 
L 268.857163 83.420008 
L 270.46644 79.831724 
L 272.036935 76.382961 
L 273.570474 90.013688 
L 275.068756 73.583027 
L 276.533365 87.450982 
L 277.965783 94.899846 
L 279.367394 94.933111 
L 280.739495 91.883088 
L 282.083303 95.748534 
L 283.399962 97.076603 
L 284.690547 103.228239 
L 285.95607 107.577015 
L 287.197486 101.451546 
L 288.415697 104.984331 
L 289.611555 107.919713 
L 290.785864 113.85043 
L 291.939387 103.413401 
L 293.072849 112.154823 
L 294.186934 118.748356 
L 295.282294 120.234219 
L 296.359548 126.520473 
L 297.419285 117.121283 
L 298.462066 126.350972 
L 299.488424 130.181762 
L 300.498869 126.525261 
L 301.493886 127.732425 
L 302.473941 138.133715 
L 303.439475 127.723369 
L 304.390914 138.463422 
L 305.328663 130.939562 
L 306.253109 135.610918 
L 307.164626 143.192718 
L 308.06357 145.510366 
L 308.950283 149.129816 
L 309.825093 134.106755 
L 310.688316 147.47515 
L 311.540255 156.192474 
L 312.381201 159.94595 
L 313.211433 158.735923 
L 314.031223 163.410907 
L 314.840828 161.694469 
L 315.640499 169.200601 
L 316.430477 167.78281 
L 317.210994 165.766639 
L 317.982274 174.951522 
L 318.744533 175.075182 
L 319.49798 180.317706 
L 320.242815 180.423556 
L 320.979234 187.340327 
L 321.707425 188.024384 
L 322.427569 191.913047 
L 323.139843 194.803868 
L 323.844416 198.35117 
L 324.541454 199.058385 
L 325.231115 200.111468 
L 325.913555 207.25906 
L 326.588922 208.750991 
L 327.257363 212.613549 
L 327.919017 215.975222 
L 328.574022 219.890477 
" style="fill:none;stroke:#bcbd22;stroke-linecap:square;stroke-width:1.5;"/>
   </g>
   <g id="patch_3">
    <path d="M 60.870332 242.4 
L 60.870332 10.8 
" style="fill:none;stroke:#000000;stroke-linecap:square;stroke-linejoin:miter;stroke-width:0.8;"/>
   </g>
   <g id="patch_4">
    <path d="M 341.321816 242.4 
L 341.321816 10.8 
" style="fill:none;stroke:#000000;stroke-linecap:square;stroke-linejoin:miter;stroke-width:0.8;"/>
   </g>
   <g id="patch_5">
    <path d="M 60.870332 242.4 
L 341.321816 242.4 
" style="fill:none;stroke:#000000;stroke-linecap:square;stroke-linejoin:miter;stroke-width:0.8;"/>
   </g>
   <g id="patch_6">
    <path d="M 60.870332 10.8 
L 341.321816 10.8 
" style="fill:none;stroke:#000000;stroke-linecap:square;stroke-linejoin:miter;stroke-width:0.8;"/>
   </g>
   <g id="legend_1">
    <g id="patch_7">
     <path d="M 364.344391 155.425 
L 416.344391 155.425 
Q 418.344391 155.425 418.344391 153.425 
L 418.344391 19.8 
Q 418.344391 17.8 416.344391 17.8 
L 364.344391 17.8 
Q 362.344391 17.8 362.344391 19.8 
L 362.344391 153.425 
Q 362.344391 155.425 364.344391 155.425 
z
" style="fill:#4c4c4c;opacity:0.5;stroke:#4c4c4c;stroke-linejoin:miter;"/>
    </g>
    <g id="patch_8">
     <path d="M 362.344391 153.425 
L 414.344391 153.425 
Q 416.344391 153.425 416.344391 151.425 
L 416.344391 17.8 
Q 416.344391 15.8 414.344391 15.8 
L 362.344391 15.8 
Q 360.344391 15.8 360.344391 17.8 
L 360.344391 151.425 
Q 360.344391 153.425 362.344391 153.425 
z
" style="fill:#ffffff;stroke:#cccccc;stroke-linejoin:miter;"/>
    </g>
    <g id="line2d_36">
     <path d="M 364.344391 23.898438 
L 384.344391 23.898438 
" style="fill:none;stroke:#1f77b4;stroke-linecap:square;stroke-width:1.5;"/>
    </g>
    <g id="line2d_37"/>
    <g id="text_13">
     <!-- $r_{V,V}$ -->
     <g transform="translate(392.344391 27.398438)scale(0.1 -0.1)">
      <defs>
       <path d="M 2853 2969 
Q 2766 3016 2653 3041 
Q 2541 3066 2413 3066 
Q 1953 3066 1609 2717 
Q 1266 2369 1153 1784 
L 800 0 
L 225 0 
L 909 3500 
L 1484 3500 
L 1375 2956 
Q 1603 3259 1920 3421 
Q 2238 3584 2597 3584 
Q 2691 3584 2781 3573 
Q 2872 3563 2963 3538 
L 2853 2969 
z
" id="DejaVuSans-Oblique-72" transform="scale(0.015625)"/>
       <path d="M 1319 0 
L 500 4666 
L 1119 4666 
L 1797 653 
L 4063 4666 
L 4750 4666 
L 2053 0 
L 1319 0 
z
" id="DejaVuSans-Oblique-56" transform="scale(0.015625)"/>
       <path d="M 750 794 
L 1409 794 
L 1409 256 
L 897 -744 
L 494 -744 
L 750 256 
L 750 794 
z
" id="DejaVuSans-2c" transform="scale(0.015625)"/>
      </defs>
      <use xlink:href="#DejaVuSans-Oblique-72"/>
      <use transform="translate(41.113281 -16.40625)scale(0.7)" xlink:href="#DejaVuSans-Oblique-56"/>
      <use transform="translate(88.999023 -16.40625)scale(0.7)" xlink:href="#DejaVuSans-2c"/>
      <use transform="translate(124.887695 -16.40625)scale(0.7)" xlink:href="#DejaVuSans-Oblique-56"/>
     </g>
    </g>
    <g id="line2d_38">
     <path d="M 364.344391 38.996875 
L 384.344391 38.996875 
" style="fill:none;stroke:#ff7f0e;stroke-linecap:square;stroke-width:1.5;"/>
    </g>
    <g id="line2d_39"/>
    <g id="text_14">
     <!-- $K_{V,V}$ -->
     <g transform="translate(392.344391 42.496875)scale(0.1 -0.1)">
      <defs>
       <path d="M 1081 4666 
L 1716 4666 
L 1331 2700 
L 3781 4666 
L 4622 4666 
L 1850 2438 
L 3878 0 
L 3109 0 
L 1247 2272 
L 806 0 
L 172 0 
L 1081 4666 
z
" id="DejaVuSans-Oblique-4b" transform="scale(0.015625)"/>
      </defs>
      <use transform="translate(0 0.09375)" xlink:href="#DejaVuSans-Oblique-4b"/>
      <use transform="translate(65.576172 -16.3125)scale(0.7)" xlink:href="#DejaVuSans-Oblique-56"/>
      <use transform="translate(113.461914 -16.3125)scale(0.7)" xlink:href="#DejaVuSans-2c"/>
      <use transform="translate(149.350586 -16.3125)scale(0.7)" xlink:href="#DejaVuSans-Oblique-56"/>
     </g>
    </g>
    <g id="line2d_40">
     <path d="M 364.344391 54.095312 
L 384.344391 54.095312 
" style="fill:none;stroke:#2ca02c;stroke-linecap:square;stroke-width:1.5;"/>
    </g>
    <g id="line2d_41"/>
    <g id="text_15">
     <!-- $r_{V,I}$ -->
     <g transform="translate(392.344391 57.595312)scale(0.1 -0.1)">
      <defs>
       <path d="M 1081 4666 
L 1716 4666 
L 806 0 
L 172 0 
L 1081 4666 
z
" id="DejaVuSans-Oblique-49" transform="scale(0.015625)"/>
      </defs>
      <use xlink:href="#DejaVuSans-Oblique-72"/>
      <use transform="translate(41.113281 -16.40625)scale(0.7)" xlink:href="#DejaVuSans-Oblique-56"/>
      <use transform="translate(88.999023 -16.40625)scale(0.7)" xlink:href="#DejaVuSans-2c"/>
      <use transform="translate(124.887695 -16.40625)scale(0.7)" xlink:href="#DejaVuSans-Oblique-49"/>
     </g>
    </g>
    <g id="line2d_42">
     <path d="M 364.344391 69.19375 
L 384.344391 69.19375 
" style="fill:none;stroke:#d62728;stroke-linecap:square;stroke-width:1.5;"/>
    </g>
    <g id="line2d_43"/>
    <g id="text_16">
     <!-- $d_{V}$ -->
     <g transform="translate(392.344391 72.69375)scale(0.1 -0.1)">
      <defs>
       <path d="M 2675 525 
Q 2444 222 2128 65 
Q 1813 -91 1428 -91 
Q 903 -91 598 267 
Q 294 625 294 1247 
Q 294 1766 478 2236 
Q 663 2706 1013 3078 
Q 1244 3325 1534 3454 
Q 1825 3584 2144 3584 
Q 2481 3584 2739 3421 
Q 2997 3259 3138 2956 
L 3513 4863 
L 4091 4863 
L 3144 0 
L 2566 0 
L 2675 525 
z
M 891 1350 
Q 891 897 1095 644 
Q 1300 391 1663 391 
Q 1931 391 2161 520 
Q 2391 650 2566 903 
Q 2750 1166 2856 1509 
Q 2963 1853 2963 2188 
Q 2963 2622 2758 2865 
Q 2553 3109 2194 3109 
Q 1922 3109 1687 2981 
Q 1453 2853 1288 2613 
Q 1106 2353 998 2009 
Q 891 1666 891 1350 
z
" id="DejaVuSans-Oblique-64" transform="scale(0.015625)"/>
      </defs>
      <use transform="translate(0 0.015625)" xlink:href="#DejaVuSans-Oblique-64"/>
      <use transform="translate(63.476562 -16.390625)scale(0.7)" xlink:href="#DejaVuSans-Oblique-56"/>
     </g>
    </g>
    <g id="line2d_44">
     <path d="M 364.344391 83.871875 
L 384.344391 83.871875 
" style="fill:none;stroke:#9467bd;stroke-linecap:square;stroke-width:1.5;"/>
    </g>
    <g id="line2d_45"/>
    <g id="text_17">
     <!-- $r_{I,V}$ -->
     <g transform="translate(392.344391 87.371875)scale(0.1 -0.1)">
      <use xlink:href="#DejaVuSans-Oblique-72"/>
      <use transform="translate(41.113281 -16.40625)scale(0.7)" xlink:href="#DejaVuSans-Oblique-49"/>
      <use transform="translate(61.757812 -16.40625)scale(0.7)" xlink:href="#DejaVuSans-2c"/>
      <use transform="translate(97.646484 -16.40625)scale(0.7)" xlink:href="#DejaVuSans-Oblique-56"/>
     </g>
    </g>
    <g id="line2d_46">
     <path d="M 364.344391 98.970313 
L 384.344391 98.970313 
" style="fill:none;stroke:#8c564b;stroke-linecap:square;stroke-width:1.5;"/>
    </g>
    <g id="line2d_47"/>
    <g id="text_18">
     <!-- $d_{I}$ -->
     <g transform="translate(392.344391 102.470313)scale(0.1 -0.1)">
      <use transform="translate(0 0.015625)" xlink:href="#DejaVuSans-Oblique-64"/>
      <use transform="translate(63.476562 -16.390625)scale(0.7)" xlink:href="#DejaVuSans-Oblique-49"/>
     </g>
    </g>
    <g id="line2d_48">
     <path d="M 364.344391 113.648438 
L 384.344391 113.648438 
" style="fill:none;stroke:#e377c2;stroke-linecap:square;stroke-width:1.5;"/>
    </g>
    <g id="line2d_49"/>
    <g id="text_19">
     <!-- $r_{M,I}$ -->
     <g transform="translate(392.344391 117.148438)scale(0.1 -0.1)">
      <defs>
       <path d="M 1081 4666 
L 2028 4666 
L 2572 1522 
L 4378 4666 
L 5350 4666 
L 4441 0 
L 3828 0 
L 4622 4091 
L 2791 897 
L 2175 897 
L 1581 4103 
L 788 0 
L 172 0 
L 1081 4666 
z
" id="DejaVuSans-Oblique-4d" transform="scale(0.015625)"/>
      </defs>
      <use xlink:href="#DejaVuSans-Oblique-72"/>
      <use transform="translate(41.113281 -16.40625)scale(0.7)" xlink:href="#DejaVuSans-Oblique-4d"/>
      <use transform="translate(101.508789 -16.40625)scale(0.7)" xlink:href="#DejaVuSans-2c"/>
      <use transform="translate(137.397461 -16.40625)scale(0.7)" xlink:href="#DejaVuSans-Oblique-49"/>
     </g>
    </g>
    <g id="line2d_50">
     <path d="M 364.344391 128.746875 
L 384.344391 128.746875 
" style="fill:none;stroke:#7f7f7f;stroke-linecap:square;stroke-width:1.5;"/>
    </g>
    <g id="line2d_51"/>
    <g id="text_20">
     <!-- $K_{M,I}$ -->
     <g transform="translate(392.344391 132.246875)scale(0.1 -0.1)">
      <use transform="translate(0 0.09375)" xlink:href="#DejaVuSans-Oblique-4b"/>
      <use transform="translate(65.576172 -16.3125)scale(0.7)" xlink:href="#DejaVuSans-Oblique-4d"/>
      <use transform="translate(125.97168 -16.3125)scale(0.7)" xlink:href="#DejaVuSans-2c"/>
      <use transform="translate(161.860352 -16.3125)scale(0.7)" xlink:href="#DejaVuSans-Oblique-49"/>
     </g>
    </g>
    <g id="line2d_52">
     <path d="M 364.344391 143.845313 
L 384.344391 143.845313 
" style="fill:none;stroke:#bcbd22;stroke-linecap:square;stroke-width:1.5;"/>
    </g>
    <g id="line2d_53"/>
    <g id="text_21">
     <!-- $d_{M}$ -->
     <g transform="translate(392.344391 147.345313)scale(0.1 -0.1)">
      <use transform="translate(0 0.015625)" xlink:href="#DejaVuSans-Oblique-64"/>
      <use transform="translate(63.476562 -16.390625)scale(0.7)" xlink:href="#DejaVuSans-Oblique-4d"/>
     </g>
    </g>
   </g>
  </g>
 </g>
 <defs>
  <clipPath id="p5576d13a67">
   <rect height="231.6" width="280.451484" x="60.870332" y="10.8"/>
  </clipPath>
 </defs>
</svg>
