<?xml version="1.0" encoding="utf-8" standalone="no"?>
<!DOCTYPE svg PUBLIC "-//W3C//DTD SVG 1.1//EN"
  "http://www.w3.org/Graphics/SVG/1.1/DTD/svg11.dtd">
<svg xmlns:xlink="http://www.w3.org/1999/xlink" width="432pt" height="288pt" viewBox="0 0 432 288" xmlns="http://www.w3.org/2000/svg" version="1.1">
 <metadata>
  <rdf:RDF xmlns:dc="http://purl.org/dc/elements/1.1/" xmlns:cc="http://creativecommons.org/ns#" xmlns:rdf="http://www.w3.org/1999/02/22-rdf-syntax-ns#">
   <cc:Work>
    <dc:type rdf:resource="http://purl.org/dc/dcmitype/StillImage"/>
    <dc:date>2022-05-10T12:00:34.901088</dc:date>
    <dc:format>image/svg+xml</dc:format>
    <dc:creator>
     <cc:Agent>
      <dc:title>Matplotlib v3.5.1, https://matplotlib.org/</dc:title>
     </cc:Agent>
    </dc:creator>
   </cc:Work>
  </rdf:RDF>
 </metadata>
 <defs>
  <style type="text/css">*{stroke-linejoin: round; stroke-linecap: butt}</style>
 </defs>
 <g id="figure_1">
  <g id="patch_1">
   <path d="M 0 288 
L 432 288 
L 432 0 
L 0 0 
L 0 288 
z
" style="fill: none"/>
  </g>
  <g id="axes_1">
   <g id="patch_2">
    <path d="M 62.425 241.1 
L 358.061816 241.1 
L 358.061816 16.68 
L 62.425 16.68 
z
" style="fill: #ffffff"/>
   </g>
   <g id="matplotlib.axis_1">
    <g id="xtick_1">
     <g id="line2d_1">
      <defs>
       <path id="m9fb0cc064f" d="M 0 0 
L 0 3.5 
" style="stroke: #000000; stroke-width: 0.8"/>
      </defs>
      <g>
       <use xlink:href="#m9fb0cc064f" x="84.198929" y="241.1" style="stroke: #000000; stroke-width: 0.8"/>
      </g>
     </g>
     <g id="text_1">
      <!-- 1.25 -->
      <g transform="translate(73.066116 255.698438)scale(0.1 -0.1)">
       <defs>
        <path id="DejaVuSans-31" d="M 794 531 
L 1825 531 
L 1825 4091 
L 703 3866 
L 703 4441 
L 1819 4666 
L 2450 4666 
L 2450 531 
L 3481 531 
L 3481 0 
L 794 0 
L 794 531 
z
" transform="scale(0.015625)"/>
        <path id="DejaVuSans-2e" d="M 684 794 
L 1344 794 
L 1344 0 
L 684 0 
L 684 794 
z
" transform="scale(0.015625)"/>
        <path id="DejaVuSans-32" d="M 1228 531 
L 3431 531 
L 3431 0 
L 469 0 
L 469 531 
Q 828 903 1448 1529 
Q 2069 2156 2228 2338 
Q 2531 2678 2651 2914 
Q 2772 3150 2772 3378 
Q 2772 3750 2511 3984 
Q 2250 4219 1831 4219 
Q 1534 4219 1204 4116 
Q 875 4013 500 3803 
L 500 4441 
Q 881 4594 1212 4672 
Q 1544 4750 1819 4750 
Q 2544 4750 2975 4387 
Q 3406 4025 3406 3419 
Q 3406 3131 3298 2873 
Q 3191 2616 2906 2266 
Q 2828 2175 2409 1742 
Q 1991 1309 1228 531 
z
" transform="scale(0.015625)"/>
        <path id="DejaVuSans-35" d="M 691 4666 
L 3169 4666 
L 3169 4134 
L 1269 4134 
L 1269 2991 
Q 1406 3038 1543 3061 
Q 1681 3084 1819 3084 
Q 2600 3084 3056 2656 
Q 3513 2228 3513 1497 
Q 3513 744 3044 326 
Q 2575 -91 1722 -91 
Q 1428 -91 1123 -41 
Q 819 9 494 109 
L 494 744 
Q 775 591 1075 516 
Q 1375 441 1709 441 
Q 2250 441 2565 725 
Q 2881 1009 2881 1497 
Q 2881 1984 2565 2268 
Q 2250 2553 1709 2553 
Q 1456 2553 1204 2497 
Q 953 2441 691 2322 
L 691 4666 
z
" transform="scale(0.015625)"/>
       </defs>
       <use xlink:href="#DejaVuSans-31"/>
       <use xlink:href="#DejaVuSans-2e" x="63.623047"/>
       <use xlink:href="#DejaVuSans-32" x="95.410156"/>
       <use xlink:href="#DejaVuSans-35" x="159.033203"/>
      </g>
     </g>
    </g>
    <g id="xtick_2">
     <g id="line2d_2">
      <g>
       <use xlink:href="#m9fb0cc064f" x="147.300058" y="241.1" style="stroke: #000000; stroke-width: 0.8"/>
      </g>
     </g>
     <g id="text_2">
      <!-- 2.0 -->
      <g transform="translate(139.348496 255.698438)scale(0.1 -0.1)">
       <defs>
        <path id="DejaVuSans-30" d="M 2034 4250 
Q 1547 4250 1301 3770 
Q 1056 3291 1056 2328 
Q 1056 1369 1301 889 
Q 1547 409 2034 409 
Q 2525 409 2770 889 
Q 3016 1369 3016 2328 
Q 3016 3291 2770 3770 
Q 2525 4250 2034 4250 
z
M 2034 4750 
Q 2819 4750 3233 4129 
Q 3647 3509 3647 2328 
Q 3647 1150 3233 529 
Q 2819 -91 2034 -91 
Q 1250 -91 836 529 
Q 422 1150 422 2328 
Q 422 3509 836 4129 
Q 1250 4750 2034 4750 
z
" transform="scale(0.015625)"/>
       </defs>
       <use xlink:href="#DejaVuSans-32"/>
       <use xlink:href="#DejaVuSans-2e" x="63.623047"/>
       <use xlink:href="#DejaVuSans-30" x="95.410156"/>
      </g>
     </g>
    </g>
    <g id="xtick_3">
     <g id="line2d_3">
      <g>
       <use xlink:href="#m9fb0cc064f" x="210.401188" y="241.1" style="stroke: #000000; stroke-width: 0.8"/>
      </g>
     </g>
     <g id="text_3">
      <!-- 3.0 -->
      <g transform="translate(202.449625 255.698438)scale(0.1 -0.1)">
       <defs>
        <path id="DejaVuSans-33" d="M 2597 2516 
Q 3050 2419 3304 2112 
Q 3559 1806 3559 1356 
Q 3559 666 3084 287 
Q 2609 -91 1734 -91 
Q 1441 -91 1130 -33 
Q 819 25 488 141 
L 488 750 
Q 750 597 1062 519 
Q 1375 441 1716 441 
Q 2309 441 2620 675 
Q 2931 909 2931 1356 
Q 2931 1769 2642 2001 
Q 2353 2234 1838 2234 
L 1294 2234 
L 1294 2753 
L 1863 2753 
Q 2328 2753 2575 2939 
Q 2822 3125 2822 3475 
Q 2822 3834 2567 4026 
Q 2313 4219 1838 4219 
Q 1578 4219 1281 4162 
Q 984 4106 628 3988 
L 628 4550 
Q 988 4650 1302 4700 
Q 1616 4750 1894 4750 
Q 2613 4750 3031 4423 
Q 3450 4097 3450 3541 
Q 3450 3153 3228 2886 
Q 3006 2619 2597 2516 
z
" transform="scale(0.015625)"/>
       </defs>
       <use xlink:href="#DejaVuSans-33"/>
       <use xlink:href="#DejaVuSans-2e" x="63.623047"/>
       <use xlink:href="#DejaVuSans-30" x="95.410156"/>
      </g>
     </g>
    </g>
    <g id="xtick_4">
     <g id="line2d_4">
      <g>
       <use xlink:href="#m9fb0cc064f" x="273.502317" y="241.1" style="stroke: #000000; stroke-width: 0.8"/>
      </g>
     </g>
     <g id="text_4">
      <!-- 4.0 -->
      <g transform="translate(265.550755 255.698438)scale(0.1 -0.1)">
       <defs>
        <path id="DejaVuSans-34" d="M 2419 4116 
L 825 1625 
L 2419 1625 
L 2419 4116 
z
M 2253 4666 
L 3047 4666 
L 3047 1625 
L 3713 1625 
L 3713 1100 
L 3047 1100 
L 3047 0 
L 2419 0 
L 2419 1100 
L 313 1100 
L 313 1709 
L 2253 4666 
z
" transform="scale(0.015625)"/>
       </defs>
       <use xlink:href="#DejaVuSans-34"/>
       <use xlink:href="#DejaVuSans-2e" x="63.623047"/>
       <use xlink:href="#DejaVuSans-30" x="95.410156"/>
      </g>
     </g>
    </g>
    <g id="xtick_5">
     <g id="line2d_5">
      <g>
       <use xlink:href="#m9fb0cc064f" x="336.603447" y="241.1" style="stroke: #000000; stroke-width: 0.8"/>
      </g>
     </g>
     <g id="text_5">
      <!-- 5.0 -->
      <g transform="translate(328.651885 255.698438)scale(0.1 -0.1)">
       <use xlink:href="#DejaVuSans-35"/>
       <use xlink:href="#DejaVuSans-2e" x="63.623047"/>
       <use xlink:href="#DejaVuSans-30" x="95.410156"/>
      </g>
     </g>
    </g>
    <g id="text_6">
     <!-- Parameter $K_{V,V}$ H5N1:H1N1 ratio -->
     <g transform="translate(128.593408 269.378125)scale(0.1 -0.1)">
      <defs>
       <path id="DejaVuSans-50" d="M 1259 4147 
L 1259 2394 
L 2053 2394 
Q 2494 2394 2734 2622 
Q 2975 2850 2975 3272 
Q 2975 3691 2734 3919 
Q 2494 4147 2053 4147 
L 1259 4147 
z
M 628 4666 
L 2053 4666 
Q 2838 4666 3239 4311 
Q 3641 3956 3641 3272 
Q 3641 2581 3239 2228 
Q 2838 1875 2053 1875 
L 1259 1875 
L 1259 0 
L 628 0 
L 628 4666 
z
" transform="scale(0.015625)"/>
       <path id="DejaVuSans-61" d="M 2194 1759 
Q 1497 1759 1228 1600 
Q 959 1441 959 1056 
Q 959 750 1161 570 
Q 1363 391 1709 391 
Q 2188 391 2477 730 
Q 2766 1069 2766 1631 
L 2766 1759 
L 2194 1759 
z
M 3341 1997 
L 3341 0 
L 2766 0 
L 2766 531 
Q 2569 213 2275 61 
Q 1981 -91 1556 -91 
Q 1019 -91 701 211 
Q 384 513 384 1019 
Q 384 1609 779 1909 
Q 1175 2209 1959 2209 
L 2766 2209 
L 2766 2266 
Q 2766 2663 2505 2880 
Q 2244 3097 1772 3097 
Q 1472 3097 1187 3025 
Q 903 2953 641 2809 
L 641 3341 
Q 956 3463 1253 3523 
Q 1550 3584 1831 3584 
Q 2591 3584 2966 3190 
Q 3341 2797 3341 1997 
z
" transform="scale(0.015625)"/>
       <path id="DejaVuSans-72" d="M 2631 2963 
Q 2534 3019 2420 3045 
Q 2306 3072 2169 3072 
Q 1681 3072 1420 2755 
Q 1159 2438 1159 1844 
L 1159 0 
L 581 0 
L 581 3500 
L 1159 3500 
L 1159 2956 
Q 1341 3275 1631 3429 
Q 1922 3584 2338 3584 
Q 2397 3584 2469 3576 
Q 2541 3569 2628 3553 
L 2631 2963 
z
" transform="scale(0.015625)"/>
       <path id="DejaVuSans-6d" d="M 3328 2828 
Q 3544 3216 3844 3400 
Q 4144 3584 4550 3584 
Q 5097 3584 5394 3201 
Q 5691 2819 5691 2113 
L 5691 0 
L 5113 0 
L 5113 2094 
Q 5113 2597 4934 2840 
Q 4756 3084 4391 3084 
Q 3944 3084 3684 2787 
Q 3425 2491 3425 1978 
L 3425 0 
L 2847 0 
L 2847 2094 
Q 2847 2600 2669 2842 
Q 2491 3084 2119 3084 
Q 1678 3084 1418 2786 
Q 1159 2488 1159 1978 
L 1159 0 
L 581 0 
L 581 3500 
L 1159 3500 
L 1159 2956 
Q 1356 3278 1631 3431 
Q 1906 3584 2284 3584 
Q 2666 3584 2933 3390 
Q 3200 3197 3328 2828 
z
" transform="scale(0.015625)"/>
       <path id="DejaVuSans-65" d="M 3597 1894 
L 3597 1613 
L 953 1613 
Q 991 1019 1311 708 
Q 1631 397 2203 397 
Q 2534 397 2845 478 
Q 3156 559 3463 722 
L 3463 178 
Q 3153 47 2828 -22 
Q 2503 -91 2169 -91 
Q 1331 -91 842 396 
Q 353 884 353 1716 
Q 353 2575 817 3079 
Q 1281 3584 2069 3584 
Q 2775 3584 3186 3129 
Q 3597 2675 3597 1894 
z
M 3022 2063 
Q 3016 2534 2758 2815 
Q 2500 3097 2075 3097 
Q 1594 3097 1305 2825 
Q 1016 2553 972 2059 
L 3022 2063 
z
" transform="scale(0.015625)"/>
       <path id="DejaVuSans-74" d="M 1172 4494 
L 1172 3500 
L 2356 3500 
L 2356 3053 
L 1172 3053 
L 1172 1153 
Q 1172 725 1289 603 
Q 1406 481 1766 481 
L 2356 481 
L 2356 0 
L 1766 0 
Q 1100 0 847 248 
Q 594 497 594 1153 
L 594 3053 
L 172 3053 
L 172 3500 
L 594 3500 
L 594 4494 
L 1172 4494 
z
" transform="scale(0.015625)"/>
       <path id="DejaVuSans-20" transform="scale(0.015625)"/>
       <path id="DejaVuSans-Oblique-4b" d="M 1081 4666 
L 1716 4666 
L 1331 2700 
L 3781 4666 
L 4622 4666 
L 1850 2438 
L 3878 0 
L 3109 0 
L 1247 2272 
L 806 0 
L 172 0 
L 1081 4666 
z
" transform="scale(0.015625)"/>
       <path id="DejaVuSans-Oblique-56" d="M 1319 0 
L 500 4666 
L 1119 4666 
L 1797 653 
L 4063 4666 
L 4750 4666 
L 2053 0 
L 1319 0 
z
" transform="scale(0.015625)"/>
       <path id="DejaVuSans-2c" d="M 750 794 
L 1409 794 
L 1409 256 
L 897 -744 
L 494 -744 
L 750 256 
L 750 794 
z
" transform="scale(0.015625)"/>
       <path id="DejaVuSans-48" d="M 628 4666 
L 1259 4666 
L 1259 2753 
L 3553 2753 
L 3553 4666 
L 4184 4666 
L 4184 0 
L 3553 0 
L 3553 2222 
L 1259 2222 
L 1259 0 
L 628 0 
L 628 4666 
z
" transform="scale(0.015625)"/>
       <path id="DejaVuSans-4e" d="M 628 4666 
L 1478 4666 
L 3547 763 
L 3547 4666 
L 4159 4666 
L 4159 0 
L 3309 0 
L 1241 3903 
L 1241 0 
L 628 0 
L 628 4666 
z
" transform="scale(0.015625)"/>
       <path id="DejaVuSans-3a" d="M 750 794 
L 1409 794 
L 1409 0 
L 750 0 
L 750 794 
z
M 750 3309 
L 1409 3309 
L 1409 2516 
L 750 2516 
L 750 3309 
z
" transform="scale(0.015625)"/>
       <path id="DejaVuSans-69" d="M 603 3500 
L 1178 3500 
L 1178 0 
L 603 0 
L 603 3500 
z
M 603 4863 
L 1178 4863 
L 1178 4134 
L 603 4134 
L 603 4863 
z
" transform="scale(0.015625)"/>
       <path id="DejaVuSans-6f" d="M 1959 3097 
Q 1497 3097 1228 2736 
Q 959 2375 959 1747 
Q 959 1119 1226 758 
Q 1494 397 1959 397 
Q 2419 397 2687 759 
Q 2956 1122 2956 1747 
Q 2956 2369 2687 2733 
Q 2419 3097 1959 3097 
z
M 1959 3584 
Q 2709 3584 3137 3096 
Q 3566 2609 3566 1747 
Q 3566 888 3137 398 
Q 2709 -91 1959 -91 
Q 1206 -91 779 398 
Q 353 888 353 1747 
Q 353 2609 779 3096 
Q 1206 3584 1959 3584 
z
" transform="scale(0.015625)"/>
      </defs>
      <use xlink:href="#DejaVuSans-50" transform="translate(0 0.015625)"/>
      <use xlink:href="#DejaVuSans-61" transform="translate(60.302734 0.015625)"/>
      <use xlink:href="#DejaVuSans-72" transform="translate(121.582031 0.015625)"/>
      <use xlink:href="#DejaVuSans-61" transform="translate(162.695312 0.015625)"/>
      <use xlink:href="#DejaVuSans-6d" transform="translate(223.974609 0.015625)"/>
      <use xlink:href="#DejaVuSans-65" transform="translate(321.386719 0.015625)"/>
      <use xlink:href="#DejaVuSans-74" transform="translate(382.910156 0.015625)"/>
      <use xlink:href="#DejaVuSans-65" transform="translate(422.119141 0.015625)"/>
      <use xlink:href="#DejaVuSans-72" transform="translate(483.642578 0.015625)"/>
      <use xlink:href="#DejaVuSans-20" transform="translate(524.755859 0.015625)"/>
      <use xlink:href="#DejaVuSans-Oblique-4b" transform="translate(556.542969 0.015625)"/>
      <use xlink:href="#DejaVuSans-Oblique-56" transform="translate(622.119141 -16.390625)scale(0.7)"/>
      <use xlink:href="#DejaVuSans-2c" transform="translate(670.004883 -16.390625)scale(0.7)"/>
      <use xlink:href="#DejaVuSans-Oblique-56" transform="translate(705.893555 -16.390625)scale(0.7)"/>
      <use xlink:href="#DejaVuSans-20" transform="translate(756.513672 0.015625)"/>
      <use xlink:href="#DejaVuSans-48" transform="translate(788.300781 0.015625)"/>
      <use xlink:href="#DejaVuSans-35" transform="translate(863.496094 0.015625)"/>
      <use xlink:href="#DejaVuSans-4e" transform="translate(927.119141 0.015625)"/>
      <use xlink:href="#DejaVuSans-31" transform="translate(1001.923828 0.015625)"/>
      <use xlink:href="#DejaVuSans-3a" transform="translate(1065.546875 0.015625)"/>
      <use xlink:href="#DejaVuSans-48" transform="translate(1093.363281 0.015625)"/>
      <use xlink:href="#DejaVuSans-31" transform="translate(1168.558594 0.015625)"/>
      <use xlink:href="#DejaVuSans-4e" transform="translate(1232.181641 0.015625)"/>
      <use xlink:href="#DejaVuSans-31" transform="translate(1306.986328 0.015625)"/>
      <use xlink:href="#DejaVuSans-20" transform="translate(1370.609375 0.015625)"/>
      <use xlink:href="#DejaVuSans-72" transform="translate(1402.396484 0.015625)"/>
      <use xlink:href="#DejaVuSans-61" transform="translate(1443.509766 0.015625)"/>
      <use xlink:href="#DejaVuSans-74" transform="translate(1504.789062 0.015625)"/>
      <use xlink:href="#DejaVuSans-69" transform="translate(1543.998047 0.015625)"/>
      <use xlink:href="#DejaVuSans-6f" transform="translate(1571.78125 0.015625)"/>
     </g>
    </g>
   </g>
   <g id="matplotlib.axis_2">
    <g id="ytick_1">
     <g id="line2d_6">
      <defs>
       <path id="ma85108e0fc" d="M 0 0 
L -3.5 0 
" style="stroke: #000000; stroke-width: 0.8"/>
      </defs>
      <g>
       <use xlink:href="#ma85108e0fc" x="62.425" y="230.650273" style="stroke: #000000; stroke-width: 0.8"/>
      </g>
     </g>
     <g id="text_7">
      <!-- −0.50 -->
      <g transform="translate(24.779688 234.449492)scale(0.1 -0.1)">
       <defs>
        <path id="DejaVuSans-2212" d="M 678 2272 
L 4684 2272 
L 4684 1741 
L 678 1741 
L 678 2272 
z
" transform="scale(0.015625)"/>
       </defs>
       <use xlink:href="#DejaVuSans-2212"/>
       <use xlink:href="#DejaVuSans-30" x="83.789062"/>
       <use xlink:href="#DejaVuSans-2e" x="147.412109"/>
       <use xlink:href="#DejaVuSans-35" x="179.199219"/>
       <use xlink:href="#DejaVuSans-30" x="242.822266"/>
      </g>
     </g>
    </g>
    <g id="ytick_2">
     <g id="line2d_7">
      <g>
       <use xlink:href="#ma85108e0fc" x="62.425" y="203.393704" style="stroke: #000000; stroke-width: 0.8"/>
      </g>
     </g>
     <g id="text_8">
      <!-- −0.25 -->
      <g transform="translate(24.779688 207.192923)scale(0.1 -0.1)">
       <use xlink:href="#DejaVuSans-2212"/>
       <use xlink:href="#DejaVuSans-30" x="83.789062"/>
       <use xlink:href="#DejaVuSans-2e" x="147.412109"/>
       <use xlink:href="#DejaVuSans-32" x="179.199219"/>
       <use xlink:href="#DejaVuSans-35" x="242.822266"/>
      </g>
     </g>
    </g>
    <g id="ytick_3">
     <g id="line2d_8">
      <g>
       <use xlink:href="#ma85108e0fc" x="62.425" y="176.137135" style="stroke: #000000; stroke-width: 0.8"/>
      </g>
     </g>
     <g id="text_9">
      <!-- 0.00 -->
      <g transform="translate(33.159375 179.936353)scale(0.1 -0.1)">
       <use xlink:href="#DejaVuSans-30"/>
       <use xlink:href="#DejaVuSans-2e" x="63.623047"/>
       <use xlink:href="#DejaVuSans-30" x="95.410156"/>
       <use xlink:href="#DejaVuSans-30" x="159.033203"/>
      </g>
     </g>
    </g>
    <g id="ytick_4">
     <g id="line2d_9">
      <g>
       <use xlink:href="#ma85108e0fc" x="62.425" y="148.880565" style="stroke: #000000; stroke-width: 0.8"/>
      </g>
     </g>
     <g id="text_10">
      <!-- 0.25 -->
      <g transform="translate(33.159375 152.679784)scale(0.1 -0.1)">
       <use xlink:href="#DejaVuSans-30"/>
       <use xlink:href="#DejaVuSans-2e" x="63.623047"/>
       <use xlink:href="#DejaVuSans-32" x="95.410156"/>
       <use xlink:href="#DejaVuSans-35" x="159.033203"/>
      </g>
     </g>
    </g>
    <g id="ytick_5">
     <g id="line2d_10">
      <g>
       <use xlink:href="#ma85108e0fc" x="62.425" y="121.623996" style="stroke: #000000; stroke-width: 0.8"/>
      </g>
     </g>
     <g id="text_11">
      <!-- 0.50 -->
      <g transform="translate(33.159375 125.423215)scale(0.1 -0.1)">
       <use xlink:href="#DejaVuSans-30"/>
       <use xlink:href="#DejaVuSans-2e" x="63.623047"/>
       <use xlink:href="#DejaVuSans-35" x="95.410156"/>
       <use xlink:href="#DejaVuSans-30" x="159.033203"/>
      </g>
     </g>
    </g>
    <g id="ytick_6">
     <g id="line2d_11">
      <g>
       <use xlink:href="#ma85108e0fc" x="62.425" y="94.367427" style="stroke: #000000; stroke-width: 0.8"/>
      </g>
     </g>
     <g id="text_12">
      <!-- 0.75 -->
      <g transform="translate(33.159375 98.166646)scale(0.1 -0.1)">
       <defs>
        <path id="DejaVuSans-37" d="M 525 4666 
L 3525 4666 
L 3525 4397 
L 1831 0 
L 1172 0 
L 2766 4134 
L 525 4134 
L 525 4666 
z
" transform="scale(0.015625)"/>
       </defs>
       <use xlink:href="#DejaVuSans-30"/>
       <use xlink:href="#DejaVuSans-2e" x="63.623047"/>
       <use xlink:href="#DejaVuSans-37" x="95.410156"/>
       <use xlink:href="#DejaVuSans-35" x="159.033203"/>
      </g>
     </g>
    </g>
    <g id="ytick_7">
     <g id="line2d_12">
      <g>
       <use xlink:href="#ma85108e0fc" x="62.425" y="67.110858" style="stroke: #000000; stroke-width: 0.8"/>
      </g>
     </g>
     <g id="text_13">
      <!-- 1.00 -->
      <g transform="translate(33.159375 70.910076)scale(0.1 -0.1)">
       <use xlink:href="#DejaVuSans-31"/>
       <use xlink:href="#DejaVuSans-2e" x="63.623047"/>
       <use xlink:href="#DejaVuSans-30" x="95.410156"/>
       <use xlink:href="#DejaVuSans-30" x="159.033203"/>
      </g>
     </g>
    </g>
    <g id="ytick_8">
     <g id="line2d_13">
      <g>
       <use xlink:href="#ma85108e0fc" x="62.425" y="39.854288" style="stroke: #000000; stroke-width: 0.8"/>
      </g>
     </g>
     <g id="text_14">
      <!-- 1.25 -->
      <g transform="translate(33.159375 43.653507)scale(0.1 -0.1)">
       <use xlink:href="#DejaVuSans-31"/>
       <use xlink:href="#DejaVuSans-2e" x="63.623047"/>
       <use xlink:href="#DejaVuSans-32" x="95.410156"/>
       <use xlink:href="#DejaVuSans-35" x="159.033203"/>
      </g>
     </g>
    </g>
    <g id="text_15">
     <!-- SPOT Value -->
     <g transform="translate(18.7 157.389219)rotate(-90)scale(0.1 -0.1)">
      <defs>
       <path id="DejaVuSans-53" d="M 3425 4513 
L 3425 3897 
Q 3066 4069 2747 4153 
Q 2428 4238 2131 4238 
Q 1616 4238 1336 4038 
Q 1056 3838 1056 3469 
Q 1056 3159 1242 3001 
Q 1428 2844 1947 2747 
L 2328 2669 
Q 3034 2534 3370 2195 
Q 3706 1856 3706 1288 
Q 3706 609 3251 259 
Q 2797 -91 1919 -91 
Q 1588 -91 1214 -16 
Q 841 59 441 206 
L 441 856 
Q 825 641 1194 531 
Q 1563 422 1919 422 
Q 2459 422 2753 634 
Q 3047 847 3047 1241 
Q 3047 1584 2836 1778 
Q 2625 1972 2144 2069 
L 1759 2144 
Q 1053 2284 737 2584 
Q 422 2884 422 3419 
Q 422 4038 858 4394 
Q 1294 4750 2059 4750 
Q 2388 4750 2728 4690 
Q 3069 4631 3425 4513 
z
" transform="scale(0.015625)"/>
       <path id="DejaVuSans-4f" d="M 2522 4238 
Q 1834 4238 1429 3725 
Q 1025 3213 1025 2328 
Q 1025 1447 1429 934 
Q 1834 422 2522 422 
Q 3209 422 3611 934 
Q 4013 1447 4013 2328 
Q 4013 3213 3611 3725 
Q 3209 4238 2522 4238 
z
M 2522 4750 
Q 3503 4750 4090 4092 
Q 4678 3434 4678 2328 
Q 4678 1225 4090 567 
Q 3503 -91 2522 -91 
Q 1538 -91 948 565 
Q 359 1222 359 2328 
Q 359 3434 948 4092 
Q 1538 4750 2522 4750 
z
" transform="scale(0.015625)"/>
       <path id="DejaVuSans-54" d="M -19 4666 
L 3928 4666 
L 3928 4134 
L 2272 4134 
L 2272 0 
L 1638 0 
L 1638 4134 
L -19 4134 
L -19 4666 
z
" transform="scale(0.015625)"/>
       <path id="DejaVuSans-56" d="M 1831 0 
L 50 4666 
L 709 4666 
L 2188 738 
L 3669 4666 
L 4325 4666 
L 2547 0 
L 1831 0 
z
" transform="scale(0.015625)"/>
       <path id="DejaVuSans-6c" d="M 603 4863 
L 1178 4863 
L 1178 0 
L 603 0 
L 603 4863 
z
" transform="scale(0.015625)"/>
       <path id="DejaVuSans-75" d="M 544 1381 
L 544 3500 
L 1119 3500 
L 1119 1403 
Q 1119 906 1312 657 
Q 1506 409 1894 409 
Q 2359 409 2629 706 
Q 2900 1003 2900 1516 
L 2900 3500 
L 3475 3500 
L 3475 0 
L 2900 0 
L 2900 538 
Q 2691 219 2414 64 
Q 2138 -91 1772 -91 
Q 1169 -91 856 284 
Q 544 659 544 1381 
z
M 1991 3584 
L 1991 3584 
z
" transform="scale(0.015625)"/>
      </defs>
      <use xlink:href="#DejaVuSans-53"/>
      <use xlink:href="#DejaVuSans-50" x="63.476562"/>
      <use xlink:href="#DejaVuSans-4f" x="123.779297"/>
      <use xlink:href="#DejaVuSans-54" x="202.490234"/>
      <use xlink:href="#DejaVuSans-20" x="263.574219"/>
      <use xlink:href="#DejaVuSans-56" x="295.361328"/>
      <use xlink:href="#DejaVuSans-61" x="356.019531"/>
      <use xlink:href="#DejaVuSans-6c" x="417.298828"/>
      <use xlink:href="#DejaVuSans-75" x="445.082031"/>
      <use xlink:href="#DejaVuSans-65" x="508.460938"/>
     </g>
    </g>
   </g>
   <g id="LineCollection_1">
    <path d="M 89.269476 72.876908 
L 89.269476 69.907832 
" clip-path="url(#p1a467767c6)" style="fill: none; stroke: #1f77b4; stroke-width: 1.5"/>
    <path d="M 152.370606 94.605173 
L 152.370606 83.469346 
" clip-path="url(#p1a467767c6)" style="fill: none; stroke: #1f77b4; stroke-width: 1.5"/>
    <path d="M 215.471735 123.738457 
L 215.471735 105.652162 
" clip-path="url(#p1a467767c6)" style="fill: none; stroke: #1f77b4; stroke-width: 1.5"/>
    <path d="M 278.572865 163.984441 
L 278.572865 133.979989 
" clip-path="url(#p1a467767c6)" style="fill: none; stroke: #1f77b4; stroke-width: 1.5"/>
    <path d="M 341.673995 221.503337 
L 341.673995 180.025626 
" clip-path="url(#p1a467767c6)" style="fill: none; stroke: #1f77b4; stroke-width: 1.5"/>
   </g>
   <g id="LineCollection_2">
    <path d="M 75.863037 74.190101 
L 75.863037 71.225649 
" clip-path="url(#p1a467767c6)" style="fill: none; stroke: #ff7f0e; stroke-width: 1.5"/>
    <path d="M 138.964167 104.69148 
L 138.964167 93.573728 
" clip-path="url(#p1a467767c6)" style="fill: none; stroke: #ff7f0e; stroke-width: 1.5"/>
    <path d="M 202.065296 144.592948 
L 202.065296 126.539678 
" clip-path="url(#p1a467767c6)" style="fill: none; stroke: #ff7f0e; stroke-width: 1.5"/>
    <path d="M 265.166426 183.053922 
L 265.166426 153.110322 
" clip-path="url(#p1a467767c6)" style="fill: none; stroke: #ff7f0e; stroke-width: 1.5"/>
    <path d="M 328.267555 224.736648 
L 328.267555 183.329883 
" clip-path="url(#p1a467767c6)" style="fill: none; stroke: #ff7f0e; stroke-width: 1.5"/>
   </g>
   <g id="LineCollection_3">
    <path d="M 92.219261 69.28498 
L 92.219261 66.319271 
" clip-path="url(#p1a467767c6)" style="fill: none; stroke: #2ca02c; stroke-width: 1.5"/>
    <path d="M 155.320391 82.776345 
L 155.320391 71.653676 
" clip-path="url(#p1a467767c6)" style="fill: none; stroke: #2ca02c; stroke-width: 1.5"/>
    <path d="M 218.42152 92.950411 
L 218.42152 74.893325 
" clip-path="url(#p1a467767c6)" style="fill: none; stroke: #2ca02c; stroke-width: 1.5"/>
    <path d="M 281.52265 94.097271 
L 281.52265 64.141549 
" clip-path="url(#p1a467767c6)" style="fill: none; stroke: #2ca02c; stroke-width: 1.5"/>
    <path d="M 344.623779 104.642753 
L 344.623779 63.209235 
" clip-path="url(#p1a467767c6)" style="fill: none; stroke: #2ca02c; stroke-width: 1.5"/>
   </g>
   <g id="LineCollection_4">
    <path d="M 78.427255 73.278418 
L 78.427255 70.311438 
" clip-path="url(#p1a467767c6)" style="fill: none; stroke: #d62728; stroke-width: 1.5"/>
    <path d="M 141.528384 98.444482 
L 141.528384 87.317025 
" clip-path="url(#p1a467767c6)" style="fill: none; stroke: #d62728; stroke-width: 1.5"/>
    <path d="M 204.629514 138.858772 
L 204.629514 120.778663 
" clip-path="url(#p1a467767c6)" style="fill: none; stroke: #d62728; stroke-width: 1.5"/>
    <path d="M 267.730644 179.82623 
L 267.730644 149.836827 
" clip-path="url(#p1a467767c6)" style="fill: none; stroke: #d62728; stroke-width: 1.5"/>
    <path d="M 330.831773 230.899091 
L 330.831773 189.437397 
" clip-path="url(#p1a467767c6)" style="fill: none; stroke: #d62728; stroke-width: 1.5"/>
   </g>
   <g id="LineCollection_5">
    <path d="M 83.588891 68.329203 
L 83.588891 65.361395 
" clip-path="url(#p1a467767c6)" style="fill: none; stroke: #9467bd; stroke-width: 1.5"/>
    <path d="M 146.69002 74.960983 
L 146.69002 63.830493 
" clip-path="url(#p1a467767c6)" style="fill: none; stroke: #9467bd; stroke-width: 1.5"/>
    <path d="M 209.79115 78.546637 
L 209.79115 60.468113 
" clip-path="url(#p1a467767c6)" style="fill: none; stroke: #9467bd; stroke-width: 1.5"/>
    <path d="M 272.89228 83.469507 
L 272.89228 53.483279 
" clip-path="url(#p1a467767c6)" style="fill: none; stroke: #9467bd; stroke-width: 1.5"/>
    <path d="M 335.993409 68.344062 
L 335.993409 26.880909 
" clip-path="url(#p1a467767c6)" style="fill: none; stroke: #9467bd; stroke-width: 1.5"/>
   </g>
   <g id="LineCollection_6">
    <path d="M 82.076641 68.28059 
L 82.076641 65.313887 
" clip-path="url(#p1a467767c6)" style="fill: none; stroke: #8c564b; stroke-width: 1.5"/>
    <path d="M 145.177771 70.33925 
L 145.177771 59.212396 
" clip-path="url(#p1a467767c6)" style="fill: none; stroke: #8c564b; stroke-width: 1.5"/>
    <path d="M 208.278901 84.953452 
L 208.278901 66.880719 
" clip-path="url(#p1a467767c6)" style="fill: none; stroke: #8c564b; stroke-width: 1.5"/>
    <path d="M 271.38003 92.334599 
L 271.38003 62.365328 
" clip-path="url(#p1a467767c6)" style="fill: none; stroke: #8c564b; stroke-width: 1.5"/>
    <path d="M 334.48116 107.966053 
L 334.48116 66.515031 
" clip-path="url(#p1a467767c6)" style="fill: none; stroke: #8c564b; stroke-width: 1.5"/>
   </g>
   <g id="LineCollection_7">
    <path d="M 77.623485 71.473601 
L 77.623485 68.50665 
" clip-path="url(#p1a467767c6)" style="fill: none; stroke: #e377c2; stroke-width: 1.5"/>
    <path d="M 140.724614 82.163963 
L 140.724614 71.036134 
" clip-path="url(#p1a467767c6)" style="fill: none; stroke: #e377c2; stroke-width: 1.5"/>
    <path d="M 203.825744 83.748342 
L 203.825744 65.678631 
" clip-path="url(#p1a467767c6)" style="fill: none; stroke: #e377c2; stroke-width: 1.5"/>
    <path d="M 266.926874 91.667279 
L 266.926874 61.698399 
" clip-path="url(#p1a467767c6)" style="fill: none; stroke: #e377c2; stroke-width: 1.5"/>
    <path d="M 330.028003 106.995823 
L 330.028003 65.545971 
" clip-path="url(#p1a467767c6)" style="fill: none; stroke: #e377c2; stroke-width: 1.5"/>
   </g>
   <g id="LineCollection_8">
    <path d="M 85.896884 71.599078 
L 85.896884 68.630233 
" clip-path="url(#p1a467767c6)" style="fill: none; stroke: #7f7f7f; stroke-width: 1.5"/>
    <path d="M 148.998014 84.924179 
L 148.998014 73.789255 
" clip-path="url(#p1a467767c6)" style="fill: none; stroke: #7f7f7f; stroke-width: 1.5"/>
    <path d="M 212.099143 84.481112 
L 212.099143 66.398863 
" clip-path="url(#p1a467767c6)" style="fill: none; stroke: #7f7f7f; stroke-width: 1.5"/>
    <path d="M 275.200273 92.103745 
L 275.200273 62.111098 
" clip-path="url(#p1a467767c6)" style="fill: none; stroke: #7f7f7f; stroke-width: 1.5"/>
    <path d="M 338.301402 94.655787 
L 338.301402 53.173659 
" clip-path="url(#p1a467767c6)" style="fill: none; stroke: #7f7f7f; stroke-width: 1.5"/>
   </g>
   <g id="LineCollection_9">
    <path d="M 84.485567 70.247929 
L 84.485567 67.281994 
" clip-path="url(#p1a467767c6)" style="fill: none; stroke: #bcbd22; stroke-width: 1.5"/>
    <path d="M 147.586697 77.721183 
L 147.586697 66.597573 
" clip-path="url(#p1a467767c6)" style="fill: none; stroke: #bcbd22; stroke-width: 1.5"/>
    <path d="M 210.687826 81.385548 
L 210.687826 63.318813 
" clip-path="url(#p1a467767c6)" style="fill: none; stroke: #bcbd22; stroke-width: 1.5"/>
    <path d="M 273.788956 93.502608 
L 273.788956 63.539257 
" clip-path="url(#p1a467767c6)" style="fill: none; stroke: #bcbd22; stroke-width: 1.5"/>
    <path d="M 336.890085 100.471758 
L 336.890085 59.032755 
" clip-path="url(#p1a467767c6)" style="fill: none; stroke: #bcbd22; stroke-width: 1.5"/>
   </g>
   <g id="LineCollection_10">
    <path d="M 78.53102 70.412625 
L 78.53102 67.442819 
" clip-path="url(#p1a467767c6)" style="fill: none; stroke: #17becf; stroke-width: 1.5"/>
    <path d="M 141.63215 80.000279 
L 141.63215 68.862125 
" clip-path="url(#p1a467767c6)" style="fill: none; stroke: #17becf; stroke-width: 1.5"/>
    <path d="M 204.733279 77.118302 
L 204.733279 59.02424 
" clip-path="url(#p1a467767c6)" style="fill: none; stroke: #17becf; stroke-width: 1.5"/>
    <path d="M 267.834409 81.835246 
L 267.834409 51.817267 
" clip-path="url(#p1a467767c6)" style="fill: none; stroke: #17becf; stroke-width: 1.5"/>
    <path d="M 330.935538 98.961746 
L 330.935538 57.455555 
" clip-path="url(#p1a467767c6)" style="fill: none; stroke: #17becf; stroke-width: 1.5"/>
   </g>
   <g id="LineCollection_11">
    <path d="M 78.983358 72.275088 
L 78.983358 69.30884 
" clip-path="url(#p1a467767c6)" style="fill: none; stroke: #1f77b4; stroke-width: 1.5"/>
    <path d="M 142.084487 97.727711 
L 142.084487 86.602933 
" clip-path="url(#p1a467767c6)" style="fill: none; stroke: #1f77b4; stroke-width: 1.5"/>
    <path d="M 205.185617 133.061996 
L 205.185617 114.993366 
" clip-path="url(#p1a467767c6)" style="fill: none; stroke: #1f77b4; stroke-width: 1.5"/>
    <path d="M 268.286746 169.527037 
L 268.286746 139.551292 
" clip-path="url(#p1a467767c6)" style="fill: none; stroke: #1f77b4; stroke-width: 1.5"/>
    <path d="M 331.387876 199.072866 
L 331.387876 157.624908 
" clip-path="url(#p1a467767c6)" style="fill: none; stroke: #1f77b4; stroke-width: 1.5"/>
   </g>
   <g id="LineCollection_12">
    <path d="M 88.109809 68.229758 
L 88.109809 65.260459 
" clip-path="url(#p1a467767c6)" style="fill: none; stroke: #ff7f0e; stroke-width: 1.5"/>
    <path d="M 151.210938 71.530041 
L 151.210938 60.393558 
" clip-path="url(#p1a467767c6)" style="fill: none; stroke: #ff7f0e; stroke-width: 1.5"/>
    <path d="M 214.312068 75.461722 
L 214.312068 57.377251 
" clip-path="url(#p1a467767c6)" style="fill: none; stroke: #ff7f0e; stroke-width: 1.5"/>
    <path d="M 277.413197 81.515338 
L 277.413197 51.517927 
" clip-path="url(#p1a467767c6)" style="fill: none; stroke: #ff7f0e; stroke-width: 1.5"/>
    <path d="M 340.514327 87.425828 
L 340.514327 45.946371 
" clip-path="url(#p1a467767c6)" style="fill: none; stroke: #ff7f0e; stroke-width: 1.5"/>
   </g>
   <g id="line2d_14">
    <defs>
     <path id="m81df16cefe" d="M 0 3 
C 0.795609 3 1.55874 2.683901 2.12132 2.12132 
C 2.683901 1.55874 3 0.795609 3 0 
C 3 -0.795609 2.683901 -1.55874 2.12132 -2.12132 
C 1.55874 -2.683901 0.795609 -3 0 -3 
C -0.795609 -3 -1.55874 -2.683901 -2.12132 -2.12132 
C -2.683901 -1.55874 -3 -0.795609 -3 0 
C -3 0.795609 -2.683901 1.55874 -2.12132 2.12132 
C -1.55874 2.683901 -0.795609 3 0 3 
z
" style="stroke: #1f77b4"/>
    </defs>
    <g clip-path="url(#p1a467767c6)">
     <use xlink:href="#m81df16cefe" x="89.269476" y="71.39237" style="fill: #1f77b4; stroke: #1f77b4"/>
     <use xlink:href="#m81df16cefe" x="152.370606" y="89.03726" style="fill: #1f77b4; stroke: #1f77b4"/>
     <use xlink:href="#m81df16cefe" x="215.471735" y="114.695309" style="fill: #1f77b4; stroke: #1f77b4"/>
     <use xlink:href="#m81df16cefe" x="278.572865" y="148.982215" style="fill: #1f77b4; stroke: #1f77b4"/>
     <use xlink:href="#m81df16cefe" x="341.673995" y="200.764482" style="fill: #1f77b4; stroke: #1f77b4"/>
    </g>
   </g>
   <g id="line2d_15">
    <defs>
     <path id="m7cd897fbca" d="M 0 3 
C 0.795609 3 1.55874 2.683901 2.12132 2.12132 
C 2.683901 1.55874 3 0.795609 3 0 
C 3 -0.795609 2.683901 -1.55874 2.12132 -2.12132 
C 1.55874 -2.683901 0.795609 -3 0 -3 
C -0.795609 -3 -1.55874 -2.683901 -2.12132 -2.12132 
C -2.683901 -1.55874 -3 -0.795609 -3 0 
C -3 0.795609 -2.683901 1.55874 -2.12132 2.12132 
C -1.55874 2.683901 -0.795609 3 0 3 
z
" style="stroke: #ff7f0e"/>
    </defs>
    <g clip-path="url(#p1a467767c6)">
     <use xlink:href="#m7cd897fbca" x="75.863037" y="72.707875" style="fill: #ff7f0e; stroke: #ff7f0e"/>
     <use xlink:href="#m7cd897fbca" x="138.964167" y="99.132604" style="fill: #ff7f0e; stroke: #ff7f0e"/>
     <use xlink:href="#m7cd897fbca" x="202.065296" y="135.566313" style="fill: #ff7f0e; stroke: #ff7f0e"/>
     <use xlink:href="#m7cd897fbca" x="265.166426" y="168.082122" style="fill: #ff7f0e; stroke: #ff7f0e"/>
     <use xlink:href="#m7cd897fbca" x="328.267555" y="204.033265" style="fill: #ff7f0e; stroke: #ff7f0e"/>
    </g>
   </g>
   <g id="line2d_16">
    <defs>
     <path id="mb0eccc91b4" d="M 0 3 
C 0.795609 3 1.55874 2.683901 2.12132 2.12132 
C 2.683901 1.55874 3 0.795609 3 0 
C 3 -0.795609 2.683901 -1.55874 2.12132 -2.12132 
C 1.55874 -2.683901 0.795609 -3 0 -3 
C -0.795609 -3 -1.55874 -2.683901 -2.12132 -2.12132 
C -2.683901 -1.55874 -3 -0.795609 -3 0 
C -3 0.795609 -2.683901 1.55874 -2.12132 2.12132 
C -1.55874 2.683901 -0.795609 3 0 3 
z
" style="stroke: #2ca02c"/>
    </defs>
    <g clip-path="url(#p1a467767c6)">
     <use xlink:href="#mb0eccc91b4" x="92.219261" y="67.802125" style="fill: #2ca02c; stroke: #2ca02c"/>
     <use xlink:href="#mb0eccc91b4" x="155.320391" y="77.21501" style="fill: #2ca02c; stroke: #2ca02c"/>
     <use xlink:href="#mb0eccc91b4" x="218.42152" y="83.921868" style="fill: #2ca02c; stroke: #2ca02c"/>
     <use xlink:href="#mb0eccc91b4" x="281.52265" y="79.11941" style="fill: #2ca02c; stroke: #2ca02c"/>
     <use xlink:href="#mb0eccc91b4" x="344.623779" y="83.925994" style="fill: #2ca02c; stroke: #2ca02c"/>
    </g>
   </g>
   <g id="line2d_17">
    <defs>
     <path id="m49cb0ab1be" d="M 0 3 
C 0.795609 3 1.55874 2.683901 2.12132 2.12132 
C 2.683901 1.55874 3 0.795609 3 0 
C 3 -0.795609 2.683901 -1.55874 2.12132 -2.12132 
C 1.55874 -2.683901 0.795609 -3 0 -3 
C -0.795609 -3 -1.55874 -2.683901 -2.12132 -2.12132 
C -2.683901 -1.55874 -3 -0.795609 -3 0 
C -3 0.795609 -2.683901 1.55874 -2.12132 2.12132 
C -1.55874 2.683901 -0.795609 3 0 3 
z
" style="stroke: #d62728"/>
    </defs>
    <g clip-path="url(#p1a467767c6)">
     <use xlink:href="#m49cb0ab1be" x="78.427255" y="71.794928" style="fill: #d62728; stroke: #d62728"/>
     <use xlink:href="#m49cb0ab1be" x="141.528384" y="92.880754" style="fill: #d62728; stroke: #d62728"/>
     <use xlink:href="#m49cb0ab1be" x="204.629514" y="129.818717" style="fill: #d62728; stroke: #d62728"/>
     <use xlink:href="#m49cb0ab1be" x="267.730644" y="164.831528" style="fill: #d62728; stroke: #d62728"/>
     <use xlink:href="#m49cb0ab1be" x="330.831773" y="210.168244" style="fill: #d62728; stroke: #d62728"/>
    </g>
   </g>
   <g id="line2d_18">
    <defs>
     <path id="m8a1cd8ae1b" d="M 0 3 
C 0.795609 3 1.55874 2.683901 2.12132 2.12132 
C 2.683901 1.55874 3 0.795609 3 0 
C 3 -0.795609 2.683901 -1.55874 2.12132 -2.12132 
C 1.55874 -2.683901 0.795609 -3 0 -3 
C -0.795609 -3 -1.55874 -2.683901 -2.12132 -2.12132 
C -2.683901 -1.55874 -3 -0.795609 -3 0 
C -3 0.795609 -2.683901 1.55874 -2.12132 2.12132 
C -1.55874 2.683901 -0.795609 3 0 3 
z
" style="stroke: #9467bd"/>
    </defs>
    <g clip-path="url(#p1a467767c6)">
     <use xlink:href="#m8a1cd8ae1b" x="83.588891" y="66.845299" style="fill: #9467bd; stroke: #9467bd"/>
     <use xlink:href="#m8a1cd8ae1b" x="146.69002" y="69.395738" style="fill: #9467bd; stroke: #9467bd"/>
     <use xlink:href="#m8a1cd8ae1b" x="209.79115" y="69.507375" style="fill: #9467bd; stroke: #9467bd"/>
     <use xlink:href="#m8a1cd8ae1b" x="272.89228" y="68.476393" style="fill: #9467bd; stroke: #9467bd"/>
     <use xlink:href="#m8a1cd8ae1b" x="335.993409" y="47.612486" style="fill: #9467bd; stroke: #9467bd"/>
    </g>
   </g>
   <g id="line2d_19">
    <defs>
     <path id="m5df21e72af" d="M 0 3 
C 0.795609 3 1.55874 2.683901 2.12132 2.12132 
C 2.683901 1.55874 3 0.795609 3 0 
C 3 -0.795609 2.683901 -1.55874 2.12132 -2.12132 
C 1.55874 -2.683901 0.795609 -3 0 -3 
C -0.795609 -3 -1.55874 -2.683901 -2.12132 -2.12132 
C -2.683901 -1.55874 -3 -0.795609 -3 0 
C -3 0.795609 -2.683901 1.55874 -2.12132 2.12132 
C -1.55874 2.683901 -0.795609 3 0 3 
z
" style="stroke: #8c564b"/>
    </defs>
    <g clip-path="url(#p1a467767c6)">
     <use xlink:href="#m5df21e72af" x="82.076641" y="66.797238" style="fill: #8c564b; stroke: #8c564b"/>
     <use xlink:href="#m5df21e72af" x="145.177771" y="64.775823" style="fill: #8c564b; stroke: #8c564b"/>
     <use xlink:href="#m5df21e72af" x="208.278901" y="75.917086" style="fill: #8c564b; stroke: #8c564b"/>
     <use xlink:href="#m5df21e72af" x="271.38003" y="77.349964" style="fill: #8c564b; stroke: #8c564b"/>
     <use xlink:href="#m5df21e72af" x="334.48116" y="87.240542" style="fill: #8c564b; stroke: #8c564b"/>
    </g>
   </g>
   <g id="line2d_20">
    <defs>
     <path id="m9793d7d3e7" d="M 0 3 
C 0.795609 3 1.55874 2.683901 2.12132 2.12132 
C 2.683901 1.55874 3 0.795609 3 0 
C 3 -0.795609 2.683901 -1.55874 2.12132 -2.12132 
C 1.55874 -2.683901 0.795609 -3 0 -3 
C -0.795609 -3 -1.55874 -2.683901 -2.12132 -2.12132 
C -2.683901 -1.55874 -3 -0.795609 -3 0 
C -3 0.795609 -2.683901 1.55874 -2.12132 2.12132 
C -1.55874 2.683901 -0.795609 3 0 3 
z
" style="stroke: #e377c2"/>
    </defs>
    <g clip-path="url(#p1a467767c6)">
     <use xlink:href="#m9793d7d3e7" x="77.623485" y="69.990126" style="fill: #e377c2; stroke: #e377c2"/>
     <use xlink:href="#m9793d7d3e7" x="140.724614" y="76.600049" style="fill: #e377c2; stroke: #e377c2"/>
     <use xlink:href="#m9793d7d3e7" x="203.825744" y="74.713487" style="fill: #e377c2; stroke: #e377c2"/>
     <use xlink:href="#m9793d7d3e7" x="266.926874" y="76.682839" style="fill: #e377c2; stroke: #e377c2"/>
     <use xlink:href="#m9793d7d3e7" x="330.028003" y="86.270897" style="fill: #e377c2; stroke: #e377c2"/>
    </g>
   </g>
   <g id="line2d_21">
    <defs>
     <path id="mc67e2fb102" d="M 0 3 
C 0.795609 3 1.55874 2.683901 2.12132 2.12132 
C 2.683901 1.55874 3 0.795609 3 0 
C 3 -0.795609 2.683901 -1.55874 2.12132 -2.12132 
C 1.55874 -2.683901 0.795609 -3 0 -3 
C -0.795609 -3 -1.55874 -2.683901 -2.12132 -2.12132 
C -2.683901 -1.55874 -3 -0.795609 -3 0 
C -3 0.795609 -2.683901 1.55874 -2.12132 2.12132 
C -1.55874 2.683901 -0.795609 3 0 3 
z
" style="stroke: #7f7f7f"/>
    </defs>
    <g clip-path="url(#p1a467767c6)">
     <use xlink:href="#mc67e2fb102" x="85.896884" y="70.114655" style="fill: #7f7f7f; stroke: #7f7f7f"/>
     <use xlink:href="#mc67e2fb102" x="148.998014" y="79.356717" style="fill: #7f7f7f; stroke: #7f7f7f"/>
     <use xlink:href="#mc67e2fb102" x="212.099143" y="75.439987" style="fill: #7f7f7f; stroke: #7f7f7f"/>
     <use xlink:href="#mc67e2fb102" x="275.200273" y="77.107421" style="fill: #7f7f7f; stroke: #7f7f7f"/>
     <use xlink:href="#mc67e2fb102" x="338.301402" y="73.914723" style="fill: #7f7f7f; stroke: #7f7f7f"/>
    </g>
   </g>
   <g id="line2d_22">
    <defs>
     <path id="m2305818c18" d="M 0 3 
C 0.795609 3 1.55874 2.683901 2.12132 2.12132 
C 2.683901 1.55874 3 0.795609 3 0 
C 3 -0.795609 2.683901 -1.55874 2.12132 -2.12132 
C 1.55874 -2.683901 0.795609 -3 0 -3 
C -0.795609 -3 -1.55874 -2.683901 -2.12132 -2.12132 
C -2.683901 -1.55874 -3 -0.795609 -3 0 
C -3 0.795609 -2.683901 1.55874 -2.12132 2.12132 
C -1.55874 2.683901 -0.795609 3 0 3 
z
" style="stroke: #bcbd22"/>
    </defs>
    <g clip-path="url(#p1a467767c6)">
     <use xlink:href="#m2305818c18" x="84.485567" y="68.764961" style="fill: #bcbd22; stroke: #bcbd22"/>
     <use xlink:href="#m2305818c18" x="147.586697" y="72.159378" style="fill: #bcbd22; stroke: #bcbd22"/>
     <use xlink:href="#m2305818c18" x="210.687826" y="72.352181" style="fill: #bcbd22; stroke: #bcbd22"/>
     <use xlink:href="#m2305818c18" x="273.788956" y="78.520932" style="fill: #bcbd22; stroke: #bcbd22"/>
     <use xlink:href="#m2305818c18" x="336.890085" y="79.752256" style="fill: #bcbd22; stroke: #bcbd22"/>
    </g>
   </g>
   <g id="line2d_23">
    <defs>
     <path id="m91c410cf8a" d="M 0 3 
C 0.795609 3 1.55874 2.683901 2.12132 2.12132 
C 2.683901 1.55874 3 0.795609 3 0 
C 3 -0.795609 2.683901 -1.55874 2.12132 -2.12132 
C 1.55874 -2.683901 0.795609 -3 0 -3 
C -0.795609 -3 -1.55874 -2.683901 -2.12132 -2.12132 
C -2.683901 -1.55874 -3 -0.795609 -3 0 
C -3 0.795609 -2.683901 1.55874 -2.12132 2.12132 
C -1.55874 2.683901 -0.795609 3 0 3 
z
" style="stroke: #17becf"/>
    </defs>
    <g clip-path="url(#p1a467767c6)">
     <use xlink:href="#m91c410cf8a" x="78.53102" y="68.927722" style="fill: #17becf; stroke: #17becf"/>
     <use xlink:href="#m91c410cf8a" x="141.63215" y="74.431202" style="fill: #17becf; stroke: #17becf"/>
     <use xlink:href="#m91c410cf8a" x="204.733279" y="68.071271" style="fill: #17becf; stroke: #17becf"/>
     <use xlink:href="#m91c410cf8a" x="267.834409" y="66.826256" style="fill: #17becf; stroke: #17becf"/>
     <use xlink:href="#m91c410cf8a" x="330.935538" y="78.208651" style="fill: #17becf; stroke: #17becf"/>
    </g>
   </g>
   <g id="line2d_24">
    <g clip-path="url(#p1a467767c6)">
     <use xlink:href="#m81df16cefe" x="78.983358" y="70.791964" style="fill: #1f77b4; stroke: #1f77b4"/>
     <use xlink:href="#m81df16cefe" x="142.084487" y="92.165322" style="fill: #1f77b4; stroke: #1f77b4"/>
     <use xlink:href="#m81df16cefe" x="205.185617" y="124.027681" style="fill: #1f77b4; stroke: #1f77b4"/>
     <use xlink:href="#m81df16cefe" x="268.286746" y="154.539164" style="fill: #1f77b4; stroke: #1f77b4"/>
     <use xlink:href="#m81df16cefe" x="331.387876" y="178.348887" style="fill: #1f77b4; stroke: #1f77b4"/>
    </g>
   </g>
   <g id="line2d_25">
    <g clip-path="url(#p1a467767c6)">
     <use xlink:href="#m7cd897fbca" x="88.109809" y="66.745108" style="fill: #ff7f0e; stroke: #ff7f0e"/>
     <use xlink:href="#m7cd897fbca" x="151.210938" y="65.9618" style="fill: #ff7f0e; stroke: #ff7f0e"/>
     <use xlink:href="#m7cd897fbca" x="214.312068" y="66.419486" style="fill: #ff7f0e; stroke: #ff7f0e"/>
     <use xlink:href="#m7cd897fbca" x="277.413197" y="66.516632" style="fill: #ff7f0e; stroke: #ff7f0e"/>
     <use xlink:href="#m7cd897fbca" x="340.514327" y="66.686099" style="fill: #ff7f0e; stroke: #ff7f0e"/>
    </g>
   </g>
   <g id="patch_3">
    <path d="M 62.425 241.1 
L 62.425 16.68 
" style="fill: none; stroke: #000000; stroke-width: 0.8; stroke-linejoin: miter; stroke-linecap: square"/>
   </g>
   <g id="patch_4">
    <path d="M 358.061816 241.1 
L 358.061816 16.68 
" style="fill: none; stroke: #000000; stroke-width: 0.8; stroke-linejoin: miter; stroke-linecap: square"/>
   </g>
   <g id="patch_5">
    <path d="M 62.425 241.1 
L 358.061816 241.1 
" style="fill: none; stroke: #000000; stroke-width: 0.8; stroke-linejoin: miter; stroke-linecap: square"/>
   </g>
   <g id="patch_6">
    <path d="M 62.425 16.68 
L 358.061816 16.68 
" style="fill: none; stroke: #000000; stroke-width: 0.8; stroke-linejoin: miter; stroke-linecap: square"/>
   </g>
   <g id="legend_1">
    <g id="patch_7">
     <path d="M 367.061816 222.14 
L 419.061816 222.14 
Q 421.061816 222.14 421.061816 220.14 
L 421.061816 41.64 
Q 421.061816 39.64 419.061816 39.64 
L 367.061816 39.64 
Q 365.061816 39.64 365.061816 41.64 
L 365.061816 220.14 
Q 365.061816 222.14 367.061816 222.14 
z
" style="fill: #4c4c4c; opacity: 0.5; stroke: #4c4c4c; stroke-linejoin: miter"/>
    </g>
    <g id="patch_8">
     <path d="M 365.061816 220.14 
L 417.061816 220.14 
Q 419.061816 220.14 419.061816 218.14 
L 419.061816 39.64 
Q 419.061816 37.64 417.061816 37.64 
L 365.061816 37.64 
Q 363.061816 37.64 363.061816 39.64 
L 363.061816 218.14 
Q 363.061816 220.14 365.061816 220.14 
z
" style="fill: #ffffff; stroke: #cccccc; stroke-linejoin: miter"/>
    </g>
    <g id="LineCollection_13">
     <path d="M 377.061816 50.738437 
L 377.061816 40.738437 
" style="fill: none; stroke: #1f77b4; stroke-width: 1.5"/>
    </g>
    <g id="line2d_26"/>
    <g id="line2d_27">
     <g>
      <use xlink:href="#m81df16cefe" x="377.061816" y="45.738437" style="fill: #1f77b4; stroke: #1f77b4"/>
     </g>
    </g>
    <g id="text_16">
     <!-- $r_{V,V}$ -->
     <g transform="translate(395.061816 49.238437)scale(0.1 -0.1)">
      <defs>
       <path id="DejaVuSans-Oblique-72" d="M 2853 2969 
Q 2766 3016 2653 3041 
Q 2541 3066 2413 3066 
Q 1953 3066 1609 2717 
Q 1266 2369 1153 1784 
L 800 0 
L 225 0 
L 909 3500 
L 1484 3500 
L 1375 2956 
Q 1603 3259 1920 3421 
Q 2238 3584 2597 3584 
Q 2691 3584 2781 3573 
Q 2872 3563 2963 3538 
L 2853 2969 
z
" transform="scale(0.015625)"/>
      </defs>
      <use xlink:href="#DejaVuSans-Oblique-72"/>
      <use xlink:href="#DejaVuSans-Oblique-56" transform="translate(41.113281 -16.40625)scale(0.7)"/>
      <use xlink:href="#DejaVuSans-2c" transform="translate(88.999023 -16.40625)scale(0.7)"/>
      <use xlink:href="#DejaVuSans-Oblique-56" transform="translate(124.887695 -16.40625)scale(0.7)"/>
     </g>
    </g>
    <g id="LineCollection_14">
     <path d="M 377.061816 65.836875 
L 377.061816 55.836875 
" style="fill: none; stroke: #ff7f0e; stroke-width: 1.5"/>
    </g>
    <g id="line2d_28"/>
    <g id="line2d_29">
     <g>
      <use xlink:href="#m7cd897fbca" x="377.061816" y="60.836875" style="fill: #ff7f0e; stroke: #ff7f0e"/>
     </g>
    </g>
    <g id="text_17">
     <!-- $K_{V,V}$ -->
     <g transform="translate(395.061816 64.336875)scale(0.1 -0.1)">
      <use xlink:href="#DejaVuSans-Oblique-4b" transform="translate(0 0.09375)"/>
      <use xlink:href="#DejaVuSans-Oblique-56" transform="translate(65.576172 -16.3125)scale(0.7)"/>
      <use xlink:href="#DejaVuSans-2c" transform="translate(113.461914 -16.3125)scale(0.7)"/>
      <use xlink:href="#DejaVuSans-Oblique-56" transform="translate(149.350586 -16.3125)scale(0.7)"/>
     </g>
    </g>
    <g id="LineCollection_15">
     <path d="M 377.061816 80.935312 
L 377.061816 70.935312 
" style="fill: none; stroke: #2ca02c; stroke-width: 1.5"/>
    </g>
    <g id="line2d_30"/>
    <g id="line2d_31">
     <g>
      <use xlink:href="#mb0eccc91b4" x="377.061816" y="75.935312" style="fill: #2ca02c; stroke: #2ca02c"/>
     </g>
    </g>
    <g id="text_18">
     <!-- $r_{V,I}$ -->
     <g transform="translate(395.061816 79.435312)scale(0.1 -0.1)">
      <defs>
       <path id="DejaVuSans-Oblique-49" d="M 1081 4666 
L 1716 4666 
L 806 0 
L 172 0 
L 1081 4666 
z
" transform="scale(0.015625)"/>
      </defs>
      <use xlink:href="#DejaVuSans-Oblique-72"/>
      <use xlink:href="#DejaVuSans-Oblique-56" transform="translate(41.113281 -16.40625)scale(0.7)"/>
      <use xlink:href="#DejaVuSans-2c" transform="translate(88.999023 -16.40625)scale(0.7)"/>
      <use xlink:href="#DejaVuSans-Oblique-49" transform="translate(124.887695 -16.40625)scale(0.7)"/>
     </g>
    </g>
    <g id="LineCollection_16">
     <path d="M 377.061816 96.03375 
L 377.061816 86.03375 
" style="fill: none; stroke: #d62728; stroke-width: 1.5"/>
    </g>
    <g id="line2d_32"/>
    <g id="line2d_33">
     <g>
      <use xlink:href="#m49cb0ab1be" x="377.061816" y="91.03375" style="fill: #d62728; stroke: #d62728"/>
     </g>
    </g>
    <g id="text_19">
     <!-- $d_{V}$ -->
     <g transform="translate(395.061816 94.53375)scale(0.1 -0.1)">
      <defs>
       <path id="DejaVuSans-Oblique-64" d="M 2675 525 
Q 2444 222 2128 65 
Q 1813 -91 1428 -91 
Q 903 -91 598 267 
Q 294 625 294 1247 
Q 294 1766 478 2236 
Q 663 2706 1013 3078 
Q 1244 3325 1534 3454 
Q 1825 3584 2144 3584 
Q 2481 3584 2739 3421 
Q 2997 3259 3138 2956 
L 3513 4863 
L 4091 4863 
L 3144 0 
L 2566 0 
L 2675 525 
z
M 891 1350 
Q 891 897 1095 644 
Q 1300 391 1663 391 
Q 1931 391 2161 520 
Q 2391 650 2566 903 
Q 2750 1166 2856 1509 
Q 2963 1853 2963 2188 
Q 2963 2622 2758 2865 
Q 2553 3109 2194 3109 
Q 1922 3109 1687 2981 
Q 1453 2853 1288 2613 
Q 1106 2353 998 2009 
Q 891 1666 891 1350 
z
" transform="scale(0.015625)"/>
      </defs>
      <use xlink:href="#DejaVuSans-Oblique-64" transform="translate(0 0.015625)"/>
      <use xlink:href="#DejaVuSans-Oblique-56" transform="translate(63.476562 -16.390625)scale(0.7)"/>
     </g>
    </g>
    <g id="LineCollection_17">
     <path d="M 377.061816 110.711875 
L 377.061816 100.711875 
" style="fill: none; stroke: #9467bd; stroke-width: 1.5"/>
    </g>
    <g id="line2d_34"/>
    <g id="line2d_35">
     <g>
      <use xlink:href="#m8a1cd8ae1b" x="377.061816" y="105.711875" style="fill: #9467bd; stroke: #9467bd"/>
     </g>
    </g>
    <g id="text_20">
     <!-- $r_{I,V}$ -->
     <g transform="translate(395.061816 109.211875)scale(0.1 -0.1)">
      <use xlink:href="#DejaVuSans-Oblique-72"/>
      <use xlink:href="#DejaVuSans-Oblique-49" transform="translate(41.113281 -16.40625)scale(0.7)"/>
      <use xlink:href="#DejaVuSans-2c" transform="translate(61.757812 -16.40625)scale(0.7)"/>
      <use xlink:href="#DejaVuSans-Oblique-56" transform="translate(97.646484 -16.40625)scale(0.7)"/>
     </g>
    </g>
    <g id="LineCollection_18">
     <path d="M 377.061816 125.810313 
L 377.061816 115.810313 
" style="fill: none; stroke: #8c564b; stroke-width: 1.5"/>
    </g>
    <g id="line2d_36"/>
    <g id="line2d_37">
     <g>
      <use xlink:href="#m5df21e72af" x="377.061816" y="120.810313" style="fill: #8c564b; stroke: #8c564b"/>
     </g>
    </g>
    <g id="text_21">
     <!-- $d_{I}$ -->
     <g transform="translate(395.061816 124.310313)scale(0.1 -0.1)">
      <use xlink:href="#DejaVuSans-Oblique-64" transform="translate(0 0.015625)"/>
      <use xlink:href="#DejaVuSans-Oblique-49" transform="translate(63.476562 -16.390625)scale(0.7)"/>
     </g>
    </g>
    <g id="LineCollection_19">
     <path d="M 377.061816 140.488437 
L 377.061816 130.488437 
" style="fill: none; stroke: #e377c2; stroke-width: 1.5"/>
    </g>
    <g id="line2d_38"/>
    <g id="line2d_39">
     <g>
      <use xlink:href="#m9793d7d3e7" x="377.061816" y="135.488437" style="fill: #e377c2; stroke: #e377c2"/>
     </g>
    </g>
    <g id="text_22">
     <!-- $r_{M,I}$ -->
     <g transform="translate(395.061816 138.988437)scale(0.1 -0.1)">
      <defs>
       <path id="DejaVuSans-Oblique-4d" d="M 1081 4666 
L 2028 4666 
L 2572 1522 
L 4378 4666 
L 5350 4666 
L 4441 0 
L 3828 0 
L 4622 4091 
L 2791 897 
L 2175 897 
L 1581 4103 
L 788 0 
L 172 0 
L 1081 4666 
z
" transform="scale(0.015625)"/>
      </defs>
      <use xlink:href="#DejaVuSans-Oblique-72"/>
      <use xlink:href="#DejaVuSans-Oblique-4d" transform="translate(41.113281 -16.40625)scale(0.7)"/>
      <use xlink:href="#DejaVuSans-2c" transform="translate(101.508789 -16.40625)scale(0.7)"/>
      <use xlink:href="#DejaVuSans-Oblique-49" transform="translate(137.397461 -16.40625)scale(0.7)"/>
     </g>
    </g>
    <g id="LineCollection_20">
     <path d="M 377.061816 155.586875 
L 377.061816 145.586875 
" style="fill: none; stroke: #7f7f7f; stroke-width: 1.5"/>
    </g>
    <g id="line2d_40"/>
    <g id="line2d_41">
     <g>
      <use xlink:href="#mc67e2fb102" x="377.061816" y="150.586875" style="fill: #7f7f7f; stroke: #7f7f7f"/>
     </g>
    </g>
    <g id="text_23">
     <!-- $K_{M,I}$ -->
     <g transform="translate(395.061816 154.086875)scale(0.1 -0.1)">
      <use xlink:href="#DejaVuSans-Oblique-4b" transform="translate(0 0.09375)"/>
      <use xlink:href="#DejaVuSans-Oblique-4d" transform="translate(65.576172 -16.3125)scale(0.7)"/>
      <use xlink:href="#DejaVuSans-2c" transform="translate(125.97168 -16.3125)scale(0.7)"/>
      <use xlink:href="#DejaVuSans-Oblique-49" transform="translate(161.860352 -16.3125)scale(0.7)"/>
     </g>
    </g>
    <g id="LineCollection_21">
     <path d="M 377.061816 170.685313 
L 377.061816 160.685313 
" style="fill: none; stroke: #bcbd22; stroke-width: 1.5"/>
    </g>
    <g id="line2d_42"/>
    <g id="line2d_43">
     <g>
      <use xlink:href="#m2305818c18" x="377.061816" y="165.685313" style="fill: #bcbd22; stroke: #bcbd22"/>
     </g>
    </g>
    <g id="text_24">
     <!-- $d_{M}$ -->
     <g transform="translate(395.061816 169.185313)scale(0.1 -0.1)">
      <use xlink:href="#DejaVuSans-Oblique-64" transform="translate(0 0.015625)"/>
      <use xlink:href="#DejaVuSans-Oblique-4d" transform="translate(63.476562 -16.390625)scale(0.7)"/>
     </g>
    </g>
    <g id="LineCollection_22">
     <path d="M 377.061816 185.363437 
L 377.061816 175.363437 
" style="fill: none; stroke: #17becf; stroke-width: 1.5"/>
    </g>
    <g id="line2d_44"/>
    <g id="line2d_45">
     <g>
      <use xlink:href="#m91c410cf8a" x="377.061816" y="180.363437" style="fill: #17becf; stroke: #17becf"/>
     </g>
    </g>
    <g id="text_25">
     <!-- $n$ -->
     <g transform="translate(395.061816 183.863437)scale(0.1 -0.1)">
      <defs>
       <path id="DejaVuSans-Oblique-6e" d="M 3566 2113 
L 3156 0 
L 2578 0 
L 2988 2091 
Q 3016 2238 3031 2350 
Q 3047 2463 3047 2528 
Q 3047 2791 2881 2937 
Q 2716 3084 2419 3084 
Q 1956 3084 1622 2776 
Q 1288 2469 1184 1941 
L 800 0 
L 225 0 
L 903 3500 
L 1478 3500 
L 1363 2950 
Q 1603 3253 1940 3418 
Q 2278 3584 2650 3584 
Q 3113 3584 3367 3334 
Q 3622 3084 3622 2631 
Q 3622 2519 3608 2391 
Q 3594 2263 3566 2113 
z
" transform="scale(0.015625)"/>
      </defs>
      <use xlink:href="#DejaVuSans-Oblique-6e"/>
     </g>
    </g>
    <g id="LineCollection_23">
     <path d="M 377.061816 200.041562 
L 377.061816 190.041562 
" style="fill: none; stroke: #1f77b4; stroke-width: 1.5"/>
    </g>
    <g id="line2d_46"/>
    <g id="line2d_47">
     <g>
      <use xlink:href="#m81df16cefe" x="377.061816" y="195.041562" style="fill: #1f77b4; stroke: #1f77b4"/>
     </g>
    </g>
    <g id="text_26">
     <!-- $r_{V,M}$ -->
     <g transform="translate(395.061816 198.541562)scale(0.1 -0.1)">
      <use xlink:href="#DejaVuSans-Oblique-72"/>
      <use xlink:href="#DejaVuSans-Oblique-56" transform="translate(41.113281 -16.40625)scale(0.7)"/>
      <use xlink:href="#DejaVuSans-2c" transform="translate(88.999023 -16.40625)scale(0.7)"/>
      <use xlink:href="#DejaVuSans-Oblique-4d" transform="translate(124.887695 -16.40625)scale(0.7)"/>
     </g>
    </g>
    <g id="LineCollection_24">
     <path d="M 377.061816 215.14 
L 377.061816 205.14 
" style="fill: none; stroke: #ff7f0e; stroke-width: 1.5"/>
    </g>
    <g id="line2d_48"/>
    <g id="line2d_49">
     <g>
      <use xlink:href="#m7cd897fbca" x="377.061816" y="210.14" style="fill: #ff7f0e; stroke: #ff7f0e"/>
     </g>
    </g>
    <g id="text_27">
     <!-- $r_{I,M}$ -->
     <g transform="translate(395.061816 213.64)scale(0.1 -0.1)">
      <use xlink:href="#DejaVuSans-Oblique-72"/>
      <use xlink:href="#DejaVuSans-Oblique-49" transform="translate(41.113281 -16.40625)scale(0.7)"/>
      <use xlink:href="#DejaVuSans-2c" transform="translate(61.757812 -16.40625)scale(0.7)"/>
      <use xlink:href="#DejaVuSans-Oblique-4d" transform="translate(97.646484 -16.40625)scale(0.7)"/>
     </g>
    </g>
   </g>
  </g>
 </g>
 <defs>
  <clipPath id="p1a467767c6">
   <rect x="62.425" y="16.68" width="295.636816" height="224.42"/>
  </clipPath>
 </defs>
</svg>
