<?xml version="1.0" encoding="utf-8" standalone="no"?>
<!DOCTYPE svg PUBLIC "-//W3C//DTD SVG 1.1//EN"
  "http://www.w3.org/Graphics/SVG/1.1/DTD/svg11.dtd">
<svg xmlns:xlink="http://www.w3.org/1999/xlink" width="432pt" height="288pt" viewBox="0 0 432 288" xmlns="http://www.w3.org/2000/svg" version="1.1">
 <metadata>
  <rdf:RDF xmlns:dc="http://purl.org/dc/elements/1.1/" xmlns:cc="http://creativecommons.org/ns#" xmlns:rdf="http://www.w3.org/1999/02/22-rdf-syntax-ns#">
   <cc:Work>
    <dc:type rdf:resource="http://purl.org/dc/dcmitype/StillImage"/>
    <dc:date>2022-05-10T12:00:39.338877</dc:date>
    <dc:format>image/svg+xml</dc:format>
    <dc:creator>
     <cc:Agent>
      <dc:title>Matplotlib v3.5.1, https://matplotlib.org/</dc:title>
     </cc:Agent>
    </dc:creator>
   </cc:Work>
  </rdf:RDF>
 </metadata>
 <defs>
  <style type="text/css">*{stroke-linejoin: round; stroke-linecap: butt}</style>
 </defs>
 <g id="figure_1">
  <g id="patch_1">
   <path d="M 0 288 
L 432 288 
L 432 0 
L 0 0 
L 0 288 
z
" style="fill: none"/>
  </g>
  <g id="axes_1">
   <g id="patch_2">
    <path d="M 54.05 242.4 
L 358.061816 242.4 
L 358.061816 16.68 
L 54.05 16.68 
z
" style="fill: #ffffff"/>
   </g>
   <g id="matplotlib.axis_1">
    <g id="xtick_1">
     <g id="line2d_1">
      <defs>
       <path id="m6d1f24b0f1" d="M 0 0 
L 0 3.5 
" style="stroke: #000000; stroke-width: 0.8"/>
      </defs>
      <g>
       <use xlink:href="#m6d1f24b0f1" x="76.440755" y="242.4" style="stroke: #000000; stroke-width: 0.8"/>
      </g>
     </g>
     <g id="text_1">
      <!-- 1.25 -->
      <g transform="translate(65.307943 256.998438)scale(0.1 -0.1)">
       <defs>
        <path id="DejaVuSans-31" d="M 794 531 
L 1825 531 
L 1825 4091 
L 703 3866 
L 703 4441 
L 1819 4666 
L 2450 4666 
L 2450 531 
L 3481 531 
L 3481 0 
L 794 0 
L 794 531 
z
" transform="scale(0.015625)"/>
        <path id="DejaVuSans-2e" d="M 684 794 
L 1344 794 
L 1344 0 
L 684 0 
L 684 794 
z
" transform="scale(0.015625)"/>
        <path id="DejaVuSans-32" d="M 1228 531 
L 3431 531 
L 3431 0 
L 469 0 
L 469 531 
Q 828 903 1448 1529 
Q 2069 2156 2228 2338 
Q 2531 2678 2651 2914 
Q 2772 3150 2772 3378 
Q 2772 3750 2511 3984 
Q 2250 4219 1831 4219 
Q 1534 4219 1204 4116 
Q 875 4013 500 3803 
L 500 4441 
Q 881 4594 1212 4672 
Q 1544 4750 1819 4750 
Q 2544 4750 2975 4387 
Q 3406 4025 3406 3419 
Q 3406 3131 3298 2873 
Q 3191 2616 2906 2266 
Q 2828 2175 2409 1742 
Q 1991 1309 1228 531 
z
" transform="scale(0.015625)"/>
        <path id="DejaVuSans-35" d="M 691 4666 
L 3169 4666 
L 3169 4134 
L 1269 4134 
L 1269 2991 
Q 1406 3038 1543 3061 
Q 1681 3084 1819 3084 
Q 2600 3084 3056 2656 
Q 3513 2228 3513 1497 
Q 3513 744 3044 326 
Q 2575 -91 1722 -91 
Q 1428 -91 1123 -41 
Q 819 9 494 109 
L 494 744 
Q 775 591 1075 516 
Q 1375 441 1709 441 
Q 2250 441 2565 725 
Q 2881 1009 2881 1497 
Q 2881 1984 2565 2268 
Q 2250 2553 1709 2553 
Q 1456 2553 1204 2497 
Q 953 2441 691 2322 
L 691 4666 
z
" transform="scale(0.015625)"/>
       </defs>
       <use xlink:href="#DejaVuSans-31"/>
       <use xlink:href="#DejaVuSans-2e" x="63.623047"/>
       <use xlink:href="#DejaVuSans-32" x="95.410156"/>
       <use xlink:href="#DejaVuSans-35" x="159.033203"/>
      </g>
     </g>
    </g>
    <g id="xtick_2">
     <g id="line2d_2">
      <g>
       <use xlink:href="#m6d1f24b0f1" x="141.329456" y="242.4" style="stroke: #000000; stroke-width: 0.8"/>
      </g>
     </g>
     <g id="text_2">
      <!-- 2.0 -->
      <g transform="translate(133.377894 256.998438)scale(0.1 -0.1)">
       <defs>
        <path id="DejaVuSans-30" d="M 2034 4250 
Q 1547 4250 1301 3770 
Q 1056 3291 1056 2328 
Q 1056 1369 1301 889 
Q 1547 409 2034 409 
Q 2525 409 2770 889 
Q 3016 1369 3016 2328 
Q 3016 3291 2770 3770 
Q 2525 4250 2034 4250 
z
M 2034 4750 
Q 2819 4750 3233 4129 
Q 3647 3509 3647 2328 
Q 3647 1150 3233 529 
Q 2819 -91 2034 -91 
Q 1250 -91 836 529 
Q 422 1150 422 2328 
Q 422 3509 836 4129 
Q 1250 4750 2034 4750 
z
" transform="scale(0.015625)"/>
       </defs>
       <use xlink:href="#DejaVuSans-32"/>
       <use xlink:href="#DejaVuSans-2e" x="63.623047"/>
       <use xlink:href="#DejaVuSans-30" x="95.410156"/>
      </g>
     </g>
    </g>
    <g id="xtick_3">
     <g id="line2d_3">
      <g>
       <use xlink:href="#m6d1f24b0f1" x="206.218158" y="242.4" style="stroke: #000000; stroke-width: 0.8"/>
      </g>
     </g>
     <g id="text_3">
      <!-- 3.0 -->
      <g transform="translate(198.266595 256.998438)scale(0.1 -0.1)">
       <defs>
        <path id="DejaVuSans-33" d="M 2597 2516 
Q 3050 2419 3304 2112 
Q 3559 1806 3559 1356 
Q 3559 666 3084 287 
Q 2609 -91 1734 -91 
Q 1441 -91 1130 -33 
Q 819 25 488 141 
L 488 750 
Q 750 597 1062 519 
Q 1375 441 1716 441 
Q 2309 441 2620 675 
Q 2931 909 2931 1356 
Q 2931 1769 2642 2001 
Q 2353 2234 1838 2234 
L 1294 2234 
L 1294 2753 
L 1863 2753 
Q 2328 2753 2575 2939 
Q 2822 3125 2822 3475 
Q 2822 3834 2567 4026 
Q 2313 4219 1838 4219 
Q 1578 4219 1281 4162 
Q 984 4106 628 3988 
L 628 4550 
Q 988 4650 1302 4700 
Q 1616 4750 1894 4750 
Q 2613 4750 3031 4423 
Q 3450 4097 3450 3541 
Q 3450 3153 3228 2886 
Q 3006 2619 2597 2516 
z
" transform="scale(0.015625)"/>
       </defs>
       <use xlink:href="#DejaVuSans-33"/>
       <use xlink:href="#DejaVuSans-2e" x="63.623047"/>
       <use xlink:href="#DejaVuSans-30" x="95.410156"/>
      </g>
     </g>
    </g>
    <g id="xtick_4">
     <g id="line2d_4">
      <g>
       <use xlink:href="#m6d1f24b0f1" x="271.106859" y="242.4" style="stroke: #000000; stroke-width: 0.8"/>
      </g>
     </g>
     <g id="text_4">
      <!-- 4.0 -->
      <g transform="translate(263.155296 256.998438)scale(0.1 -0.1)">
       <defs>
        <path id="DejaVuSans-34" d="M 2419 4116 
L 825 1625 
L 2419 1625 
L 2419 4116 
z
M 2253 4666 
L 3047 4666 
L 3047 1625 
L 3713 1625 
L 3713 1100 
L 3047 1100 
L 3047 0 
L 2419 0 
L 2419 1100 
L 313 1100 
L 313 1709 
L 2253 4666 
z
" transform="scale(0.015625)"/>
       </defs>
       <use xlink:href="#DejaVuSans-34"/>
       <use xlink:href="#DejaVuSans-2e" x="63.623047"/>
       <use xlink:href="#DejaVuSans-30" x="95.410156"/>
      </g>
     </g>
    </g>
    <g id="xtick_5">
     <g id="line2d_5">
      <g>
       <use xlink:href="#m6d1f24b0f1" x="335.99556" y="242.4" style="stroke: #000000; stroke-width: 0.8"/>
      </g>
     </g>
     <g id="text_5">
      <!-- 5.0 -->
      <g transform="translate(328.043997 256.998438)scale(0.1 -0.1)">
       <use xlink:href="#DejaVuSans-35"/>
       <use xlink:href="#DejaVuSans-2e" x="63.623047"/>
       <use xlink:href="#DejaVuSans-30" x="95.410156"/>
      </g>
     </g>
    </g>
    <g id="text_6">
     <!-- Parameter $d_{I}$ H5N1:H1N1 ratio -->
     <g transform="translate(130.055908 270.676562)scale(0.1 -0.1)">
      <defs>
       <path id="DejaVuSans-50" d="M 1259 4147 
L 1259 2394 
L 2053 2394 
Q 2494 2394 2734 2622 
Q 2975 2850 2975 3272 
Q 2975 3691 2734 3919 
Q 2494 4147 2053 4147 
L 1259 4147 
z
M 628 4666 
L 2053 4666 
Q 2838 4666 3239 4311 
Q 3641 3956 3641 3272 
Q 3641 2581 3239 2228 
Q 2838 1875 2053 1875 
L 1259 1875 
L 1259 0 
L 628 0 
L 628 4666 
z
" transform="scale(0.015625)"/>
       <path id="DejaVuSans-61" d="M 2194 1759 
Q 1497 1759 1228 1600 
Q 959 1441 959 1056 
Q 959 750 1161 570 
Q 1363 391 1709 391 
Q 2188 391 2477 730 
Q 2766 1069 2766 1631 
L 2766 1759 
L 2194 1759 
z
M 3341 1997 
L 3341 0 
L 2766 0 
L 2766 531 
Q 2569 213 2275 61 
Q 1981 -91 1556 -91 
Q 1019 -91 701 211 
Q 384 513 384 1019 
Q 384 1609 779 1909 
Q 1175 2209 1959 2209 
L 2766 2209 
L 2766 2266 
Q 2766 2663 2505 2880 
Q 2244 3097 1772 3097 
Q 1472 3097 1187 3025 
Q 903 2953 641 2809 
L 641 3341 
Q 956 3463 1253 3523 
Q 1550 3584 1831 3584 
Q 2591 3584 2966 3190 
Q 3341 2797 3341 1997 
z
" transform="scale(0.015625)"/>
       <path id="DejaVuSans-72" d="M 2631 2963 
Q 2534 3019 2420 3045 
Q 2306 3072 2169 3072 
Q 1681 3072 1420 2755 
Q 1159 2438 1159 1844 
L 1159 0 
L 581 0 
L 581 3500 
L 1159 3500 
L 1159 2956 
Q 1341 3275 1631 3429 
Q 1922 3584 2338 3584 
Q 2397 3584 2469 3576 
Q 2541 3569 2628 3553 
L 2631 2963 
z
" transform="scale(0.015625)"/>
       <path id="DejaVuSans-6d" d="M 3328 2828 
Q 3544 3216 3844 3400 
Q 4144 3584 4550 3584 
Q 5097 3584 5394 3201 
Q 5691 2819 5691 2113 
L 5691 0 
L 5113 0 
L 5113 2094 
Q 5113 2597 4934 2840 
Q 4756 3084 4391 3084 
Q 3944 3084 3684 2787 
Q 3425 2491 3425 1978 
L 3425 0 
L 2847 0 
L 2847 2094 
Q 2847 2600 2669 2842 
Q 2491 3084 2119 3084 
Q 1678 3084 1418 2786 
Q 1159 2488 1159 1978 
L 1159 0 
L 581 0 
L 581 3500 
L 1159 3500 
L 1159 2956 
Q 1356 3278 1631 3431 
Q 1906 3584 2284 3584 
Q 2666 3584 2933 3390 
Q 3200 3197 3328 2828 
z
" transform="scale(0.015625)"/>
       <path id="DejaVuSans-65" d="M 3597 1894 
L 3597 1613 
L 953 1613 
Q 991 1019 1311 708 
Q 1631 397 2203 397 
Q 2534 397 2845 478 
Q 3156 559 3463 722 
L 3463 178 
Q 3153 47 2828 -22 
Q 2503 -91 2169 -91 
Q 1331 -91 842 396 
Q 353 884 353 1716 
Q 353 2575 817 3079 
Q 1281 3584 2069 3584 
Q 2775 3584 3186 3129 
Q 3597 2675 3597 1894 
z
M 3022 2063 
Q 3016 2534 2758 2815 
Q 2500 3097 2075 3097 
Q 1594 3097 1305 2825 
Q 1016 2553 972 2059 
L 3022 2063 
z
" transform="scale(0.015625)"/>
       <path id="DejaVuSans-74" d="M 1172 4494 
L 1172 3500 
L 2356 3500 
L 2356 3053 
L 1172 3053 
L 1172 1153 
Q 1172 725 1289 603 
Q 1406 481 1766 481 
L 2356 481 
L 2356 0 
L 1766 0 
Q 1100 0 847 248 
Q 594 497 594 1153 
L 594 3053 
L 172 3053 
L 172 3500 
L 594 3500 
L 594 4494 
L 1172 4494 
z
" transform="scale(0.015625)"/>
       <path id="DejaVuSans-20" transform="scale(0.015625)"/>
       <path id="DejaVuSans-Oblique-64" d="M 2675 525 
Q 2444 222 2128 65 
Q 1813 -91 1428 -91 
Q 903 -91 598 267 
Q 294 625 294 1247 
Q 294 1766 478 2236 
Q 663 2706 1013 3078 
Q 1244 3325 1534 3454 
Q 1825 3584 2144 3584 
Q 2481 3584 2739 3421 
Q 2997 3259 3138 2956 
L 3513 4863 
L 4091 4863 
L 3144 0 
L 2566 0 
L 2675 525 
z
M 891 1350 
Q 891 897 1095 644 
Q 1300 391 1663 391 
Q 1931 391 2161 520 
Q 2391 650 2566 903 
Q 2750 1166 2856 1509 
Q 2963 1853 2963 2188 
Q 2963 2622 2758 2865 
Q 2553 3109 2194 3109 
Q 1922 3109 1687 2981 
Q 1453 2853 1288 2613 
Q 1106 2353 998 2009 
Q 891 1666 891 1350 
z
" transform="scale(0.015625)"/>
       <path id="DejaVuSans-Oblique-49" d="M 1081 4666 
L 1716 4666 
L 806 0 
L 172 0 
L 1081 4666 
z
" transform="scale(0.015625)"/>
       <path id="DejaVuSans-48" d="M 628 4666 
L 1259 4666 
L 1259 2753 
L 3553 2753 
L 3553 4666 
L 4184 4666 
L 4184 0 
L 3553 0 
L 3553 2222 
L 1259 2222 
L 1259 0 
L 628 0 
L 628 4666 
z
" transform="scale(0.015625)"/>
       <path id="DejaVuSans-4e" d="M 628 4666 
L 1478 4666 
L 3547 763 
L 3547 4666 
L 4159 4666 
L 4159 0 
L 3309 0 
L 1241 3903 
L 1241 0 
L 628 0 
L 628 4666 
z
" transform="scale(0.015625)"/>
       <path id="DejaVuSans-3a" d="M 750 794 
L 1409 794 
L 1409 0 
L 750 0 
L 750 794 
z
M 750 3309 
L 1409 3309 
L 1409 2516 
L 750 2516 
L 750 3309 
z
" transform="scale(0.015625)"/>
       <path id="DejaVuSans-69" d="M 603 3500 
L 1178 3500 
L 1178 0 
L 603 0 
L 603 3500 
z
M 603 4863 
L 1178 4863 
L 1178 4134 
L 603 4134 
L 603 4863 
z
" transform="scale(0.015625)"/>
       <path id="DejaVuSans-6f" d="M 1959 3097 
Q 1497 3097 1228 2736 
Q 959 2375 959 1747 
Q 959 1119 1226 758 
Q 1494 397 1959 397 
Q 2419 397 2687 759 
Q 2956 1122 2956 1747 
Q 2956 2369 2687 2733 
Q 2419 3097 1959 3097 
z
M 1959 3584 
Q 2709 3584 3137 3096 
Q 3566 2609 3566 1747 
Q 3566 888 3137 398 
Q 2709 -91 1959 -91 
Q 1206 -91 779 398 
Q 353 888 353 1747 
Q 353 2609 779 3096 
Q 1206 3584 1959 3584 
z
" transform="scale(0.015625)"/>
      </defs>
      <use xlink:href="#DejaVuSans-50" transform="translate(0 0.015625)"/>
      <use xlink:href="#DejaVuSans-61" transform="translate(60.302734 0.015625)"/>
      <use xlink:href="#DejaVuSans-72" transform="translate(121.582031 0.015625)"/>
      <use xlink:href="#DejaVuSans-61" transform="translate(162.695312 0.015625)"/>
      <use xlink:href="#DejaVuSans-6d" transform="translate(223.974609 0.015625)"/>
      <use xlink:href="#DejaVuSans-65" transform="translate(321.386719 0.015625)"/>
      <use xlink:href="#DejaVuSans-74" transform="translate(382.910156 0.015625)"/>
      <use xlink:href="#DejaVuSans-65" transform="translate(422.119141 0.015625)"/>
      <use xlink:href="#DejaVuSans-72" transform="translate(483.642578 0.015625)"/>
      <use xlink:href="#DejaVuSans-20" transform="translate(524.755859 0.015625)"/>
      <use xlink:href="#DejaVuSans-Oblique-64" transform="translate(556.542969 0.015625)"/>
      <use xlink:href="#DejaVuSans-Oblique-49" transform="translate(620.019531 -16.390625)scale(0.7)"/>
      <use xlink:href="#DejaVuSans-20" transform="translate(643.398438 0.015625)"/>
      <use xlink:href="#DejaVuSans-48" transform="translate(675.185547 0.015625)"/>
      <use xlink:href="#DejaVuSans-35" transform="translate(750.380859 0.015625)"/>
      <use xlink:href="#DejaVuSans-4e" transform="translate(814.003906 0.015625)"/>
      <use xlink:href="#DejaVuSans-31" transform="translate(888.808594 0.015625)"/>
      <use xlink:href="#DejaVuSans-3a" transform="translate(952.431641 0.015625)"/>
      <use xlink:href="#DejaVuSans-48" transform="translate(980.248047 0.015625)"/>
      <use xlink:href="#DejaVuSans-31" transform="translate(1055.443359 0.015625)"/>
      <use xlink:href="#DejaVuSans-4e" transform="translate(1119.066406 0.015625)"/>
      <use xlink:href="#DejaVuSans-31" transform="translate(1193.871094 0.015625)"/>
      <use xlink:href="#DejaVuSans-20" transform="translate(1257.494141 0.015625)"/>
      <use xlink:href="#DejaVuSans-72" transform="translate(1289.28125 0.015625)"/>
      <use xlink:href="#DejaVuSans-61" transform="translate(1330.394531 0.015625)"/>
      <use xlink:href="#DejaVuSans-74" transform="translate(1391.673828 0.015625)"/>
      <use xlink:href="#DejaVuSans-69" transform="translate(1430.882812 0.015625)"/>
      <use xlink:href="#DejaVuSans-6f" transform="translate(1458.666016 0.015625)"/>
     </g>
    </g>
   </g>
   <g id="matplotlib.axis_2">
    <g id="ytick_1">
     <g id="line2d_6">
      <defs>
       <path id="m2757af0a84" d="M 0 0 
L -3.5 0 
" style="stroke: #000000; stroke-width: 0.8"/>
      </defs>
      <g>
       <use xlink:href="#m2757af0a84" x="54.05" y="213.608636" style="stroke: #000000; stroke-width: 0.8"/>
      </g>
     </g>
     <g id="text_7">
      <!-- 0.96 -->
      <g transform="translate(24.784375 217.407855)scale(0.1 -0.1)">
       <defs>
        <path id="DejaVuSans-39" d="M 703 97 
L 703 672 
Q 941 559 1184 500 
Q 1428 441 1663 441 
Q 2288 441 2617 861 
Q 2947 1281 2994 2138 
Q 2813 1869 2534 1725 
Q 2256 1581 1919 1581 
Q 1219 1581 811 2004 
Q 403 2428 403 3163 
Q 403 3881 828 4315 
Q 1253 4750 1959 4750 
Q 2769 4750 3195 4129 
Q 3622 3509 3622 2328 
Q 3622 1225 3098 567 
Q 2575 -91 1691 -91 
Q 1453 -91 1209 -44 
Q 966 3 703 97 
z
M 1959 2075 
Q 2384 2075 2632 2365 
Q 2881 2656 2881 3163 
Q 2881 3666 2632 3958 
Q 2384 4250 1959 4250 
Q 1534 4250 1286 3958 
Q 1038 3666 1038 3163 
Q 1038 2656 1286 2365 
Q 1534 2075 1959 2075 
z
" transform="scale(0.015625)"/>
        <path id="DejaVuSans-36" d="M 2113 2584 
Q 1688 2584 1439 2293 
Q 1191 2003 1191 1497 
Q 1191 994 1439 701 
Q 1688 409 2113 409 
Q 2538 409 2786 701 
Q 3034 994 3034 1497 
Q 3034 2003 2786 2293 
Q 2538 2584 2113 2584 
z
M 3366 4563 
L 3366 3988 
Q 3128 4100 2886 4159 
Q 2644 4219 2406 4219 
Q 1781 4219 1451 3797 
Q 1122 3375 1075 2522 
Q 1259 2794 1537 2939 
Q 1816 3084 2150 3084 
Q 2853 3084 3261 2657 
Q 3669 2231 3669 1497 
Q 3669 778 3244 343 
Q 2819 -91 2113 -91 
Q 1303 -91 875 529 
Q 447 1150 447 2328 
Q 447 3434 972 4092 
Q 1497 4750 2381 4750 
Q 2619 4750 2861 4703 
Q 3103 4656 3366 4563 
z
" transform="scale(0.015625)"/>
       </defs>
       <use xlink:href="#DejaVuSans-30"/>
       <use xlink:href="#DejaVuSans-2e" x="63.623047"/>
       <use xlink:href="#DejaVuSans-39" x="95.410156"/>
       <use xlink:href="#DejaVuSans-36" x="159.033203"/>
      </g>
     </g>
    </g>
    <g id="ytick_2">
     <g id="line2d_7">
      <g>
       <use xlink:href="#m2757af0a84" x="54.05" y="174.857782" style="stroke: #000000; stroke-width: 0.8"/>
      </g>
     </g>
     <g id="text_8">
      <!-- 0.97 -->
      <g transform="translate(24.784375 178.657001)scale(0.1 -0.1)">
       <defs>
        <path id="DejaVuSans-37" d="M 525 4666 
L 3525 4666 
L 3525 4397 
L 1831 0 
L 1172 0 
L 2766 4134 
L 525 4134 
L 525 4666 
z
" transform="scale(0.015625)"/>
       </defs>
       <use xlink:href="#DejaVuSans-30"/>
       <use xlink:href="#DejaVuSans-2e" x="63.623047"/>
       <use xlink:href="#DejaVuSans-39" x="95.410156"/>
       <use xlink:href="#DejaVuSans-37" x="159.033203"/>
      </g>
     </g>
    </g>
    <g id="ytick_3">
     <g id="line2d_8">
      <g>
       <use xlink:href="#m2757af0a84" x="54.05" y="136.106928" style="stroke: #000000; stroke-width: 0.8"/>
      </g>
     </g>
     <g id="text_9">
      <!-- 0.98 -->
      <g transform="translate(24.784375 139.906147)scale(0.1 -0.1)">
       <defs>
        <path id="DejaVuSans-38" d="M 2034 2216 
Q 1584 2216 1326 1975 
Q 1069 1734 1069 1313 
Q 1069 891 1326 650 
Q 1584 409 2034 409 
Q 2484 409 2743 651 
Q 3003 894 3003 1313 
Q 3003 1734 2745 1975 
Q 2488 2216 2034 2216 
z
M 1403 2484 
Q 997 2584 770 2862 
Q 544 3141 544 3541 
Q 544 4100 942 4425 
Q 1341 4750 2034 4750 
Q 2731 4750 3128 4425 
Q 3525 4100 3525 3541 
Q 3525 3141 3298 2862 
Q 3072 2584 2669 2484 
Q 3125 2378 3379 2068 
Q 3634 1759 3634 1313 
Q 3634 634 3220 271 
Q 2806 -91 2034 -91 
Q 1263 -91 848 271 
Q 434 634 434 1313 
Q 434 1759 690 2068 
Q 947 2378 1403 2484 
z
M 1172 3481 
Q 1172 3119 1398 2916 
Q 1625 2713 2034 2713 
Q 2441 2713 2670 2916 
Q 2900 3119 2900 3481 
Q 2900 3844 2670 4047 
Q 2441 4250 2034 4250 
Q 1625 4250 1398 4047 
Q 1172 3844 1172 3481 
z
" transform="scale(0.015625)"/>
       </defs>
       <use xlink:href="#DejaVuSans-30"/>
       <use xlink:href="#DejaVuSans-2e" x="63.623047"/>
       <use xlink:href="#DejaVuSans-39" x="95.410156"/>
       <use xlink:href="#DejaVuSans-38" x="159.033203"/>
      </g>
     </g>
    </g>
    <g id="ytick_4">
     <g id="line2d_9">
      <g>
       <use xlink:href="#m2757af0a84" x="54.05" y="97.356074" style="stroke: #000000; stroke-width: 0.8"/>
      </g>
     </g>
     <g id="text_10">
      <!-- 0.99 -->
      <g transform="translate(24.784375 101.155293)scale(0.1 -0.1)">
       <use xlink:href="#DejaVuSans-30"/>
       <use xlink:href="#DejaVuSans-2e" x="63.623047"/>
       <use xlink:href="#DejaVuSans-39" x="95.410156"/>
       <use xlink:href="#DejaVuSans-39" x="159.033203"/>
      </g>
     </g>
    </g>
    <g id="ytick_5">
     <g id="line2d_10">
      <g>
       <use xlink:href="#m2757af0a84" x="54.05" y="58.60522" style="stroke: #000000; stroke-width: 0.8"/>
      </g>
     </g>
     <g id="text_11">
      <!-- 1.00 -->
      <g transform="translate(24.784375 62.404439)scale(0.1 -0.1)">
       <use xlink:href="#DejaVuSans-31"/>
       <use xlink:href="#DejaVuSans-2e" x="63.623047"/>
       <use xlink:href="#DejaVuSans-30" x="95.410156"/>
       <use xlink:href="#DejaVuSans-30" x="159.033203"/>
      </g>
     </g>
    </g>
    <g id="ytick_6">
     <g id="line2d_11">
      <g>
       <use xlink:href="#m2757af0a84" x="54.05" y="19.854366" style="stroke: #000000; stroke-width: 0.8"/>
      </g>
     </g>
     <g id="text_12">
      <!-- 1.01 -->
      <g transform="translate(24.784375 23.653585)scale(0.1 -0.1)">
       <use xlink:href="#DejaVuSans-31"/>
       <use xlink:href="#DejaVuSans-2e" x="63.623047"/>
       <use xlink:href="#DejaVuSans-30" x="95.410156"/>
       <use xlink:href="#DejaVuSans-31" x="159.033203"/>
      </g>
     </g>
    </g>
    <g id="text_13">
     <!-- SPOT Value -->
     <g transform="translate(18.704688 158.039219)rotate(-90)scale(0.1 -0.1)">
      <defs>
       <path id="DejaVuSans-53" d="M 3425 4513 
L 3425 3897 
Q 3066 4069 2747 4153 
Q 2428 4238 2131 4238 
Q 1616 4238 1336 4038 
Q 1056 3838 1056 3469 
Q 1056 3159 1242 3001 
Q 1428 2844 1947 2747 
L 2328 2669 
Q 3034 2534 3370 2195 
Q 3706 1856 3706 1288 
Q 3706 609 3251 259 
Q 2797 -91 1919 -91 
Q 1588 -91 1214 -16 
Q 841 59 441 206 
L 441 856 
Q 825 641 1194 531 
Q 1563 422 1919 422 
Q 2459 422 2753 634 
Q 3047 847 3047 1241 
Q 3047 1584 2836 1778 
Q 2625 1972 2144 2069 
L 1759 2144 
Q 1053 2284 737 2584 
Q 422 2884 422 3419 
Q 422 4038 858 4394 
Q 1294 4750 2059 4750 
Q 2388 4750 2728 4690 
Q 3069 4631 3425 4513 
z
" transform="scale(0.015625)"/>
       <path id="DejaVuSans-4f" d="M 2522 4238 
Q 1834 4238 1429 3725 
Q 1025 3213 1025 2328 
Q 1025 1447 1429 934 
Q 1834 422 2522 422 
Q 3209 422 3611 934 
Q 4013 1447 4013 2328 
Q 4013 3213 3611 3725 
Q 3209 4238 2522 4238 
z
M 2522 4750 
Q 3503 4750 4090 4092 
Q 4678 3434 4678 2328 
Q 4678 1225 4090 567 
Q 3503 -91 2522 -91 
Q 1538 -91 948 565 
Q 359 1222 359 2328 
Q 359 3434 948 4092 
Q 1538 4750 2522 4750 
z
" transform="scale(0.015625)"/>
       <path id="DejaVuSans-54" d="M -19 4666 
L 3928 4666 
L 3928 4134 
L 2272 4134 
L 2272 0 
L 1638 0 
L 1638 4134 
L -19 4134 
L -19 4666 
z
" transform="scale(0.015625)"/>
       <path id="DejaVuSans-56" d="M 1831 0 
L 50 4666 
L 709 4666 
L 2188 738 
L 3669 4666 
L 4325 4666 
L 2547 0 
L 1831 0 
z
" transform="scale(0.015625)"/>
       <path id="DejaVuSans-6c" d="M 603 4863 
L 1178 4863 
L 1178 0 
L 603 0 
L 603 4863 
z
" transform="scale(0.015625)"/>
       <path id="DejaVuSans-75" d="M 544 1381 
L 544 3500 
L 1119 3500 
L 1119 1403 
Q 1119 906 1312 657 
Q 1506 409 1894 409 
Q 2359 409 2629 706 
Q 2900 1003 2900 1516 
L 2900 3500 
L 3475 3500 
L 3475 0 
L 2900 0 
L 2900 538 
Q 2691 219 2414 64 
Q 2138 -91 1772 -91 
Q 1169 -91 856 284 
Q 544 659 544 1381 
z
M 1991 3584 
L 1991 3584 
z
" transform="scale(0.015625)"/>
      </defs>
      <use xlink:href="#DejaVuSans-53"/>
      <use xlink:href="#DejaVuSans-50" x="63.476562"/>
      <use xlink:href="#DejaVuSans-4f" x="123.779297"/>
      <use xlink:href="#DejaVuSans-54" x="202.490234"/>
      <use xlink:href="#DejaVuSans-20" x="263.574219"/>
      <use xlink:href="#DejaVuSans-56" x="295.361328"/>
      <use xlink:href="#DejaVuSans-61" x="356.019531"/>
      <use xlink:href="#DejaVuSans-6c" x="417.298828"/>
      <use xlink:href="#DejaVuSans-75" x="445.082031"/>
      <use xlink:href="#DejaVuSans-65" x="508.460938"/>
     </g>
    </g>
   </g>
   <g id="LineCollection_1">
    <path d="M 81.654945 150.340513 
L 81.654945 99.819853 
" clip-path="url(#pa65ef96215)" style="fill: none; stroke: #1f77b4; stroke-width: 1.5"/>
    <path d="M 146.543646 139.189625 
L 146.543646 102.094831 
" clip-path="url(#pa65ef96215)" style="fill: none; stroke: #1f77b4; stroke-width: 1.5"/>
    <path d="M 211.432347 131.101096 
L 211.432347 98.168469 
" clip-path="url(#pa65ef96215)" style="fill: none; stroke: #1f77b4; stroke-width: 1.5"/>
    <path d="M 276.321048 127.14049 
L 276.321048 94.998229 
" clip-path="url(#pa65ef96215)" style="fill: none; stroke: #1f77b4; stroke-width: 1.5"/>
    <path d="M 341.209749 119.904784 
L 341.209749 72.750227 
" clip-path="url(#pa65ef96215)" style="fill: none; stroke: #1f77b4; stroke-width: 1.5"/>
   </g>
   <g id="LineCollection_2">
    <path d="M 67.868719 161.982957 
L 67.868719 111.54098 
" clip-path="url(#pa65ef96215)" style="fill: none; stroke: #ff7f0e; stroke-width: 1.5"/>
    <path d="M 132.75742 156.43471 
L 132.75742 119.396634 
" clip-path="url(#pa65ef96215)" style="fill: none; stroke: #ff7f0e; stroke-width: 1.5"/>
    <path d="M 197.646121 149.204506 
L 197.646121 116.32317 
" clip-path="url(#pa65ef96215)" style="fill: none; stroke: #ff7f0e; stroke-width: 1.5"/>
    <path d="M 262.534822 155.67657 
L 262.534822 123.584369 
" clip-path="url(#pa65ef96215)" style="fill: none; stroke: #ff7f0e; stroke-width: 1.5"/>
    <path d="M 327.423523 152.556364 
L 327.423523 105.475248 
" clip-path="url(#pa65ef96215)" style="fill: none; stroke: #ff7f0e; stroke-width: 1.5"/>
   </g>
   <g id="LineCollection_3">
    <path d="M 84.688293 100.2067 
L 84.688293 49.743331 
" clip-path="url(#pa65ef96215)" style="fill: none; stroke: #2ca02c; stroke-width: 1.5"/>
    <path d="M 149.576994 88.444092 
L 149.576994 51.392351 
" clip-path="url(#pa65ef96215)" style="fill: none; stroke: #2ca02c; stroke-width: 1.5"/>
    <path d="M 214.465695 82.602496 
L 214.465695 49.707215 
" clip-path="url(#pa65ef96215)" style="fill: none; stroke: #2ca02c; stroke-width: 1.5"/>
    <path d="M 279.354396 77.759147 
L 279.354396 45.653336 
" clip-path="url(#pa65ef96215)" style="fill: none; stroke: #2ca02c; stroke-width: 1.5"/>
    <path d="M 344.243097 85.855161 
L 344.243097 38.754078 
" clip-path="url(#pa65ef96215)" style="fill: none; stroke: #2ca02c; stroke-width: 1.5"/>
   </g>
   <g id="LineCollection_4">
    <path d="M 70.505578 156.155136 
L 70.505578 105.670142 
" clip-path="url(#pa65ef96215)" style="fill: none; stroke: #d62728; stroke-width: 1.5"/>
    <path d="M 135.394279 144.963105 
L 135.394279 107.893244 
" clip-path="url(#pa65ef96215)" style="fill: none; stroke: #d62728; stroke-width: 1.5"/>
    <path d="M 200.28298 144.006975 
L 200.28298 111.097598 
" clip-path="url(#pa65ef96215)" style="fill: none; stroke: #d62728; stroke-width: 1.5"/>
    <path d="M 265.171681 136.785466 
L 265.171681 104.665897 
" clip-path="url(#pa65ef96215)" style="fill: none; stroke: #d62728; stroke-width: 1.5"/>
    <path d="M 330.060382 134.501912 
L 330.060382 87.380645 
" clip-path="url(#pa65ef96215)" style="fill: none; stroke: #d62728; stroke-width: 1.5"/>
   </g>
   <g id="LineCollection_5">
    <path d="M 75.813436 77.439081 
L 75.813436 26.94 
" clip-path="url(#pa65ef96215)" style="fill: none; stroke: #9467bd; stroke-width: 1.5"/>
    <path d="M 140.702137 69.966386 
L 140.702137 32.888087 
" clip-path="url(#pa65ef96215)" style="fill: none; stroke: #9467bd; stroke-width: 1.5"/>
    <path d="M 205.590838 71.265134 
L 205.590838 38.346574 
" clip-path="url(#pa65ef96215)" style="fill: none; stroke: #9467bd; stroke-width: 1.5"/>
    <path d="M 270.479539 84.020086 
L 270.479539 51.891555 
" clip-path="url(#pa65ef96215)" style="fill: none; stroke: #9467bd; stroke-width: 1.5"/>
    <path d="M 335.36824 131.513831 
L 335.36824 84.379416 
" clip-path="url(#pa65ef96215)" style="fill: none; stroke: #9467bd; stroke-width: 1.5"/>
   </g>
   <g id="LineCollection_6">
    <path d="M 74.258346 85.022252 
L 74.258346 34.541979 
" clip-path="url(#pa65ef96215)" style="fill: none; stroke: #8c564b; stroke-width: 1.5"/>
    <path d="M 139.147048 104.731602 
L 139.147048 67.665068 
" clip-path="url(#pa65ef96215)" style="fill: none; stroke: #8c564b; stroke-width: 1.5"/>
    <path d="M 204.035749 140.290158 
L 204.035749 107.383858 
" clip-path="url(#pa65ef96215)" style="fill: none; stroke: #8c564b; stroke-width: 1.5"/>
    <path d="M 268.92445 174.864212 
L 268.92445 142.747647 
" clip-path="url(#pa65ef96215)" style="fill: none; stroke: #8c564b; stroke-width: 1.5"/>
    <path d="M 333.813151 232.14 
L 333.813151 185.02314 
" clip-path="url(#pa65ef96215)" style="fill: none; stroke: #8c564b; stroke-width: 1.5"/>
   </g>
   <g id="LineCollection_7">
    <path d="M 69.679038 127.055518 
L 69.679038 76.571024 
" clip-path="url(#pa65ef96215)" style="fill: none; stroke: #e377c2; stroke-width: 1.5"/>
    <path d="M 134.567739 112.990772 
L 134.567739 75.921075 
" clip-path="url(#pa65ef96215)" style="fill: none; stroke: #e377c2; stroke-width: 1.5"/>
    <path d="M 199.45644 106.051313 
L 199.45644 73.142262 
" clip-path="url(#pa65ef96215)" style="fill: none; stroke: #e377c2; stroke-width: 1.5"/>
    <path d="M 264.345141 112.470761 
L 264.345141 80.351511 
" clip-path="url(#pa65ef96215)" style="fill: none; stroke: #e377c2; stroke-width: 1.5"/>
    <path d="M 329.233842 121.812604 
L 329.233842 74.691804 
" clip-path="url(#pa65ef96215)" style="fill: none; stroke: #e377c2; stroke-width: 1.5"/>
   </g>
   <g id="LineCollection_8">
    <path d="M 78.186811 128.007354 
L 78.186811 77.490629 
" clip-path="url(#pa65ef96215)" style="fill: none; stroke: #7f7f7f; stroke-width: 1.5"/>
    <path d="M 143.075513 108.968763 
L 143.075513 71.873797 
" clip-path="url(#pa65ef96215)" style="fill: none; stroke: #7f7f7f; stroke-width: 1.5"/>
    <path d="M 207.964214 108.632391 
L 207.964214 75.702329 
" clip-path="url(#pa65ef96215)" style="fill: none; stroke: #7f7f7f; stroke-width: 1.5"/>
    <path d="M 272.852915 110.906516 
L 272.852915 78.766759 
" clip-path="url(#pa65ef96215)" style="fill: none; stroke: #7f7f7f; stroke-width: 1.5"/>
    <path d="M 337.741616 100.354186 
L 337.741616 53.203302 
" clip-path="url(#pa65ef96215)" style="fill: none; stroke: #7f7f7f; stroke-width: 1.5"/>
   </g>
   <g id="LineCollection_9">
    <path d="M 76.735514 106.377964 
L 76.735514 55.910758 
" clip-path="url(#pa65ef96215)" style="fill: none; stroke: #bcbd22; stroke-width: 1.5"/>
    <path d="M 141.624215 95.767559 
L 141.624215 58.710687 
" clip-path="url(#pa65ef96215)" style="fill: none; stroke: #bcbd22; stroke-width: 1.5"/>
    <path d="M 206.512916 91.684074 
L 206.512916 58.786292 
" clip-path="url(#pa65ef96215)" style="fill: none; stroke: #bcbd22; stroke-width: 1.5"/>
    <path d="M 271.401617 100.623319 
L 271.401617 68.515067 
" clip-path="url(#pa65ef96215)" style="fill: none; stroke: #bcbd22; stroke-width: 1.5"/>
    <path d="M 336.290318 118.945406 
L 336.290318 71.840742 
" clip-path="url(#pa65ef96215)" style="fill: none; stroke: #bcbd22; stroke-width: 1.5"/>
   </g>
   <g id="LineCollection_10">
    <path d="M 70.612282 116.860794 
L 70.612282 66.327726 
" clip-path="url(#pa65ef96215)" style="fill: none; stroke: #17becf; stroke-width: 1.5"/>
    <path d="M 135.500983 106.531174 
L 135.500983 69.425792 
" clip-path="url(#pa65ef96215)" style="fill: none; stroke: #17becf; stroke-width: 1.5"/>
    <path d="M 200.389685 118.795015 
L 200.389685 85.854299 
" clip-path="url(#pa65ef96215)" style="fill: none; stroke: #17becf; stroke-width: 1.5"/>
    <path d="M 265.278386 133.039612 
L 265.278386 100.889457 
" clip-path="url(#pa65ef96215)" style="fill: none; stroke: #17becf; stroke-width: 1.5"/>
    <path d="M 330.167087 169.626623 
L 330.167087 122.460484 
" clip-path="url(#pa65ef96215)" style="fill: none; stroke: #17becf; stroke-width: 1.5"/>
   </g>
   <g id="LineCollection_11">
    <path d="M 71.077434 133.666294 
L 71.077434 83.193752 
" clip-path="url(#pa65ef96215)" style="fill: none; stroke: #1f77b4; stroke-width: 1.5"/>
    <path d="M 135.966135 116.906845 
L 135.966135 79.847023 
" clip-path="url(#pa65ef96215)" style="fill: none; stroke: #1f77b4; stroke-width: 1.5"/>
    <path d="M 200.854836 112.125089 
L 200.854836 79.223828 
" clip-path="url(#pa65ef96215)" style="fill: none; stroke: #1f77b4; stroke-width: 1.5"/>
    <path d="M 265.743537 108.380827 
L 265.743537 76.269181 
" clip-path="url(#pa65ef96215)" style="fill: none; stroke: #1f77b4; stroke-width: 1.5"/>
    <path d="M 330.632239 113.875673 
L 330.632239 66.766029 
" clip-path="url(#pa65ef96215)" style="fill: none; stroke: #1f77b4; stroke-width: 1.5"/>
   </g>
   <g id="LineCollection_12">
    <path d="M 80.462425 82.924766 
L 80.462425 32.400319 
" clip-path="url(#pa65ef96215)" style="fill: none; stroke: #ff7f0e; stroke-width: 1.5"/>
    <path d="M 145.351126 83.693334 
L 145.351126 46.595258 
" clip-path="url(#pa65ef96215)" style="fill: none; stroke: #ff7f0e; stroke-width: 1.5"/>
    <path d="M 210.239827 91.833125 
L 210.239827 58.898029 
" clip-path="url(#pa65ef96215)" style="fill: none; stroke: #ff7f0e; stroke-width: 1.5"/>
    <path d="M 275.128529 103.89174 
L 275.128529 71.747071 
" clip-path="url(#pa65ef96215)" style="fill: none; stroke: #ff7f0e; stroke-width: 1.5"/>
    <path d="M 340.01723 128.092793 
L 340.01723 80.934702 
" clip-path="url(#pa65ef96215)" style="fill: none; stroke: #ff7f0e; stroke-width: 1.5"/>
   </g>
   <g id="line2d_12">
    <defs>
     <path id="m341646d55b" d="M 0 3 
C 0.795609 3 1.55874 2.683901 2.12132 2.12132 
C 2.683901 1.55874 3 0.795609 3 0 
C 3 -0.795609 2.683901 -1.55874 2.12132 -2.12132 
C 1.55874 -2.683901 0.795609 -3 0 -3 
C -0.795609 -3 -1.55874 -2.683901 -2.12132 -2.12132 
C -2.683901 -1.55874 -3 -0.795609 -3 0 
C -3 0.795609 -2.683901 1.55874 -2.12132 2.12132 
C -1.55874 2.683901 -0.795609 3 0 3 
z
" style="stroke: #1f77b4"/>
    </defs>
    <g clip-path="url(#pa65ef96215)">
     <use xlink:href="#m341646d55b" x="81.654945" y="125.080183" style="fill: #1f77b4; stroke: #1f77b4"/>
     <use xlink:href="#m341646d55b" x="146.543646" y="120.642228" style="fill: #1f77b4; stroke: #1f77b4"/>
     <use xlink:href="#m341646d55b" x="211.432347" y="114.634782" style="fill: #1f77b4; stroke: #1f77b4"/>
     <use xlink:href="#m341646d55b" x="276.321048" y="111.069359" style="fill: #1f77b4; stroke: #1f77b4"/>
     <use xlink:href="#m341646d55b" x="341.209749" y="96.327506" style="fill: #1f77b4; stroke: #1f77b4"/>
    </g>
   </g>
   <g id="line2d_13">
    <defs>
     <path id="m757aa68994" d="M 0 3 
C 0.795609 3 1.55874 2.683901 2.12132 2.12132 
C 2.683901 1.55874 3 0.795609 3 0 
C 3 -0.795609 2.683901 -1.55874 2.12132 -2.12132 
C 1.55874 -2.683901 0.795609 -3 0 -3 
C -0.795609 -3 -1.55874 -2.683901 -2.12132 -2.12132 
C -2.683901 -1.55874 -3 -0.795609 -3 0 
C -3 0.795609 -2.683901 1.55874 -2.12132 2.12132 
C -1.55874 2.683901 -0.795609 3 0 3 
z
" style="stroke: #ff7f0e"/>
    </defs>
    <g clip-path="url(#pa65ef96215)">
     <use xlink:href="#m757aa68994" x="67.868719" y="136.761968" style="fill: #ff7f0e; stroke: #ff7f0e"/>
     <use xlink:href="#m757aa68994" x="132.75742" y="137.915672" style="fill: #ff7f0e; stroke: #ff7f0e"/>
     <use xlink:href="#m757aa68994" x="197.646121" y="132.763838" style="fill: #ff7f0e; stroke: #ff7f0e"/>
     <use xlink:href="#m757aa68994" x="262.534822" y="139.63047" style="fill: #ff7f0e; stroke: #ff7f0e"/>
     <use xlink:href="#m757aa68994" x="327.423523" y="129.015806" style="fill: #ff7f0e; stroke: #ff7f0e"/>
    </g>
   </g>
   <g id="line2d_14">
    <defs>
     <path id="m1023db1162" d="M 0 3 
C 0.795609 3 1.55874 2.683901 2.12132 2.12132 
C 2.683901 1.55874 3 0.795609 3 0 
C 3 -0.795609 2.683901 -1.55874 2.12132 -2.12132 
C 1.55874 -2.683901 0.795609 -3 0 -3 
C -0.795609 -3 -1.55874 -2.683901 -2.12132 -2.12132 
C -2.683901 -1.55874 -3 -0.795609 -3 0 
C -3 0.795609 -2.683901 1.55874 -2.12132 2.12132 
C -1.55874 2.683901 -0.795609 3 0 3 
z
" style="stroke: #2ca02c"/>
    </defs>
    <g clip-path="url(#pa65ef96215)">
     <use xlink:href="#m1023db1162" x="84.688293" y="74.975015" style="fill: #2ca02c; stroke: #2ca02c"/>
     <use xlink:href="#m1023db1162" x="149.576994" y="69.918222" style="fill: #2ca02c; stroke: #2ca02c"/>
     <use xlink:href="#m1023db1162" x="214.465695" y="66.154855" style="fill: #2ca02c; stroke: #2ca02c"/>
     <use xlink:href="#m1023db1162" x="279.354396" y="61.706242" style="fill: #2ca02c; stroke: #2ca02c"/>
     <use xlink:href="#m1023db1162" x="344.243097" y="62.304619" style="fill: #2ca02c; stroke: #2ca02c"/>
    </g>
   </g>
   <g id="line2d_15">
    <defs>
     <path id="m7e30a189cd" d="M 0 3 
C 0.795609 3 1.55874 2.683901 2.12132 2.12132 
C 2.683901 1.55874 3 0.795609 3 0 
C 3 -0.795609 2.683901 -1.55874 2.12132 -2.12132 
C 1.55874 -2.683901 0.795609 -3 0 -3 
C -0.795609 -3 -1.55874 -2.683901 -2.12132 -2.12132 
C -2.683901 -1.55874 -3 -0.795609 -3 0 
C -3 0.795609 -2.683901 1.55874 -2.12132 2.12132 
C -1.55874 2.683901 -0.795609 3 0 3 
z
" style="stroke: #d62728"/>
    </defs>
    <g clip-path="url(#pa65ef96215)">
     <use xlink:href="#m7e30a189cd" x="70.505578" y="130.912639" style="fill: #d62728; stroke: #d62728"/>
     <use xlink:href="#m7e30a189cd" x="135.394279" y="126.428174" style="fill: #d62728; stroke: #d62728"/>
     <use xlink:href="#m7e30a189cd" x="200.28298" y="127.552286" style="fill: #d62728; stroke: #d62728"/>
     <use xlink:href="#m7e30a189cd" x="265.171681" y="120.725682" style="fill: #d62728; stroke: #d62728"/>
     <use xlink:href="#m7e30a189cd" x="330.060382" y="110.941279" style="fill: #d62728; stroke: #d62728"/>
    </g>
   </g>
   <g id="line2d_16">
    <defs>
     <path id="mca54b8cde0" d="M 0 3 
C 0.795609 3 1.55874 2.683901 2.12132 2.12132 
C 2.683901 1.55874 3 0.795609 3 0 
C 3 -0.795609 2.683901 -1.55874 2.12132 -2.12132 
C 1.55874 -2.683901 0.795609 -3 0 -3 
C -0.795609 -3 -1.55874 -2.683901 -2.12132 -2.12132 
C -2.683901 -1.55874 -3 -0.795609 -3 0 
C -3 0.795609 -2.683901 1.55874 -2.12132 2.12132 
C -1.55874 2.683901 -0.795609 3 0 3 
z
" style="stroke: #9467bd"/>
    </defs>
    <g clip-path="url(#pa65ef96215)">
     <use xlink:href="#mca54b8cde0" x="75.813436" y="52.18954" style="fill: #9467bd; stroke: #9467bd"/>
     <use xlink:href="#mca54b8cde0" x="140.702137" y="51.427236" style="fill: #9467bd; stroke: #9467bd"/>
     <use xlink:href="#mca54b8cde0" x="205.590838" y="54.805854" style="fill: #9467bd; stroke: #9467bd"/>
     <use xlink:href="#mca54b8cde0" x="270.479539" y="67.955821" style="fill: #9467bd; stroke: #9467bd"/>
     <use xlink:href="#mca54b8cde0" x="335.36824" y="107.946623" style="fill: #9467bd; stroke: #9467bd"/>
    </g>
   </g>
   <g id="line2d_17">
    <defs>
     <path id="mf2d240382e" d="M 0 3 
C 0.795609 3 1.55874 2.683901 2.12132 2.12132 
C 2.683901 1.55874 3 0.795609 3 0 
C 3 -0.795609 2.683901 -1.55874 2.12132 -2.12132 
C 1.55874 -2.683901 0.795609 -3 0 -3 
C -0.795609 -3 -1.55874 -2.683901 -2.12132 -2.12132 
C -2.683901 -1.55874 -3 -0.795609 -3 0 
C -3 0.795609 -2.683901 1.55874 -2.12132 2.12132 
C -1.55874 2.683901 -0.795609 3 0 3 
z
" style="stroke: #8c564b"/>
    </defs>
    <g clip-path="url(#pa65ef96215)">
     <use xlink:href="#mf2d240382e" x="74.258346" y="59.782115" style="fill: #8c564b; stroke: #8c564b"/>
     <use xlink:href="#mf2d240382e" x="139.147048" y="86.198335" style="fill: #8c564b; stroke: #8c564b"/>
     <use xlink:href="#mf2d240382e" x="204.035749" y="123.837008" style="fill: #8c564b; stroke: #8c564b"/>
     <use xlink:href="#mf2d240382e" x="268.92445" y="158.805929" style="fill: #8c564b; stroke: #8c564b"/>
     <use xlink:href="#mf2d240382e" x="333.813151" y="208.58157" style="fill: #8c564b; stroke: #8c564b"/>
    </g>
   </g>
   <g id="line2d_18">
    <defs>
     <path id="m5856524f5a" d="M 0 3 
C 0.795609 3 1.55874 2.683901 2.12132 2.12132 
C 2.683901 1.55874 3 0.795609 3 0 
C 3 -0.795609 2.683901 -1.55874 2.12132 -2.12132 
C 1.55874 -2.683901 0.795609 -3 0 -3 
C -0.795609 -3 -1.55874 -2.683901 -2.12132 -2.12132 
C -2.683901 -1.55874 -3 -0.795609 -3 0 
C -3 0.795609 -2.683901 1.55874 -2.12132 2.12132 
C -1.55874 2.683901 -0.795609 3 0 3 
z
" style="stroke: #e377c2"/>
    </defs>
    <g clip-path="url(#pa65ef96215)">
     <use xlink:href="#m5856524f5a" x="69.679038" y="101.813271" style="fill: #e377c2; stroke: #e377c2"/>
     <use xlink:href="#m5856524f5a" x="134.567739" y="94.455924" style="fill: #e377c2; stroke: #e377c2"/>
     <use xlink:href="#m5856524f5a" x="199.45644" y="89.596787" style="fill: #e377c2; stroke: #e377c2"/>
     <use xlink:href="#m5856524f5a" x="264.345141" y="96.411136" style="fill: #e377c2; stroke: #e377c2"/>
     <use xlink:href="#m5856524f5a" x="329.233842" y="98.252204" style="fill: #e377c2; stroke: #e377c2"/>
    </g>
   </g>
   <g id="line2d_19">
    <defs>
     <path id="m346cc06ac9" d="M 0 3 
C 0.795609 3 1.55874 2.683901 2.12132 2.12132 
C 2.683901 1.55874 3 0.795609 3 0 
C 3 -0.795609 2.683901 -1.55874 2.12132 -2.12132 
C 1.55874 -2.683901 0.795609 -3 0 -3 
C -0.795609 -3 -1.55874 -2.683901 -2.12132 -2.12132 
C -2.683901 -1.55874 -3 -0.795609 -3 0 
C -3 0.795609 -2.683901 1.55874 -2.12132 2.12132 
C -1.55874 2.683901 -0.795609 3 0 3 
z
" style="stroke: #7f7f7f"/>
    </defs>
    <g clip-path="url(#pa65ef96215)">
     <use xlink:href="#m346cc06ac9" x="78.186811" y="102.748992" style="fill: #7f7f7f; stroke: #7f7f7f"/>
     <use xlink:href="#m346cc06ac9" x="143.075513" y="90.42128" style="fill: #7f7f7f; stroke: #7f7f7f"/>
     <use xlink:href="#m346cc06ac9" x="207.964214" y="92.16736" style="fill: #7f7f7f; stroke: #7f7f7f"/>
     <use xlink:href="#m346cc06ac9" x="272.852915" y="94.836638" style="fill: #7f7f7f; stroke: #7f7f7f"/>
     <use xlink:href="#m346cc06ac9" x="337.741616" y="76.778744" style="fill: #7f7f7f; stroke: #7f7f7f"/>
    </g>
   </g>
   <g id="line2d_20">
    <defs>
     <path id="ma793e355ef" d="M 0 3 
C 0.795609 3 1.55874 2.683901 2.12132 2.12132 
C 2.683901 1.55874 3 0.795609 3 0 
C 3 -0.795609 2.683901 -1.55874 2.12132 -2.12132 
C 1.55874 -2.683901 0.795609 -3 0 -3 
C -0.795609 -3 -1.55874 -2.683901 -2.12132 -2.12132 
C -2.683901 -1.55874 -3 -0.795609 -3 0 
C -3 0.795609 -2.683901 1.55874 -2.12132 2.12132 
C -1.55874 2.683901 -0.795609 3 0 3 
z
" style="stroke: #bcbd22"/>
    </defs>
    <g clip-path="url(#pa65ef96215)">
     <use xlink:href="#ma793e355ef" x="76.735514" y="81.144361" style="fill: #bcbd22; stroke: #bcbd22"/>
     <use xlink:href="#ma793e355ef" x="141.624215" y="77.239123" style="fill: #bcbd22; stroke: #bcbd22"/>
     <use xlink:href="#ma793e355ef" x="206.512916" y="75.235183" style="fill: #bcbd22; stroke: #bcbd22"/>
     <use xlink:href="#ma793e355ef" x="271.401617" y="84.569193" style="fill: #bcbd22; stroke: #bcbd22"/>
     <use xlink:href="#ma793e355ef" x="336.290318" y="95.393074" style="fill: #bcbd22; stroke: #bcbd22"/>
    </g>
   </g>
   <g id="line2d_21">
    <defs>
     <path id="m7eeacf3bd2" d="M 0 3 
C 0.795609 3 1.55874 2.683901 2.12132 2.12132 
C 2.683901 1.55874 3 0.795609 3 0 
C 3 -0.795609 2.683901 -1.55874 2.12132 -2.12132 
C 1.55874 -2.683901 0.795609 -3 0 -3 
C -0.795609 -3 -1.55874 -2.683901 -2.12132 -2.12132 
C -2.683901 -1.55874 -3 -0.795609 -3 0 
C -3 0.795609 -2.683901 1.55874 -2.12132 2.12132 
C -1.55874 2.683901 -0.795609 3 0 3 
z
" style="stroke: #17becf"/>
    </defs>
    <g clip-path="url(#pa65ef96215)">
     <use xlink:href="#m7eeacf3bd2" x="70.612282" y="91.59426" style="fill: #17becf; stroke: #17becf"/>
     <use xlink:href="#m7eeacf3bd2" x="135.500983" y="87.978483" style="fill: #17becf; stroke: #17becf"/>
     <use xlink:href="#m7eeacf3bd2" x="200.389685" y="102.324657" style="fill: #17becf; stroke: #17becf"/>
     <use xlink:href="#m7eeacf3bd2" x="265.278386" y="116.964534" style="fill: #17becf; stroke: #17becf"/>
     <use xlink:href="#m7eeacf3bd2" x="330.167087" y="146.043553" style="fill: #17becf; stroke: #17becf"/>
    </g>
   </g>
   <g id="line2d_22">
    <g clip-path="url(#pa65ef96215)">
     <use xlink:href="#m341646d55b" x="71.077434" y="108.430023" style="fill: #1f77b4; stroke: #1f77b4"/>
     <use xlink:href="#m341646d55b" x="135.966135" y="98.376934" style="fill: #1f77b4; stroke: #1f77b4"/>
     <use xlink:href="#m341646d55b" x="200.854836" y="95.674458" style="fill: #1f77b4; stroke: #1f77b4"/>
     <use xlink:href="#m341646d55b" x="265.743537" y="92.325004" style="fill: #1f77b4; stroke: #1f77b4"/>
     <use xlink:href="#m341646d55b" x="330.632239" y="90.320851" style="fill: #1f77b4; stroke: #1f77b4"/>
    </g>
   </g>
   <g id="line2d_23">
    <g clip-path="url(#pa65ef96215)">
     <use xlink:href="#m757aa68994" x="80.462425" y="57.662542" style="fill: #ff7f0e; stroke: #ff7f0e"/>
     <use xlink:href="#m757aa68994" x="145.351126" y="65.144296" style="fill: #ff7f0e; stroke: #ff7f0e"/>
     <use xlink:href="#m757aa68994" x="210.239827" y="75.365577" style="fill: #ff7f0e; stroke: #ff7f0e"/>
     <use xlink:href="#m757aa68994" x="275.128529" y="87.819405" style="fill: #ff7f0e; stroke: #ff7f0e"/>
     <use xlink:href="#m757aa68994" x="340.01723" y="104.513748" style="fill: #ff7f0e; stroke: #ff7f0e"/>
    </g>
   </g>
   <g id="patch_3">
    <path d="M 54.05 242.4 
L 54.05 16.68 
" style="fill: none; stroke: #000000; stroke-width: 0.8; stroke-linejoin: miter; stroke-linecap: square"/>
   </g>
   <g id="patch_4">
    <path d="M 358.061816 242.4 
L 358.061816 16.68 
" style="fill: none; stroke: #000000; stroke-width: 0.8; stroke-linejoin: miter; stroke-linecap: square"/>
   </g>
   <g id="patch_5">
    <path d="M 54.05 242.4 
L 358.061816 242.4 
" style="fill: none; stroke: #000000; stroke-width: 0.8; stroke-linejoin: miter; stroke-linecap: square"/>
   </g>
   <g id="patch_6">
    <path d="M 54.05 16.68 
L 358.061816 16.68 
" style="fill: none; stroke: #000000; stroke-width: 0.8; stroke-linejoin: miter; stroke-linecap: square"/>
   </g>
   <g id="legend_1">
    <g id="patch_7">
     <path d="M 367.061816 222.79 
L 419.061816 222.79 
Q 421.061816 222.79 421.061816 220.79 
L 421.061816 42.29 
Q 421.061816 40.29 419.061816 40.29 
L 367.061816 40.29 
Q 365.061816 40.29 365.061816 42.29 
L 365.061816 220.79 
Q 365.061816 222.79 367.061816 222.79 
z
" style="fill: #4c4c4c; opacity: 0.5; stroke: #4c4c4c; stroke-linejoin: miter"/>
    </g>
    <g id="patch_8">
     <path d="M 365.061816 220.79 
L 417.061816 220.79 
Q 419.061816 220.79 419.061816 218.79 
L 419.061816 40.29 
Q 419.061816 38.29 417.061816 38.29 
L 365.061816 38.29 
Q 363.061816 38.29 363.061816 40.29 
L 363.061816 218.79 
Q 363.061816 220.79 365.061816 220.79 
z
" style="fill: #ffffff; stroke: #cccccc; stroke-linejoin: miter"/>
    </g>
    <g id="LineCollection_13">
     <path d="M 377.061816 51.388438 
L 377.061816 41.388438 
" style="fill: none; stroke: #1f77b4; stroke-width: 1.5"/>
    </g>
    <g id="line2d_24"/>
    <g id="line2d_25">
     <g>
      <use xlink:href="#m341646d55b" x="377.061816" y="46.388438" style="fill: #1f77b4; stroke: #1f77b4"/>
     </g>
    </g>
    <g id="text_14">
     <!-- $r_{V,V}$ -->
     <g transform="translate(395.061816 49.888438)scale(0.1 -0.1)">
      <defs>
       <path id="DejaVuSans-Oblique-72" d="M 2853 2969 
Q 2766 3016 2653 3041 
Q 2541 3066 2413 3066 
Q 1953 3066 1609 2717 
Q 1266 2369 1153 1784 
L 800 0 
L 225 0 
L 909 3500 
L 1484 3500 
L 1375 2956 
Q 1603 3259 1920 3421 
Q 2238 3584 2597 3584 
Q 2691 3584 2781 3573 
Q 2872 3563 2963 3538 
L 2853 2969 
z
" transform="scale(0.015625)"/>
       <path id="DejaVuSans-Oblique-56" d="M 1319 0 
L 500 4666 
L 1119 4666 
L 1797 653 
L 4063 4666 
L 4750 4666 
L 2053 0 
L 1319 0 
z
" transform="scale(0.015625)"/>
       <path id="DejaVuSans-2c" d="M 750 794 
L 1409 794 
L 1409 256 
L 897 -744 
L 494 -744 
L 750 256 
L 750 794 
z
" transform="scale(0.015625)"/>
      </defs>
      <use xlink:href="#DejaVuSans-Oblique-72"/>
      <use xlink:href="#DejaVuSans-Oblique-56" transform="translate(41.113281 -16.40625)scale(0.7)"/>
      <use xlink:href="#DejaVuSans-2c" transform="translate(88.999023 -16.40625)scale(0.7)"/>
      <use xlink:href="#DejaVuSans-Oblique-56" transform="translate(124.887695 -16.40625)scale(0.7)"/>
     </g>
    </g>
    <g id="LineCollection_14">
     <path d="M 377.061816 66.486875 
L 377.061816 56.486875 
" style="fill: none; stroke: #ff7f0e; stroke-width: 1.5"/>
    </g>
    <g id="line2d_26"/>
    <g id="line2d_27">
     <g>
      <use xlink:href="#m757aa68994" x="377.061816" y="61.486875" style="fill: #ff7f0e; stroke: #ff7f0e"/>
     </g>
    </g>
    <g id="text_15">
     <!-- $K_{V,V}$ -->
     <g transform="translate(395.061816 64.986875)scale(0.1 -0.1)">
      <defs>
       <path id="DejaVuSans-Oblique-4b" d="M 1081 4666 
L 1716 4666 
L 1331 2700 
L 3781 4666 
L 4622 4666 
L 1850 2438 
L 3878 0 
L 3109 0 
L 1247 2272 
L 806 0 
L 172 0 
L 1081 4666 
z
" transform="scale(0.015625)"/>
      </defs>
      <use xlink:href="#DejaVuSans-Oblique-4b" transform="translate(0 0.09375)"/>
      <use xlink:href="#DejaVuSans-Oblique-56" transform="translate(65.576172 -16.3125)scale(0.7)"/>
      <use xlink:href="#DejaVuSans-2c" transform="translate(113.461914 -16.3125)scale(0.7)"/>
      <use xlink:href="#DejaVuSans-Oblique-56" transform="translate(149.350586 -16.3125)scale(0.7)"/>
     </g>
    </g>
    <g id="LineCollection_15">
     <path d="M 377.061816 81.585313 
L 377.061816 71.585313 
" style="fill: none; stroke: #2ca02c; stroke-width: 1.5"/>
    </g>
    <g id="line2d_28"/>
    <g id="line2d_29">
     <g>
      <use xlink:href="#m1023db1162" x="377.061816" y="76.585313" style="fill: #2ca02c; stroke: #2ca02c"/>
     </g>
    </g>
    <g id="text_16">
     <!-- $r_{V,I}$ -->
     <g transform="translate(395.061816 80.085313)scale(0.1 -0.1)">
      <use xlink:href="#DejaVuSans-Oblique-72"/>
      <use xlink:href="#DejaVuSans-Oblique-56" transform="translate(41.113281 -16.40625)scale(0.7)"/>
      <use xlink:href="#DejaVuSans-2c" transform="translate(88.999023 -16.40625)scale(0.7)"/>
      <use xlink:href="#DejaVuSans-Oblique-49" transform="translate(124.887695 -16.40625)scale(0.7)"/>
     </g>
    </g>
    <g id="LineCollection_16">
     <path d="M 377.061816 96.68375 
L 377.061816 86.68375 
" style="fill: none; stroke: #d62728; stroke-width: 1.5"/>
    </g>
    <g id="line2d_30"/>
    <g id="line2d_31">
     <g>
      <use xlink:href="#m7e30a189cd" x="377.061816" y="91.68375" style="fill: #d62728; stroke: #d62728"/>
     </g>
    </g>
    <g id="text_17">
     <!-- $d_{V}$ -->
     <g transform="translate(395.061816 95.18375)scale(0.1 -0.1)">
      <use xlink:href="#DejaVuSans-Oblique-64" transform="translate(0 0.015625)"/>
      <use xlink:href="#DejaVuSans-Oblique-56" transform="translate(63.476562 -16.390625)scale(0.7)"/>
     </g>
    </g>
    <g id="LineCollection_17">
     <path d="M 377.061816 111.361875 
L 377.061816 101.361875 
" style="fill: none; stroke: #9467bd; stroke-width: 1.5"/>
    </g>
    <g id="line2d_32"/>
    <g id="line2d_33">
     <g>
      <use xlink:href="#mca54b8cde0" x="377.061816" y="106.361875" style="fill: #9467bd; stroke: #9467bd"/>
     </g>
    </g>
    <g id="text_18">
     <!-- $r_{I,V}$ -->
     <g transform="translate(395.061816 109.861875)scale(0.1 -0.1)">
      <use xlink:href="#DejaVuSans-Oblique-72"/>
      <use xlink:href="#DejaVuSans-Oblique-49" transform="translate(41.113281 -16.40625)scale(0.7)"/>
      <use xlink:href="#DejaVuSans-2c" transform="translate(61.757812 -16.40625)scale(0.7)"/>
      <use xlink:href="#DejaVuSans-Oblique-56" transform="translate(97.646484 -16.40625)scale(0.7)"/>
     </g>
    </g>
    <g id="LineCollection_18">
     <path d="M 377.061816 126.460313 
L 377.061816 116.460313 
" style="fill: none; stroke: #8c564b; stroke-width: 1.5"/>
    </g>
    <g id="line2d_34"/>
    <g id="line2d_35">
     <g>
      <use xlink:href="#mf2d240382e" x="377.061816" y="121.460313" style="fill: #8c564b; stroke: #8c564b"/>
     </g>
    </g>
    <g id="text_19">
     <!-- $d_{I}$ -->
     <g transform="translate(395.061816 124.960313)scale(0.1 -0.1)">
      <use xlink:href="#DejaVuSans-Oblique-64" transform="translate(0 0.015625)"/>
      <use xlink:href="#DejaVuSans-Oblique-49" transform="translate(63.476562 -16.390625)scale(0.7)"/>
     </g>
    </g>
    <g id="LineCollection_19">
     <path d="M 377.061816 141.138438 
L 377.061816 131.138438 
" style="fill: none; stroke: #e377c2; stroke-width: 1.5"/>
    </g>
    <g id="line2d_36"/>
    <g id="line2d_37">
     <g>
      <use xlink:href="#m5856524f5a" x="377.061816" y="136.138438" style="fill: #e377c2; stroke: #e377c2"/>
     </g>
    </g>
    <g id="text_20">
     <!-- $r_{M,I}$ -->
     <g transform="translate(395.061816 139.638438)scale(0.1 -0.1)">
      <defs>
       <path id="DejaVuSans-Oblique-4d" d="M 1081 4666 
L 2028 4666 
L 2572 1522 
L 4378 4666 
L 5350 4666 
L 4441 0 
L 3828 0 
L 4622 4091 
L 2791 897 
L 2175 897 
L 1581 4103 
L 788 0 
L 172 0 
L 1081 4666 
z
" transform="scale(0.015625)"/>
      </defs>
      <use xlink:href="#DejaVuSans-Oblique-72"/>
      <use xlink:href="#DejaVuSans-Oblique-4d" transform="translate(41.113281 -16.40625)scale(0.7)"/>
      <use xlink:href="#DejaVuSans-2c" transform="translate(101.508789 -16.40625)scale(0.7)"/>
      <use xlink:href="#DejaVuSans-Oblique-49" transform="translate(137.397461 -16.40625)scale(0.7)"/>
     </g>
    </g>
    <g id="LineCollection_20">
     <path d="M 377.061816 156.236875 
L 377.061816 146.236875 
" style="fill: none; stroke: #7f7f7f; stroke-width: 1.5"/>
    </g>
    <g id="line2d_38"/>
    <g id="line2d_39">
     <g>
      <use xlink:href="#m346cc06ac9" x="377.061816" y="151.236875" style="fill: #7f7f7f; stroke: #7f7f7f"/>
     </g>
    </g>
    <g id="text_21">
     <!-- $K_{M,I}$ -->
     <g transform="translate(395.061816 154.736875)scale(0.1 -0.1)">
      <use xlink:href="#DejaVuSans-Oblique-4b" transform="translate(0 0.09375)"/>
      <use xlink:href="#DejaVuSans-Oblique-4d" transform="translate(65.576172 -16.3125)scale(0.7)"/>
      <use xlink:href="#DejaVuSans-2c" transform="translate(125.97168 -16.3125)scale(0.7)"/>
      <use xlink:href="#DejaVuSans-Oblique-49" transform="translate(161.860352 -16.3125)scale(0.7)"/>
     </g>
    </g>
    <g id="LineCollection_21">
     <path d="M 377.061816 171.335313 
L 377.061816 161.335313 
" style="fill: none; stroke: #bcbd22; stroke-width: 1.5"/>
    </g>
    <g id="line2d_40"/>
    <g id="line2d_41">
     <g>
      <use xlink:href="#ma793e355ef" x="377.061816" y="166.335313" style="fill: #bcbd22; stroke: #bcbd22"/>
     </g>
    </g>
    <g id="text_22">
     <!-- $d_{M}$ -->
     <g transform="translate(395.061816 169.835313)scale(0.1 -0.1)">
      <use xlink:href="#DejaVuSans-Oblique-64" transform="translate(0 0.015625)"/>
      <use xlink:href="#DejaVuSans-Oblique-4d" transform="translate(63.476562 -16.390625)scale(0.7)"/>
     </g>
    </g>
    <g id="LineCollection_22">
     <path d="M 377.061816 186.013438 
L 377.061816 176.013438 
" style="fill: none; stroke: #17becf; stroke-width: 1.5"/>
    </g>
    <g id="line2d_42"/>
    <g id="line2d_43">
     <g>
      <use xlink:href="#m7eeacf3bd2" x="377.061816" y="181.013438" style="fill: #17becf; stroke: #17becf"/>
     </g>
    </g>
    <g id="text_23">
     <!-- $n$ -->
     <g transform="translate(395.061816 184.513438)scale(0.1 -0.1)">
      <defs>
       <path id="DejaVuSans-Oblique-6e" d="M 3566 2113 
L 3156 0 
L 2578 0 
L 2988 2091 
Q 3016 2238 3031 2350 
Q 3047 2463 3047 2528 
Q 3047 2791 2881 2937 
Q 2716 3084 2419 3084 
Q 1956 3084 1622 2776 
Q 1288 2469 1184 1941 
L 800 0 
L 225 0 
L 903 3500 
L 1478 3500 
L 1363 2950 
Q 1603 3253 1940 3418 
Q 2278 3584 2650 3584 
Q 3113 3584 3367 3334 
Q 3622 3084 3622 2631 
Q 3622 2519 3608 2391 
Q 3594 2263 3566 2113 
z
" transform="scale(0.015625)"/>
      </defs>
      <use xlink:href="#DejaVuSans-Oblique-6e"/>
     </g>
    </g>
    <g id="LineCollection_23">
     <path d="M 377.061816 200.691563 
L 377.061816 190.691563 
" style="fill: none; stroke: #1f77b4; stroke-width: 1.5"/>
    </g>
    <g id="line2d_44"/>
    <g id="line2d_45">
     <g>
      <use xlink:href="#m341646d55b" x="377.061816" y="195.691563" style="fill: #1f77b4; stroke: #1f77b4"/>
     </g>
    </g>
    <g id="text_24">
     <!-- $r_{V,M}$ -->
     <g transform="translate(395.061816 199.191563)scale(0.1 -0.1)">
      <use xlink:href="#DejaVuSans-Oblique-72"/>
      <use xlink:href="#DejaVuSans-Oblique-56" transform="translate(41.113281 -16.40625)scale(0.7)"/>
      <use xlink:href="#DejaVuSans-2c" transform="translate(88.999023 -16.40625)scale(0.7)"/>
      <use xlink:href="#DejaVuSans-Oblique-4d" transform="translate(124.887695 -16.40625)scale(0.7)"/>
     </g>
    </g>
    <g id="LineCollection_24">
     <path d="M 377.061816 215.79 
L 377.061816 205.79 
" style="fill: none; stroke: #ff7f0e; stroke-width: 1.5"/>
    </g>
    <g id="line2d_46"/>
    <g id="line2d_47">
     <g>
      <use xlink:href="#m757aa68994" x="377.061816" y="210.79" style="fill: #ff7f0e; stroke: #ff7f0e"/>
     </g>
    </g>
    <g id="text_25">
     <!-- $r_{I,M}$ -->
     <g transform="translate(395.061816 214.29)scale(0.1 -0.1)">
      <use xlink:href="#DejaVuSans-Oblique-72"/>
      <use xlink:href="#DejaVuSans-Oblique-49" transform="translate(41.113281 -16.40625)scale(0.7)"/>
      <use xlink:href="#DejaVuSans-2c" transform="translate(61.757812 -16.40625)scale(0.7)"/>
      <use xlink:href="#DejaVuSans-Oblique-4d" transform="translate(97.646484 -16.40625)scale(0.7)"/>
     </g>
    </g>
   </g>
  </g>
 </g>
 <defs>
  <clipPath id="pa65ef96215">
   <rect x="54.05" y="16.68" width="304.011816" height="225.72"/>
  </clipPath>
 </defs>
</svg>
