<?xml version="1.0" encoding="utf-8" standalone="no"?>
<!DOCTYPE svg PUBLIC "-//W3C//DTD SVG 1.1//EN"
  "http://www.w3.org/Graphics/SVG/1.1/DTD/svg11.dtd">
<svg xmlns:xlink="http://www.w3.org/1999/xlink" width="432pt" height="288pt" viewBox="0 0 432 288" xmlns="http://www.w3.org/2000/svg" version="1.1">
 <metadata>
  <rdf:RDF xmlns:dc="http://purl.org/dc/elements/1.1/" xmlns:cc="http://creativecommons.org/ns#" xmlns:rdf="http://www.w3.org/1999/02/22-rdf-syntax-ns#">
   <cc:Work>
    <dc:type rdf:resource="http://purl.org/dc/dcmitype/StillImage"/>
    <dc:date>2022-05-10T12:00:38.208424</dc:date>
    <dc:format>image/svg+xml</dc:format>
    <dc:creator>
     <cc:Agent>
      <dc:title>Matplotlib v3.5.1, https://matplotlib.org/</dc:title>
     </cc:Agent>
    </dc:creator>
   </cc:Work>
  </rdf:RDF>
 </metadata>
 <defs>
  <style type="text/css">*{stroke-linejoin: round; stroke-linecap: butt}</style>
 </defs>
 <g id="figure_1">
  <g id="patch_1">
   <path d="M 0 288 
L 432 288 
L 432 0 
L 0 0 
L 0 288 
z
" style="fill: none"/>
  </g>
  <g id="axes_1">
   <g id="patch_2">
    <path d="M 47.8 241.1 
L 358.061816 241.1 
L 358.061816 16.68 
L 47.8 16.68 
z
" style="fill: #ffffff"/>
   </g>
   <g id="matplotlib.axis_1">
    <g id="xtick_1">
     <g id="line2d_1">
      <defs>
       <path id="mba6147a357" d="M 0 0 
L 0 3.5 
" style="stroke: #000000; stroke-width: 0.8"/>
      </defs>
      <g>
       <use xlink:href="#mba6147a357" x="70.651074" y="241.1" style="stroke: #000000; stroke-width: 0.8"/>
      </g>
     </g>
     <g id="text_1">
      <!-- 1.25 -->
      <g transform="translate(59.518261 255.698438)scale(0.1 -0.1)">
       <defs>
        <path id="DejaVuSans-31" d="M 794 531 
L 1825 531 
L 1825 4091 
L 703 3866 
L 703 4441 
L 1819 4666 
L 2450 4666 
L 2450 531 
L 3481 531 
L 3481 0 
L 794 0 
L 794 531 
z
" transform="scale(0.015625)"/>
        <path id="DejaVuSans-2e" d="M 684 794 
L 1344 794 
L 1344 0 
L 684 0 
L 684 794 
z
" transform="scale(0.015625)"/>
        <path id="DejaVuSans-32" d="M 1228 531 
L 3431 531 
L 3431 0 
L 469 0 
L 469 531 
Q 828 903 1448 1529 
Q 2069 2156 2228 2338 
Q 2531 2678 2651 2914 
Q 2772 3150 2772 3378 
Q 2772 3750 2511 3984 
Q 2250 4219 1831 4219 
Q 1534 4219 1204 4116 
Q 875 4013 500 3803 
L 500 4441 
Q 881 4594 1212 4672 
Q 1544 4750 1819 4750 
Q 2544 4750 2975 4387 
Q 3406 4025 3406 3419 
Q 3406 3131 3298 2873 
Q 3191 2616 2906 2266 
Q 2828 2175 2409 1742 
Q 1991 1309 1228 531 
z
" transform="scale(0.015625)"/>
        <path id="DejaVuSans-35" d="M 691 4666 
L 3169 4666 
L 3169 4134 
L 1269 4134 
L 1269 2991 
Q 1406 3038 1543 3061 
Q 1681 3084 1819 3084 
Q 2600 3084 3056 2656 
Q 3513 2228 3513 1497 
Q 3513 744 3044 326 
Q 2575 -91 1722 -91 
Q 1428 -91 1123 -41 
Q 819 9 494 109 
L 494 744 
Q 775 591 1075 516 
Q 1375 441 1709 441 
Q 2250 441 2565 725 
Q 2881 1009 2881 1497 
Q 2881 1984 2565 2268 
Q 2250 2553 1709 2553 
Q 1456 2553 1204 2497 
Q 953 2441 691 2322 
L 691 4666 
z
" transform="scale(0.015625)"/>
       </defs>
       <use xlink:href="#DejaVuSans-31"/>
       <use xlink:href="#DejaVuSans-2e" x="63.623047"/>
       <use xlink:href="#DejaVuSans-32" x="95.410156"/>
       <use xlink:href="#DejaVuSans-35" x="159.033203"/>
      </g>
     </g>
    </g>
    <g id="xtick_2">
     <g id="line2d_2">
      <g>
       <use xlink:href="#mba6147a357" x="136.873783" y="241.1" style="stroke: #000000; stroke-width: 0.8"/>
      </g>
     </g>
     <g id="text_2">
      <!-- 2.0 -->
      <g transform="translate(128.922221 255.698438)scale(0.1 -0.1)">
       <defs>
        <path id="DejaVuSans-30" d="M 2034 4250 
Q 1547 4250 1301 3770 
Q 1056 3291 1056 2328 
Q 1056 1369 1301 889 
Q 1547 409 2034 409 
Q 2525 409 2770 889 
Q 3016 1369 3016 2328 
Q 3016 3291 2770 3770 
Q 2525 4250 2034 4250 
z
M 2034 4750 
Q 2819 4750 3233 4129 
Q 3647 3509 3647 2328 
Q 3647 1150 3233 529 
Q 2819 -91 2034 -91 
Q 1250 -91 836 529 
Q 422 1150 422 2328 
Q 422 3509 836 4129 
Q 1250 4750 2034 4750 
z
" transform="scale(0.015625)"/>
       </defs>
       <use xlink:href="#DejaVuSans-32"/>
       <use xlink:href="#DejaVuSans-2e" x="63.623047"/>
       <use xlink:href="#DejaVuSans-30" x="95.410156"/>
      </g>
     </g>
    </g>
    <g id="xtick_3">
     <g id="line2d_3">
      <g>
       <use xlink:href="#mba6147a357" x="203.096493" y="241.1" style="stroke: #000000; stroke-width: 0.8"/>
      </g>
     </g>
     <g id="text_3">
      <!-- 3.0 -->
      <g transform="translate(195.144931 255.698438)scale(0.1 -0.1)">
       <defs>
        <path id="DejaVuSans-33" d="M 2597 2516 
Q 3050 2419 3304 2112 
Q 3559 1806 3559 1356 
Q 3559 666 3084 287 
Q 2609 -91 1734 -91 
Q 1441 -91 1130 -33 
Q 819 25 488 141 
L 488 750 
Q 750 597 1062 519 
Q 1375 441 1716 441 
Q 2309 441 2620 675 
Q 2931 909 2931 1356 
Q 2931 1769 2642 2001 
Q 2353 2234 1838 2234 
L 1294 2234 
L 1294 2753 
L 1863 2753 
Q 2328 2753 2575 2939 
Q 2822 3125 2822 3475 
Q 2822 3834 2567 4026 
Q 2313 4219 1838 4219 
Q 1578 4219 1281 4162 
Q 984 4106 628 3988 
L 628 4550 
Q 988 4650 1302 4700 
Q 1616 4750 1894 4750 
Q 2613 4750 3031 4423 
Q 3450 4097 3450 3541 
Q 3450 3153 3228 2886 
Q 3006 2619 2597 2516 
z
" transform="scale(0.015625)"/>
       </defs>
       <use xlink:href="#DejaVuSans-33"/>
       <use xlink:href="#DejaVuSans-2e" x="63.623047"/>
       <use xlink:href="#DejaVuSans-30" x="95.410156"/>
      </g>
     </g>
    </g>
    <g id="xtick_4">
     <g id="line2d_4">
      <g>
       <use xlink:href="#mba6147a357" x="269.319203" y="241.1" style="stroke: #000000; stroke-width: 0.8"/>
      </g>
     </g>
     <g id="text_4">
      <!-- 4.0 -->
      <g transform="translate(261.36764 255.698438)scale(0.1 -0.1)">
       <defs>
        <path id="DejaVuSans-34" d="M 2419 4116 
L 825 1625 
L 2419 1625 
L 2419 4116 
z
M 2253 4666 
L 3047 4666 
L 3047 1625 
L 3713 1625 
L 3713 1100 
L 3047 1100 
L 3047 0 
L 2419 0 
L 2419 1100 
L 313 1100 
L 313 1709 
L 2253 4666 
z
" transform="scale(0.015625)"/>
       </defs>
       <use xlink:href="#DejaVuSans-34"/>
       <use xlink:href="#DejaVuSans-2e" x="63.623047"/>
       <use xlink:href="#DejaVuSans-30" x="95.410156"/>
      </g>
     </g>
    </g>
    <g id="xtick_5">
     <g id="line2d_5">
      <g>
       <use xlink:href="#mba6147a357" x="335.541913" y="241.1" style="stroke: #000000; stroke-width: 0.8"/>
      </g>
     </g>
     <g id="text_5">
      <!-- 5.0 -->
      <g transform="translate(327.59035 255.698438)scale(0.1 -0.1)">
       <use xlink:href="#DejaVuSans-35"/>
       <use xlink:href="#DejaVuSans-2e" x="63.623047"/>
       <use xlink:href="#DejaVuSans-30" x="95.410156"/>
      </g>
     </g>
    </g>
    <g id="text_6">
     <!-- Parameter $r_{I,V}$ H5N1:H1N1 ratio -->
     <g transform="translate(123.830908 269.378125)scale(0.1 -0.1)">
      <defs>
       <path id="DejaVuSans-50" d="M 1259 4147 
L 1259 2394 
L 2053 2394 
Q 2494 2394 2734 2622 
Q 2975 2850 2975 3272 
Q 2975 3691 2734 3919 
Q 2494 4147 2053 4147 
L 1259 4147 
z
M 628 4666 
L 2053 4666 
Q 2838 4666 3239 4311 
Q 3641 3956 3641 3272 
Q 3641 2581 3239 2228 
Q 2838 1875 2053 1875 
L 1259 1875 
L 1259 0 
L 628 0 
L 628 4666 
z
" transform="scale(0.015625)"/>
       <path id="DejaVuSans-61" d="M 2194 1759 
Q 1497 1759 1228 1600 
Q 959 1441 959 1056 
Q 959 750 1161 570 
Q 1363 391 1709 391 
Q 2188 391 2477 730 
Q 2766 1069 2766 1631 
L 2766 1759 
L 2194 1759 
z
M 3341 1997 
L 3341 0 
L 2766 0 
L 2766 531 
Q 2569 213 2275 61 
Q 1981 -91 1556 -91 
Q 1019 -91 701 211 
Q 384 513 384 1019 
Q 384 1609 779 1909 
Q 1175 2209 1959 2209 
L 2766 2209 
L 2766 2266 
Q 2766 2663 2505 2880 
Q 2244 3097 1772 3097 
Q 1472 3097 1187 3025 
Q 903 2953 641 2809 
L 641 3341 
Q 956 3463 1253 3523 
Q 1550 3584 1831 3584 
Q 2591 3584 2966 3190 
Q 3341 2797 3341 1997 
z
" transform="scale(0.015625)"/>
       <path id="DejaVuSans-72" d="M 2631 2963 
Q 2534 3019 2420 3045 
Q 2306 3072 2169 3072 
Q 1681 3072 1420 2755 
Q 1159 2438 1159 1844 
L 1159 0 
L 581 0 
L 581 3500 
L 1159 3500 
L 1159 2956 
Q 1341 3275 1631 3429 
Q 1922 3584 2338 3584 
Q 2397 3584 2469 3576 
Q 2541 3569 2628 3553 
L 2631 2963 
z
" transform="scale(0.015625)"/>
       <path id="DejaVuSans-6d" d="M 3328 2828 
Q 3544 3216 3844 3400 
Q 4144 3584 4550 3584 
Q 5097 3584 5394 3201 
Q 5691 2819 5691 2113 
L 5691 0 
L 5113 0 
L 5113 2094 
Q 5113 2597 4934 2840 
Q 4756 3084 4391 3084 
Q 3944 3084 3684 2787 
Q 3425 2491 3425 1978 
L 3425 0 
L 2847 0 
L 2847 2094 
Q 2847 2600 2669 2842 
Q 2491 3084 2119 3084 
Q 1678 3084 1418 2786 
Q 1159 2488 1159 1978 
L 1159 0 
L 581 0 
L 581 3500 
L 1159 3500 
L 1159 2956 
Q 1356 3278 1631 3431 
Q 1906 3584 2284 3584 
Q 2666 3584 2933 3390 
Q 3200 3197 3328 2828 
z
" transform="scale(0.015625)"/>
       <path id="DejaVuSans-65" d="M 3597 1894 
L 3597 1613 
L 953 1613 
Q 991 1019 1311 708 
Q 1631 397 2203 397 
Q 2534 397 2845 478 
Q 3156 559 3463 722 
L 3463 178 
Q 3153 47 2828 -22 
Q 2503 -91 2169 -91 
Q 1331 -91 842 396 
Q 353 884 353 1716 
Q 353 2575 817 3079 
Q 1281 3584 2069 3584 
Q 2775 3584 3186 3129 
Q 3597 2675 3597 1894 
z
M 3022 2063 
Q 3016 2534 2758 2815 
Q 2500 3097 2075 3097 
Q 1594 3097 1305 2825 
Q 1016 2553 972 2059 
L 3022 2063 
z
" transform="scale(0.015625)"/>
       <path id="DejaVuSans-74" d="M 1172 4494 
L 1172 3500 
L 2356 3500 
L 2356 3053 
L 1172 3053 
L 1172 1153 
Q 1172 725 1289 603 
Q 1406 481 1766 481 
L 2356 481 
L 2356 0 
L 1766 0 
Q 1100 0 847 248 
Q 594 497 594 1153 
L 594 3053 
L 172 3053 
L 172 3500 
L 594 3500 
L 594 4494 
L 1172 4494 
z
" transform="scale(0.015625)"/>
       <path id="DejaVuSans-20" transform="scale(0.015625)"/>
       <path id="DejaVuSans-Oblique-72" d="M 2853 2969 
Q 2766 3016 2653 3041 
Q 2541 3066 2413 3066 
Q 1953 3066 1609 2717 
Q 1266 2369 1153 1784 
L 800 0 
L 225 0 
L 909 3500 
L 1484 3500 
L 1375 2956 
Q 1603 3259 1920 3421 
Q 2238 3584 2597 3584 
Q 2691 3584 2781 3573 
Q 2872 3563 2963 3538 
L 2853 2969 
z
" transform="scale(0.015625)"/>
       <path id="DejaVuSans-Oblique-49" d="M 1081 4666 
L 1716 4666 
L 806 0 
L 172 0 
L 1081 4666 
z
" transform="scale(0.015625)"/>
       <path id="DejaVuSans-2c" d="M 750 794 
L 1409 794 
L 1409 256 
L 897 -744 
L 494 -744 
L 750 256 
L 750 794 
z
" transform="scale(0.015625)"/>
       <path id="DejaVuSans-Oblique-56" d="M 1319 0 
L 500 4666 
L 1119 4666 
L 1797 653 
L 4063 4666 
L 4750 4666 
L 2053 0 
L 1319 0 
z
" transform="scale(0.015625)"/>
       <path id="DejaVuSans-48" d="M 628 4666 
L 1259 4666 
L 1259 2753 
L 3553 2753 
L 3553 4666 
L 4184 4666 
L 4184 0 
L 3553 0 
L 3553 2222 
L 1259 2222 
L 1259 0 
L 628 0 
L 628 4666 
z
" transform="scale(0.015625)"/>
       <path id="DejaVuSans-4e" d="M 628 4666 
L 1478 4666 
L 3547 763 
L 3547 4666 
L 4159 4666 
L 4159 0 
L 3309 0 
L 1241 3903 
L 1241 0 
L 628 0 
L 628 4666 
z
" transform="scale(0.015625)"/>
       <path id="DejaVuSans-3a" d="M 750 794 
L 1409 794 
L 1409 0 
L 750 0 
L 750 794 
z
M 750 3309 
L 1409 3309 
L 1409 2516 
L 750 2516 
L 750 3309 
z
" transform="scale(0.015625)"/>
       <path id="DejaVuSans-69" d="M 603 3500 
L 1178 3500 
L 1178 0 
L 603 0 
L 603 3500 
z
M 603 4863 
L 1178 4863 
L 1178 4134 
L 603 4134 
L 603 4863 
z
" transform="scale(0.015625)"/>
       <path id="DejaVuSans-6f" d="M 1959 3097 
Q 1497 3097 1228 2736 
Q 959 2375 959 1747 
Q 959 1119 1226 758 
Q 1494 397 1959 397 
Q 2419 397 2687 759 
Q 2956 1122 2956 1747 
Q 2956 2369 2687 2733 
Q 2419 3097 1959 3097 
z
M 1959 3584 
Q 2709 3584 3137 3096 
Q 3566 2609 3566 1747 
Q 3566 888 3137 398 
Q 2709 -91 1959 -91 
Q 1206 -91 779 398 
Q 353 888 353 1747 
Q 353 2609 779 3096 
Q 1206 3584 1959 3584 
z
" transform="scale(0.015625)"/>
      </defs>
      <use xlink:href="#DejaVuSans-50" transform="translate(0 0.015625)"/>
      <use xlink:href="#DejaVuSans-61" transform="translate(60.302734 0.015625)"/>
      <use xlink:href="#DejaVuSans-72" transform="translate(121.582031 0.015625)"/>
      <use xlink:href="#DejaVuSans-61" transform="translate(162.695312 0.015625)"/>
      <use xlink:href="#DejaVuSans-6d" transform="translate(223.974609 0.015625)"/>
      <use xlink:href="#DejaVuSans-65" transform="translate(321.386719 0.015625)"/>
      <use xlink:href="#DejaVuSans-74" transform="translate(382.910156 0.015625)"/>
      <use xlink:href="#DejaVuSans-65" transform="translate(422.119141 0.015625)"/>
      <use xlink:href="#DejaVuSans-72" transform="translate(483.642578 0.015625)"/>
      <use xlink:href="#DejaVuSans-20" transform="translate(524.755859 0.015625)"/>
      <use xlink:href="#DejaVuSans-Oblique-72" transform="translate(556.542969 0.015625)"/>
      <use xlink:href="#DejaVuSans-Oblique-49" transform="translate(597.65625 -16.390625)scale(0.7)"/>
      <use xlink:href="#DejaVuSans-2c" transform="translate(618.300781 -16.390625)scale(0.7)"/>
      <use xlink:href="#DejaVuSans-Oblique-56" transform="translate(654.189453 -16.390625)scale(0.7)"/>
      <use xlink:href="#DejaVuSans-20" transform="translate(704.80957 0.015625)"/>
      <use xlink:href="#DejaVuSans-48" transform="translate(736.59668 0.015625)"/>
      <use xlink:href="#DejaVuSans-35" transform="translate(811.791992 0.015625)"/>
      <use xlink:href="#DejaVuSans-4e" transform="translate(875.415039 0.015625)"/>
      <use xlink:href="#DejaVuSans-31" transform="translate(950.219727 0.015625)"/>
      <use xlink:href="#DejaVuSans-3a" transform="translate(1013.842773 0.015625)"/>
      <use xlink:href="#DejaVuSans-48" transform="translate(1041.65918 0.015625)"/>
      <use xlink:href="#DejaVuSans-31" transform="translate(1116.854492 0.015625)"/>
      <use xlink:href="#DejaVuSans-4e" transform="translate(1180.477539 0.015625)"/>
      <use xlink:href="#DejaVuSans-31" transform="translate(1255.282227 0.015625)"/>
      <use xlink:href="#DejaVuSans-20" transform="translate(1318.905273 0.015625)"/>
      <use xlink:href="#DejaVuSans-72" transform="translate(1350.692383 0.015625)"/>
      <use xlink:href="#DejaVuSans-61" transform="translate(1391.805664 0.015625)"/>
      <use xlink:href="#DejaVuSans-74" transform="translate(1453.084961 0.015625)"/>
      <use xlink:href="#DejaVuSans-69" transform="translate(1492.293945 0.015625)"/>
      <use xlink:href="#DejaVuSans-6f" transform="translate(1520.077148 0.015625)"/>
     </g>
    </g>
   </g>
   <g id="matplotlib.axis_2">
    <g id="ytick_1">
     <g id="line2d_6">
      <defs>
       <path id="m80398763f6" d="M 0 0 
L -3.5 0 
" style="stroke: #000000; stroke-width: 0.8"/>
      </defs>
      <g>
       <use xlink:href="#m80398763f6" x="47.8" y="202.320672" style="stroke: #000000; stroke-width: 0.8"/>
      </g>
     </g>
     <g id="text_7">
      <!-- 0.4 -->
      <g transform="translate(24.896875 206.119891)scale(0.1 -0.1)">
       <use xlink:href="#DejaVuSans-30"/>
       <use xlink:href="#DejaVuSans-2e" x="63.623047"/>
       <use xlink:href="#DejaVuSans-34" x="95.410156"/>
      </g>
     </g>
    </g>
    <g id="ytick_2">
     <g id="line2d_7">
      <g>
       <use xlink:href="#m80398763f6" x="47.8" y="159.91182" style="stroke: #000000; stroke-width: 0.8"/>
      </g>
     </g>
     <g id="text_8">
      <!-- 0.6 -->
      <g transform="translate(24.896875 163.711039)scale(0.1 -0.1)">
       <defs>
        <path id="DejaVuSans-36" d="M 2113 2584 
Q 1688 2584 1439 2293 
Q 1191 2003 1191 1497 
Q 1191 994 1439 701 
Q 1688 409 2113 409 
Q 2538 409 2786 701 
Q 3034 994 3034 1497 
Q 3034 2003 2786 2293 
Q 2538 2584 2113 2584 
z
M 3366 4563 
L 3366 3988 
Q 3128 4100 2886 4159 
Q 2644 4219 2406 4219 
Q 1781 4219 1451 3797 
Q 1122 3375 1075 2522 
Q 1259 2794 1537 2939 
Q 1816 3084 2150 3084 
Q 2853 3084 3261 2657 
Q 3669 2231 3669 1497 
Q 3669 778 3244 343 
Q 2819 -91 2113 -91 
Q 1303 -91 875 529 
Q 447 1150 447 2328 
Q 447 3434 972 4092 
Q 1497 4750 2381 4750 
Q 2619 4750 2861 4703 
Q 3103 4656 3366 4563 
z
" transform="scale(0.015625)"/>
       </defs>
       <use xlink:href="#DejaVuSans-30"/>
       <use xlink:href="#DejaVuSans-2e" x="63.623047"/>
       <use xlink:href="#DejaVuSans-36" x="95.410156"/>
      </g>
     </g>
    </g>
    <g id="ytick_3">
     <g id="line2d_8">
      <g>
       <use xlink:href="#m80398763f6" x="47.8" y="117.502969" style="stroke: #000000; stroke-width: 0.8"/>
      </g>
     </g>
     <g id="text_9">
      <!-- 0.8 -->
      <g transform="translate(24.896875 121.302187)scale(0.1 -0.1)">
       <defs>
        <path id="DejaVuSans-38" d="M 2034 2216 
Q 1584 2216 1326 1975 
Q 1069 1734 1069 1313 
Q 1069 891 1326 650 
Q 1584 409 2034 409 
Q 2484 409 2743 651 
Q 3003 894 3003 1313 
Q 3003 1734 2745 1975 
Q 2488 2216 2034 2216 
z
M 1403 2484 
Q 997 2584 770 2862 
Q 544 3141 544 3541 
Q 544 4100 942 4425 
Q 1341 4750 2034 4750 
Q 2731 4750 3128 4425 
Q 3525 4100 3525 3541 
Q 3525 3141 3298 2862 
Q 3072 2584 2669 2484 
Q 3125 2378 3379 2068 
Q 3634 1759 3634 1313 
Q 3634 634 3220 271 
Q 2806 -91 2034 -91 
Q 1263 -91 848 271 
Q 434 634 434 1313 
Q 434 1759 690 2068 
Q 947 2378 1403 2484 
z
M 1172 3481 
Q 1172 3119 1398 2916 
Q 1625 2713 2034 2713 
Q 2441 2713 2670 2916 
Q 2900 3119 2900 3481 
Q 2900 3844 2670 4047 
Q 2441 4250 2034 4250 
Q 1625 4250 1398 4047 
Q 1172 3844 1172 3481 
z
" transform="scale(0.015625)"/>
       </defs>
       <use xlink:href="#DejaVuSans-30"/>
       <use xlink:href="#DejaVuSans-2e" x="63.623047"/>
       <use xlink:href="#DejaVuSans-38" x="95.410156"/>
      </g>
     </g>
    </g>
    <g id="ytick_4">
     <g id="line2d_9">
      <g>
       <use xlink:href="#m80398763f6" x="47.8" y="75.094117" style="stroke: #000000; stroke-width: 0.8"/>
      </g>
     </g>
     <g id="text_10">
      <!-- 1.0 -->
      <g transform="translate(24.896875 78.893336)scale(0.1 -0.1)">
       <use xlink:href="#DejaVuSans-31"/>
       <use xlink:href="#DejaVuSans-2e" x="63.623047"/>
       <use xlink:href="#DejaVuSans-30" x="95.410156"/>
      </g>
     </g>
    </g>
    <g id="ytick_5">
     <g id="line2d_10">
      <g>
       <use xlink:href="#m80398763f6" x="47.8" y="32.685265" style="stroke: #000000; stroke-width: 0.8"/>
      </g>
     </g>
     <g id="text_11">
      <!-- 1.2 -->
      <g transform="translate(24.896875 36.484484)scale(0.1 -0.1)">
       <use xlink:href="#DejaVuSans-31"/>
       <use xlink:href="#DejaVuSans-2e" x="63.623047"/>
       <use xlink:href="#DejaVuSans-32" x="95.410156"/>
      </g>
     </g>
    </g>
    <g id="text_12">
     <!-- SPOT Value -->
     <g transform="translate(18.817187 157.389219)rotate(-90)scale(0.1 -0.1)">
      <defs>
       <path id="DejaVuSans-53" d="M 3425 4513 
L 3425 3897 
Q 3066 4069 2747 4153 
Q 2428 4238 2131 4238 
Q 1616 4238 1336 4038 
Q 1056 3838 1056 3469 
Q 1056 3159 1242 3001 
Q 1428 2844 1947 2747 
L 2328 2669 
Q 3034 2534 3370 2195 
Q 3706 1856 3706 1288 
Q 3706 609 3251 259 
Q 2797 -91 1919 -91 
Q 1588 -91 1214 -16 
Q 841 59 441 206 
L 441 856 
Q 825 641 1194 531 
Q 1563 422 1919 422 
Q 2459 422 2753 634 
Q 3047 847 3047 1241 
Q 3047 1584 2836 1778 
Q 2625 1972 2144 2069 
L 1759 2144 
Q 1053 2284 737 2584 
Q 422 2884 422 3419 
Q 422 4038 858 4394 
Q 1294 4750 2059 4750 
Q 2388 4750 2728 4690 
Q 3069 4631 3425 4513 
z
" transform="scale(0.015625)"/>
       <path id="DejaVuSans-4f" d="M 2522 4238 
Q 1834 4238 1429 3725 
Q 1025 3213 1025 2328 
Q 1025 1447 1429 934 
Q 1834 422 2522 422 
Q 3209 422 3611 934 
Q 4013 1447 4013 2328 
Q 4013 3213 3611 3725 
Q 3209 4238 2522 4238 
z
M 2522 4750 
Q 3503 4750 4090 4092 
Q 4678 3434 4678 2328 
Q 4678 1225 4090 567 
Q 3503 -91 2522 -91 
Q 1538 -91 948 565 
Q 359 1222 359 2328 
Q 359 3434 948 4092 
Q 1538 4750 2522 4750 
z
" transform="scale(0.015625)"/>
       <path id="DejaVuSans-54" d="M -19 4666 
L 3928 4666 
L 3928 4134 
L 2272 4134 
L 2272 0 
L 1638 0 
L 1638 4134 
L -19 4134 
L -19 4666 
z
" transform="scale(0.015625)"/>
       <path id="DejaVuSans-56" d="M 1831 0 
L 50 4666 
L 709 4666 
L 2188 738 
L 3669 4666 
L 4325 4666 
L 2547 0 
L 1831 0 
z
" transform="scale(0.015625)"/>
       <path id="DejaVuSans-6c" d="M 603 4863 
L 1178 4863 
L 1178 0 
L 603 0 
L 603 4863 
z
" transform="scale(0.015625)"/>
       <path id="DejaVuSans-75" d="M 544 1381 
L 544 3500 
L 1119 3500 
L 1119 1403 
Q 1119 906 1312 657 
Q 1506 409 1894 409 
Q 2359 409 2629 706 
Q 2900 1003 2900 1516 
L 2900 3500 
L 3475 3500 
L 3475 0 
L 2900 0 
L 2900 538 
Q 2691 219 2414 64 
Q 2138 -91 1772 -91 
Q 1169 -91 856 284 
Q 544 659 544 1381 
z
M 1991 3584 
L 1991 3584 
z
" transform="scale(0.015625)"/>
      </defs>
      <use xlink:href="#DejaVuSans-53"/>
      <use xlink:href="#DejaVuSans-50" x="63.476562"/>
      <use xlink:href="#DejaVuSans-4f" x="123.779297"/>
      <use xlink:href="#DejaVuSans-54" x="202.490234"/>
      <use xlink:href="#DejaVuSans-20" x="263.574219"/>
      <use xlink:href="#DejaVuSans-56" x="295.361328"/>
      <use xlink:href="#DejaVuSans-61" x="356.019531"/>
      <use xlink:href="#DejaVuSans-6c" x="417.298828"/>
      <use xlink:href="#DejaVuSans-75" x="445.082031"/>
      <use xlink:href="#DejaVuSans-65" x="508.460938"/>
     </g>
    </g>
   </g>
   <g id="LineCollection_1">
    <path d="M 75.972459 82.825438 
L 75.972459 78.611383 
" clip-path="url(#p33e754f5f6)" style="fill: none; stroke: #1f77b4; stroke-width: 1.5"/>
    <path d="M 142.195168 102.173836 
L 142.195168 92.85793 
" clip-path="url(#p33e754f5f6)" style="fill: none; stroke: #1f77b4; stroke-width: 1.5"/>
    <path d="M 208.417878 130.54913 
L 208.417878 113.412632 
" clip-path="url(#p33e754f5f6)" style="fill: none; stroke: #1f77b4; stroke-width: 1.5"/>
    <path d="M 274.640588 147.935979 
L 274.640588 125.478719 
" clip-path="url(#p33e754f5f6)" style="fill: none; stroke: #1f77b4; stroke-width: 1.5"/>
    <path d="M 340.863298 208.357052 
L 340.863298 126.665676 
" clip-path="url(#p33e754f5f6)" style="fill: none; stroke: #1f77b4; stroke-width: 1.5"/>
   </g>
   <g id="LineCollection_2">
    <path d="M 61.90281 84.886174 
L 61.90281 80.678682 
" clip-path="url(#p33e754f5f6)" style="fill: none; stroke: #ff7f0e; stroke-width: 1.5"/>
    <path d="M 128.12552 107.823991 
L 128.12552 98.522479 
" clip-path="url(#p33e754f5f6)" style="fill: none; stroke: #ff7f0e; stroke-width: 1.5"/>
    <path d="M 194.348229 135.285074 
L 194.348229 118.175963 
" clip-path="url(#p33e754f5f6)" style="fill: none; stroke: #ff7f0e; stroke-width: 1.5"/>
    <path d="M 260.570939 150.359292 
L 260.570939 127.939448 
" clip-path="url(#p33e754f5f6)" style="fill: none; stroke: #ff7f0e; stroke-width: 1.5"/>
    <path d="M 326.793649 202.642386 
L 326.793649 121.075919 
" clip-path="url(#p33e754f5f6)" style="fill: none; stroke: #ff7f0e; stroke-width: 1.5"/>
   </g>
   <g id="LineCollection_3">
    <path d="M 79.068168 79.525907 
L 79.068168 75.316632 
" clip-path="url(#p33e754f5f6)" style="fill: none; stroke: #2ca02c; stroke-width: 1.5"/>
    <path d="M 145.290877 86.713523 
L 145.290877 77.40801 
" clip-path="url(#p33e754f5f6)" style="fill: none; stroke: #2ca02c; stroke-width: 1.5"/>
    <path d="M 211.513587 105.834639 
L 211.513587 88.718034 
" clip-path="url(#p33e754f5f6)" style="fill: none; stroke: #2ca02c; stroke-width: 1.5"/>
    <path d="M 277.736297 123.437773 
L 277.736297 101.008232 
" clip-path="url(#p33e754f5f6)" style="fill: none; stroke: #2ca02c; stroke-width: 1.5"/>
    <path d="M 343.959007 179.187968 
L 343.959007 97.591408 
" clip-path="url(#p33e754f5f6)" style="fill: none; stroke: #2ca02c; stroke-width: 1.5"/>
   </g>
   <g id="LineCollection_4">
    <path d="M 64.593878 83.438336 
L 64.593878 79.227257 
" clip-path="url(#p33e754f5f6)" style="fill: none; stroke: #d62728; stroke-width: 1.5"/>
    <path d="M 130.816588 105.953447 
L 130.816588 96.644122 
" clip-path="url(#p33e754f5f6)" style="fill: none; stroke: #d62728; stroke-width: 1.5"/>
    <path d="M 197.039298 134.916924 
L 197.039298 117.793111 
" clip-path="url(#p33e754f5f6)" style="fill: none; stroke: #d62728; stroke-width: 1.5"/>
    <path d="M 263.262007 151.07035 
L 263.262007 128.630794 
" clip-path="url(#p33e754f5f6)" style="fill: none; stroke: #d62728; stroke-width: 1.5"/>
    <path d="M 329.484717 172.694461 
L 329.484717 91.057995 
" clip-path="url(#p33e754f5f6)" style="fill: none; stroke: #d62728; stroke-width: 1.5"/>
   </g>
   <g id="LineCollection_5">
    <path d="M 70.010857 78.926888 
L 70.010857 74.714633 
" clip-path="url(#p33e754f5f6)" style="fill: none; stroke: #9467bd; stroke-width: 1.5"/>
    <path d="M 136.233567 106.919723 
L 136.233567 97.608198 
" clip-path="url(#p33e754f5f6)" style="fill: none; stroke: #9467bd; stroke-width: 1.5"/>
    <path d="M 202.456277 149.737817 
L 202.456277 132.608894 
" clip-path="url(#p33e754f5f6)" style="fill: none; stroke: #9467bd; stroke-width: 1.5"/>
    <path d="M 268.678987 186.192485 
L 268.678987 163.748473 
" clip-path="url(#p33e754f5f6)" style="fill: none; stroke: #9467bd; stroke-width: 1.5"/>
    <path d="M 334.901696 230.899091 
L 334.901696 149.244044 
" clip-path="url(#p33e754f5f6)" style="fill: none; stroke: #9467bd; stroke-width: 1.5"/>
   </g>
   <g id="LineCollection_6">
    <path d="M 68.423798 78.357061 
L 68.423798 74.146375 
" clip-path="url(#p33e754f5f6)" style="fill: none; stroke: #8c564b; stroke-width: 1.5"/>
    <path d="M 134.646508 96.945049 
L 134.646508 87.636851 
" clip-path="url(#p33e754f5f6)" style="fill: none; stroke: #8c564b; stroke-width: 1.5"/>
    <path d="M 200.869217 120.835883 
L 200.869217 103.712772 
" clip-path="url(#p33e754f5f6)" style="fill: none; stroke: #8c564b; stroke-width: 1.5"/>
    <path d="M 267.091927 127.104917 
L 267.091927 104.668606 
" clip-path="url(#p33e754f5f6)" style="fill: none; stroke: #8c564b; stroke-width: 1.5"/>
    <path d="M 333.314637 140.072695 
L 333.314637 58.443555 
" clip-path="url(#p33e754f5f6)" style="fill: none; stroke: #8c564b; stroke-width: 1.5"/>
   </g>
   <g id="LineCollection_7">
    <path d="M 63.750346 80.588807 
L 63.750346 76.37777 
" clip-path="url(#p33e754f5f6)" style="fill: none; stroke: #e377c2; stroke-width: 1.5"/>
    <path d="M 129.973056 85.812278 
L 129.973056 76.503532 
" clip-path="url(#p33e754f5f6)" style="fill: none; stroke: #e377c2; stroke-width: 1.5"/>
    <path d="M 196.195765 90.29559 
L 196.195765 73.171505 
" clip-path="url(#p33e754f5f6)" style="fill: none; stroke: #e377c2; stroke-width: 1.5"/>
    <path d="M 262.418475 96.673673 
L 262.418475 74.23633 
" clip-path="url(#p33e754f5f6)" style="fill: none; stroke: #e377c2; stroke-width: 1.5"/>
    <path d="M 328.641185 108.794301 
L 328.641185 27.158197 
" clip-path="url(#p33e754f5f6)" style="fill: none; stroke: #e377c2; stroke-width: 1.5"/>
   </g>
   <g id="LineCollection_8">
    <path d="M 72.433026 80.774563 
L 72.433026 76.560837 
" clip-path="url(#p33e754f5f6)" style="fill: none; stroke: #7f7f7f; stroke-width: 1.5"/>
    <path d="M 138.655736 87.294668 
L 138.655736 77.979825 
" clip-path="url(#p33e754f5f6)" style="fill: none; stroke: #7f7f7f; stroke-width: 1.5"/>
    <path d="M 204.878445 93.25439 
L 204.878445 76.119488 
" clip-path="url(#p33e754f5f6)" style="fill: none; stroke: #7f7f7f; stroke-width: 1.5"/>
    <path d="M 271.101155 100.303683 
L 271.101155 77.850761 
" clip-path="url(#p33e754f5f6)" style="fill: none; stroke: #7f7f7f; stroke-width: 1.5"/>
    <path d="M 337.323865 125.086194 
L 337.323865 43.394442 
" clip-path="url(#p33e754f5f6)" style="fill: none; stroke: #7f7f7f; stroke-width: 1.5"/>
   </g>
   <g id="LineCollection_9">
    <path d="M 70.951892 79.569041 
L 70.951892 75.359445 
" clip-path="url(#p33e754f5f6)" style="fill: none; stroke: #bcbd22; stroke-width: 1.5"/>
    <path d="M 137.174601 87.713183 
L 137.174601 78.407343 
" clip-path="url(#p33e754f5f6)" style="fill: none; stroke: #bcbd22; stroke-width: 1.5"/>
    <path d="M 203.397311 96.183054 
L 203.397311 79.064671 
" clip-path="url(#p33e754f5f6)" style="fill: none; stroke: #bcbd22; stroke-width: 1.5"/>
    <path d="M 269.620021 103.457295 
L 269.620021 81.027127 
" clip-path="url(#p33e754f5f6)" style="fill: none; stroke: #bcbd22; stroke-width: 1.5"/>
    <path d="M 335.842731 158.717172 
L 335.842731 77.109312 
" clip-path="url(#p33e754f5f6)" style="fill: none; stroke: #bcbd22; stroke-width: 1.5"/>
   </g>
   <g id="LineCollection_10">
    <path d="M 64.702777 80.100516 
L 64.702777 75.885427 
" clip-path="url(#p33e754f5f6)" style="fill: none; stroke: #17becf; stroke-width: 1.5"/>
    <path d="M 130.925486 88.895308 
L 130.925486 79.577383 
" clip-path="url(#p33e754f5f6)" style="fill: none; stroke: #17becf; stroke-width: 1.5"/>
    <path d="M 197.148196 99.139782 
L 197.148196 81.999794 
" clip-path="url(#p33e754f5f6)" style="fill: none; stroke: #17becf; stroke-width: 1.5"/>
    <path d="M 263.370906 101.645968 
L 263.370906 79.185933 
" clip-path="url(#p33e754f5f6)" style="fill: none; stroke: #17becf; stroke-width: 1.5"/>
    <path d="M 329.593615 108.595599 
L 329.593615 26.880909 
" clip-path="url(#p33e754f5f6)" style="fill: none; stroke: #17becf; stroke-width: 1.5"/>
   </g>
   <g id="LineCollection_11">
    <path d="M 65.177491 81.966737 
L 65.177491 77.756696 
" clip-path="url(#p33e754f5f6)" style="fill: none; stroke: #1f77b4; stroke-width: 1.5"/>
    <path d="M 131.400201 98.516647 
L 131.400201 89.20997 
" clip-path="url(#p33e754f5f6)" style="fill: none; stroke: #1f77b4; stroke-width: 1.5"/>
    <path d="M 197.62291 122.300228 
L 197.62291 105.179351 
" clip-path="url(#p33e754f5f6)" style="fill: none; stroke: #1f77b4; stroke-width: 1.5"/>
    <path d="M 263.84562 136.136289 
L 263.84562 113.704225 
" clip-path="url(#p33e754f5f6)" style="fill: none; stroke: #1f77b4; stroke-width: 1.5"/>
    <path d="M 330.06833 152.348423 
L 330.06833 70.734067 
" clip-path="url(#p33e754f5f6)" style="fill: none; stroke: #1f77b4; stroke-width: 1.5"/>
   </g>
   <g id="LineCollection_12">
    <path d="M 74.755423 77.534906 
L 74.755423 73.320536 
" clip-path="url(#p33e754f5f6)" style="fill: none; stroke: #ff7f0e; stroke-width: 1.5"/>
    <path d="M 140.978132 82.897051 
L 140.978132 73.580215 
" clip-path="url(#p33e754f5f6)" style="fill: none; stroke: #ff7f0e; stroke-width: 1.5"/>
    <path d="M 207.200842 92.106512 
L 207.200842 74.968705 
" clip-path="url(#p33e754f5f6)" style="fill: none; stroke: #ff7f0e; stroke-width: 1.5"/>
    <path d="M 273.423552 96.695607 
L 273.423552 74.235778 
" clip-path="url(#p33e754f5f6)" style="fill: none; stroke: #ff7f0e; stroke-width: 1.5"/>
    <path d="M 339.646262 115.736871 
L 339.646262 34.03827 
" clip-path="url(#p33e754f5f6)" style="fill: none; stroke: #ff7f0e; stroke-width: 1.5"/>
   </g>
   <g id="line2d_11">
    <defs>
     <path id="m24af59d17d" d="M 0 3 
C 0.795609 3 1.55874 2.683901 2.12132 2.12132 
C 2.683901 1.55874 3 0.795609 3 0 
C 3 -0.795609 2.683901 -1.55874 2.12132 -2.12132 
C 1.55874 -2.683901 0.795609 -3 0 -3 
C -0.795609 -3 -1.55874 -2.683901 -2.12132 -2.12132 
C -2.683901 -1.55874 -3 -0.795609 -3 0 
C -3 0.795609 -2.683901 1.55874 -2.12132 2.12132 
C -1.55874 2.683901 -0.795609 3 0 3 
z
" style="stroke: #1f77b4"/>
    </defs>
    <g clip-path="url(#p33e754f5f6)">
     <use xlink:href="#m24af59d17d" x="75.972459" y="80.71841" style="fill: #1f77b4; stroke: #1f77b4"/>
     <use xlink:href="#m24af59d17d" x="142.195168" y="97.515883" style="fill: #1f77b4; stroke: #1f77b4"/>
     <use xlink:href="#m24af59d17d" x="208.417878" y="121.980881" style="fill: #1f77b4; stroke: #1f77b4"/>
     <use xlink:href="#m24af59d17d" x="274.640588" y="136.707349" style="fill: #1f77b4; stroke: #1f77b4"/>
     <use xlink:href="#m24af59d17d" x="340.863298" y="167.511364" style="fill: #1f77b4; stroke: #1f77b4"/>
    </g>
   </g>
   <g id="line2d_12">
    <defs>
     <path id="me86287dc44" d="M 0 3 
C 0.795609 3 1.55874 2.683901 2.12132 2.12132 
C 2.683901 1.55874 3 0.795609 3 0 
C 3 -0.795609 2.683901 -1.55874 2.12132 -2.12132 
C 1.55874 -2.683901 0.795609 -3 0 -3 
C -0.795609 -3 -1.55874 -2.683901 -2.12132 -2.12132 
C -2.683901 -1.55874 -3 -0.795609 -3 0 
C -3 0.795609 -2.683901 1.55874 -2.12132 2.12132 
C -1.55874 2.683901 -0.795609 3 0 3 
z
" style="stroke: #ff7f0e"/>
    </defs>
    <g clip-path="url(#p33e754f5f6)">
     <use xlink:href="#me86287dc44" x="61.90281" y="82.782428" style="fill: #ff7f0e; stroke: #ff7f0e"/>
     <use xlink:href="#me86287dc44" x="128.12552" y="103.173235" style="fill: #ff7f0e; stroke: #ff7f0e"/>
     <use xlink:href="#me86287dc44" x="194.348229" y="126.730518" style="fill: #ff7f0e; stroke: #ff7f0e"/>
     <use xlink:href="#me86287dc44" x="260.570939" y="139.14937" style="fill: #ff7f0e; stroke: #ff7f0e"/>
     <use xlink:href="#me86287dc44" x="326.793649" y="161.859153" style="fill: #ff7f0e; stroke: #ff7f0e"/>
    </g>
   </g>
   <g id="line2d_13">
    <defs>
     <path id="m1fcbd34fef" d="M 0 3 
C 0.795609 3 1.55874 2.683901 2.12132 2.12132 
C 2.683901 1.55874 3 0.795609 3 0 
C 3 -0.795609 2.683901 -1.55874 2.12132 -2.12132 
C 1.55874 -2.683901 0.795609 -3 0 -3 
C -0.795609 -3 -1.55874 -2.683901 -2.12132 -2.12132 
C -2.683901 -1.55874 -3 -0.795609 -3 0 
C -3 0.795609 -2.683901 1.55874 -2.12132 2.12132 
C -1.55874 2.683901 -0.795609 3 0 3 
z
" style="stroke: #2ca02c"/>
    </defs>
    <g clip-path="url(#p33e754f5f6)">
     <use xlink:href="#m1fcbd34fef" x="79.068168" y="77.421269" style="fill: #2ca02c; stroke: #2ca02c"/>
     <use xlink:href="#m1fcbd34fef" x="145.290877" y="82.060766" style="fill: #2ca02c; stroke: #2ca02c"/>
     <use xlink:href="#m1fcbd34fef" x="211.513587" y="97.276337" style="fill: #2ca02c; stroke: #2ca02c"/>
     <use xlink:href="#m1fcbd34fef" x="277.736297" y="112.223002" style="fill: #2ca02c; stroke: #2ca02c"/>
     <use xlink:href="#m1fcbd34fef" x="343.959007" y="138.389688" style="fill: #2ca02c; stroke: #2ca02c"/>
    </g>
   </g>
   <g id="line2d_14">
    <defs>
     <path id="me6e8be56fc" d="M 0 3 
C 0.795609 3 1.55874 2.683901 2.12132 2.12132 
C 2.683901 1.55874 3 0.795609 3 0 
C 3 -0.795609 2.683901 -1.55874 2.12132 -2.12132 
C 1.55874 -2.683901 0.795609 -3 0 -3 
C -0.795609 -3 -1.55874 -2.683901 -2.12132 -2.12132 
C -2.683901 -1.55874 -3 -0.795609 -3 0 
C -3 0.795609 -2.683901 1.55874 -2.12132 2.12132 
C -1.55874 2.683901 -0.795609 3 0 3 
z
" style="stroke: #d62728"/>
    </defs>
    <g clip-path="url(#p33e754f5f6)">
     <use xlink:href="#me6e8be56fc" x="64.593878" y="81.332796" style="fill: #d62728; stroke: #d62728"/>
     <use xlink:href="#me6e8be56fc" x="130.816588" y="101.298785" style="fill: #d62728; stroke: #d62728"/>
     <use xlink:href="#me6e8be56fc" x="197.039298" y="126.355017" style="fill: #d62728; stroke: #d62728"/>
     <use xlink:href="#me6e8be56fc" x="263.262007" y="139.850572" style="fill: #d62728; stroke: #d62728"/>
     <use xlink:href="#me6e8be56fc" x="329.484717" y="131.876228" style="fill: #d62728; stroke: #d62728"/>
    </g>
   </g>
   <g id="line2d_15">
    <defs>
     <path id="m7dc5f4b5bf" d="M 0 3 
C 0.795609 3 1.55874 2.683901 2.12132 2.12132 
C 2.683901 1.55874 3 0.795609 3 0 
C 3 -0.795609 2.683901 -1.55874 2.12132 -2.12132 
C 1.55874 -2.683901 0.795609 -3 0 -3 
C -0.795609 -3 -1.55874 -2.683901 -2.12132 -2.12132 
C -2.683901 -1.55874 -3 -0.795609 -3 0 
C -3 0.795609 -2.683901 1.55874 -2.12132 2.12132 
C -1.55874 2.683901 -0.795609 3 0 3 
z
" style="stroke: #9467bd"/>
    </defs>
    <g clip-path="url(#p33e754f5f6)">
     <use xlink:href="#m7dc5f4b5bf" x="70.010857" y="76.820761" style="fill: #9467bd; stroke: #9467bd"/>
     <use xlink:href="#m7dc5f4b5bf" x="136.233567" y="102.26396" style="fill: #9467bd; stroke: #9467bd"/>
     <use xlink:href="#m7dc5f4b5bf" x="202.456277" y="141.173355" style="fill: #9467bd; stroke: #9467bd"/>
     <use xlink:href="#m7dc5f4b5bf" x="268.678987" y="174.970479" style="fill: #9467bd; stroke: #9467bd"/>
     <use xlink:href="#m7dc5f4b5bf" x="334.901696" y="190.071567" style="fill: #9467bd; stroke: #9467bd"/>
    </g>
   </g>
   <g id="line2d_16">
    <defs>
     <path id="mbf63baf5aa" d="M 0 3 
C 0.795609 3 1.55874 2.683901 2.12132 2.12132 
C 2.683901 1.55874 3 0.795609 3 0 
C 3 -0.795609 2.683901 -1.55874 2.12132 -2.12132 
C 1.55874 -2.683901 0.795609 -3 0 -3 
C -0.795609 -3 -1.55874 -2.683901 -2.12132 -2.12132 
C -2.683901 -1.55874 -3 -0.795609 -3 0 
C -3 0.795609 -2.683901 1.55874 -2.12132 2.12132 
C -1.55874 2.683901 -0.795609 3 0 3 
z
" style="stroke: #8c564b"/>
    </defs>
    <g clip-path="url(#p33e754f5f6)">
     <use xlink:href="#mbf63baf5aa" x="68.423798" y="76.251718" style="fill: #8c564b; stroke: #8c564b"/>
     <use xlink:href="#mbf63baf5aa" x="134.646508" y="92.29095" style="fill: #8c564b; stroke: #8c564b"/>
     <use xlink:href="#mbf63baf5aa" x="200.869217" y="112.274327" style="fill: #8c564b; stroke: #8c564b"/>
     <use xlink:href="#mbf63baf5aa" x="267.091927" y="115.886761" style="fill: #8c564b; stroke: #8c564b"/>
     <use xlink:href="#mbf63baf5aa" x="333.314637" y="99.258125" style="fill: #8c564b; stroke: #8c564b"/>
    </g>
   </g>
   <g id="line2d_17">
    <defs>
     <path id="m53465b28fa" d="M 0 3 
C 0.795609 3 1.55874 2.683901 2.12132 2.12132 
C 2.683901 1.55874 3 0.795609 3 0 
C 3 -0.795609 2.683901 -1.55874 2.12132 -2.12132 
C 1.55874 -2.683901 0.795609 -3 0 -3 
C -0.795609 -3 -1.55874 -2.683901 -2.12132 -2.12132 
C -2.683901 -1.55874 -3 -0.795609 -3 0 
C -3 0.795609 -2.683901 1.55874 -2.12132 2.12132 
C -1.55874 2.683901 -0.795609 3 0 3 
z
" style="stroke: #e377c2"/>
    </defs>
    <g clip-path="url(#p33e754f5f6)">
     <use xlink:href="#m53465b28fa" x="63.750346" y="78.483288" style="fill: #e377c2; stroke: #e377c2"/>
     <use xlink:href="#m53465b28fa" x="129.973056" y="81.157905" style="fill: #e377c2; stroke: #e377c2"/>
     <use xlink:href="#m53465b28fa" x="196.195765" y="81.733547" style="fill: #e377c2; stroke: #e377c2"/>
     <use xlink:href="#m53465b28fa" x="262.418475" y="85.455001" style="fill: #e377c2; stroke: #e377c2"/>
     <use xlink:href="#m53465b28fa" x="328.641185" y="67.976249" style="fill: #e377c2; stroke: #e377c2"/>
    </g>
   </g>
   <g id="line2d_18">
    <defs>
     <path id="m64ed7b7ff7" d="M 0 3 
C 0.795609 3 1.55874 2.683901 2.12132 2.12132 
C 2.683901 1.55874 3 0.795609 3 0 
C 3 -0.795609 2.683901 -1.55874 2.12132 -2.12132 
C 1.55874 -2.683901 0.795609 -3 0 -3 
C -0.795609 -3 -1.55874 -2.683901 -2.12132 -2.12132 
C -2.683901 -1.55874 -3 -0.795609 -3 0 
C -3 0.795609 -2.683901 1.55874 -2.12132 2.12132 
C -1.55874 2.683901 -0.795609 3 0 3 
z
" style="stroke: #7f7f7f"/>
    </defs>
    <g clip-path="url(#p33e754f5f6)">
     <use xlink:href="#m64ed7b7ff7" x="72.433026" y="78.6677" style="fill: #7f7f7f; stroke: #7f7f7f"/>
     <use xlink:href="#m64ed7b7ff7" x="138.655736" y="82.637247" style="fill: #7f7f7f; stroke: #7f7f7f"/>
     <use xlink:href="#m64ed7b7ff7" x="204.878445" y="84.686939" style="fill: #7f7f7f; stroke: #7f7f7f"/>
     <use xlink:href="#m64ed7b7ff7" x="271.101155" y="89.077222" style="fill: #7f7f7f; stroke: #7f7f7f"/>
     <use xlink:href="#m64ed7b7ff7" x="337.323865" y="84.240318" style="fill: #7f7f7f; stroke: #7f7f7f"/>
    </g>
   </g>
   <g id="line2d_19">
    <defs>
     <path id="me213330802" d="M 0 3 
C 0.795609 3 1.55874 2.683901 2.12132 2.12132 
C 2.683901 1.55874 3 0.795609 3 0 
C 3 -0.795609 2.683901 -1.55874 2.12132 -2.12132 
C 1.55874 -2.683901 0.795609 -3 0 -3 
C -0.795609 -3 -1.55874 -2.683901 -2.12132 -2.12132 
C -2.683901 -1.55874 -3 -0.795609 -3 0 
C -3 0.795609 -2.683901 1.55874 -2.12132 2.12132 
C -1.55874 2.683901 -0.795609 3 0 3 
z
" style="stroke: #bcbd22"/>
    </defs>
    <g clip-path="url(#p33e754f5f6)">
     <use xlink:href="#me213330802" x="70.951892" y="77.464243" style="fill: #bcbd22; stroke: #bcbd22"/>
     <use xlink:href="#me213330802" x="137.174601" y="83.060263" style="fill: #bcbd22; stroke: #bcbd22"/>
     <use xlink:href="#me213330802" x="203.397311" y="87.623863" style="fill: #bcbd22; stroke: #bcbd22"/>
     <use xlink:href="#me213330802" x="269.620021" y="92.242211" style="fill: #bcbd22; stroke: #bcbd22"/>
     <use xlink:href="#me213330802" x="335.842731" y="117.913242" style="fill: #bcbd22; stroke: #bcbd22"/>
    </g>
   </g>
   <g id="line2d_20">
    <defs>
     <path id="mb6dacdb119" d="M 0 3 
C 0.795609 3 1.55874 2.683901 2.12132 2.12132 
C 2.683901 1.55874 3 0.795609 3 0 
C 3 -0.795609 2.683901 -1.55874 2.12132 -2.12132 
C 1.55874 -2.683901 0.795609 -3 0 -3 
C -0.795609 -3 -1.55874 -2.683901 -2.12132 -2.12132 
C -2.683901 -1.55874 -3 -0.795609 -3 0 
C -3 0.795609 -2.683901 1.55874 -2.12132 2.12132 
C -1.55874 2.683901 -0.795609 3 0 3 
z
" style="stroke: #17becf"/>
    </defs>
    <g clip-path="url(#p33e754f5f6)">
     <use xlink:href="#mb6dacdb119" x="64.702777" y="77.992971" style="fill: #17becf; stroke: #17becf"/>
     <use xlink:href="#mb6dacdb119" x="130.925486" y="84.236345" style="fill: #17becf; stroke: #17becf"/>
     <use xlink:href="#mb6dacdb119" x="197.148196" y="90.569788" style="fill: #17becf; stroke: #17becf"/>
     <use xlink:href="#mb6dacdb119" x="263.370906" y="90.41595" style="fill: #17becf; stroke: #17becf"/>
     <use xlink:href="#mb6dacdb119" x="329.593615" y="67.738254" style="fill: #17becf; stroke: #17becf"/>
    </g>
   </g>
   <g id="line2d_21">
    <g clip-path="url(#p33e754f5f6)">
     <use xlink:href="#m24af59d17d" x="65.177491" y="79.861717" style="fill: #1f77b4; stroke: #1f77b4"/>
     <use xlink:href="#m24af59d17d" x="131.400201" y="93.863308" style="fill: #1f77b4; stroke: #1f77b4"/>
     <use xlink:href="#m24af59d17d" x="197.62291" y="113.739789" style="fill: #1f77b4; stroke: #1f77b4"/>
     <use xlink:href="#m24af59d17d" x="263.84562" y="124.920257" style="fill: #1f77b4; stroke: #1f77b4"/>
     <use xlink:href="#m24af59d17d" x="330.06833" y="111.541245" style="fill: #1f77b4; stroke: #1f77b4"/>
    </g>
   </g>
   <g id="line2d_22">
    <g clip-path="url(#p33e754f5f6)">
     <use xlink:href="#me86287dc44" x="74.755423" y="75.427721" style="fill: #ff7f0e; stroke: #ff7f0e"/>
     <use xlink:href="#me86287dc44" x="140.978132" y="78.238633" style="fill: #ff7f0e; stroke: #ff7f0e"/>
     <use xlink:href="#me86287dc44" x="207.200842" y="83.537609" style="fill: #ff7f0e; stroke: #ff7f0e"/>
     <use xlink:href="#me86287dc44" x="273.423552" y="85.465692" style="fill: #ff7f0e; stroke: #ff7f0e"/>
     <use xlink:href="#me86287dc44" x="339.646262" y="74.88757" style="fill: #ff7f0e; stroke: #ff7f0e"/>
    </g>
   </g>
   <g id="patch_3">
    <path d="M 47.8 241.1 
L 47.8 16.68 
" style="fill: none; stroke: #000000; stroke-width: 0.8; stroke-linejoin: miter; stroke-linecap: square"/>
   </g>
   <g id="patch_4">
    <path d="M 358.061816 241.1 
L 358.061816 16.68 
" style="fill: none; stroke: #000000; stroke-width: 0.8; stroke-linejoin: miter; stroke-linecap: square"/>
   </g>
   <g id="patch_5">
    <path d="M 47.8 241.1 
L 358.061816 241.1 
" style="fill: none; stroke: #000000; stroke-width: 0.8; stroke-linejoin: miter; stroke-linecap: square"/>
   </g>
   <g id="patch_6">
    <path d="M 47.8 16.68 
L 358.061816 16.68 
" style="fill: none; stroke: #000000; stroke-width: 0.8; stroke-linejoin: miter; stroke-linecap: square"/>
   </g>
   <g id="legend_1">
    <g id="patch_7">
     <path d="M 367.061816 222.14 
L 419.061816 222.14 
Q 421.061816 222.14 421.061816 220.14 
L 421.061816 41.64 
Q 421.061816 39.64 419.061816 39.64 
L 367.061816 39.64 
Q 365.061816 39.64 365.061816 41.64 
L 365.061816 220.14 
Q 365.061816 222.14 367.061816 222.14 
z
" style="fill: #4c4c4c; opacity: 0.5; stroke: #4c4c4c; stroke-linejoin: miter"/>
    </g>
    <g id="patch_8">
     <path d="M 365.061816 220.14 
L 417.061816 220.14 
Q 419.061816 220.14 419.061816 218.14 
L 419.061816 39.64 
Q 419.061816 37.64 417.061816 37.64 
L 365.061816 37.64 
Q 363.061816 37.64 363.061816 39.64 
L 363.061816 218.14 
Q 363.061816 220.14 365.061816 220.14 
z
" style="fill: #ffffff; stroke: #cccccc; stroke-linejoin: miter"/>
    </g>
    <g id="LineCollection_13">
     <path d="M 377.061816 50.738437 
L 377.061816 40.738437 
" style="fill: none; stroke: #1f77b4; stroke-width: 1.5"/>
    </g>
    <g id="line2d_23"/>
    <g id="line2d_24">
     <g>
      <use xlink:href="#m24af59d17d" x="377.061816" y="45.738437" style="fill: #1f77b4; stroke: #1f77b4"/>
     </g>
    </g>
    <g id="text_13">
     <!-- $r_{V,V}$ -->
     <g transform="translate(395.061816 49.238437)scale(0.1 -0.1)">
      <use xlink:href="#DejaVuSans-Oblique-72"/>
      <use xlink:href="#DejaVuSans-Oblique-56" transform="translate(41.113281 -16.40625)scale(0.7)"/>
      <use xlink:href="#DejaVuSans-2c" transform="translate(88.999023 -16.40625)scale(0.7)"/>
      <use xlink:href="#DejaVuSans-Oblique-56" transform="translate(124.887695 -16.40625)scale(0.7)"/>
     </g>
    </g>
    <g id="LineCollection_14">
     <path d="M 377.061816 65.836875 
L 377.061816 55.836875 
" style="fill: none; stroke: #ff7f0e; stroke-width: 1.5"/>
    </g>
    <g id="line2d_25"/>
    <g id="line2d_26">
     <g>
      <use xlink:href="#me86287dc44" x="377.061816" y="60.836875" style="fill: #ff7f0e; stroke: #ff7f0e"/>
     </g>
    </g>
    <g id="text_14">
     <!-- $K_{V,V}$ -->
     <g transform="translate(395.061816 64.336875)scale(0.1 -0.1)">
      <defs>
       <path id="DejaVuSans-Oblique-4b" d="M 1081 4666 
L 1716 4666 
L 1331 2700 
L 3781 4666 
L 4622 4666 
L 1850 2438 
L 3878 0 
L 3109 0 
L 1247 2272 
L 806 0 
L 172 0 
L 1081 4666 
z
" transform="scale(0.015625)"/>
      </defs>
      <use xlink:href="#DejaVuSans-Oblique-4b" transform="translate(0 0.09375)"/>
      <use xlink:href="#DejaVuSans-Oblique-56" transform="translate(65.576172 -16.3125)scale(0.7)"/>
      <use xlink:href="#DejaVuSans-2c" transform="translate(113.461914 -16.3125)scale(0.7)"/>
      <use xlink:href="#DejaVuSans-Oblique-56" transform="translate(149.350586 -16.3125)scale(0.7)"/>
     </g>
    </g>
    <g id="LineCollection_15">
     <path d="M 377.061816 80.935312 
L 377.061816 70.935312 
" style="fill: none; stroke: #2ca02c; stroke-width: 1.5"/>
    </g>
    <g id="line2d_27"/>
    <g id="line2d_28">
     <g>
      <use xlink:href="#m1fcbd34fef" x="377.061816" y="75.935312" style="fill: #2ca02c; stroke: #2ca02c"/>
     </g>
    </g>
    <g id="text_15">
     <!-- $r_{V,I}$ -->
     <g transform="translate(395.061816 79.435312)scale(0.1 -0.1)">
      <use xlink:href="#DejaVuSans-Oblique-72"/>
      <use xlink:href="#DejaVuSans-Oblique-56" transform="translate(41.113281 -16.40625)scale(0.7)"/>
      <use xlink:href="#DejaVuSans-2c" transform="translate(88.999023 -16.40625)scale(0.7)"/>
      <use xlink:href="#DejaVuSans-Oblique-49" transform="translate(124.887695 -16.40625)scale(0.7)"/>
     </g>
    </g>
    <g id="LineCollection_16">
     <path d="M 377.061816 96.03375 
L 377.061816 86.03375 
" style="fill: none; stroke: #d62728; stroke-width: 1.5"/>
    </g>
    <g id="line2d_29"/>
    <g id="line2d_30">
     <g>
      <use xlink:href="#me6e8be56fc" x="377.061816" y="91.03375" style="fill: #d62728; stroke: #d62728"/>
     </g>
    </g>
    <g id="text_16">
     <!-- $d_{V}$ -->
     <g transform="translate(395.061816 94.53375)scale(0.1 -0.1)">
      <defs>
       <path id="DejaVuSans-Oblique-64" d="M 2675 525 
Q 2444 222 2128 65 
Q 1813 -91 1428 -91 
Q 903 -91 598 267 
Q 294 625 294 1247 
Q 294 1766 478 2236 
Q 663 2706 1013 3078 
Q 1244 3325 1534 3454 
Q 1825 3584 2144 3584 
Q 2481 3584 2739 3421 
Q 2997 3259 3138 2956 
L 3513 4863 
L 4091 4863 
L 3144 0 
L 2566 0 
L 2675 525 
z
M 891 1350 
Q 891 897 1095 644 
Q 1300 391 1663 391 
Q 1931 391 2161 520 
Q 2391 650 2566 903 
Q 2750 1166 2856 1509 
Q 2963 1853 2963 2188 
Q 2963 2622 2758 2865 
Q 2553 3109 2194 3109 
Q 1922 3109 1687 2981 
Q 1453 2853 1288 2613 
Q 1106 2353 998 2009 
Q 891 1666 891 1350 
z
" transform="scale(0.015625)"/>
      </defs>
      <use xlink:href="#DejaVuSans-Oblique-64" transform="translate(0 0.015625)"/>
      <use xlink:href="#DejaVuSans-Oblique-56" transform="translate(63.476562 -16.390625)scale(0.7)"/>
     </g>
    </g>
    <g id="LineCollection_17">
     <path d="M 377.061816 110.711875 
L 377.061816 100.711875 
" style="fill: none; stroke: #9467bd; stroke-width: 1.5"/>
    </g>
    <g id="line2d_31"/>
    <g id="line2d_32">
     <g>
      <use xlink:href="#m7dc5f4b5bf" x="377.061816" y="105.711875" style="fill: #9467bd; stroke: #9467bd"/>
     </g>
    </g>
    <g id="text_17">
     <!-- $r_{I,V}$ -->
     <g transform="translate(395.061816 109.211875)scale(0.1 -0.1)">
      <use xlink:href="#DejaVuSans-Oblique-72"/>
      <use xlink:href="#DejaVuSans-Oblique-49" transform="translate(41.113281 -16.40625)scale(0.7)"/>
      <use xlink:href="#DejaVuSans-2c" transform="translate(61.757812 -16.40625)scale(0.7)"/>
      <use xlink:href="#DejaVuSans-Oblique-56" transform="translate(97.646484 -16.40625)scale(0.7)"/>
     </g>
    </g>
    <g id="LineCollection_18">
     <path d="M 377.061816 125.810313 
L 377.061816 115.810313 
" style="fill: none; stroke: #8c564b; stroke-width: 1.5"/>
    </g>
    <g id="line2d_33"/>
    <g id="line2d_34">
     <g>
      <use xlink:href="#mbf63baf5aa" x="377.061816" y="120.810313" style="fill: #8c564b; stroke: #8c564b"/>
     </g>
    </g>
    <g id="text_18">
     <!-- $d_{I}$ -->
     <g transform="translate(395.061816 124.310313)scale(0.1 -0.1)">
      <use xlink:href="#DejaVuSans-Oblique-64" transform="translate(0 0.015625)"/>
      <use xlink:href="#DejaVuSans-Oblique-49" transform="translate(63.476562 -16.390625)scale(0.7)"/>
     </g>
    </g>
    <g id="LineCollection_19">
     <path d="M 377.061816 140.488437 
L 377.061816 130.488437 
" style="fill: none; stroke: #e377c2; stroke-width: 1.5"/>
    </g>
    <g id="line2d_35"/>
    <g id="line2d_36">
     <g>
      <use xlink:href="#m53465b28fa" x="377.061816" y="135.488437" style="fill: #e377c2; stroke: #e377c2"/>
     </g>
    </g>
    <g id="text_19">
     <!-- $r_{M,I}$ -->
     <g transform="translate(395.061816 138.988437)scale(0.1 -0.1)">
      <defs>
       <path id="DejaVuSans-Oblique-4d" d="M 1081 4666 
L 2028 4666 
L 2572 1522 
L 4378 4666 
L 5350 4666 
L 4441 0 
L 3828 0 
L 4622 4091 
L 2791 897 
L 2175 897 
L 1581 4103 
L 788 0 
L 172 0 
L 1081 4666 
z
" transform="scale(0.015625)"/>
      </defs>
      <use xlink:href="#DejaVuSans-Oblique-72"/>
      <use xlink:href="#DejaVuSans-Oblique-4d" transform="translate(41.113281 -16.40625)scale(0.7)"/>
      <use xlink:href="#DejaVuSans-2c" transform="translate(101.508789 -16.40625)scale(0.7)"/>
      <use xlink:href="#DejaVuSans-Oblique-49" transform="translate(137.397461 -16.40625)scale(0.7)"/>
     </g>
    </g>
    <g id="LineCollection_20">
     <path d="M 377.061816 155.586875 
L 377.061816 145.586875 
" style="fill: none; stroke: #7f7f7f; stroke-width: 1.5"/>
    </g>
    <g id="line2d_37"/>
    <g id="line2d_38">
     <g>
      <use xlink:href="#m64ed7b7ff7" x="377.061816" y="150.586875" style="fill: #7f7f7f; stroke: #7f7f7f"/>
     </g>
    </g>
    <g id="text_20">
     <!-- $K_{M,I}$ -->
     <g transform="translate(395.061816 154.086875)scale(0.1 -0.1)">
      <use xlink:href="#DejaVuSans-Oblique-4b" transform="translate(0 0.09375)"/>
      <use xlink:href="#DejaVuSans-Oblique-4d" transform="translate(65.576172 -16.3125)scale(0.7)"/>
      <use xlink:href="#DejaVuSans-2c" transform="translate(125.97168 -16.3125)scale(0.7)"/>
      <use xlink:href="#DejaVuSans-Oblique-49" transform="translate(161.860352 -16.3125)scale(0.7)"/>
     </g>
    </g>
    <g id="LineCollection_21">
     <path d="M 377.061816 170.685313 
L 377.061816 160.685313 
" style="fill: none; stroke: #bcbd22; stroke-width: 1.5"/>
    </g>
    <g id="line2d_39"/>
    <g id="line2d_40">
     <g>
      <use xlink:href="#me213330802" x="377.061816" y="165.685313" style="fill: #bcbd22; stroke: #bcbd22"/>
     </g>
    </g>
    <g id="text_21">
     <!-- $d_{M}$ -->
     <g transform="translate(395.061816 169.185313)scale(0.1 -0.1)">
      <use xlink:href="#DejaVuSans-Oblique-64" transform="translate(0 0.015625)"/>
      <use xlink:href="#DejaVuSans-Oblique-4d" transform="translate(63.476562 -16.390625)scale(0.7)"/>
     </g>
    </g>
    <g id="LineCollection_22">
     <path d="M 377.061816 185.363437 
L 377.061816 175.363437 
" style="fill: none; stroke: #17becf; stroke-width: 1.5"/>
    </g>
    <g id="line2d_41"/>
    <g id="line2d_42">
     <g>
      <use xlink:href="#mb6dacdb119" x="377.061816" y="180.363437" style="fill: #17becf; stroke: #17becf"/>
     </g>
    </g>
    <g id="text_22">
     <!-- $n$ -->
     <g transform="translate(395.061816 183.863437)scale(0.1 -0.1)">
      <defs>
       <path id="DejaVuSans-Oblique-6e" d="M 3566 2113 
L 3156 0 
L 2578 0 
L 2988 2091 
Q 3016 2238 3031 2350 
Q 3047 2463 3047 2528 
Q 3047 2791 2881 2937 
Q 2716 3084 2419 3084 
Q 1956 3084 1622 2776 
Q 1288 2469 1184 1941 
L 800 0 
L 225 0 
L 903 3500 
L 1478 3500 
L 1363 2950 
Q 1603 3253 1940 3418 
Q 2278 3584 2650 3584 
Q 3113 3584 3367 3334 
Q 3622 3084 3622 2631 
Q 3622 2519 3608 2391 
Q 3594 2263 3566 2113 
z
" transform="scale(0.015625)"/>
      </defs>
      <use xlink:href="#DejaVuSans-Oblique-6e"/>
     </g>
    </g>
    <g id="LineCollection_23">
     <path d="M 377.061816 200.041562 
L 377.061816 190.041562 
" style="fill: none; stroke: #1f77b4; stroke-width: 1.5"/>
    </g>
    <g id="line2d_43"/>
    <g id="line2d_44">
     <g>
      <use xlink:href="#m24af59d17d" x="377.061816" y="195.041562" style="fill: #1f77b4; stroke: #1f77b4"/>
     </g>
    </g>
    <g id="text_23">
     <!-- $r_{V,M}$ -->
     <g transform="translate(395.061816 198.541562)scale(0.1 -0.1)">
      <use xlink:href="#DejaVuSans-Oblique-72"/>
      <use xlink:href="#DejaVuSans-Oblique-56" transform="translate(41.113281 -16.40625)scale(0.7)"/>
      <use xlink:href="#DejaVuSans-2c" transform="translate(88.999023 -16.40625)scale(0.7)"/>
      <use xlink:href="#DejaVuSans-Oblique-4d" transform="translate(124.887695 -16.40625)scale(0.7)"/>
     </g>
    </g>
    <g id="LineCollection_24">
     <path d="M 377.061816 215.14 
L 377.061816 205.14 
" style="fill: none; stroke: #ff7f0e; stroke-width: 1.5"/>
    </g>
    <g id="line2d_45"/>
    <g id="line2d_46">
     <g>
      <use xlink:href="#me86287dc44" x="377.061816" y="210.14" style="fill: #ff7f0e; stroke: #ff7f0e"/>
     </g>
    </g>
    <g id="text_24">
     <!-- $r_{I,M}$ -->
     <g transform="translate(395.061816 213.64)scale(0.1 -0.1)">
      <use xlink:href="#DejaVuSans-Oblique-72"/>
      <use xlink:href="#DejaVuSans-Oblique-49" transform="translate(41.113281 -16.40625)scale(0.7)"/>
      <use xlink:href="#DejaVuSans-2c" transform="translate(61.757812 -16.40625)scale(0.7)"/>
      <use xlink:href="#DejaVuSans-Oblique-4d" transform="translate(97.646484 -16.40625)scale(0.7)"/>
     </g>
    </g>
   </g>
  </g>
 </g>
 <defs>
  <clipPath id="p33e754f5f6">
   <rect x="47.8" y="16.68" width="310.261816" height="224.42"/>
  </clipPath>
 </defs>
</svg>
