<?xml version="1.0" encoding="utf-8" standalone="no"?>
<!DOCTYPE svg PUBLIC "-//W3C//DTD SVG 1.1//EN"
  "http://www.w3.org/Graphics/SVG/1.1/DTD/svg11.dtd">
<svg xmlns:xlink="http://www.w3.org/1999/xlink" width="432pt" height="288pt" viewBox="0 0 432 288" xmlns="http://www.w3.org/2000/svg" version="1.1">
 <metadata>
  <rdf:RDF xmlns:dc="http://purl.org/dc/elements/1.1/" xmlns:cc="http://creativecommons.org/ns#" xmlns:rdf="http://www.w3.org/1999/02/22-rdf-syntax-ns#">
   <cc:Work>
    <dc:type rdf:resource="http://purl.org/dc/dcmitype/StillImage"/>
    <dc:date>2022-03-17T12:10:16.039096</dc:date>
    <dc:format>image/svg+xml</dc:format>
    <dc:creator>
     <cc:Agent>
      <dc:title>Matplotlib v3.5.0, https://matplotlib.org/</dc:title>
     </cc:Agent>
    </dc:creator>
   </cc:Work>
  </rdf:RDF>
 </metadata>
 <defs>
  <style type="text/css">*{stroke-linejoin: round; stroke-linecap: butt}</style>
 </defs>
 <g id="figure_1">
  <g id="patch_1">
   <path d="M 0 288 
L 432 288 
L 432 0 
L 0 0 
z
" style="fill: #ffffff"/>
  </g>
  <g id="axes_1">
   <g id="patch_2">
    <path d="M 54 252 
L 206.181818 252 
L 206.181818 34.56 
L 54 34.56 
z
" style="fill: #ffffff"/>
   </g>
   <g id="PathCollection_1">
    <defs>
     <path id="mf62d14e82f" d="M 0 3 
C 0.795609 3 1.55874 2.683901 2.12132 2.12132 
C 2.683901 1.55874 3 0.795609 3 0 
C 3 -0.795609 2.683901 -1.55874 2.12132 -2.12132 
C 1.55874 -2.683901 0.795609 -3 0 -3 
C -0.795609 -3 -1.55874 -2.683901 -2.12132 -2.12132 
C -2.683901 -1.55874 -3 -0.795609 -3 0 
C -3 0.795609 -2.683901 1.55874 -2.12132 2.12132 
C -1.55874 2.683901 -0.795609 3 0 3 
z
" style="stroke: #bf00bf"/>
    </defs>
    <g clip-path="url(#p55d72b1b89)">
     <use xlink:href="#mf62d14e82f" x="148.15823" y="44.443636" style="fill: #bf00bf; stroke: #bf00bf"/>
     <use xlink:href="#mf62d14e82f" x="180.550162" y="127.230123" style="fill: #bf00bf; stroke: #bf00bf"/>
     <use xlink:href="#mf62d14e82f" x="192.792759" y="104.168383" style="fill: #bf00bf; stroke: #bf00bf"/>
     <use xlink:href="#mf62d14e82f" x="189.212445" y="106.435036" style="fill: #bf00bf; stroke: #bf00bf"/>
     <use xlink:href="#mf62d14e82f" x="190.394097" y="138.950341" style="fill: #bf00bf; stroke: #bf00bf"/>
     <use xlink:href="#mf62d14e82f" x="188.089646" y="149.824708" style="fill: #bf00bf; stroke: #bf00bf"/>
     <use xlink:href="#mf62d14e82f" x="189.80676" y="148.185227" style="fill: #bf00bf; stroke: #bf00bf"/>
     <use xlink:href="#mf62d14e82f" x="186.318749" y="117.136065" style="fill: #bf00bf; stroke: #bf00bf"/>
     <use xlink:href="#mf62d14e82f" x="187.020356" y="199.763398" style="fill: #bf00bf; stroke: #bf00bf"/>
     <use xlink:href="#mf62d14e82f" x="182.119276" y="142.254325" style="fill: #bf00bf; stroke: #bf00bf"/>
     <use xlink:href="#mf62d14e82f" x="185.06266" y="117.275889" style="fill: #bf00bf; stroke: #bf00bf"/>
     <use xlink:href="#mf62d14e82f" x="195.362287" y="137.124839" style="fill: #bf00bf; stroke: #bf00bf"/>
     <use xlink:href="#mf62d14e82f" x="182.297768" y="147.194621" style="fill: #bf00bf; stroke: #bf00bf"/>
     <use xlink:href="#mf62d14e82f" x="602.493517" y="50.099333" style="fill: #bf00bf; stroke: #bf00bf"/>
    </g>
   </g>
   <g id="PathCollection_2">
    <defs>
     <path id="md8257be370" d="M 0 3 
C 0.795609 3 1.55874 2.683901 2.12132 2.12132 
C 2.683901 1.55874 3 0.795609 3 0 
C 3 -0.795609 2.683901 -1.55874 2.12132 -2.12132 
C 1.55874 -2.683901 0.795609 -3 0 -3 
C -0.795609 -3 -1.55874 -2.683901 -2.12132 -2.12132 
C -2.683901 -1.55874 -3 -0.795609 -3 0 
C -3 0.795609 -2.683901 1.55874 -2.12132 2.12132 
C -1.55874 2.683901 -0.795609 3 0 3 
z
" style="stroke: #ff0000"/>
    </defs>
    <g clip-path="url(#p55d72b1b89)">
     <use xlink:href="#md8257be370" x="109.469723" y="67.6218" style="fill: #ff0000; stroke: #ff0000"/>
     <use xlink:href="#md8257be370" x="144.108714" y="147.633076" style="fill: #ff0000; stroke: #ff0000"/>
     <use xlink:href="#md8257be370" x="159.529532" y="123.986086" style="fill: #ff0000; stroke: #ff0000"/>
     <use xlink:href="#md8257be370" x="144.694147" y="161.020155" style="fill: #ff0000; stroke: #ff0000"/>
     <use xlink:href="#md8257be370" x="143.122523" y="129.497762" style="fill: #ff0000; stroke: #ff0000"/>
     <use xlink:href="#md8257be370" x="151.750042" y="149.899785" style="fill: #ff0000; stroke: #ff0000"/>
     <use xlink:href="#md8257be370" x="152.333882" y="136.772381" style="fill: #ff0000; stroke: #ff0000"/>
     <use xlink:href="#md8257be370" x="150.790254" y="224.750338" style="fill: #ff0000; stroke: #ff0000"/>
     <use xlink:href="#md8257be370" x="144.138191" y="160.214665" style="fill: #ff0000; stroke: #ff0000"/>
     <use xlink:href="#md8257be370" x="143.823036" y="134.918081" style="fill: #ff0000; stroke: #ff0000"/>
     <use xlink:href="#md8257be370" x="151.199966" y="155.524694" style="fill: #ff0000; stroke: #ff0000"/>
     <use xlink:href="#md8257be370" x="146.963734" y="163.874353" style="fill: #ff0000; stroke: #ff0000"/>
     <use xlink:href="#md8257be370" x="529.507938" y="89.803146" style="fill: #ff0000; stroke: #ff0000"/>
    </g>
   </g>
   <g id="PathCollection_3">
    <defs>
     <path id="mef1619a0d7" d="M 0 3 
C 0.795609 3 1.55874 2.683901 2.12132 2.12132 
C 2.683901 1.55874 3 0.795609 3 0 
C 3 -0.795609 2.683901 -1.55874 2.12132 -2.12132 
C 1.55874 -2.683901 0.795609 -3 0 -3 
C -0.795609 -3 -1.55874 -2.683901 -2.12132 -2.12132 
C -2.683901 -1.55874 -3 -0.795609 -3 0 
C -3 0.795609 -2.683901 1.55874 -2.12132 2.12132 
C -1.55874 2.683901 -0.795609 3 0 3 
z
" style="stroke: #0000ff"/>
    </defs>
    <g clip-path="url(#p55d72b1b89)">
     <use xlink:href="#mef1619a0d7" x="115.383621" y="63.939287" style="fill: #0000ff; stroke: #0000ff"/>
     <use xlink:href="#mef1619a0d7" x="143.084344" y="148.602993" style="fill: #0000ff; stroke: #0000ff"/>
     <use xlink:href="#mef1619a0d7" x="151.481811" y="145.379154" style="fill: #0000ff; stroke: #0000ff"/>
     <use xlink:href="#mef1619a0d7" x="143.818194" y="161.620922" style="fill: #0000ff; stroke: #0000ff"/>
     <use xlink:href="#mef1619a0d7" x="145.795594" y="181.211209" style="fill: #0000ff; stroke: #0000ff"/>
     <use xlink:href="#mef1619a0d7" x="140.102806" y="143.856962" style="fill: #0000ff; stroke: #0000ff"/>
     <use xlink:href="#mef1619a0d7" x="152.514546" y="136.766901" style="fill: #0000ff; stroke: #0000ff"/>
     <use xlink:href="#mef1619a0d7" x="152.701144" y="224.693816" style="fill: #0000ff; stroke: #0000ff"/>
     <use xlink:href="#mef1619a0d7" x="144.639649" y="160.219679" style="fill: #0000ff; stroke: #0000ff"/>
     <use xlink:href="#mef1619a0d7" x="155.917882" y="134.915145" style="fill: #0000ff; stroke: #0000ff"/>
     <use xlink:href="#mef1619a0d7" x="139.604883" y="155.524244" style="fill: #0000ff; stroke: #0000ff"/>
     <use xlink:href="#mef1619a0d7" x="149.50907" y="163.865863" style="fill: #0000ff; stroke: #0000ff"/>
     <use xlink:href="#mef1619a0d7" x="532.387343" y="90.414041" style="fill: #0000ff; stroke: #0000ff"/>
    </g>
   </g>
   <g id="PathCollection_4">
    <defs>
     <path id="mf1abce306b" d="M 0 3 
C 0.795609 3 1.55874 2.683901 2.12132 2.12132 
C 2.683901 1.55874 3 0.795609 3 0 
C 3 -0.795609 2.683901 -1.55874 2.12132 -2.12132 
C 1.55874 -2.683901 0.795609 -3 0 -3 
C -0.795609 -3 -1.55874 -2.683901 -2.12132 -2.12132 
C -2.683901 -1.55874 -3 -0.795609 -3 0 
C -3 0.795609 -2.683901 1.55874 -2.12132 2.12132 
C -1.55874 2.683901 -0.795609 3 0 3 
z
" style="stroke: #008000"/>
    </defs>
    <g clip-path="url(#p55d72b1b89)">
     <use xlink:href="#mf1abce306b" x="65.9599" y="85.545028" style="fill: #008000; stroke: #008000"/>
     <use xlink:href="#mf1abce306b" x="109.648501" y="124.31323" style="fill: #008000; stroke: #008000"/>
     <use xlink:href="#mf1abce306b" x="111.583796" y="118.100791" style="fill: #008000; stroke: #008000"/>
     <use xlink:href="#mf1abce306b" x="113.230603" y="118.85552" style="fill: #008000; stroke: #008000"/>
     <use xlink:href="#mf1abce306b" x="104.923906" y="118.959107" style="fill: #008000; stroke: #008000"/>
     <use xlink:href="#mf1abce306b" x="111.389453" y="158.307291" style="fill: #008000; stroke: #008000"/>
     <use xlink:href="#mf1abce306b" x="112.004117" y="242.116364" style="fill: #008000; stroke: #008000"/>
     <use xlink:href="#mf1abce306b" x="107.798311" y="181.759588" style="fill: #008000; stroke: #008000"/>
     <use xlink:href="#mf1abce306b" x="112.35247" y="156.463924" style="fill: #008000; stroke: #008000"/>
     <use xlink:href="#mf1abce306b" x="114.307299" y="177.07323" style="fill: #008000; stroke: #008000"/>
     <use xlink:href="#mf1abce306b" x="108.023311" y="185.38787" style="fill: #008000; stroke: #008000"/>
     <use xlink:href="#mf1abce306b" x="450.817943" y="121.639001" style="fill: #008000; stroke: #008000"/>
    </g>
   </g>
   <g id="matplotlib.axis_1">
    <g id="xtick_1">
     <g id="line2d_1">
      <defs>
       <path id="me8fcd49697" d="M 0 0 
L 0 3.5 
" style="stroke: #000000; stroke-width: 0.8"/>
      </defs>
      <g>
       <use xlink:href="#me8fcd49697" x="73.022727" y="252" style="stroke: #000000; stroke-width: 0.8"/>
      </g>
     </g>
     <g id="text_1">
      <!-- 10 -->
      <g transform="translate(66.660227 266.598437)scale(0.1 -0.1)">
       <defs>
        <path id="DejaVuSans-31" d="M 794 531 
L 1825 531 
L 1825 4091 
L 703 3866 
L 703 4441 
L 1819 4666 
L 2450 4666 
L 2450 531 
L 3481 531 
L 3481 0 
L 794 0 
L 794 531 
z
" transform="scale(0.015625)"/>
        <path id="DejaVuSans-30" d="M 2034 4250 
Q 1547 4250 1301 3770 
Q 1056 3291 1056 2328 
Q 1056 1369 1301 889 
Q 1547 409 2034 409 
Q 2525 409 2770 889 
Q 3016 1369 3016 2328 
Q 3016 3291 2770 3770 
Q 2525 4250 2034 4250 
z
M 2034 4750 
Q 2819 4750 3233 4129 
Q 3647 3509 3647 2328 
Q 3647 1150 3233 529 
Q 2819 -91 2034 -91 
Q 1250 -91 836 529 
Q 422 1150 422 2328 
Q 422 3509 836 4129 
Q 1250 4750 2034 4750 
z
" transform="scale(0.015625)"/>
       </defs>
       <use xlink:href="#DejaVuSans-31"/>
       <use xlink:href="#DejaVuSans-30" x="63.623047"/>
      </g>
     </g>
    </g>
    <g id="xtick_2">
     <g id="line2d_2">
      <g>
       <use xlink:href="#me8fcd49697" x="111.068182" y="252" style="stroke: #000000; stroke-width: 0.8"/>
      </g>
     </g>
     <g id="text_2">
      <!-- 11 -->
      <g transform="translate(104.705682 266.598437)scale(0.1 -0.1)">
       <use xlink:href="#DejaVuSans-31"/>
       <use xlink:href="#DejaVuSans-31" x="63.623047"/>
      </g>
     </g>
    </g>
    <g id="xtick_3">
     <g id="line2d_3">
      <g>
       <use xlink:href="#me8fcd49697" x="149.113636" y="252" style="stroke: #000000; stroke-width: 0.8"/>
      </g>
     </g>
     <g id="text_3">
      <!-- 12 -->
      <g transform="translate(142.751136 266.598437)scale(0.1 -0.1)">
       <defs>
        <path id="DejaVuSans-32" d="M 1228 531 
L 3431 531 
L 3431 0 
L 469 0 
L 469 531 
Q 828 903 1448 1529 
Q 2069 2156 2228 2338 
Q 2531 2678 2651 2914 
Q 2772 3150 2772 3378 
Q 2772 3750 2511 3984 
Q 2250 4219 1831 4219 
Q 1534 4219 1204 4116 
Q 875 4013 500 3803 
L 500 4441 
Q 881 4594 1212 4672 
Q 1544 4750 1819 4750 
Q 2544 4750 2975 4387 
Q 3406 4025 3406 3419 
Q 3406 3131 3298 2873 
Q 3191 2616 2906 2266 
Q 2828 2175 2409 1742 
Q 1991 1309 1228 531 
z
" transform="scale(0.015625)"/>
       </defs>
       <use xlink:href="#DejaVuSans-31"/>
       <use xlink:href="#DejaVuSans-32" x="63.623047"/>
      </g>
     </g>
    </g>
    <g id="xtick_4">
     <g id="line2d_4">
      <g>
       <use xlink:href="#me8fcd49697" x="187.159091" y="252" style="stroke: #000000; stroke-width: 0.8"/>
      </g>
     </g>
     <g id="text_4">
      <!-- 13 -->
      <g transform="translate(180.796591 266.598437)scale(0.1 -0.1)">
       <defs>
        <path id="DejaVuSans-33" d="M 2597 2516 
Q 3050 2419 3304 2112 
Q 3559 1806 3559 1356 
Q 3559 666 3084 287 
Q 2609 -91 1734 -91 
Q 1441 -91 1130 -33 
Q 819 25 488 141 
L 488 750 
Q 750 597 1062 519 
Q 1375 441 1716 441 
Q 2309 441 2620 675 
Q 2931 909 2931 1356 
Q 2931 1769 2642 2001 
Q 2353 2234 1838 2234 
L 1294 2234 
L 1294 2753 
L 1863 2753 
Q 2328 2753 2575 2939 
Q 2822 3125 2822 3475 
Q 2822 3834 2567 4026 
Q 2313 4219 1838 4219 
Q 1578 4219 1281 4162 
Q 984 4106 628 3988 
L 628 4550 
Q 988 4650 1302 4700 
Q 1616 4750 1894 4750 
Q 2613 4750 3031 4423 
Q 3450 4097 3450 3541 
Q 3450 3153 3228 2886 
Q 3006 2619 2597 2516 
z
" transform="scale(0.015625)"/>
       </defs>
       <use xlink:href="#DejaVuSans-31"/>
       <use xlink:href="#DejaVuSans-33" x="63.623047"/>
      </g>
     </g>
    </g>
    <g id="text_5">
     <!-- DoF -->
     <g transform="translate(186.611506 280.276563)scale(0.1 -0.1)">
      <defs>
       <path id="DejaVuSans-44" d="M 1259 4147 
L 1259 519 
L 2022 519 
Q 2988 519 3436 956 
Q 3884 1394 3884 2338 
Q 3884 3275 3436 3711 
Q 2988 4147 2022 4147 
L 1259 4147 
z
M 628 4666 
L 1925 4666 
Q 3281 4666 3915 4102 
Q 4550 3538 4550 2338 
Q 4550 1131 3912 565 
Q 3275 0 1925 0 
L 628 0 
L 628 4666 
z
" transform="scale(0.015625)"/>
       <path id="DejaVuSans-6f" d="M 1959 3097 
Q 1497 3097 1228 2736 
Q 959 2375 959 1747 
Q 959 1119 1226 758 
Q 1494 397 1959 397 
Q 2419 397 2687 759 
Q 2956 1122 2956 1747 
Q 2956 2369 2687 2733 
Q 2419 3097 1959 3097 
z
M 1959 3584 
Q 2709 3584 3137 3096 
Q 3566 2609 3566 1747 
Q 3566 888 3137 398 
Q 2709 -91 1959 -91 
Q 1206 -91 779 398 
Q 353 888 353 1747 
Q 353 2609 779 3096 
Q 1206 3584 1959 3584 
z
" transform="scale(0.015625)"/>
       <path id="DejaVuSans-46" d="M 628 4666 
L 3309 4666 
L 3309 4134 
L 1259 4134 
L 1259 2759 
L 3109 2759 
L 3109 2228 
L 1259 2228 
L 1259 0 
L 628 0 
L 628 4666 
z
" transform="scale(0.015625)"/>
      </defs>
      <use xlink:href="#DejaVuSans-44"/>
      <use xlink:href="#DejaVuSans-6f" x="77.001953"/>
      <use xlink:href="#DejaVuSans-46" x="138.183594"/>
     </g>
    </g>
   </g>
   <g id="matplotlib.axis_2">
    <g id="ytick_1">
     <g id="line2d_5">
      <defs>
       <path id="m85e0c43535" d="M 0 0 
L -3.5 0 
" style="stroke: #000000; stroke-width: 0.8"/>
      </defs>
      <g>
       <use xlink:href="#m85e0c43535" x="54" y="248.669494" style="stroke: #000000; stroke-width: 0.8"/>
      </g>
     </g>
     <g id="text_6">
      <!-- 35.0 -->
      <g transform="translate(24.734375 252.468713)scale(0.1 -0.1)">
       <defs>
        <path id="DejaVuSans-35" d="M 691 4666 
L 3169 4666 
L 3169 4134 
L 1269 4134 
L 1269 2991 
Q 1406 3038 1543 3061 
Q 1681 3084 1819 3084 
Q 2600 3084 3056 2656 
Q 3513 2228 3513 1497 
Q 3513 744 3044 326 
Q 2575 -91 1722 -91 
Q 1428 -91 1123 -41 
Q 819 9 494 109 
L 494 744 
Q 775 591 1075 516 
Q 1375 441 1709 441 
Q 2250 441 2565 725 
Q 2881 1009 2881 1497 
Q 2881 1984 2565 2268 
Q 2250 2553 1709 2553 
Q 1456 2553 1204 2497 
Q 953 2441 691 2322 
L 691 4666 
z
" transform="scale(0.015625)"/>
        <path id="DejaVuSans-2e" d="M 684 794 
L 1344 794 
L 1344 0 
L 684 0 
L 684 794 
z
" transform="scale(0.015625)"/>
       </defs>
       <use xlink:href="#DejaVuSans-33"/>
       <use xlink:href="#DejaVuSans-35" x="63.623047"/>
       <use xlink:href="#DejaVuSans-2e" x="127.246094"/>
       <use xlink:href="#DejaVuSans-30" x="159.033203"/>
      </g>
     </g>
    </g>
    <g id="ytick_2">
     <g id="line2d_6">
      <g>
       <use xlink:href="#m85e0c43535" x="54" y="221.73793" style="stroke: #000000; stroke-width: 0.8"/>
      </g>
     </g>
     <g id="text_7">
      <!-- 37.5 -->
      <g transform="translate(24.734375 225.537149)scale(0.1 -0.1)">
       <defs>
        <path id="DejaVuSans-37" d="M 525 4666 
L 3525 4666 
L 3525 4397 
L 1831 0 
L 1172 0 
L 2766 4134 
L 525 4134 
L 525 4666 
z
" transform="scale(0.015625)"/>
       </defs>
       <use xlink:href="#DejaVuSans-33"/>
       <use xlink:href="#DejaVuSans-37" x="63.623047"/>
       <use xlink:href="#DejaVuSans-2e" x="127.246094"/>
       <use xlink:href="#DejaVuSans-35" x="159.033203"/>
      </g>
     </g>
    </g>
    <g id="ytick_3">
     <g id="line2d_7">
      <g>
       <use xlink:href="#m85e0c43535" x="54" y="194.806366" style="stroke: #000000; stroke-width: 0.8"/>
      </g>
     </g>
     <g id="text_8">
      <!-- 40.0 -->
      <g transform="translate(24.734375 198.605585)scale(0.1 -0.1)">
       <defs>
        <path id="DejaVuSans-34" d="M 2419 4116 
L 825 1625 
L 2419 1625 
L 2419 4116 
z
M 2253 4666 
L 3047 4666 
L 3047 1625 
L 3713 1625 
L 3713 1100 
L 3047 1100 
L 3047 0 
L 2419 0 
L 2419 1100 
L 313 1100 
L 313 1709 
L 2253 4666 
z
" transform="scale(0.015625)"/>
       </defs>
       <use xlink:href="#DejaVuSans-34"/>
       <use xlink:href="#DejaVuSans-30" x="63.623047"/>
       <use xlink:href="#DejaVuSans-2e" x="127.246094"/>
       <use xlink:href="#DejaVuSans-30" x="159.033203"/>
      </g>
     </g>
    </g>
    <g id="ytick_4">
     <g id="line2d_8">
      <g>
       <use xlink:href="#m85e0c43535" x="54" y="167.874802" style="stroke: #000000; stroke-width: 0.8"/>
      </g>
     </g>
     <g id="text_9">
      <!-- 42.5 -->
      <g transform="translate(24.734375 171.674021)scale(0.1 -0.1)">
       <use xlink:href="#DejaVuSans-34"/>
       <use xlink:href="#DejaVuSans-32" x="63.623047"/>
       <use xlink:href="#DejaVuSans-2e" x="127.246094"/>
       <use xlink:href="#DejaVuSans-35" x="159.033203"/>
      </g>
     </g>
    </g>
    <g id="ytick_5">
     <g id="line2d_9">
      <g>
       <use xlink:href="#m85e0c43535" x="54" y="140.943238" style="stroke: #000000; stroke-width: 0.8"/>
      </g>
     </g>
     <g id="text_10">
      <!-- 45.0 -->
      <g transform="translate(24.734375 144.742457)scale(0.1 -0.1)">
       <use xlink:href="#DejaVuSans-34"/>
       <use xlink:href="#DejaVuSans-35" x="63.623047"/>
       <use xlink:href="#DejaVuSans-2e" x="127.246094"/>
       <use xlink:href="#DejaVuSans-30" x="159.033203"/>
      </g>
     </g>
    </g>
    <g id="ytick_6">
     <g id="line2d_10">
      <g>
       <use xlink:href="#m85e0c43535" x="54" y="114.011674" style="stroke: #000000; stroke-width: 0.8"/>
      </g>
     </g>
     <g id="text_11">
      <!-- 47.5 -->
      <g transform="translate(24.734375 117.810893)scale(0.1 -0.1)">
       <use xlink:href="#DejaVuSans-34"/>
       <use xlink:href="#DejaVuSans-37" x="63.623047"/>
       <use xlink:href="#DejaVuSans-2e" x="127.246094"/>
       <use xlink:href="#DejaVuSans-35" x="159.033203"/>
      </g>
     </g>
    </g>
    <g id="ytick_7">
     <g id="line2d_11">
      <g>
       <use xlink:href="#m85e0c43535" x="54" y="87.08011" style="stroke: #000000; stroke-width: 0.8"/>
      </g>
     </g>
     <g id="text_12">
      <!-- 50.0 -->
      <g transform="translate(24.734375 90.879328)scale(0.1 -0.1)">
       <use xlink:href="#DejaVuSans-35"/>
       <use xlink:href="#DejaVuSans-30" x="63.623047"/>
       <use xlink:href="#DejaVuSans-2e" x="127.246094"/>
       <use xlink:href="#DejaVuSans-30" x="159.033203"/>
      </g>
     </g>
    </g>
    <g id="ytick_8">
     <g id="line2d_12">
      <g>
       <use xlink:href="#m85e0c43535" x="54" y="60.148546" style="stroke: #000000; stroke-width: 0.8"/>
      </g>
     </g>
     <g id="text_13">
      <!-- 52.5 -->
      <g transform="translate(24.734375 63.947764)scale(0.1 -0.1)">
       <use xlink:href="#DejaVuSans-35"/>
       <use xlink:href="#DejaVuSans-32" x="63.623047"/>
       <use xlink:href="#DejaVuSans-2e" x="127.246094"/>
       <use xlink:href="#DejaVuSans-35" x="159.033203"/>
      </g>
     </g>
    </g>
    <g id="text_14">
     <!-- AIC -->
     <g transform="translate(18.654688 151.666719)rotate(-90)scale(0.1 -0.1)">
      <defs>
       <path id="DejaVuSans-41" d="M 2188 4044 
L 1331 1722 
L 3047 1722 
L 2188 4044 
z
M 1831 4666 
L 2547 4666 
L 4325 0 
L 3669 0 
L 3244 1197 
L 1141 1197 
L 716 0 
L 50 0 
L 1831 4666 
z
" transform="scale(0.015625)"/>
       <path id="DejaVuSans-49" d="M 628 4666 
L 1259 4666 
L 1259 0 
L 628 0 
L 628 4666 
z
" transform="scale(0.015625)"/>
       <path id="DejaVuSans-43" d="M 4122 4306 
L 4122 3641 
Q 3803 3938 3442 4084 
Q 3081 4231 2675 4231 
Q 1875 4231 1450 3742 
Q 1025 3253 1025 2328 
Q 1025 1406 1450 917 
Q 1875 428 2675 428 
Q 3081 428 3442 575 
Q 3803 722 4122 1019 
L 4122 359 
Q 3791 134 3420 21 
Q 3050 -91 2638 -91 
Q 1578 -91 968 557 
Q 359 1206 359 2328 
Q 359 3453 968 4101 
Q 1578 4750 2638 4750 
Q 3056 4750 3426 4639 
Q 3797 4528 4122 4306 
z
" transform="scale(0.015625)"/>
      </defs>
      <use xlink:href="#DejaVuSans-41"/>
      <use xlink:href="#DejaVuSans-49" x="68.408203"/>
      <use xlink:href="#DejaVuSans-43" x="97.900391"/>
     </g>
    </g>
   </g>
   <g id="line2d_13">
    <path d="M 203.899091 255.2616 
L 208.464545 248.7384 
" style="fill: none; stroke: #000000; stroke-width: 1.5; stroke-linecap: square"/>
   </g>
   <g id="line2d_14">
    <path d="M 203.899091 37.8216 
L 208.464545 31.2984 
" style="fill: none; stroke: #000000; stroke-width: 1.5; stroke-linecap: square"/>
   </g>
   <g id="patch_3">
    <path d="M 54 252 
L 54 34.56 
" style="fill: none; stroke: #000000; stroke-width: 0.8; stroke-linejoin: miter; stroke-linecap: square"/>
   </g>
   <g id="patch_4">
    <path d="M 54 252 
L 206.181818 252 
" style="fill: none; stroke: #000000; stroke-width: 0.8; stroke-linejoin: miter; stroke-linecap: square"/>
   </g>
   <g id="patch_5">
    <path d="M 54 34.56 
L 206.181818 34.56 
" style="fill: none; stroke: #000000; stroke-width: 0.8; stroke-linejoin: miter; stroke-linecap: square"/>
   </g>
  </g>
  <g id="axes_2">
   <g id="patch_6">
    <path d="M 236.618182 252 
L 388.8 252 
L 388.8 34.56 
L 236.618182 34.56 
z
" style="fill: #ffffff"/>
   </g>
   <g id="PathCollection_5">
    <g clip-path="url(#p46f2db28f3)">
     <use xlink:href="#mf62d14e82f" x="8.051249" y="44.443636" style="fill: #bf00bf; stroke: #bf00bf"/>
     <use xlink:href="#mf62d14e82f" x="39.646251" y="127.230123" style="fill: #bf00bf; stroke: #bf00bf"/>
     <use xlink:href="#mf62d14e82f" x="36.404368" y="104.168383" style="fill: #bf00bf; stroke: #bf00bf"/>
     <use xlink:href="#mf62d14e82f" x="43.503485" y="106.435036" style="fill: #bf00bf; stroke: #bf00bf"/>
     <use xlink:href="#mf62d14e82f" x="38.132245" y="138.950341" style="fill: #bf00bf; stroke: #bf00bf"/>
     <use xlink:href="#mf62d14e82f" x="40.541272" y="149.824708" style="fill: #bf00bf; stroke: #bf00bf"/>
     <use xlink:href="#mf62d14e82f" x="42.466804" y="148.185227" style="fill: #bf00bf; stroke: #bf00bf"/>
     <use xlink:href="#mf62d14e82f" x="43.484086" y="117.136065" style="fill: #bf00bf; stroke: #bf00bf"/>
     <use xlink:href="#mf62d14e82f" x="35.751566" y="199.763398" style="fill: #bf00bf; stroke: #bf00bf"/>
     <use xlink:href="#mf62d14e82f" x="38.204036" y="142.254325" style="fill: #bf00bf; stroke: #bf00bf"/>
     <use xlink:href="#mf62d14e82f" x="31.267189" y="117.275889" style="fill: #bf00bf; stroke: #bf00bf"/>
     <use xlink:href="#mf62d14e82f" x="40.583372" y="137.124839" style="fill: #bf00bf; stroke: #bf00bf"/>
     <use xlink:href="#mf62d14e82f" x="32.016" y="147.194621" style="fill: #bf00bf; stroke: #bf00bf"/>
     <use xlink:href="#mf62d14e82f" x="377.791624" y="50.099333" style="fill: #bf00bf; stroke: #bf00bf"/>
    </g>
   </g>
   <g id="PathCollection_6">
    <g clip-path="url(#p46f2db28f3)">
     <use xlink:href="#md8257be370" x="-1" y="125.232758" style="fill: #ff0000; stroke: #ff0000"/>
     <use xlink:href="#md8257be370" x="9.462156" y="147.633076" style="fill: #ff0000; stroke: #ff0000"/>
     <use xlink:href="#md8257be370" x="9.562428" y="123.986086" style="fill: #ff0000; stroke: #ff0000"/>
     <use xlink:href="#md8257be370" x="7.804506" y="161.020155" style="fill: #ff0000; stroke: #ff0000"/>
     <use xlink:href="#md8257be370" x="13.462086" y="129.497762" style="fill: #ff0000; stroke: #ff0000"/>
     <use xlink:href="#md8257be370" x="9.245339" y="149.899785" style="fill: #ff0000; stroke: #ff0000"/>
     <use xlink:href="#md8257be370" x="10.298137" y="136.772381" style="fill: #ff0000; stroke: #ff0000"/>
     <use xlink:href="#md8257be370" x="4.654836" y="224.750338" style="fill: #ff0000; stroke: #ff0000"/>
     <use xlink:href="#md8257be370" x="11.403443" y="160.214665" style="fill: #ff0000; stroke: #ff0000"/>
     <use xlink:href="#md8257be370" x="6.204054" y="134.918081" style="fill: #ff0000; stroke: #ff0000"/>
     <use xlink:href="#md8257be370" x="2.452807" y="155.524694" style="fill: #ff0000; stroke: #ff0000"/>
     <use xlink:href="#md8257be370" x="9.49934" y="163.874353" style="fill: #ff0000; stroke: #ff0000"/>
     <use xlink:href="#md8257be370" x="312.154532" y="89.803146" style="fill: #ff0000; stroke: #ff0000"/>
    </g>
   </g>
   <g id="PathCollection_7">
    <g clip-path="url(#p46f2db28f3)">
     <use xlink:href="#mef1619a0d7" x="-1" y="127.437971" style="fill: #0000ff; stroke: #0000ff"/>
     <use xlink:href="#mef1619a0d7" x="6.603112" y="148.602993" style="fill: #0000ff; stroke: #0000ff"/>
     <use xlink:href="#mef1619a0d7" x="8.763753" y="145.379154" style="fill: #0000ff; stroke: #0000ff"/>
     <use xlink:href="#mef1619a0d7" x="5.898532" y="161.620922" style="fill: #0000ff; stroke: #0000ff"/>
     <use xlink:href="#mef1619a0d7" x="3.611801" y="181.211209" style="fill: #0000ff; stroke: #0000ff"/>
     <use xlink:href="#mef1619a0d7" x="11.463265" y="143.856962" style="fill: #0000ff; stroke: #0000ff"/>
     <use xlink:href="#mef1619a0d7" x="11.130079" y="136.766901" style="fill: #0000ff; stroke: #0000ff"/>
     <use xlink:href="#mef1619a0d7" x="8.384197" y="224.693816" style="fill: #0000ff; stroke: #0000ff"/>
     <use xlink:href="#mef1619a0d7" x="11.296276" y="160.219679" style="fill: #0000ff; stroke: #0000ff"/>
     <use xlink:href="#mef1619a0d7" x="3.924421" y="134.915145" style="fill: #0000ff; stroke: #0000ff"/>
     <use xlink:href="#mef1619a0d7" x="5.26576" y="155.524244" style="fill: #0000ff; stroke: #0000ff"/>
     <use xlink:href="#mef1619a0d7" x="12.590297" y="163.865863" style="fill: #0000ff; stroke: #0000ff"/>
     <use xlink:href="#mef1619a0d7" x="321.576815" y="90.414041" style="fill: #0000ff; stroke: #0000ff"/>
    </g>
   </g>
   <g id="PathCollection_8">
    <g clip-path="url(#p46f2db28f3)">
     <use xlink:href="#mf1abce306b" x="-1" y="181.076293" style="fill: #008000; stroke: #008000"/>
     <use xlink:href="#mf1abce306b" x="247.744257" y="121.639001" style="fill: #008000; stroke: #008000"/>
    </g>
   </g>
   <g id="matplotlib.axis_3">
    <g id="xtick_5">
     <g id="line2d_15">
      <g>
       <use xlink:href="#me8fcd49697" x="251.836364" y="252" style="stroke: #000000; stroke-width: 0.8"/>
      </g>
     </g>
     <g id="text_15">
      <!-- 20 -->
      <g transform="translate(245.473864 266.598437)scale(0.1 -0.1)">
       <use xlink:href="#DejaVuSans-32"/>
       <use xlink:href="#DejaVuSans-30" x="63.623047"/>
      </g>
     </g>
    </g>
    <g id="xtick_6">
     <g id="line2d_16">
      <g>
       <use xlink:href="#me8fcd49697" x="282.272727" y="252" style="stroke: #000000; stroke-width: 0.8"/>
      </g>
     </g>
     <g id="text_16">
      <!-- 21 -->
      <g transform="translate(275.910227 266.598437)scale(0.1 -0.1)">
       <use xlink:href="#DejaVuSans-32"/>
       <use xlink:href="#DejaVuSans-31" x="63.623047"/>
      </g>
     </g>
    </g>
    <g id="xtick_7">
     <g id="line2d_17">
      <g>
       <use xlink:href="#me8fcd49697" x="312.709091" y="252" style="stroke: #000000; stroke-width: 0.8"/>
      </g>
     </g>
     <g id="text_17">
      <!-- 22 -->
      <g transform="translate(306.346591 266.598437)scale(0.1 -0.1)">
       <use xlink:href="#DejaVuSans-32"/>
       <use xlink:href="#DejaVuSans-32" x="63.623047"/>
      </g>
     </g>
    </g>
    <g id="xtick_8">
     <g id="line2d_18">
      <g>
       <use xlink:href="#me8fcd49697" x="343.145455" y="252" style="stroke: #000000; stroke-width: 0.8"/>
      </g>
     </g>
     <g id="text_18">
      <!-- 23 -->
      <g transform="translate(336.782955 266.598437)scale(0.1 -0.1)">
       <use xlink:href="#DejaVuSans-32"/>
       <use xlink:href="#DejaVuSans-33" x="63.623047"/>
      </g>
     </g>
    </g>
    <g id="xtick_9">
     <g id="line2d_19">
      <g>
       <use xlink:href="#me8fcd49697" x="373.581818" y="252" style="stroke: #000000; stroke-width: 0.8"/>
      </g>
     </g>
     <g id="text_19">
      <!-- 24 -->
      <g transform="translate(367.219318 266.598437)scale(0.1 -0.1)">
       <use xlink:href="#DejaVuSans-32"/>
       <use xlink:href="#DejaVuSans-34" x="63.623047"/>
      </g>
     </g>
    </g>
   </g>
   <g id="matplotlib.axis_4">
    <g id="ytick_9">
     <g id="line2d_20">
      <defs>
       <path id="mebac7da686" d="M 0 0 
L 3.5 0 
" style="stroke: #000000; stroke-width: 0.8"/>
      </defs>
      <g>
       <use xlink:href="#mebac7da686" x="388.8" y="248.669494" style="stroke: #000000; stroke-width: 0.8"/>
      </g>
     </g>
     <g id="text_20">
      <!-- 35.0 -->
      <g transform="translate(395.8 252.468713)scale(0.1 -0.1)">
       <use xlink:href="#DejaVuSans-33"/>
       <use xlink:href="#DejaVuSans-35" x="63.623047"/>
       <use xlink:href="#DejaVuSans-2e" x="127.246094"/>
       <use xlink:href="#DejaVuSans-30" x="159.033203"/>
      </g>
     </g>
    </g>
    <g id="ytick_10">
     <g id="line2d_21">
      <g>
       <use xlink:href="#mebac7da686" x="388.8" y="221.73793" style="stroke: #000000; stroke-width: 0.8"/>
      </g>
     </g>
     <g id="text_21">
      <!-- 37.5 -->
      <g transform="translate(395.8 225.537149)scale(0.1 -0.1)">
       <use xlink:href="#DejaVuSans-33"/>
       <use xlink:href="#DejaVuSans-37" x="63.623047"/>
       <use xlink:href="#DejaVuSans-2e" x="127.246094"/>
       <use xlink:href="#DejaVuSans-35" x="159.033203"/>
      </g>
     </g>
    </g>
    <g id="ytick_11">
     <g id="line2d_22">
      <g>
       <use xlink:href="#mebac7da686" x="388.8" y="194.806366" style="stroke: #000000; stroke-width: 0.8"/>
      </g>
     </g>
     <g id="text_22">
      <!-- 40.0 -->
      <g transform="translate(395.8 198.605585)scale(0.1 -0.1)">
       <use xlink:href="#DejaVuSans-34"/>
       <use xlink:href="#DejaVuSans-30" x="63.623047"/>
       <use xlink:href="#DejaVuSans-2e" x="127.246094"/>
       <use xlink:href="#DejaVuSans-30" x="159.033203"/>
      </g>
     </g>
    </g>
    <g id="ytick_12">
     <g id="line2d_23">
      <g>
       <use xlink:href="#mebac7da686" x="388.8" y="167.874802" style="stroke: #000000; stroke-width: 0.8"/>
      </g>
     </g>
     <g id="text_23">
      <!-- 42.5 -->
      <g transform="translate(395.8 171.674021)scale(0.1 -0.1)">
       <use xlink:href="#DejaVuSans-34"/>
       <use xlink:href="#DejaVuSans-32" x="63.623047"/>
       <use xlink:href="#DejaVuSans-2e" x="127.246094"/>
       <use xlink:href="#DejaVuSans-35" x="159.033203"/>
      </g>
     </g>
    </g>
    <g id="ytick_13">
     <g id="line2d_24">
      <g>
       <use xlink:href="#mebac7da686" x="388.8" y="140.943238" style="stroke: #000000; stroke-width: 0.8"/>
      </g>
     </g>
     <g id="text_24">
      <!-- 45.0 -->
      <g transform="translate(395.8 144.742457)scale(0.1 -0.1)">
       <use xlink:href="#DejaVuSans-34"/>
       <use xlink:href="#DejaVuSans-35" x="63.623047"/>
       <use xlink:href="#DejaVuSans-2e" x="127.246094"/>
       <use xlink:href="#DejaVuSans-30" x="159.033203"/>
      </g>
     </g>
    </g>
    <g id="ytick_14">
     <g id="line2d_25">
      <g>
       <use xlink:href="#mebac7da686" x="388.8" y="114.011674" style="stroke: #000000; stroke-width: 0.8"/>
      </g>
     </g>
     <g id="text_25">
      <!-- 47.5 -->
      <g transform="translate(395.8 117.810893)scale(0.1 -0.1)">
       <use xlink:href="#DejaVuSans-34"/>
       <use xlink:href="#DejaVuSans-37" x="63.623047"/>
       <use xlink:href="#DejaVuSans-2e" x="127.246094"/>
       <use xlink:href="#DejaVuSans-35" x="159.033203"/>
      </g>
     </g>
    </g>
    <g id="ytick_15">
     <g id="line2d_26">
      <g>
       <use xlink:href="#mebac7da686" x="388.8" y="87.08011" style="stroke: #000000; stroke-width: 0.8"/>
      </g>
     </g>
     <g id="text_26">
      <!-- 50.0 -->
      <g transform="translate(395.8 90.879328)scale(0.1 -0.1)">
       <use xlink:href="#DejaVuSans-35"/>
       <use xlink:href="#DejaVuSans-30" x="63.623047"/>
       <use xlink:href="#DejaVuSans-2e" x="127.246094"/>
       <use xlink:href="#DejaVuSans-30" x="159.033203"/>
      </g>
     </g>
    </g>
    <g id="ytick_16">
     <g id="line2d_27">
      <g>
       <use xlink:href="#mebac7da686" x="388.8" y="60.148546" style="stroke: #000000; stroke-width: 0.8"/>
      </g>
     </g>
     <g id="text_27">
      <!-- 52.5 -->
      <g transform="translate(395.8 63.947764)scale(0.1 -0.1)">
       <use xlink:href="#DejaVuSans-35"/>
       <use xlink:href="#DejaVuSans-32" x="63.623047"/>
       <use xlink:href="#DejaVuSans-2e" x="127.246094"/>
       <use xlink:href="#DejaVuSans-35" x="159.033203"/>
      </g>
     </g>
    </g>
   </g>
   <g id="line2d_28">
    <path d="M 234.335455 37.8216 
L 238.900909 31.2984 
" style="fill: none; stroke: #000000; stroke-width: 1.5; stroke-linecap: square"/>
   </g>
   <g id="line2d_29">
    <path d="M 234.335455 255.2616 
L 238.900909 248.7384 
" style="fill: none; stroke: #000000; stroke-width: 1.5; stroke-linecap: square"/>
   </g>
   <g id="patch_7">
    <path d="M 388.8 252 
L 388.8 34.56 
" style="fill: none; stroke: #000000; stroke-width: 0.8; stroke-linejoin: miter; stroke-linecap: square"/>
   </g>
   <g id="patch_8">
    <path d="M 236.618182 252 
L 388.8 252 
" style="fill: none; stroke: #000000; stroke-width: 0.8; stroke-linejoin: miter; stroke-linecap: square"/>
   </g>
   <g id="patch_9">
    <path d="M 236.618182 34.56 
L 388.8 34.56 
" style="fill: none; stroke: #000000; stroke-width: 0.8; stroke-linejoin: miter; stroke-linecap: square"/>
   </g>
   <g id="legend_1">
    <g id="patch_10">
     <path d="M 243.618182 247 
L 315.185369 247 
Q 317.185369 247 317.185369 245 
L 317.185369 187.2875 
Q 317.185369 185.2875 315.185369 185.2875 
L 243.618182 185.2875 
Q 241.618182 185.2875 241.618182 187.2875 
L 241.618182 245 
Q 241.618182 247 243.618182 247 
z
" style="fill: #ffffff; opacity: 0.8; stroke: #cccccc; stroke-linejoin: miter"/>
    </g>
    <g id="PathCollection_9">
     <g>
      <use xlink:href="#mf62d14e82f" x="255.618182" y="194.260938" style="fill: #bf00bf; stroke: #bf00bf"/>
     </g>
    </g>
    <g id="text_28">
     <!-- Model 1 -->
     <g transform="translate(273.618182 196.885938)scale(0.1 -0.1)">
      <defs>
       <path id="DejaVuSans-4d" d="M 628 4666 
L 1569 4666 
L 2759 1491 
L 3956 4666 
L 4897 4666 
L 4897 0 
L 4281 0 
L 4281 4097 
L 3078 897 
L 2444 897 
L 1241 4097 
L 1241 0 
L 628 0 
L 628 4666 
z
" transform="scale(0.015625)"/>
       <path id="DejaVuSans-64" d="M 2906 2969 
L 2906 4863 
L 3481 4863 
L 3481 0 
L 2906 0 
L 2906 525 
Q 2725 213 2448 61 
Q 2172 -91 1784 -91 
Q 1150 -91 751 415 
Q 353 922 353 1747 
Q 353 2572 751 3078 
Q 1150 3584 1784 3584 
Q 2172 3584 2448 3432 
Q 2725 3281 2906 2969 
z
M 947 1747 
Q 947 1113 1208 752 
Q 1469 391 1925 391 
Q 2381 391 2643 752 
Q 2906 1113 2906 1747 
Q 2906 2381 2643 2742 
Q 2381 3103 1925 3103 
Q 1469 3103 1208 2742 
Q 947 2381 947 1747 
z
" transform="scale(0.015625)"/>
       <path id="DejaVuSans-65" d="M 3597 1894 
L 3597 1613 
L 953 1613 
Q 991 1019 1311 708 
Q 1631 397 2203 397 
Q 2534 397 2845 478 
Q 3156 559 3463 722 
L 3463 178 
Q 3153 47 2828 -22 
Q 2503 -91 2169 -91 
Q 1331 -91 842 396 
Q 353 884 353 1716 
Q 353 2575 817 3079 
Q 1281 3584 2069 3584 
Q 2775 3584 3186 3129 
Q 3597 2675 3597 1894 
z
M 3022 2063 
Q 3016 2534 2758 2815 
Q 2500 3097 2075 3097 
Q 1594 3097 1305 2825 
Q 1016 2553 972 2059 
L 3022 2063 
z
" transform="scale(0.015625)"/>
       <path id="DejaVuSans-6c" d="M 603 4863 
L 1178 4863 
L 1178 0 
L 603 0 
L 603 4863 
z
" transform="scale(0.015625)"/>
       <path id="DejaVuSans-20" transform="scale(0.015625)"/>
      </defs>
      <use xlink:href="#DejaVuSans-4d"/>
      <use xlink:href="#DejaVuSans-6f" x="86.279297"/>
      <use xlink:href="#DejaVuSans-64" x="147.460938"/>
      <use xlink:href="#DejaVuSans-65" x="210.9375"/>
      <use xlink:href="#DejaVuSans-6c" x="272.460938"/>
      <use xlink:href="#DejaVuSans-20" x="300.244141"/>
      <use xlink:href="#DejaVuSans-31" x="332.03125"/>
     </g>
    </g>
    <g id="PathCollection_10">
     <g>
      <use xlink:href="#md8257be370" x="255.618182" y="208.939063" style="fill: #ff0000; stroke: #ff0000"/>
     </g>
    </g>
    <g id="text_29">
     <!-- Model 2 -->
     <g transform="translate(273.618182 211.564063)scale(0.1 -0.1)">
      <use xlink:href="#DejaVuSans-4d"/>
      <use xlink:href="#DejaVuSans-6f" x="86.279297"/>
      <use xlink:href="#DejaVuSans-64" x="147.460938"/>
      <use xlink:href="#DejaVuSans-65" x="210.9375"/>
      <use xlink:href="#DejaVuSans-6c" x="272.460938"/>
      <use xlink:href="#DejaVuSans-20" x="300.244141"/>
      <use xlink:href="#DejaVuSans-32" x="332.03125"/>
     </g>
    </g>
    <g id="PathCollection_11">
     <g>
      <use xlink:href="#mef1619a0d7" x="255.618182" y="223.617188" style="fill: #0000ff; stroke: #0000ff"/>
     </g>
    </g>
    <g id="text_30">
     <!-- Model 3 -->
     <g transform="translate(273.618182 226.242188)scale(0.1 -0.1)">
      <use xlink:href="#DejaVuSans-4d"/>
      <use xlink:href="#DejaVuSans-6f" x="86.279297"/>
      <use xlink:href="#DejaVuSans-64" x="147.460938"/>
      <use xlink:href="#DejaVuSans-65" x="210.9375"/>
      <use xlink:href="#DejaVuSans-6c" x="272.460938"/>
      <use xlink:href="#DejaVuSans-20" x="300.244141"/>
      <use xlink:href="#DejaVuSans-33" x="332.03125"/>
     </g>
    </g>
    <g id="PathCollection_12">
     <g>
      <use xlink:href="#mf1abce306b" x="255.618182" y="238.295312" style="fill: #008000; stroke: #008000"/>
     </g>
    </g>
    <g id="text_31">
     <!-- Model 4 -->
     <g transform="translate(273.618182 240.920312)scale(0.1 -0.1)">
      <use xlink:href="#DejaVuSans-4d"/>
      <use xlink:href="#DejaVuSans-6f" x="86.279297"/>
      <use xlink:href="#DejaVuSans-64" x="147.460938"/>
      <use xlink:href="#DejaVuSans-65" x="210.9375"/>
      <use xlink:href="#DejaVuSans-6c" x="272.460938"/>
      <use xlink:href="#DejaVuSans-20" x="300.244141"/>
      <use xlink:href="#DejaVuSans-34" x="332.03125"/>
     </g>
    </g>
   </g>
  </g>
 </g>
 <defs>
  <clipPath id="p55d72b1b89">
   <rect x="54" y="34.56" width="152.181818" height="217.44"/>
  </clipPath>
  <clipPath id="p46f2db28f3">
   <rect x="236.618182" y="34.56" width="152.181818" height="217.44"/>
  </clipPath>
 </defs>
</svg>
