<?xml version="1.0" encoding="utf-8" standalone="no"?>
<!DOCTYPE svg PUBLIC "-//W3C//DTD SVG 1.1//EN"
  "http://www.w3.org/Graphics/SVG/1.1/DTD/svg11.dtd">
<svg xmlns:xlink="http://www.w3.org/1999/xlink" width="487.973063pt" height="309.024687pt" viewBox="0 0 487.973063 309.024687" xmlns="http://www.w3.org/2000/svg" version="1.1">
 <metadata>
  <rdf:RDF xmlns:dc="http://purl.org/dc/elements/1.1/" xmlns:cc="http://creativecommons.org/ns#" xmlns:rdf="http://www.w3.org/1999/02/22-rdf-syntax-ns#">
   <cc:Work>
    <dc:type rdf:resource="http://purl.org/dc/dcmitype/StillImage"/>
    <dc:date>2022-03-23T10:45:24.274626</dc:date>
    <dc:format>image/svg+xml</dc:format>
    <dc:creator>
     <cc:Agent>
      <dc:title>Matplotlib v3.5.0, https://matplotlib.org/</dc:title>
     </cc:Agent>
    </dc:creator>
   </cc:Work>
  </rdf:RDF>
 </metadata>
 <defs>
  <style type="text/css">*{stroke-linejoin: round; stroke-linecap: butt}</style>
 </defs>
 <g id="figure_1">
  <g id="patch_1">
   <path d="M 0 309.024687 
L 487.973063 309.024687 
L 487.973063 0 
L 0 0 
z
" style="fill: #ffffff; stroke: #ffffff; stroke-linejoin: miter"/>
  </g>
  <g id="axes_1">
   <g id="patch_2">
    <path d="M 38.393938 273.312 
L 395.513938 273.312 
L 395.513938 7.2 
L 38.393938 7.2 
z
" style="fill: #ebebeb"/>
   </g>
   <g id="matplotlib.axis_1">
    <g id="xtick_1">
     <g id="line2d_1">
      <path d="M 43.863907 273.312 
L 43.863907 7.2 
" clip-path="url(#pd50f82f456)" style="fill: none; stroke: #ffffff"/>
     </g>
     <g id="line2d_2">
      <path d="M 43.863907 273.312 
" style="fill: none; stroke: #333333; stroke-width: 1.5"/>
      <defs>
       <path id="ma72bc5f784" d="M 0 0 
L 0 2.75 
" style="stroke: #000000"/>
      </defs>
      <g>
       <use xlink:href="#ma72bc5f784" x="43.863907" y="273.312" style="fill: #333333; stroke: #000000"/>
      </g>
     </g>
     <g id="text_1">
      <!-- 35 -->
      <g style="fill: #4d4d4d" transform="translate(38.264907 284.948625)scale(0.088 -0.088)">
       <defs>
        <path id="DejaVuSans-33" d="M 2597 2516 
Q 3050 2419 3304 2112 
Q 3559 1806 3559 1356 
Q 3559 666 3084 287 
Q 2609 -91 1734 -91 
Q 1441 -91 1130 -33 
Q 819 25 488 141 
L 488 750 
Q 750 597 1062 519 
Q 1375 441 1716 441 
Q 2309 441 2620 675 
Q 2931 909 2931 1356 
Q 2931 1769 2642 2001 
Q 2353 2234 1838 2234 
L 1294 2234 
L 1294 2753 
L 1863 2753 
Q 2328 2753 2575 2939 
Q 2822 3125 2822 3475 
Q 2822 3834 2567 4026 
Q 2313 4219 1838 4219 
Q 1578 4219 1281 4162 
Q 984 4106 628 3988 
L 628 4550 
Q 988 4650 1302 4700 
Q 1616 4750 1894 4750 
Q 2613 4750 3031 4423 
Q 3450 4097 3450 3541 
Q 3450 3153 3228 2886 
Q 3006 2619 2597 2516 
z
" transform="scale(0.015625)"/>
        <path id="DejaVuSans-35" d="M 691 4666 
L 3169 4666 
L 3169 4134 
L 1269 4134 
L 1269 2991 
Q 1406 3038 1543 3061 
Q 1681 3084 1819 3084 
Q 2600 3084 3056 2656 
Q 3513 2228 3513 1497 
Q 3513 744 3044 326 
Q 2575 -91 1722 -91 
Q 1428 -91 1123 -41 
Q 819 9 494 109 
L 494 744 
Q 775 591 1075 516 
Q 1375 441 1709 441 
Q 2250 441 2565 725 
Q 2881 1009 2881 1497 
Q 2881 1984 2565 2268 
Q 2250 2553 1709 2553 
Q 1456 2553 1204 2497 
Q 953 2441 691 2322 
L 691 4666 
z
" transform="scale(0.015625)"/>
       </defs>
       <use xlink:href="#DejaVuSans-33"/>
       <use xlink:href="#DejaVuSans-35" x="63.623047"/>
      </g>
     </g>
    </g>
    <g id="xtick_2">
     <g id="line2d_3">
      <path d="M 132.327853 273.312 
L 132.327853 7.2 
" clip-path="url(#pd50f82f456)" style="fill: none; stroke: #ffffff"/>
     </g>
     <g id="line2d_4">
      <path d="M 132.327853 273.312 
" style="fill: none; stroke: #333333; stroke-width: 1.5"/>
      <g>
       <use xlink:href="#ma72bc5f784" x="132.327853" y="273.312" style="fill: #333333; stroke: #000000"/>
      </g>
     </g>
     <g id="text_2">
      <!-- 40 -->
      <g style="fill: #4d4d4d" transform="translate(126.728853 284.948625)scale(0.088 -0.088)">
       <defs>
        <path id="DejaVuSans-34" d="M 2419 4116 
L 825 1625 
L 2419 1625 
L 2419 4116 
z
M 2253 4666 
L 3047 4666 
L 3047 1625 
L 3713 1625 
L 3713 1100 
L 3047 1100 
L 3047 0 
L 2419 0 
L 2419 1100 
L 313 1100 
L 313 1709 
L 2253 4666 
z
" transform="scale(0.015625)"/>
        <path id="DejaVuSans-30" d="M 2034 4250 
Q 1547 4250 1301 3770 
Q 1056 3291 1056 2328 
Q 1056 1369 1301 889 
Q 1547 409 2034 409 
Q 2525 409 2770 889 
Q 3016 1369 3016 2328 
Q 3016 3291 2770 3770 
Q 2525 4250 2034 4250 
z
M 2034 4750 
Q 2819 4750 3233 4129 
Q 3647 3509 3647 2328 
Q 3647 1150 3233 529 
Q 2819 -91 2034 -91 
Q 1250 -91 836 529 
Q 422 1150 422 2328 
Q 422 3509 836 4129 
Q 1250 4750 2034 4750 
z
" transform="scale(0.015625)"/>
       </defs>
       <use xlink:href="#DejaVuSans-34"/>
       <use xlink:href="#DejaVuSans-30" x="63.623047"/>
      </g>
     </g>
    </g>
    <g id="xtick_3">
     <g id="line2d_5">
      <path d="M 220.791798 273.312 
L 220.791798 7.2 
" clip-path="url(#pd50f82f456)" style="fill: none; stroke: #ffffff"/>
     </g>
     <g id="line2d_6">
      <path d="M 220.791798 273.312 
" style="fill: none; stroke: #333333; stroke-width: 1.5"/>
      <g>
       <use xlink:href="#ma72bc5f784" x="220.791798" y="273.312" style="fill: #333333; stroke: #000000"/>
      </g>
     </g>
     <g id="text_3">
      <!-- 45 -->
      <g style="fill: #4d4d4d" transform="translate(215.192798 284.948625)scale(0.088 -0.088)">
       <use xlink:href="#DejaVuSans-34"/>
       <use xlink:href="#DejaVuSans-35" x="63.623047"/>
      </g>
     </g>
    </g>
    <g id="xtick_4">
     <g id="line2d_7">
      <path d="M 309.255744 273.312 
L 309.255744 7.2 
" clip-path="url(#pd50f82f456)" style="fill: none; stroke: #ffffff"/>
     </g>
     <g id="line2d_8">
      <path d="M 309.255744 273.312 
" style="fill: none; stroke: #333333; stroke-width: 1.5"/>
      <g>
       <use xlink:href="#ma72bc5f784" x="309.255744" y="273.312" style="fill: #333333; stroke: #000000"/>
      </g>
     </g>
     <g id="text_4">
      <!-- 50 -->
      <g style="fill: #4d4d4d" transform="translate(303.656744 284.948625)scale(0.088 -0.088)">
       <use xlink:href="#DejaVuSans-35"/>
       <use xlink:href="#DejaVuSans-30" x="63.623047"/>
      </g>
     </g>
    </g>
    <g id="xtick_5">
     <g id="line2d_9">
      <path d="M 88.09588 273.312 
L 88.09588 7.2 
" clip-path="url(#pd50f82f456)" style="fill: none; stroke: #ffffff; stroke-width: 0.5"/>
     </g>
    </g>
    <g id="xtick_6">
     <g id="line2d_10">
      <path d="M 176.559826 273.312 
L 176.559826 7.2 
" clip-path="url(#pd50f82f456)" style="fill: none; stroke: #ffffff; stroke-width: 0.5"/>
     </g>
    </g>
    <g id="xtick_7">
     <g id="line2d_11">
      <path d="M 265.023771 273.312 
L 265.023771 7.2 
" clip-path="url(#pd50f82f456)" style="fill: none; stroke: #ffffff; stroke-width: 0.5"/>
     </g>
    </g>
    <g id="xtick_8">
     <g id="line2d_12">
      <path d="M 353.487717 273.312 
L 353.487717 7.2 
" clip-path="url(#pd50f82f456)" style="fill: none; stroke: #ffffff; stroke-width: 0.5"/>
     </g>
    </g>
    <g id="text_5">
     <!-- Akaike Information Criterion -->
     <g transform="translate(133.931828 299.537031)scale(0.11 -0.11)">
      <defs>
       <path id="DejaVuSans-41" d="M 2188 4044 
L 1331 1722 
L 3047 1722 
L 2188 4044 
z
M 1831 4666 
L 2547 4666 
L 4325 0 
L 3669 0 
L 3244 1197 
L 1141 1197 
L 716 0 
L 50 0 
L 1831 4666 
z
" transform="scale(0.015625)"/>
       <path id="DejaVuSans-6b" d="M 581 4863 
L 1159 4863 
L 1159 1991 
L 2875 3500 
L 3609 3500 
L 1753 1863 
L 3688 0 
L 2938 0 
L 1159 1709 
L 1159 0 
L 581 0 
L 581 4863 
z
" transform="scale(0.015625)"/>
       <path id="DejaVuSans-61" d="M 2194 1759 
Q 1497 1759 1228 1600 
Q 959 1441 959 1056 
Q 959 750 1161 570 
Q 1363 391 1709 391 
Q 2188 391 2477 730 
Q 2766 1069 2766 1631 
L 2766 1759 
L 2194 1759 
z
M 3341 1997 
L 3341 0 
L 2766 0 
L 2766 531 
Q 2569 213 2275 61 
Q 1981 -91 1556 -91 
Q 1019 -91 701 211 
Q 384 513 384 1019 
Q 384 1609 779 1909 
Q 1175 2209 1959 2209 
L 2766 2209 
L 2766 2266 
Q 2766 2663 2505 2880 
Q 2244 3097 1772 3097 
Q 1472 3097 1187 3025 
Q 903 2953 641 2809 
L 641 3341 
Q 956 3463 1253 3523 
Q 1550 3584 1831 3584 
Q 2591 3584 2966 3190 
Q 3341 2797 3341 1997 
z
" transform="scale(0.015625)"/>
       <path id="DejaVuSans-69" d="M 603 3500 
L 1178 3500 
L 1178 0 
L 603 0 
L 603 3500 
z
M 603 4863 
L 1178 4863 
L 1178 4134 
L 603 4134 
L 603 4863 
z
" transform="scale(0.015625)"/>
       <path id="DejaVuSans-65" d="M 3597 1894 
L 3597 1613 
L 953 1613 
Q 991 1019 1311 708 
Q 1631 397 2203 397 
Q 2534 397 2845 478 
Q 3156 559 3463 722 
L 3463 178 
Q 3153 47 2828 -22 
Q 2503 -91 2169 -91 
Q 1331 -91 842 396 
Q 353 884 353 1716 
Q 353 2575 817 3079 
Q 1281 3584 2069 3584 
Q 2775 3584 3186 3129 
Q 3597 2675 3597 1894 
z
M 3022 2063 
Q 3016 2534 2758 2815 
Q 2500 3097 2075 3097 
Q 1594 3097 1305 2825 
Q 1016 2553 972 2059 
L 3022 2063 
z
" transform="scale(0.015625)"/>
       <path id="DejaVuSans-20" transform="scale(0.015625)"/>
       <path id="DejaVuSans-49" d="M 628 4666 
L 1259 4666 
L 1259 0 
L 628 0 
L 628 4666 
z
" transform="scale(0.015625)"/>
       <path id="DejaVuSans-6e" d="M 3513 2113 
L 3513 0 
L 2938 0 
L 2938 2094 
Q 2938 2591 2744 2837 
Q 2550 3084 2163 3084 
Q 1697 3084 1428 2787 
Q 1159 2491 1159 1978 
L 1159 0 
L 581 0 
L 581 3500 
L 1159 3500 
L 1159 2956 
Q 1366 3272 1645 3428 
Q 1925 3584 2291 3584 
Q 2894 3584 3203 3211 
Q 3513 2838 3513 2113 
z
" transform="scale(0.015625)"/>
       <path id="DejaVuSans-66" d="M 2375 4863 
L 2375 4384 
L 1825 4384 
Q 1516 4384 1395 4259 
Q 1275 4134 1275 3809 
L 1275 3500 
L 2222 3500 
L 2222 3053 
L 1275 3053 
L 1275 0 
L 697 0 
L 697 3053 
L 147 3053 
L 147 3500 
L 697 3500 
L 697 3744 
Q 697 4328 969 4595 
Q 1241 4863 1831 4863 
L 2375 4863 
z
" transform="scale(0.015625)"/>
       <path id="DejaVuSans-6f" d="M 1959 3097 
Q 1497 3097 1228 2736 
Q 959 2375 959 1747 
Q 959 1119 1226 758 
Q 1494 397 1959 397 
Q 2419 397 2687 759 
Q 2956 1122 2956 1747 
Q 2956 2369 2687 2733 
Q 2419 3097 1959 3097 
z
M 1959 3584 
Q 2709 3584 3137 3096 
Q 3566 2609 3566 1747 
Q 3566 888 3137 398 
Q 2709 -91 1959 -91 
Q 1206 -91 779 398 
Q 353 888 353 1747 
Q 353 2609 779 3096 
Q 1206 3584 1959 3584 
z
" transform="scale(0.015625)"/>
       <path id="DejaVuSans-72" d="M 2631 2963 
Q 2534 3019 2420 3045 
Q 2306 3072 2169 3072 
Q 1681 3072 1420 2755 
Q 1159 2438 1159 1844 
L 1159 0 
L 581 0 
L 581 3500 
L 1159 3500 
L 1159 2956 
Q 1341 3275 1631 3429 
Q 1922 3584 2338 3584 
Q 2397 3584 2469 3576 
Q 2541 3569 2628 3553 
L 2631 2963 
z
" transform="scale(0.015625)"/>
       <path id="DejaVuSans-6d" d="M 3328 2828 
Q 3544 3216 3844 3400 
Q 4144 3584 4550 3584 
Q 5097 3584 5394 3201 
Q 5691 2819 5691 2113 
L 5691 0 
L 5113 0 
L 5113 2094 
Q 5113 2597 4934 2840 
Q 4756 3084 4391 3084 
Q 3944 3084 3684 2787 
Q 3425 2491 3425 1978 
L 3425 0 
L 2847 0 
L 2847 2094 
Q 2847 2600 2669 2842 
Q 2491 3084 2119 3084 
Q 1678 3084 1418 2786 
Q 1159 2488 1159 1978 
L 1159 0 
L 581 0 
L 581 3500 
L 1159 3500 
L 1159 2956 
Q 1356 3278 1631 3431 
Q 1906 3584 2284 3584 
Q 2666 3584 2933 3390 
Q 3200 3197 3328 2828 
z
" transform="scale(0.015625)"/>
       <path id="DejaVuSans-74" d="M 1172 4494 
L 1172 3500 
L 2356 3500 
L 2356 3053 
L 1172 3053 
L 1172 1153 
Q 1172 725 1289 603 
Q 1406 481 1766 481 
L 2356 481 
L 2356 0 
L 1766 0 
Q 1100 0 847 248 
Q 594 497 594 1153 
L 594 3053 
L 172 3053 
L 172 3500 
L 594 3500 
L 594 4494 
L 1172 4494 
z
" transform="scale(0.015625)"/>
       <path id="DejaVuSans-43" d="M 4122 4306 
L 4122 3641 
Q 3803 3938 3442 4084 
Q 3081 4231 2675 4231 
Q 1875 4231 1450 3742 
Q 1025 3253 1025 2328 
Q 1025 1406 1450 917 
Q 1875 428 2675 428 
Q 3081 428 3442 575 
Q 3803 722 4122 1019 
L 4122 359 
Q 3791 134 3420 21 
Q 3050 -91 2638 -91 
Q 1578 -91 968 557 
Q 359 1206 359 2328 
Q 359 3453 968 4101 
Q 1578 4750 2638 4750 
Q 3056 4750 3426 4639 
Q 3797 4528 4122 4306 
z
" transform="scale(0.015625)"/>
      </defs>
      <use xlink:href="#DejaVuSans-41"/>
      <use xlink:href="#DejaVuSans-6b" x="68.408203"/>
      <use xlink:href="#DejaVuSans-61" x="124.568359"/>
      <use xlink:href="#DejaVuSans-69" x="185.847656"/>
      <use xlink:href="#DejaVuSans-6b" x="213.630859"/>
      <use xlink:href="#DejaVuSans-65" x="267.916016"/>
      <use xlink:href="#DejaVuSans-20" x="329.439453"/>
      <use xlink:href="#DejaVuSans-49" x="361.226562"/>
      <use xlink:href="#DejaVuSans-6e" x="390.71875"/>
      <use xlink:href="#DejaVuSans-66" x="454.097656"/>
      <use xlink:href="#DejaVuSans-6f" x="489.302734"/>
      <use xlink:href="#DejaVuSans-72" x="550.484375"/>
      <use xlink:href="#DejaVuSans-6d" x="589.847656"/>
      <use xlink:href="#DejaVuSans-61" x="687.259766"/>
      <use xlink:href="#DejaVuSans-74" x="748.539062"/>
      <use xlink:href="#DejaVuSans-69" x="787.748047"/>
      <use xlink:href="#DejaVuSans-6f" x="815.53125"/>
      <use xlink:href="#DejaVuSans-6e" x="876.712891"/>
      <use xlink:href="#DejaVuSans-20" x="940.091797"/>
      <use xlink:href="#DejaVuSans-43" x="971.878906"/>
      <use xlink:href="#DejaVuSans-72" x="1041.703125"/>
      <use xlink:href="#DejaVuSans-69" x="1082.816406"/>
      <use xlink:href="#DejaVuSans-74" x="1110.599609"/>
      <use xlink:href="#DejaVuSans-65" x="1149.808594"/>
      <use xlink:href="#DejaVuSans-72" x="1211.332031"/>
      <use xlink:href="#DejaVuSans-69" x="1252.445312"/>
      <use xlink:href="#DejaVuSans-6f" x="1280.228516"/>
      <use xlink:href="#DejaVuSans-6e" x="1341.410156"/>
     </g>
    </g>
   </g>
   <g id="matplotlib.axis_2">
    <g id="ytick_1">
     <g id="line2d_13">
      <path d="M 38.393938 236.087983 
L 395.513938 236.087983 
" clip-path="url(#pd50f82f456)" style="fill: none; stroke: #ffffff"/>
     </g>
     <g id="line2d_14">
      <path d="M 38.393938 236.087983 
" style="fill: none; stroke: #333333; stroke-width: 1.5"/>
      <defs>
       <path id="mb92442f194" d="M 0 0 
L -2.75 0 
" style="stroke: #000000"/>
      </defs>
      <g>
       <use xlink:href="#mb92442f194" x="38.393938" y="236.087983" style="fill: #333333; stroke: #000000"/>
      </g>
     </g>
     <g id="text_6">
      <!-- 4 -->
      <g style="fill: #4d4d4d" transform="translate(27.844938 238.516233)scale(0.088 -0.088)">
       <use xlink:href="#DejaVuSans-34"/>
      </g>
     </g>
    </g>
    <g id="ytick_2">
     <g id="line2d_15">
      <path d="M 38.393938 157.781726 
L 395.513938 157.781726 
" clip-path="url(#pd50f82f456)" style="fill: none; stroke: #ffffff"/>
     </g>
     <g id="line2d_16">
      <path d="M 38.393938 157.781726 
" style="fill: none; stroke: #333333; stroke-width: 1.5"/>
      <g>
       <use xlink:href="#mb92442f194" x="38.393938" y="157.781726" style="fill: #333333; stroke: #000000"/>
      </g>
     </g>
     <g id="text_7">
      <!-- 8 -->
      <g style="fill: #4d4d4d" transform="translate(27.844938 160.209976)scale(0.088 -0.088)">
       <defs>
        <path id="DejaVuSans-38" d="M 2034 2216 
Q 1584 2216 1326 1975 
Q 1069 1734 1069 1313 
Q 1069 891 1326 650 
Q 1584 409 2034 409 
Q 2484 409 2743 651 
Q 3003 894 3003 1313 
Q 3003 1734 2745 1975 
Q 2488 2216 2034 2216 
z
M 1403 2484 
Q 997 2584 770 2862 
Q 544 3141 544 3541 
Q 544 4100 942 4425 
Q 1341 4750 2034 4750 
Q 2731 4750 3128 4425 
Q 3525 4100 3525 3541 
Q 3525 3141 3298 2862 
Q 3072 2584 2669 2484 
Q 3125 2378 3379 2068 
Q 3634 1759 3634 1313 
Q 3634 634 3220 271 
Q 2806 -91 2034 -91 
Q 1263 -91 848 271 
Q 434 634 434 1313 
Q 434 1759 690 2068 
Q 947 2378 1403 2484 
z
M 1172 3481 
Q 1172 3119 1398 2916 
Q 1625 2713 2034 2713 
Q 2441 2713 2670 2916 
Q 2900 3119 2900 3481 
Q 2900 3844 2670 4047 
Q 2441 4250 2034 4250 
Q 1625 4250 1398 4047 
Q 1172 3844 1172 3481 
z
" transform="scale(0.015625)"/>
       </defs>
       <use xlink:href="#DejaVuSans-38"/>
      </g>
     </g>
    </g>
    <g id="ytick_3">
     <g id="line2d_17">
      <path d="M 38.393938 79.47547 
L 395.513938 79.47547 
" clip-path="url(#pd50f82f456)" style="fill: none; stroke: #ffffff"/>
     </g>
     <g id="line2d_18">
      <path d="M 38.393938 79.47547 
" style="fill: none; stroke: #333333; stroke-width: 1.5"/>
      <g>
       <use xlink:href="#mb92442f194" x="38.393938" y="79.47547" style="fill: #333333; stroke: #000000"/>
      </g>
     </g>
     <g id="text_8">
      <!-- 12 -->
      <g style="fill: #4d4d4d" transform="translate(22.245938 81.90372)scale(0.088 -0.088)">
       <defs>
        <path id="DejaVuSans-31" d="M 794 531 
L 1825 531 
L 1825 4091 
L 703 3866 
L 703 4441 
L 1819 4666 
L 2450 4666 
L 2450 531 
L 3481 531 
L 3481 0 
L 794 0 
L 794 531 
z
" transform="scale(0.015625)"/>
        <path id="DejaVuSans-32" d="M 1228 531 
L 3431 531 
L 3431 0 
L 469 0 
L 469 531 
Q 828 903 1448 1529 
Q 2069 2156 2228 2338 
Q 2531 2678 2651 2914 
Q 2772 3150 2772 3378 
Q 2772 3750 2511 3984 
Q 2250 4219 1831 4219 
Q 1534 4219 1204 4116 
Q 875 4013 500 3803 
L 500 4441 
Q 881 4594 1212 4672 
Q 1544 4750 1819 4750 
Q 2544 4750 2975 4387 
Q 3406 4025 3406 3419 
Q 3406 3131 3298 2873 
Q 3191 2616 2906 2266 
Q 2828 2175 2409 1742 
Q 1991 1309 1228 531 
z
" transform="scale(0.015625)"/>
       </defs>
       <use xlink:href="#DejaVuSans-31"/>
       <use xlink:href="#DejaVuSans-32" x="63.623047"/>
      </g>
     </g>
    </g>
    <g id="ytick_4">
     <g id="line2d_19">
      <path d="M 38.393938 196.934855 
L 395.513938 196.934855 
" clip-path="url(#pd50f82f456)" style="fill: none; stroke: #ffffff; stroke-width: 0.5"/>
     </g>
    </g>
    <g id="ytick_5">
     <g id="line2d_20">
      <path d="M 38.393938 118.628598 
L 395.513938 118.628598 
" clip-path="url(#pd50f82f456)" style="fill: none; stroke: #ffffff; stroke-width: 0.5"/>
     </g>
    </g>
    <g id="ytick_6">
     <g id="line2d_21">
      <path d="M 38.393938 40.322341 
L 395.513938 40.322341 
" clip-path="url(#pd50f82f456)" style="fill: none; stroke: #ffffff; stroke-width: 0.5"/>
     </g>
    </g>
    <g id="text_9">
     <!-- Energy -->
     <g transform="translate(15.558281 157.784875)rotate(-90)scale(0.11 -0.11)">
      <defs>
       <path id="DejaVuSans-45" d="M 628 4666 
L 3578 4666 
L 3578 4134 
L 1259 4134 
L 1259 2753 
L 3481 2753 
L 3481 2222 
L 1259 2222 
L 1259 531 
L 3634 531 
L 3634 0 
L 628 0 
L 628 4666 
z
" transform="scale(0.015625)"/>
       <path id="DejaVuSans-67" d="M 2906 1791 
Q 2906 2416 2648 2759 
Q 2391 3103 1925 3103 
Q 1463 3103 1205 2759 
Q 947 2416 947 1791 
Q 947 1169 1205 825 
Q 1463 481 1925 481 
Q 2391 481 2648 825 
Q 2906 1169 2906 1791 
z
M 3481 434 
Q 3481 -459 3084 -895 
Q 2688 -1331 1869 -1331 
Q 1566 -1331 1297 -1286 
Q 1028 -1241 775 -1147 
L 775 -588 
Q 1028 -725 1275 -790 
Q 1522 -856 1778 -856 
Q 2344 -856 2625 -561 
Q 2906 -266 2906 331 
L 2906 616 
Q 2728 306 2450 153 
Q 2172 0 1784 0 
Q 1141 0 747 490 
Q 353 981 353 1791 
Q 353 2603 747 3093 
Q 1141 3584 1784 3584 
Q 2172 3584 2450 3431 
Q 2728 3278 2906 2969 
L 2906 3500 
L 3481 3500 
L 3481 434 
z
" transform="scale(0.015625)"/>
       <path id="DejaVuSans-79" d="M 2059 -325 
Q 1816 -950 1584 -1140 
Q 1353 -1331 966 -1331 
L 506 -1331 
L 506 -850 
L 844 -850 
Q 1081 -850 1212 -737 
Q 1344 -625 1503 -206 
L 1606 56 
L 191 3500 
L 800 3500 
L 1894 763 
L 2988 3500 
L 3597 3500 
L 2059 -325 
z
" transform="scale(0.015625)"/>
      </defs>
      <use xlink:href="#DejaVuSans-45"/>
      <use xlink:href="#DejaVuSans-6e" x="63.183594"/>
      <use xlink:href="#DejaVuSans-65" x="126.5625"/>
      <use xlink:href="#DejaVuSans-72" x="188.085938"/>
      <use xlink:href="#DejaVuSans-67" x="227.449219"/>
      <use xlink:href="#DejaVuSans-79" x="290.925781"/>
     </g>
    </g>
   </g>
   <g id="PathCollection_1">
    <path d="M 379.28121 18.056525 
L 376.179416 24.260114 
L 382.383004 24.260114 
z
" clip-path="url(#pd50f82f456)" style="stroke: #000000; stroke-width: 0.886227"/>
    <path d="M 341.213763 19.540231 
L 338.111969 25.743819 
L 344.315558 25.743819 
z
" clip-path="url(#pd50f82f456)" style="stroke: #000000; stroke-width: 0.886227"/>
    <path d="M 347.261863 16.194206 
L 344.160069 22.397794 
L 350.363658 22.397794 
z
" clip-path="url(#pd50f82f456)" style="stroke: #000000; stroke-width: 0.886227"/>
    <path d="M 311.776937 16.249169 
L 308.675143 22.452757 
L 314.878731 22.452757 
z
" clip-path="url(#pd50f82f456)" style="stroke: #000000; stroke-width: 0.886227"/>
   </g>
   <g id="PathCollection_2">
    <path d="M 369.992384 264.317794 
C 370.814989 264.317794 371.604013 263.99097 372.185683 263.4093 
C 372.767353 262.82763 373.094178 262.038605 373.094178 261.216 
C 373.094178 260.393395 372.767353 259.60437 372.185683 259.0227 
C 371.604013 258.44103 370.814989 258.114206 369.992384 258.114206 
C 369.169778 258.114206 368.380754 258.44103 367.799084 259.0227 
C 367.217414 259.60437 366.890589 260.393395 366.890589 261.216 
C 366.890589 262.038605 367.217414 262.82763 367.799084 263.4093 
C 368.380754 263.99097 369.169778 264.317794 369.992384 264.317794 
z
" clip-path="url(#pd50f82f456)" style="stroke: #000000; stroke-width: 0.886227"/>
    <path d="M 304.783473 261.240561 
C 305.606078 261.240561 306.395103 260.913737 306.976773 260.332067 
C 307.558442 259.750397 307.885267 258.961373 307.885267 258.138767 
C 307.885267 257.316162 307.558442 256.527137 306.976773 255.945467 
C 306.395103 255.363798 305.606078 255.036973 304.783473 255.036973 
C 303.960867 255.036973 303.171843 255.363798 302.590173 255.945467 
C 302.008503 256.527137 301.681679 257.316162 301.681679 258.138767 
C 301.681679 258.961373 302.008503 259.750397 302.590173 260.332067 
C 303.171843 260.913737 303.960867 261.240561 304.783473 261.240561 
z
" clip-path="url(#pd50f82f456)" style="stroke: #000000; stroke-width: 0.886227"/>
    <path d="M 303.780149 261.795636 
C 304.602755 261.795636 305.391779 261.468811 305.973449 260.887142 
C 306.555119 260.305472 306.881943 259.516447 306.881943 258.693842 
C 306.881943 257.871236 306.555119 257.082212 305.973449 256.500542 
C 305.391779 255.918872 304.602755 255.592048 303.780149 255.592048 
C 302.957544 255.592048 302.168519 255.918872 301.586849 256.500542 
C 301.005179 257.082212 300.678355 257.871236 300.678355 258.693842 
C 300.678355 259.516447 301.005179 260.305472 301.586849 260.887142 
C 302.168519 261.468811 302.957544 261.795636 303.780149 261.795636 
z
" clip-path="url(#pd50f82f456)" style="stroke: #000000; stroke-width: 0.886227"/>
    <path d="M 252.496771 251.014302 
C 253.319376 251.014302 254.1084 250.687477 254.69007 250.105808 
C 255.27174 249.524138 255.598565 248.735113 255.598565 247.912508 
C 255.598565 247.089902 255.27174 246.300878 254.69007 245.719208 
C 254.1084 245.137538 253.319376 244.810714 252.496771 244.810714 
C 251.674165 244.810714 250.885141 245.137538 250.303471 245.719208 
C 249.721801 246.300878 249.394976 247.089902 249.394976 247.912508 
C 249.394976 248.735113 249.721801 249.524138 250.303471 250.105808 
C 250.885141 250.687477 251.674165 251.014302 252.496771 251.014302 
z
" clip-path="url(#pd50f82f456)" style="stroke: #000000; stroke-width: 0.886227"/>
   </g>
   <g id="PathCollection_3">
    <path d="M 240.212206 119.058589 
L 246.415794 119.058589 
L 246.415794 112.855001 
L 240.212206 112.855001 
z
" clip-path="url(#pd50f82f456)" style="stroke: #000000; stroke-width: 0.886227"/>
    <path d="M 278.088442 98.104104 
L 284.29203 98.104104 
L 284.29203 91.900516 
L 278.088442 91.900516 
z
" clip-path="url(#pd50f82f456)" style="stroke: #000000; stroke-width: 0.886227"/>
    <path d="M 274.365727 100.163643 
L 280.569315 100.163643 
L 280.569315 93.960054 
L 274.365727 93.960054 
z
" clip-path="url(#pd50f82f456)" style="stroke: #000000; stroke-width: 0.886227"/>
    <path d="M 220.963107 129.707877 
L 227.166696 129.707877 
L 227.166696 123.504288 
L 220.963107 123.504288 
z
" clip-path="url(#pd50f82f456)" style="stroke: #000000; stroke-width: 0.886227"/>
    <path d="M 203.103219 139.588604 
L 209.306808 139.588604 
L 209.306808 133.385016 
L 203.103219 133.385016 
z
" clip-path="url(#pd50f82f456)" style="stroke: #000000; stroke-width: 0.886227"/>
    <path d="M 205.795876 138.09893 
L 211.999465 138.09893 
L 211.999465 131.895342 
L 205.795876 131.895342 
z
" clip-path="url(#pd50f82f456)" style="stroke: #000000; stroke-width: 0.886227"/>
    <path d="M 256.790527 109.88687 
L 262.994115 109.88687 
L 262.994115 103.683282 
L 256.790527 103.683282 
z
" clip-path="url(#pd50f82f456)" style="stroke: #000000; stroke-width: 0.886227"/>
    <path d="M 121.084708 184.96417 
L 127.288297 184.96417 
L 127.288297 178.760582 
L 121.084708 178.760582 
z
" clip-path="url(#pd50f82f456)" style="stroke: #000000; stroke-width: 0.886227"/>
    <path d="M 215.536696 132.709961 
L 221.740284 132.709961 
L 221.740284 126.506373 
L 215.536696 126.506373 
z
" clip-path="url(#pd50f82f456)" style="stroke: #000000; stroke-width: 0.886227"/>
    <path d="M 256.560882 110.013918 
L 262.76447 110.013918 
L 262.76447 103.81033 
L 256.560882 103.81033 
z
" clip-path="url(#pd50f82f456)" style="stroke: #000000; stroke-width: 0.886227"/>
    <path d="M 223.961281 128.04918 
L 230.16487 128.04918 
L 230.16487 121.845592 
L 223.961281 121.845592 
z
" clip-path="url(#pd50f82f456)" style="stroke: #000000; stroke-width: 0.886227"/>
    <path d="M 207.422832 137.19884 
L 213.626421 137.19884 
L 213.626421 130.995252 
L 207.422832 130.995252 
z
" clip-path="url(#pd50f82f456)" style="stroke: #000000; stroke-width: 0.886227"/>
    <path d="M 206.702721 118.020667 
L 212.906309 118.020667 
L 212.906309 111.817079 
L 206.702721 111.817079 
z
" clip-path="url(#pd50f82f456)" style="stroke: #000000; stroke-width: 0.886227"/>
    <path d="M 245.540162 96.534409 
L 251.74375 96.534409 
L 251.74375 90.330821 
L 245.540162 90.330821 
z
" clip-path="url(#pd50f82f456)" style="stroke: #000000; stroke-width: 0.886227"/>
    <path d="M 184.715995 130.184508 
L 190.919584 130.184508 
L 190.919584 123.98092 
L 184.715995 123.98092 
z
" clip-path="url(#pd50f82f456)" style="stroke: #000000; stroke-width: 0.886227"/>
    <path d="M 236.487872 101.542459 
L 242.691461 101.542459 
L 242.691461 95.33887 
L 236.487872 95.33887 
z
" clip-path="url(#pd50f82f456)" style="stroke: #000000; stroke-width: 0.886227"/>
    <path d="M 202.979914 120.080257 
L 209.183502 120.080257 
L 209.183502 113.876668 
L 202.979914 113.876668 
z
" clip-path="url(#pd50f82f456)" style="stroke: #000000; stroke-width: 0.886227"/>
    <path d="M 224.540154 108.152363 
L 230.743742 108.152363 
L 230.743742 101.948774 
L 224.540154 101.948774 
z
" clip-path="url(#pd50f82f456)" style="stroke: #000000; stroke-width: 0.886227"/>
    <path d="M 80.046554 188.091377 
L 86.250143 188.091377 
L 86.250143 181.887788 
L 80.046554 181.887788 
z
" clip-path="url(#pd50f82f456)" style="stroke: #000000; stroke-width: 0.886227"/>
    <path d="M 186.038919 129.452619 
L 192.242508 129.452619 
L 192.242508 123.249031 
L 186.038919 123.249031 
z
" clip-path="url(#pd50f82f456)" style="stroke: #000000; stroke-width: 0.886227"/>
    <path d="M 227.585625 106.467499 
L 233.789214 106.467499 
L 233.789214 100.263911 
L 227.585625 100.263911 
z
" clip-path="url(#pd50f82f456)" style="stroke: #000000; stroke-width: 0.886227"/>
    <path d="M 193.741653 125.191192 
L 199.945241 125.191192 
L 199.945241 118.987604 
L 193.741653 118.987604 
z
" clip-path="url(#pd50f82f456)" style="stroke: #000000; stroke-width: 0.886227"/>
    <path d="M 180.028305 132.777906 
L 186.231893 132.777906 
L 186.231893 126.574317 
L 180.028305 126.574317 
z
" clip-path="url(#pd50f82f456)" style="stroke: #000000; stroke-width: 0.886227"/>
    <path d="M 205.109745 118.901958 
L 211.313333 118.901958 
L 211.313333 112.69837 
L 205.109745 112.69837 
z
" clip-path="url(#pd50f82f456)" style="stroke: #000000; stroke-width: 0.886227"/>
    <path d="M 210.404526 115.972697 
L 216.608114 115.972697 
L 216.608114 109.769108 
L 210.404526 109.769108 
z
" clip-path="url(#pd50f82f456)" style="stroke: #000000; stroke-width: 0.886227"/>
    <path d="M 183.729305 130.730381 
L 189.932893 130.730381 
L 189.932893 124.526792 
L 183.729305 124.526792 
z
" clip-path="url(#pd50f82f456)" style="stroke: #000000; stroke-width: 0.886227"/>
    <path d="M 151.554528 148.530615 
L 157.758116 148.530615 
L 157.758116 142.327026 
L 151.554528 142.327026 
z
" clip-path="url(#pd50f82f456)" style="stroke: #000000; stroke-width: 0.886227"/>
    <path d="M 212.904551 114.589594 
L 219.108139 114.589594 
L 219.108139 108.386005 
L 212.904551 108.386005 
z
" clip-path="url(#pd50f82f456)" style="stroke: #000000; stroke-width: 0.886227"/>
    <path d="M 224.549154 108.147384 
L 230.752743 108.147384 
L 230.752743 101.943795 
L 224.549154 101.943795 
z
" clip-path="url(#pd50f82f456)" style="stroke: #000000; stroke-width: 0.886227"/>
    <path d="M 80.139385 188.040019 
L 86.342974 188.040019 
L 86.342974 181.836431 
L 80.139385 181.836431 
z
" clip-path="url(#pd50f82f456)" style="stroke: #000000; stroke-width: 0.886227"/>
    <path d="M 186.030683 129.457176 
L 192.234272 129.457176 
L 192.234272 123.253587 
L 186.030683 123.253587 
z
" clip-path="url(#pd50f82f456)" style="stroke: #000000; stroke-width: 0.886227"/>
    <path d="M 227.590448 106.464831 
L 233.794036 106.464831 
L 233.794036 100.261243 
L 227.590448 100.261243 
z
" clip-path="url(#pd50f82f456)" style="stroke: #000000; stroke-width: 0.886227"/>
    <path d="M 193.742391 125.190784 
L 199.945979 125.190784 
L 199.945979 118.987196 
L 193.742391 118.987196 
z
" clip-path="url(#pd50f82f456)" style="stroke: #000000; stroke-width: 0.886227"/>
    <path d="M 180.042248 132.770192 
L 186.245837 132.770192 
L 186.245837 126.566603 
L 180.042248 126.566603 
z
" clip-path="url(#pd50f82f456)" style="stroke: #000000; stroke-width: 0.886227"/>
    <path d="M 245.002865 77.255097 
L 251.206454 77.255097 
L 251.206454 71.051508 
L 245.002865 71.051508 
z
" clip-path="url(#pd50f82f456)" style="stroke: #000000; stroke-width: 0.886227"/>
    <path d="M 255.206076 71.610317 
L 261.409664 71.610317 
L 261.409664 65.406728 
L 255.206076 65.406728 
z
" clip-path="url(#pd50f82f456)" style="stroke: #000000; stroke-width: 0.886227"/>
    <path d="M 253.966522 72.296082 
L 260.17011 72.296082 
L 260.17011 66.092494 
L 253.966522 66.092494 
z
" clip-path="url(#pd50f82f456)" style="stroke: #000000; stroke-width: 0.886227"/>
    <path d="M 253.796391 72.390204 
L 259.99998 72.390204 
L 259.99998 66.186616 
L 253.796391 66.186616 
z
" clip-path="url(#pd50f82f456)" style="stroke: #000000; stroke-width: 0.886227"/>
    <path d="M 189.17156 108.142967 
L 195.375148 108.142967 
L 195.375148 101.939378 
L 189.17156 101.939378 
z
" clip-path="url(#pd50f82f456)" style="stroke: #000000; stroke-width: 0.886227"/>
    <path d="M 51.524871 184.294025 
L 57.728459 184.294025 
L 57.728459 178.090437 
L 51.524871 178.090437 
z
" clip-path="url(#pd50f82f456)" style="stroke: #000000; stroke-width: 0.886227"/>
    <path d="M 150.653879 129.452322 
L 156.857467 129.452322 
L 156.857467 123.248733 
L 150.653879 123.248733 
z
" clip-path="url(#pd50f82f456)" style="stroke: #000000; stroke-width: 0.886227"/>
    <path d="M 192.199076 106.468037 
L 198.402664 106.468037 
L 198.402664 100.264448 
L 192.199076 100.264448 
z
" clip-path="url(#pd50f82f456)" style="stroke: #000000; stroke-width: 0.886227"/>
    <path d="M 158.35068 125.194177 
L 164.554268 125.194177 
L 164.554268 118.990589 
L 158.35068 118.990589 
z
" clip-path="url(#pd50f82f456)" style="stroke: #000000; stroke-width: 0.886227"/>
    <path d="M 144.694847 132.749071 
L 150.898435 132.749071 
L 150.898435 126.545482 
L 144.694847 126.545482 
z
" clip-path="url(#pd50f82f456)" style="stroke: #000000; stroke-width: 0.886227"/>
   </g>
   <g id="PathCollection_4">
    <path d="M 379.28121 19.385865 
L 377.508756 22.930773 
L 381.053664 22.930773 
z
" clip-path="url(#pd50f82f456)" style="fill: #db5f57; stroke: #db5f57; stroke-width: 0.886227"/>
    <path d="M 341.213763 20.869571 
L 339.44131 24.414479 
L 342.986217 24.414479 
z
" clip-path="url(#pd50f82f456)" style="fill: #91db57; stroke: #91db57; stroke-width: 0.886227"/>
    <path d="M 347.261863 17.523546 
L 345.48941 21.068454 
L 349.034317 21.068454 
z
" clip-path="url(#pd50f82f456)" style="fill: #57d3db; stroke: #57d3db; stroke-width: 0.886227"/>
    <path d="M 311.776937 17.578509 
L 310.004483 21.123417 
L 313.549391 21.123417 
z
" clip-path="url(#pd50f82f456)" style="fill: #a157db; stroke: #a157db; stroke-width: 0.886227"/>
   </g>
   <g id="PathCollection_5">
    <path d="M 369.992384 262.988454 
C 370.462444 262.988454 370.913315 262.801697 371.245698 262.469314 
C 371.578081 262.136931 371.764837 261.68606 371.764837 261.216 
C 371.764837 260.74594 371.578081 260.295069 371.245698 259.962686 
C 370.913315 259.630303 370.462444 259.443546 369.992384 259.443546 
C 369.522323 259.443546 369.071452 259.630303 368.739069 259.962686 
C 368.406687 260.295069 368.21993 260.74594 368.21993 261.216 
C 368.21993 261.68606 368.406687 262.136931 368.739069 262.469314 
C 369.071452 262.801697 369.522323 262.988454 369.992384 262.988454 
z
" clip-path="url(#pd50f82f456)" style="fill: #db5f57; stroke: #db5f57; stroke-width: 0.886227"/>
    <path d="M 304.783473 259.911221 
C 305.253533 259.911221 305.704404 259.724464 306.036787 259.392081 
C 306.36917 259.059699 306.555927 258.608827 306.555927 258.138767 
C 306.555927 257.668707 306.36917 257.217836 306.036787 256.885453 
C 305.704404 256.55307 305.253533 256.366313 304.783473 256.366313 
C 304.313413 256.366313 303.862542 256.55307 303.530159 256.885453 
C 303.197776 257.217836 303.011019 257.668707 303.011019 258.138767 
C 303.011019 258.608827 303.197776 259.059699 303.530159 259.392081 
C 303.862542 259.724464 304.313413 259.911221 304.783473 259.911221 
z
" clip-path="url(#pd50f82f456)" style="fill: #91db57; stroke: #91db57; stroke-width: 0.886227"/>
    <path d="M 303.780149 260.466296 
C 304.250209 260.466296 304.70108 260.279539 305.033463 259.947156 
C 305.365846 259.614773 305.552603 259.163902 305.552603 258.693842 
C 305.552603 258.223782 305.365846 257.77291 305.033463 257.440528 
C 304.70108 257.108145 304.250209 256.921388 303.780149 256.921388 
C 303.310089 256.921388 302.859218 257.108145 302.526835 257.440528 
C 302.194452 257.77291 302.007695 258.223782 302.007695 258.693842 
C 302.007695 259.163902 302.194452 259.614773 302.526835 259.947156 
C 302.859218 260.279539 303.310089 260.466296 303.780149 260.466296 
z
" clip-path="url(#pd50f82f456)" style="fill: #57d3db; stroke: #57d3db; stroke-width: 0.886227"/>
    <path d="M 252.496771 249.684962 
C 252.966831 249.684962 253.417702 249.498205 253.750085 249.165822 
C 254.082468 248.833439 254.269224 248.382568 254.269224 247.912508 
C 254.269224 247.442448 254.082468 246.991576 253.750085 246.659194 
C 253.417702 246.326811 252.966831 246.140054 252.496771 246.140054 
C 252.02671 246.140054 251.575839 246.326811 251.243456 246.659194 
C 250.911074 246.991576 250.724317 247.442448 250.724317 247.912508 
C 250.724317 248.382568 250.911074 248.833439 251.243456 249.165822 
C 251.575839 249.498205 252.02671 249.684962 252.496771 249.684962 
z
" clip-path="url(#pd50f82f456)" style="fill: #a157db; stroke: #a157db; stroke-width: 0.886227"/>
   </g>
   <g id="PathCollection_6">
    <path d="M 241.541546 117.729249 
L 245.086454 117.729249 
L 245.086454 114.184341 
L 241.541546 114.184341 
z
" clip-path="url(#pd50f82f456)" style="fill: #db5f57; stroke: #db5f57; stroke-width: 0.886227"/>
    <path d="M 279.417782 96.774764 
L 282.96269 96.774764 
L 282.96269 93.229856 
L 279.417782 93.229856 
z
" clip-path="url(#pd50f82f456)" style="fill: #db5f57; stroke: #db5f57; stroke-width: 0.886227"/>
    <path d="M 275.695067 98.834303 
L 279.239975 98.834303 
L 279.239975 95.289395 
L 275.695067 95.289395 
z
" clip-path="url(#pd50f82f456)" style="fill: #db5f57; stroke: #db5f57; stroke-width: 0.886227"/>
    <path d="M 222.292447 128.378537 
L 225.837355 128.378537 
L 225.837355 124.833629 
L 222.292447 124.833629 
z
" clip-path="url(#pd50f82f456)" style="fill: #db5f57; stroke: #db5f57; stroke-width: 0.886227"/>
    <path d="M 204.43256 138.259264 
L 207.977467 138.259264 
L 207.977467 134.714356 
L 204.43256 134.714356 
z
" clip-path="url(#pd50f82f456)" style="fill: #db5f57; stroke: #db5f57; stroke-width: 0.886227"/>
    <path d="M 207.125217 136.76959 
L 210.670124 136.76959 
L 210.670124 133.224682 
L 207.125217 133.224682 
z
" clip-path="url(#pd50f82f456)" style="fill: #db5f57; stroke: #db5f57; stroke-width: 0.886227"/>
    <path d="M 258.119867 108.55753 
L 261.664775 108.55753 
L 261.664775 105.012622 
L 258.119867 105.012622 
z
" clip-path="url(#pd50f82f456)" style="fill: #db5f57; stroke: #db5f57; stroke-width: 0.886227"/>
    <path d="M 122.414048 183.63483 
L 125.958956 183.63483 
L 125.958956 180.089922 
L 122.414048 180.089922 
z
" clip-path="url(#pd50f82f456)" style="fill: #db5f57; stroke: #db5f57; stroke-width: 0.886227"/>
    <path d="M 216.866036 131.380621 
L 220.410944 131.380621 
L 220.410944 127.835713 
L 216.866036 127.835713 
z
" clip-path="url(#pd50f82f456)" style="fill: #db5f57; stroke: #db5f57; stroke-width: 0.886227"/>
    <path d="M 257.890222 108.684578 
L 261.43513 108.684578 
L 261.43513 105.13967 
L 257.890222 105.13967 
z
" clip-path="url(#pd50f82f456)" style="fill: #db5f57; stroke: #db5f57; stroke-width: 0.886227"/>
    <path d="M 225.290622 126.71984 
L 228.835529 126.71984 
L 228.835529 123.174932 
L 225.290622 123.174932 
z
" clip-path="url(#pd50f82f456)" style="fill: #db5f57; stroke: #db5f57; stroke-width: 0.886227"/>
    <path d="M 208.752173 135.8695 
L 212.29708 135.8695 
L 212.29708 132.324592 
L 208.752173 132.324592 
z
" clip-path="url(#pd50f82f456)" style="fill: #db5f57; stroke: #db5f57; stroke-width: 0.886227"/>
    <path d="M 208.032061 116.691327 
L 211.576969 116.691327 
L 211.576969 113.146419 
L 208.032061 113.146419 
z
" clip-path="url(#pd50f82f456)" style="fill: #91db57; stroke: #91db57; stroke-width: 0.886227"/>
    <path d="M 246.869502 95.205069 
L 250.41441 95.205069 
L 250.41441 91.660161 
L 246.869502 91.660161 
z
" clip-path="url(#pd50f82f456)" style="fill: #91db57; stroke: #91db57; stroke-width: 0.886227"/>
    <path d="M 186.045335 128.855168 
L 189.590243 128.855168 
L 189.590243 125.31026 
L 186.045335 125.31026 
z
" clip-path="url(#pd50f82f456)" style="fill: #91db57; stroke: #91db57; stroke-width: 0.886227"/>
    <path d="M 237.817213 100.213118 
L 241.36212 100.213118 
L 241.36212 96.668211 
L 237.817213 96.668211 
z
" clip-path="url(#pd50f82f456)" style="fill: #91db57; stroke: #91db57; stroke-width: 0.886227"/>
    <path d="M 204.309254 118.750916 
L 207.854162 118.750916 
L 207.854162 115.206009 
L 204.309254 115.206009 
z
" clip-path="url(#pd50f82f456)" style="fill: #91db57; stroke: #91db57; stroke-width: 0.886227"/>
    <path d="M 225.869494 106.823022 
L 229.414402 106.823022 
L 229.414402 103.278115 
L 225.869494 103.278115 
z
" clip-path="url(#pd50f82f456)" style="fill: #91db57; stroke: #91db57; stroke-width: 0.886227"/>
    <path d="M 81.375895 186.762036 
L 84.920803 186.762036 
L 84.920803 183.217129 
L 81.375895 183.217129 
z
" clip-path="url(#pd50f82f456)" style="fill: #91db57; stroke: #91db57; stroke-width: 0.886227"/>
    <path d="M 187.36826 128.123279 
L 190.913168 128.123279 
L 190.913168 124.578371 
L 187.36826 124.578371 
z
" clip-path="url(#pd50f82f456)" style="fill: #91db57; stroke: #91db57; stroke-width: 0.886227"/>
    <path d="M 228.914966 105.138159 
L 232.459874 105.138159 
L 232.459874 101.593251 
L 228.914966 101.593251 
z
" clip-path="url(#pd50f82f456)" style="fill: #91db57; stroke: #91db57; stroke-width: 0.886227"/>
    <path d="M 195.070993 123.861852 
L 198.615901 123.861852 
L 198.615901 120.316944 
L 195.070993 120.316944 
z
" clip-path="url(#pd50f82f456)" style="fill: #91db57; stroke: #91db57; stroke-width: 0.886227"/>
    <path d="M 181.357645 131.448565 
L 184.902553 131.448565 
L 184.902553 127.903658 
L 181.357645 127.903658 
z
" clip-path="url(#pd50f82f456)" style="fill: #91db57; stroke: #91db57; stroke-width: 0.886227"/>
    <path d="M 206.439085 117.572618 
L 209.983993 117.572618 
L 209.983993 114.02771 
L 206.439085 114.02771 
z
" clip-path="url(#pd50f82f456)" style="fill: #57d3db; stroke: #57d3db; stroke-width: 0.886227"/>
    <path d="M 211.733866 114.643356 
L 215.278774 114.643356 
L 215.278774 111.098448 
L 211.733866 111.098448 
z
" clip-path="url(#pd50f82f456)" style="fill: #57d3db; stroke: #57d3db; stroke-width: 0.886227"/>
    <path d="M 185.058645 129.40104 
L 188.603553 129.40104 
L 188.603553 125.856132 
L 185.058645 125.856132 
z
" clip-path="url(#pd50f82f456)" style="fill: #57d3db; stroke: #57d3db; stroke-width: 0.886227"/>
    <path d="M 152.883868 147.201274 
L 156.428776 147.201274 
L 156.428776 143.656367 
L 152.883868 143.656367 
z
" clip-path="url(#pd50f82f456)" style="fill: #57d3db; stroke: #57d3db; stroke-width: 0.886227"/>
    <path d="M 214.233891 113.260253 
L 217.778799 113.260253 
L 217.778799 109.715346 
L 214.233891 109.715346 
z
" clip-path="url(#pd50f82f456)" style="fill: #57d3db; stroke: #57d3db; stroke-width: 0.886227"/>
    <path d="M 225.878495 106.818043 
L 229.423402 106.818043 
L 229.423402 103.273135 
L 225.878495 103.273135 
z
" clip-path="url(#pd50f82f456)" style="fill: #57d3db; stroke: #57d3db; stroke-width: 0.886227"/>
    <path d="M 81.468726 186.710679 
L 85.013634 186.710679 
L 85.013634 183.165771 
L 81.468726 183.165771 
z
" clip-path="url(#pd50f82f456)" style="fill: #57d3db; stroke: #57d3db; stroke-width: 0.886227"/>
    <path d="M 187.360024 128.127835 
L 190.904931 128.127835 
L 190.904931 124.582928 
L 187.360024 124.582928 
z
" clip-path="url(#pd50f82f456)" style="fill: #57d3db; stroke: #57d3db; stroke-width: 0.886227"/>
    <path d="M 228.919788 105.135491 
L 232.464696 105.135491 
L 232.464696 101.590583 
L 228.919788 101.590583 
z
" clip-path="url(#pd50f82f456)" style="fill: #57d3db; stroke: #57d3db; stroke-width: 0.886227"/>
    <path d="M 195.071731 123.861444 
L 198.616639 123.861444 
L 198.616639 120.316536 
L 195.071731 120.316536 
z
" clip-path="url(#pd50f82f456)" style="fill: #57d3db; stroke: #57d3db; stroke-width: 0.886227"/>
    <path d="M 181.371589 131.440851 
L 184.916497 131.440851 
L 184.916497 127.895943 
L 181.371589 127.895943 
z
" clip-path="url(#pd50f82f456)" style="fill: #57d3db; stroke: #57d3db; stroke-width: 0.886227"/>
    <path d="M 246.332206 75.925756 
L 249.877114 75.925756 
L 249.877114 72.380849 
L 246.332206 72.380849 
z
" clip-path="url(#pd50f82f456)" style="fill: #a157db; stroke: #a157db; stroke-width: 0.886227"/>
    <path d="M 256.535416 70.280976 
L 260.080324 70.280976 
L 260.080324 66.736069 
L 256.535416 66.736069 
z
" clip-path="url(#pd50f82f456)" style="fill: #a157db; stroke: #a157db; stroke-width: 0.886227"/>
    <path d="M 255.295862 70.966742 
L 258.84077 70.966742 
L 258.84077 67.421834 
L 255.295862 67.421834 
z
" clip-path="url(#pd50f82f456)" style="fill: #a157db; stroke: #a157db; stroke-width: 0.886227"/>
    <path d="M 255.125732 71.060864 
L 258.670639 71.060864 
L 258.670639 67.515956 
L 255.125732 67.515956 
z
" clip-path="url(#pd50f82f456)" style="fill: #a157db; stroke: #a157db; stroke-width: 0.886227"/>
    <path d="M 190.5009 106.813626 
L 194.045808 106.813626 
L 194.045808 103.268719 
L 190.5009 103.268719 
z
" clip-path="url(#pd50f82f456)" style="fill: #a157db; stroke: #a157db; stroke-width: 0.886227"/>
    <path d="M 52.854211 182.964685 
L 56.399119 182.964685 
L 56.399119 179.419777 
L 52.854211 179.419777 
z
" clip-path="url(#pd50f82f456)" style="fill: #a157db; stroke: #a157db; stroke-width: 0.886227"/>
    <path d="M 151.983219 128.122981 
L 155.528127 128.122981 
L 155.528127 124.578074 
L 151.983219 124.578074 
z
" clip-path="url(#pd50f82f456)" style="fill: #a157db; stroke: #a157db; stroke-width: 0.886227"/>
    <path d="M 193.528416 105.138696 
L 197.073324 105.138696 
L 197.073324 101.593789 
L 193.528416 101.593789 
z
" clip-path="url(#pd50f82f456)" style="fill: #a157db; stroke: #a157db; stroke-width: 0.886227"/>
    <path d="M 159.68002 123.864837 
L 163.224928 123.864837 
L 163.224928 120.319929 
L 159.68002 120.319929 
z
" clip-path="url(#pd50f82f456)" style="fill: #a157db; stroke: #a157db; stroke-width: 0.886227"/>
    <path d="M 146.024187 131.41973 
L 149.569095 131.41973 
L 149.569095 127.874823 
L 146.024187 127.874823 
z
" clip-path="url(#pd50f82f456)" style="fill: #a157db; stroke: #a157db; stroke-width: 0.886227"/>
   </g>
   <g id="patch_3">
    <path d="M 402.713938 231.213937 
L 480.773063 231.213937 
L 480.773063 45.842062 
L 402.713938 45.842062 
z
" style="fill: #ffffff"/>
   </g>
   <g id="text_10">
    <!-- Scenario -->
    <g transform="translate(414.913938 69.435656)scale(0.11 -0.11)">
     <defs>
      <path id="DejaVuSans-53" d="M 3425 4513 
L 3425 3897 
Q 3066 4069 2747 4153 
Q 2428 4238 2131 4238 
Q 1616 4238 1336 4038 
Q 1056 3838 1056 3469 
Q 1056 3159 1242 3001 
Q 1428 2844 1947 2747 
L 2328 2669 
Q 3034 2534 3370 2195 
Q 3706 1856 3706 1288 
Q 3706 609 3251 259 
Q 2797 -91 1919 -91 
Q 1588 -91 1214 -16 
Q 841 59 441 206 
L 441 856 
Q 825 641 1194 531 
Q 1563 422 1919 422 
Q 2459 422 2753 634 
Q 3047 847 3047 1241 
Q 3047 1584 2836 1778 
Q 2625 1972 2144 2069 
L 1759 2144 
Q 1053 2284 737 2584 
Q 422 2884 422 3419 
Q 422 4038 858 4394 
Q 1294 4750 2059 4750 
Q 2388 4750 2728 4690 
Q 3069 4631 3425 4513 
z
" transform="scale(0.015625)"/>
      <path id="DejaVuSans-63" d="M 3122 3366 
L 3122 2828 
Q 2878 2963 2633 3030 
Q 2388 3097 2138 3097 
Q 1578 3097 1268 2742 
Q 959 2388 959 1747 
Q 959 1106 1268 751 
Q 1578 397 2138 397 
Q 2388 397 2633 464 
Q 2878 531 3122 666 
L 3122 134 
Q 2881 22 2623 -34 
Q 2366 -91 2075 -91 
Q 1284 -91 818 406 
Q 353 903 353 1747 
Q 353 2603 823 3093 
Q 1294 3584 2113 3584 
Q 2378 3584 2631 3529 
Q 2884 3475 3122 3366 
z
" transform="scale(0.015625)"/>
     </defs>
     <use xlink:href="#DejaVuSans-53"/>
     <use xlink:href="#DejaVuSans-63" x="63.476562"/>
     <use xlink:href="#DejaVuSans-65" x="118.457031"/>
     <use xlink:href="#DejaVuSans-6e" x="179.980469"/>
     <use xlink:href="#DejaVuSans-61" x="243.359375"/>
     <use xlink:href="#DejaVuSans-72" x="304.638672"/>
     <use xlink:href="#DejaVuSans-69" x="345.751953"/>
     <use xlink:href="#DejaVuSans-6f" x="373.535156"/>
    </g>
   </g>
   <g id="patch_4">
    <path d="M 414.913938 88.928 
L 430.753938 88.928 
L 430.753938 73.088 
L 414.913938 73.088 
z
" clip-path="url(#pcbe7d15ed8)" style="fill: #f2f2f2"/>
   </g>
   <g id="line2d_22">
    <path d="M 422.833938 81.008 
" clip-path="url(#pcbe7d15ed8)" style="fill: none; stroke: #1f77b4; stroke-width: 1.5; stroke-linecap: square"/>
    <defs>
     <path id="m9cee0c2523" d="M 0 3.101794 
C 0.822605 3.101794 1.61163 2.77497 2.1933 2.1933 
C 2.77497 1.61163 3.101794 0.822605 3.101794 0 
C 3.101794 -0.822605 2.77497 -1.61163 2.1933 -2.1933 
C 1.61163 -2.77497 0.822605 -3.101794 0 -3.101794 
C -0.822605 -3.101794 -1.61163 -2.77497 -2.1933 -2.1933 
C -2.77497 -1.61163 -3.101794 -0.822605 -3.101794 0 
C -3.101794 0.822605 -2.77497 1.61163 -2.1933 2.1933 
C -1.61163 2.77497 -0.822605 3.101794 0 3.101794 
z
" style="stroke: #000000; stroke-width: 0.886227"/>
    </defs>
    <g clip-path="url(#pcbe7d15ed8)">
     <use xlink:href="#m9cee0c2523" x="422.833938" y="81.008" style="stroke: #000000; stroke-width: 0.886227"/>
    </g>
   </g>
   <g id="line2d_23">
    <path d="M 422.833938 81.008 
" clip-path="url(#pcbe7d15ed8)" style="fill: none; stroke: #1f77b4; stroke-width: 1.5; stroke-linecap: square"/>
    <defs>
     <path id="md3a3adb43c" d="M 0 1.772454 
C 0.47006 1.772454 0.920931 1.585697 1.253314 1.253314 
C 1.585697 0.920931 1.772454 0.47006 1.772454 0 
C 1.772454 -0.47006 1.585697 -0.920931 1.253314 -1.253314 
C 0.920931 -1.585697 0.47006 -1.772454 0 -1.772454 
C -0.47006 -1.772454 -0.920931 -1.585697 -1.253314 -1.253314 
C -1.585697 -0.920931 -1.772454 -0.47006 -1.772454 0 
C -1.772454 0.47006 -1.585697 0.920931 -1.253314 1.253314 
C -0.920931 1.585697 -0.47006 1.772454 0 1.772454 
z
" style="stroke: #000000; stroke-width: 0.886227"/>
    </defs>
    <g clip-path="url(#pcbe7d15ed8)">
     <use xlink:href="#md3a3adb43c" x="422.833938" y="81.008" style="stroke: #000000; stroke-width: 0.886227"/>
    </g>
   </g>
   <g id="text_11">
    <!-- AD -->
    <g transform="translate(433.753938 83.43625)scale(0.088 -0.088)">
     <defs>
      <path id="DejaVuSans-44" d="M 1259 4147 
L 1259 519 
L 2022 519 
Q 2988 519 3436 956 
Q 3884 1394 3884 2338 
Q 3884 3275 3436 3711 
Q 2988 4147 2022 4147 
L 1259 4147 
z
M 628 4666 
L 1925 4666 
Q 3281 4666 3915 4102 
Q 4550 3538 4550 2338 
Q 4550 1131 3912 565 
Q 3275 0 1925 0 
L 628 0 
L 628 4666 
z
" transform="scale(0.015625)"/>
     </defs>
     <use xlink:href="#DejaVuSans-41"/>
     <use xlink:href="#DejaVuSans-44" x="68.408203"/>
    </g>
   </g>
   <g id="patch_5">
    <path d="M 414.913938 106.768 
L 430.753938 106.768 
L 430.753938 90.928 
L 414.913938 90.928 
z
" clip-path="url(#p74276f63d9)" style="fill: #f2f2f2"/>
   </g>
   <g id="line2d_24">
    <path d="M 422.833938 98.848 
" clip-path="url(#p74276f63d9)" style="fill: none; stroke: #1f77b4; stroke-width: 1.5; stroke-linecap: square"/>
    <defs>
     <path id="m245771d789" d="M 0 -3.101794 
L -3.101794 3.101794 
L 3.101794 3.101794 
z
" style="stroke: #000000; stroke-width: 0.886227; stroke-linejoin: miter"/>
    </defs>
    <g clip-path="url(#p74276f63d9)">
     <use xlink:href="#m245771d789" x="422.833938" y="98.848" style="stroke: #000000; stroke-width: 0.886227; stroke-linejoin: miter"/>
    </g>
   </g>
   <g id="line2d_25">
    <path d="M 422.833938 98.848 
" clip-path="url(#p74276f63d9)" style="fill: none; stroke: #1f77b4; stroke-width: 1.5; stroke-linecap: square"/>
    <defs>
     <path id="m65f5a8f62b" d="M 0 -1.772454 
L -1.772454 1.772454 
L 1.772454 1.772454 
z
" style="stroke: #000000; stroke-width: 0.886227; stroke-linejoin: miter"/>
    </defs>
    <g clip-path="url(#p74276f63d9)">
     <use xlink:href="#m65f5a8f62b" x="422.833938" y="98.848" style="stroke: #000000; stroke-width: 0.886227; stroke-linejoin: miter"/>
    </g>
   </g>
   <g id="text_12">
    <!-- NSSD -->
    <g transform="translate(433.753938 101.27625)scale(0.088 -0.088)">
     <defs>
      <path id="DejaVuSans-4e" d="M 628 4666 
L 1478 4666 
L 3547 763 
L 3547 4666 
L 4159 4666 
L 4159 0 
L 3309 0 
L 1241 3903 
L 1241 0 
L 628 0 
L 628 4666 
z
" transform="scale(0.015625)"/>
     </defs>
     <use xlink:href="#DejaVuSans-4e"/>
     <use xlink:href="#DejaVuSans-53" x="74.804688"/>
     <use xlink:href="#DejaVuSans-53" x="138.28125"/>
     <use xlink:href="#DejaVuSans-44" x="201.757812"/>
    </g>
   </g>
   <g id="patch_6">
    <path d="M 414.913938 124.608 
L 430.753938 124.608 
L 430.753938 108.768 
L 414.913938 108.768 
z
" clip-path="url(#p12e7552b59)" style="fill: #f2f2f2"/>
   </g>
   <g id="line2d_26">
    <path d="M 422.833938 116.688 
" clip-path="url(#p12e7552b59)" style="fill: none; stroke: #1f77b4; stroke-width: 1.5; stroke-linecap: square"/>
    <defs>
     <path id="md7d9d3597c" d="M -3.101794 3.101794 
L 3.101794 3.101794 
L 3.101794 -3.101794 
L -3.101794 -3.101794 
z
" style="stroke: #000000; stroke-width: 0.886227; stroke-linejoin: miter"/>
    </defs>
    <g clip-path="url(#p12e7552b59)">
     <use xlink:href="#md7d9d3597c" x="422.833938" y="116.688" style="stroke: #000000; stroke-width: 0.886227; stroke-linejoin: miter"/>
    </g>
   </g>
   <g id="line2d_27">
    <path d="M 422.833938 116.688 
" clip-path="url(#p12e7552b59)" style="fill: none; stroke: #1f77b4; stroke-width: 1.5; stroke-linecap: square"/>
    <defs>
     <path id="m61638cabca" d="M -1.772454 1.772454 
L 1.772454 1.772454 
L 1.772454 -1.772454 
L -1.772454 -1.772454 
z
" style="stroke: #000000; stroke-width: 0.886227; stroke-linejoin: miter"/>
    </defs>
    <g clip-path="url(#p12e7552b59)">
     <use xlink:href="#m61638cabca" x="422.833938" y="116.688" style="stroke: #000000; stroke-width: 0.886227; stroke-linejoin: miter"/>
    </g>
   </g>
   <g id="text_13">
    <!-- OSSD -->
    <g transform="translate(433.753938 119.11625)scale(0.088 -0.088)">
     <defs>
      <path id="DejaVuSans-4f" d="M 2522 4238 
Q 1834 4238 1429 3725 
Q 1025 3213 1025 2328 
Q 1025 1447 1429 934 
Q 1834 422 2522 422 
Q 3209 422 3611 934 
Q 4013 1447 4013 2328 
Q 4013 3213 3611 3725 
Q 3209 4238 2522 4238 
z
M 2522 4750 
Q 3503 4750 4090 4092 
Q 4678 3434 4678 2328 
Q 4678 1225 4090 567 
Q 3503 -91 2522 -91 
Q 1538 -91 948 565 
Q 359 1222 359 2328 
Q 359 3434 948 4092 
Q 1538 4750 2522 4750 
z
" transform="scale(0.015625)"/>
     </defs>
     <use xlink:href="#DejaVuSans-4f"/>
     <use xlink:href="#DejaVuSans-53" x="78.710938"/>
     <use xlink:href="#DejaVuSans-53" x="142.1875"/>
     <use xlink:href="#DejaVuSans-44" x="205.664062"/>
    </g>
   </g>
   <g id="text_14">
    <!-- Model -->
    <g transform="translate(414.913938 146.001594)scale(0.11 -0.11)">
     <defs>
      <path id="DejaVuSans-4d" d="M 628 4666 
L 1569 4666 
L 2759 1491 
L 3956 4666 
L 4897 4666 
L 4897 0 
L 4281 0 
L 4281 4097 
L 3078 897 
L 2444 897 
L 1241 4097 
L 1241 0 
L 628 0 
L 628 4666 
z
" transform="scale(0.015625)"/>
      <path id="DejaVuSans-64" d="M 2906 2969 
L 2906 4863 
L 3481 4863 
L 3481 0 
L 2906 0 
L 2906 525 
Q 2725 213 2448 61 
Q 2172 -91 1784 -91 
Q 1150 -91 751 415 
Q 353 922 353 1747 
Q 353 2572 751 3078 
Q 1150 3584 1784 3584 
Q 2172 3584 2448 3432 
Q 2725 3281 2906 2969 
z
M 947 1747 
Q 947 1113 1208 752 
Q 1469 391 1925 391 
Q 2381 391 2643 752 
Q 2906 1113 2906 1747 
Q 2906 2381 2643 2742 
Q 2381 3103 1925 3103 
Q 1469 3103 1208 2742 
Q 947 2381 947 1747 
z
" transform="scale(0.015625)"/>
      <path id="DejaVuSans-6c" d="M 603 4863 
L 1178 4863 
L 1178 0 
L 603 0 
L 603 4863 
z
" transform="scale(0.015625)"/>
     </defs>
     <use xlink:href="#DejaVuSans-4d"/>
     <use xlink:href="#DejaVuSans-6f" x="86.279297"/>
     <use xlink:href="#DejaVuSans-64" x="147.460938"/>
     <use xlink:href="#DejaVuSans-65" x="210.9375"/>
     <use xlink:href="#DejaVuSans-6c" x="272.460938"/>
    </g>
   </g>
   <g id="patch_7">
    <path d="M 414.913938 165.493938 
L 430.753938 165.493938 
L 430.753938 149.653938 
L 414.913938 149.653938 
z
" clip-path="url(#p7439af4e64)" style="fill: #f2f2f2"/>
   </g>
   <g id="line2d_28">
    <path d="M 422.833938 157.573938 
" clip-path="url(#p7439af4e64)" style="fill: none; stroke: #1f77b4; stroke-width: 1.5; stroke-linecap: square"/>
    <defs>
     <path id="mf420737677" d="M 0 1.772454 
C 0.47006 1.772454 0.920931 1.585697 1.253314 1.253314 
C 1.585697 0.920931 1.772454 0.47006 1.772454 0 
C 1.772454 -0.47006 1.585697 -0.920931 1.253314 -1.253314 
C 0.920931 -1.585697 0.47006 -1.772454 0 -1.772454 
C -0.47006 -1.772454 -0.920931 -1.585697 -1.253314 -1.253314 
C -1.585697 -0.920931 -1.772454 -0.47006 -1.772454 0 
C -1.772454 0.47006 -1.585697 0.920931 -1.253314 1.253314 
C -0.920931 1.585697 -0.47006 1.772454 0 1.772454 
z
" style="stroke: #db5f57; stroke-width: 0.886227"/>
    </defs>
    <g clip-path="url(#p7439af4e64)">
     <use xlink:href="#mf420737677" x="422.833938" y="157.573938" style="fill: #db5f57; stroke: #db5f57; stroke-width: 0.886227"/>
    </g>
   </g>
   <g id="text_15">
    <!-- Model 1 -->
    <g transform="translate(433.753938 160.002188)scale(0.088 -0.088)">
     <use xlink:href="#DejaVuSans-4d"/>
     <use xlink:href="#DejaVuSans-6f" x="86.279297"/>
     <use xlink:href="#DejaVuSans-64" x="147.460938"/>
     <use xlink:href="#DejaVuSans-65" x="210.9375"/>
     <use xlink:href="#DejaVuSans-6c" x="272.460938"/>
     <use xlink:href="#DejaVuSans-20" x="300.244141"/>
     <use xlink:href="#DejaVuSans-31" x="332.03125"/>
    </g>
   </g>
   <g id="patch_8">
    <path d="M 414.913938 183.333938 
L 430.753938 183.333938 
L 430.753938 167.493938 
L 414.913938 167.493938 
z
" clip-path="url(#p0e5341264e)" style="fill: #f2f2f2"/>
   </g>
   <g id="line2d_29">
    <path d="M 422.833938 175.413938 
" clip-path="url(#p0e5341264e)" style="fill: none; stroke: #1f77b4; stroke-width: 1.5; stroke-linecap: square"/>
    <defs>
     <path id="m2fa858e485" d="M 0 1.772454 
C 0.47006 1.772454 0.920931 1.585697 1.253314 1.253314 
C 1.585697 0.920931 1.772454 0.47006 1.772454 0 
C 1.772454 -0.47006 1.585697 -0.920931 1.253314 -1.253314 
C 0.920931 -1.585697 0.47006 -1.772454 0 -1.772454 
C -0.47006 -1.772454 -0.920931 -1.585697 -1.253314 -1.253314 
C -1.585697 -0.920931 -1.772454 -0.47006 -1.772454 0 
C -1.772454 0.47006 -1.585697 0.920931 -1.253314 1.253314 
C -0.920931 1.585697 -0.47006 1.772454 0 1.772454 
z
" style="stroke: #91db57; stroke-width: 0.886227"/>
    </defs>
    <g clip-path="url(#p0e5341264e)">
     <use xlink:href="#m2fa858e485" x="422.833938" y="175.413938" style="fill: #91db57; stroke: #91db57; stroke-width: 0.886227"/>
    </g>
   </g>
   <g id="text_16">
    <!-- Model 2 -->
    <g transform="translate(433.753938 177.842188)scale(0.088 -0.088)">
     <use xlink:href="#DejaVuSans-4d"/>
     <use xlink:href="#DejaVuSans-6f" x="86.279297"/>
     <use xlink:href="#DejaVuSans-64" x="147.460938"/>
     <use xlink:href="#DejaVuSans-65" x="210.9375"/>
     <use xlink:href="#DejaVuSans-6c" x="272.460938"/>
     <use xlink:href="#DejaVuSans-20" x="300.244141"/>
     <use xlink:href="#DejaVuSans-32" x="332.03125"/>
    </g>
   </g>
   <g id="patch_9">
    <path d="M 414.913938 201.173938 
L 430.753938 201.173938 
L 430.753938 185.333938 
L 414.913938 185.333938 
z
" clip-path="url(#p45917a5537)" style="fill: #f2f2f2"/>
   </g>
   <g id="line2d_30">
    <path d="M 422.833938 193.253938 
" clip-path="url(#p45917a5537)" style="fill: none; stroke: #1f77b4; stroke-width: 1.5; stroke-linecap: square"/>
    <defs>
     <path id="md17de71b8f" d="M 0 1.772454 
C 0.47006 1.772454 0.920931 1.585697 1.253314 1.253314 
C 1.585697 0.920931 1.772454 0.47006 1.772454 0 
C 1.772454 -0.47006 1.585697 -0.920931 1.253314 -1.253314 
C 0.920931 -1.585697 0.47006 -1.772454 0 -1.772454 
C -0.47006 -1.772454 -0.920931 -1.585697 -1.253314 -1.253314 
C -1.585697 -0.920931 -1.772454 -0.47006 -1.772454 0 
C -1.772454 0.47006 -1.585697 0.920931 -1.253314 1.253314 
C -0.920931 1.585697 -0.47006 1.772454 0 1.772454 
z
" style="stroke: #57d3db; stroke-width: 0.886227"/>
    </defs>
    <g clip-path="url(#p45917a5537)">
     <use xlink:href="#md17de71b8f" x="422.833938" y="193.253938" style="fill: #57d3db; stroke: #57d3db; stroke-width: 0.886227"/>
    </g>
   </g>
   <g id="text_17">
    <!-- Model 3 -->
    <g transform="translate(433.753938 195.682188)scale(0.088 -0.088)">
     <use xlink:href="#DejaVuSans-4d"/>
     <use xlink:href="#DejaVuSans-6f" x="86.279297"/>
     <use xlink:href="#DejaVuSans-64" x="147.460938"/>
     <use xlink:href="#DejaVuSans-65" x="210.9375"/>
     <use xlink:href="#DejaVuSans-6c" x="272.460938"/>
     <use xlink:href="#DejaVuSans-20" x="300.244141"/>
     <use xlink:href="#DejaVuSans-33" x="332.03125"/>
    </g>
   </g>
   <g id="patch_10">
    <path d="M 414.913938 219.013938 
L 430.753938 219.013938 
L 430.753938 203.173938 
L 414.913938 203.173938 
z
" clip-path="url(#pbff02853ec)" style="fill: #f2f2f2"/>
   </g>
   <g id="line2d_31">
    <path d="M 422.833938 211.093938 
" clip-path="url(#pbff02853ec)" style="fill: none; stroke: #1f77b4; stroke-width: 1.5; stroke-linecap: square"/>
    <defs>
     <path id="m8311e89cd3" d="M 0 1.772454 
C 0.47006 1.772454 0.920931 1.585697 1.253314 1.253314 
C 1.585697 0.920931 1.772454 0.47006 1.772454 0 
C 1.772454 -0.47006 1.585697 -0.920931 1.253314 -1.253314 
C 0.920931 -1.585697 0.47006 -1.772454 0 -1.772454 
C -0.47006 -1.772454 -0.920931 -1.585697 -1.253314 -1.253314 
C -1.585697 -0.920931 -1.772454 -0.47006 -1.772454 0 
C -1.772454 0.47006 -1.585697 0.920931 -1.253314 1.253314 
C -0.920931 1.585697 -0.47006 1.772454 0 1.772454 
z
" style="stroke: #a157db; stroke-width: 0.886227"/>
    </defs>
    <g clip-path="url(#pbff02853ec)">
     <use xlink:href="#m8311e89cd3" x="422.833938" y="211.093938" style="fill: #a157db; stroke: #a157db; stroke-width: 0.886227"/>
    </g>
   </g>
   <g id="text_18">
    <!-- Model 4 -->
    <g transform="translate(433.753938 213.522188)scale(0.088 -0.088)">
     <use xlink:href="#DejaVuSans-4d"/>
     <use xlink:href="#DejaVuSans-6f" x="86.279297"/>
     <use xlink:href="#DejaVuSans-64" x="147.460938"/>
     <use xlink:href="#DejaVuSans-65" x="210.9375"/>
     <use xlink:href="#DejaVuSans-6c" x="272.460938"/>
     <use xlink:href="#DejaVuSans-20" x="300.244141"/>
     <use xlink:href="#DejaVuSans-34" x="332.03125"/>
    </g>
   </g>
  </g>
 </g>
 <defs>
  <clipPath id="pd50f82f456">
   <rect x="38.393938" y="7.2" width="357.12" height="266.112"/>
  </clipPath>
  <clipPath id="pcbe7d15ed8">
   <path d="M 414.913938 88.928 
L 414.913938 73.088 
L 430.753938 73.088 
L 430.753938 88.928 
"/>
  </clipPath>
  <clipPath id="p74276f63d9">
   <path d="M 414.913938 106.768 
L 414.913938 90.928 
L 430.753938 90.928 
L 430.753938 106.768 
"/>
  </clipPath>
  <clipPath id="p12e7552b59">
   <path d="M 414.913938 124.608 
L 414.913938 108.768 
L 430.753938 108.768 
L 430.753938 124.608 
"/>
  </clipPath>
  <clipPath id="p7439af4e64">
   <path d="M 414.913938 165.493938 
L 414.913938 149.653938 
L 430.753938 149.653938 
L 430.753938 165.493938 
"/>
  </clipPath>
  <clipPath id="p0e5341264e">
   <path d="M 414.913938 183.333938 
L 414.913938 167.493938 
L 430.753938 167.493938 
L 430.753938 183.333938 
"/>
  </clipPath>
  <clipPath id="p45917a5537">
   <path d="M 414.913938 201.173938 
L 414.913938 185.333938 
L 430.753938 185.333938 
L 430.753938 201.173938 
"/>
  </clipPath>
  <clipPath id="pbff02853ec">
   <path d="M 414.913938 219.013938 
L 414.913938 203.173938 
L 430.753938 203.173938 
L 430.753938 219.013938 
"/>
  </clipPath>
 </defs>
</svg>
