<?xml version="1.0" encoding="utf-8" standalone="no"?>
<!DOCTYPE svg PUBLIC "-//W3C//DTD SVG 1.1//EN"
  "http://www.w3.org/Graphics/SVG/1.1/DTD/svg11.dtd">
<svg height="288pt" version="1.1" viewBox="0 0 432 288" width="432pt" xmlns="http://www.w3.org/2000/svg" xmlns:xlink="http://www.w3.org/1999/xlink">
 <metadata>
  <rdf:RDF xmlns:cc="http://creativecommons.org/ns#" xmlns:dc="http://purl.org/dc/elements/1.1/" xmlns:rdf="http://www.w3.org/1999/02/22-rdf-syntax-ns#">
   <cc:Work>
    <dc:type rdf:resource="http://purl.org/dc/dcmitype/StillImage"/>
    <dc:date>2022-06-13T11:38:45.397901</dc:date>
    <dc:format>image/svg+xml</dc:format>
    <dc:creator>
     <cc:Agent>
      <dc:title>Matplotlib v3.4.3, https://matplotlib.org/</dc:title>
     </cc:Agent>
    </dc:creator>
   </cc:Work>
  </rdf:RDF>
 </metadata>
 <defs>
  <style type="text/css">*{stroke-linecap:butt;stroke-linejoin:round;}</style>
 </defs>
 <g id="figure_1">
  <g id="patch_1">
   <path d="M 0 288 
L 432 288 
L 432 0 
L 0 0 
z
" style="fill:none;"/>
  </g>
  <g id="axes_1">
   <g id="patch_2">
    <path d="M 62.425 241.1 
L 358.061816 241.1 
L 358.061816 10.8 
L 62.425 10.8 
z
" style="fill:#ffffff;"/>
   </g>
   <g id="matplotlib.axis_1">
    <g id="xtick_1">
     <g id="line2d_1">
      <defs>
       <path d="M 0 0 
L 0 3.5 
" id="m3e09586037" style="stroke:#000000;stroke-width:0.8;"/>
      </defs>
      <g>
       <use style="stroke:#000000;stroke-width:0.8;" x="81.659233" xlink:href="#m3e09586037" y="241.1"/>
      </g>
     </g>
     <g id="text_1">
      <!-- 1.25 -->
      <g transform="translate(70.526421 255.698438)scale(0.1 -0.1)">
       <defs>
        <path d="M 794 531 
L 1825 531 
L 1825 4091 
L 703 3866 
L 703 4441 
L 1819 4666 
L 2450 4666 
L 2450 531 
L 3481 531 
L 3481 0 
L 794 0 
L 794 531 
z
" id="DejaVuSans-31" transform="scale(0.015625)"/>
        <path d="M 684 794 
L 1344 794 
L 1344 0 
L 684 0 
L 684 794 
z
" id="DejaVuSans-2e" transform="scale(0.015625)"/>
        <path d="M 1228 531 
L 3431 531 
L 3431 0 
L 469 0 
L 469 531 
Q 828 903 1448 1529 
Q 2069 2156 2228 2338 
Q 2531 2678 2651 2914 
Q 2772 3150 2772 3378 
Q 2772 3750 2511 3984 
Q 2250 4219 1831 4219 
Q 1534 4219 1204 4116 
Q 875 4013 500 3803 
L 500 4441 
Q 881 4594 1212 4672 
Q 1544 4750 1819 4750 
Q 2544 4750 2975 4387 
Q 3406 4025 3406 3419 
Q 3406 3131 3298 2873 
Q 3191 2616 2906 2266 
Q 2828 2175 2409 1742 
Q 1991 1309 1228 531 
z
" id="DejaVuSans-32" transform="scale(0.015625)"/>
        <path d="M 691 4666 
L 3169 4666 
L 3169 4134 
L 1269 4134 
L 1269 2991 
Q 1406 3038 1543 3061 
Q 1681 3084 1819 3084 
Q 2600 3084 3056 2656 
Q 3513 2228 3513 1497 
Q 3513 744 3044 326 
Q 2575 -91 1722 -91 
Q 1428 -91 1123 -41 
Q 819 9 494 109 
L 494 744 
Q 775 591 1075 516 
Q 1375 441 1709 441 
Q 2250 441 2565 725 
Q 2881 1009 2881 1497 
Q 2881 1984 2565 2268 
Q 2250 2553 1709 2553 
Q 1456 2553 1204 2497 
Q 953 2441 691 2322 
L 691 4666 
z
" id="DejaVuSans-35" transform="scale(0.015625)"/>
       </defs>
       <use xlink:href="#DejaVuSans-31"/>
       <use x="63.623047" xlink:href="#DejaVuSans-2e"/>
       <use x="95.410156" xlink:href="#DejaVuSans-32"/>
       <use x="159.033203" xlink:href="#DejaVuSans-35"/>
      </g>
     </g>
    </g>
    <g id="xtick_2">
     <g id="line2d_2">
      <g>
       <use style="stroke:#000000;stroke-width:0.8;" x="144.482274" xlink:href="#m3e09586037" y="241.1"/>
      </g>
     </g>
     <g id="text_2">
      <!-- 2.0 -->
      <g transform="translate(136.530711 255.698438)scale(0.1 -0.1)">
       <defs>
        <path d="M 2034 4250 
Q 1547 4250 1301 3770 
Q 1056 3291 1056 2328 
Q 1056 1369 1301 889 
Q 1547 409 2034 409 
Q 2525 409 2770 889 
Q 3016 1369 3016 2328 
Q 3016 3291 2770 3770 
Q 2525 4250 2034 4250 
z
M 2034 4750 
Q 2819 4750 3233 4129 
Q 3647 3509 3647 2328 
Q 3647 1150 3233 529 
Q 2819 -91 2034 -91 
Q 1250 -91 836 529 
Q 422 1150 422 2328 
Q 422 3509 836 4129 
Q 1250 4750 2034 4750 
z
" id="DejaVuSans-30" transform="scale(0.015625)"/>
       </defs>
       <use xlink:href="#DejaVuSans-32"/>
       <use x="63.623047" xlink:href="#DejaVuSans-2e"/>
       <use x="95.410156" xlink:href="#DejaVuSans-30"/>
      </g>
     </g>
    </g>
    <g id="xtick_3">
     <g id="line2d_3">
      <g>
       <use style="stroke:#000000;stroke-width:0.8;" x="207.305314" xlink:href="#m3e09586037" y="241.1"/>
      </g>
     </g>
     <g id="text_3">
      <!-- 3.0 -->
      <g transform="translate(199.353751 255.698438)scale(0.1 -0.1)">
       <defs>
        <path d="M 2597 2516 
Q 3050 2419 3304 2112 
Q 3559 1806 3559 1356 
Q 3559 666 3084 287 
Q 2609 -91 1734 -91 
Q 1441 -91 1130 -33 
Q 819 25 488 141 
L 488 750 
Q 750 597 1062 519 
Q 1375 441 1716 441 
Q 2309 441 2620 675 
Q 2931 909 2931 1356 
Q 2931 1769 2642 2001 
Q 2353 2234 1838 2234 
L 1294 2234 
L 1294 2753 
L 1863 2753 
Q 2328 2753 2575 2939 
Q 2822 3125 2822 3475 
Q 2822 3834 2567 4026 
Q 2313 4219 1838 4219 
Q 1578 4219 1281 4162 
Q 984 4106 628 3988 
L 628 4550 
Q 988 4650 1302 4700 
Q 1616 4750 1894 4750 
Q 2613 4750 3031 4423 
Q 3450 4097 3450 3541 
Q 3450 3153 3228 2886 
Q 3006 2619 2597 2516 
z
" id="DejaVuSans-33" transform="scale(0.015625)"/>
       </defs>
       <use xlink:href="#DejaVuSans-33"/>
       <use x="63.623047" xlink:href="#DejaVuSans-2e"/>
       <use x="95.410156" xlink:href="#DejaVuSans-30"/>
      </g>
     </g>
    </g>
    <g id="xtick_4">
     <g id="line2d_4">
      <g>
       <use style="stroke:#000000;stroke-width:0.8;" x="270.128354" xlink:href="#m3e09586037" y="241.1"/>
      </g>
     </g>
     <g id="text_4">
      <!-- 4.0 -->
      <g transform="translate(262.176792 255.698438)scale(0.1 -0.1)">
       <defs>
        <path d="M 2419 4116 
L 825 1625 
L 2419 1625 
L 2419 4116 
z
M 2253 4666 
L 3047 4666 
L 3047 1625 
L 3713 1625 
L 3713 1100 
L 3047 1100 
L 3047 0 
L 2419 0 
L 2419 1100 
L 313 1100 
L 313 1709 
L 2253 4666 
z
" id="DejaVuSans-34" transform="scale(0.015625)"/>
       </defs>
       <use xlink:href="#DejaVuSans-34"/>
       <use x="63.623047" xlink:href="#DejaVuSans-2e"/>
       <use x="95.410156" xlink:href="#DejaVuSans-30"/>
      </g>
     </g>
    </g>
    <g id="xtick_5">
     <g id="line2d_5">
      <g>
       <use style="stroke:#000000;stroke-width:0.8;" x="332.951394" xlink:href="#m3e09586037" y="241.1"/>
      </g>
     </g>
     <g id="text_5">
      <!-- 5.0 -->
      <g transform="translate(324.999832 255.698438)scale(0.1 -0.1)">
       <use xlink:href="#DejaVuSans-35"/>
       <use x="63.623047" xlink:href="#DejaVuSans-2e"/>
       <use x="95.410156" xlink:href="#DejaVuSans-30"/>
      </g>
     </g>
    </g>
    <g id="text_6">
     <!-- Parameter $r_{V,V}$ H5N1:H1N1 ratio -->
     <g transform="translate(129.793408 269.378125)scale(0.1 -0.1)">
      <defs>
       <path d="M 1259 4147 
L 1259 2394 
L 2053 2394 
Q 2494 2394 2734 2622 
Q 2975 2850 2975 3272 
Q 2975 3691 2734 3919 
Q 2494 4147 2053 4147 
L 1259 4147 
z
M 628 4666 
L 2053 4666 
Q 2838 4666 3239 4311 
Q 3641 3956 3641 3272 
Q 3641 2581 3239 2228 
Q 2838 1875 2053 1875 
L 1259 1875 
L 1259 0 
L 628 0 
L 628 4666 
z
" id="DejaVuSans-50" transform="scale(0.015625)"/>
       <path d="M 2194 1759 
Q 1497 1759 1228 1600 
Q 959 1441 959 1056 
Q 959 750 1161 570 
Q 1363 391 1709 391 
Q 2188 391 2477 730 
Q 2766 1069 2766 1631 
L 2766 1759 
L 2194 1759 
z
M 3341 1997 
L 3341 0 
L 2766 0 
L 2766 531 
Q 2569 213 2275 61 
Q 1981 -91 1556 -91 
Q 1019 -91 701 211 
Q 384 513 384 1019 
Q 384 1609 779 1909 
Q 1175 2209 1959 2209 
L 2766 2209 
L 2766 2266 
Q 2766 2663 2505 2880 
Q 2244 3097 1772 3097 
Q 1472 3097 1187 3025 
Q 903 2953 641 2809 
L 641 3341 
Q 956 3463 1253 3523 
Q 1550 3584 1831 3584 
Q 2591 3584 2966 3190 
Q 3341 2797 3341 1997 
z
" id="DejaVuSans-61" transform="scale(0.015625)"/>
       <path d="M 2631 2963 
Q 2534 3019 2420 3045 
Q 2306 3072 2169 3072 
Q 1681 3072 1420 2755 
Q 1159 2438 1159 1844 
L 1159 0 
L 581 0 
L 581 3500 
L 1159 3500 
L 1159 2956 
Q 1341 3275 1631 3429 
Q 1922 3584 2338 3584 
Q 2397 3584 2469 3576 
Q 2541 3569 2628 3553 
L 2631 2963 
z
" id="DejaVuSans-72" transform="scale(0.015625)"/>
       <path d="M 3328 2828 
Q 3544 3216 3844 3400 
Q 4144 3584 4550 3584 
Q 5097 3584 5394 3201 
Q 5691 2819 5691 2113 
L 5691 0 
L 5113 0 
L 5113 2094 
Q 5113 2597 4934 2840 
Q 4756 3084 4391 3084 
Q 3944 3084 3684 2787 
Q 3425 2491 3425 1978 
L 3425 0 
L 2847 0 
L 2847 2094 
Q 2847 2600 2669 2842 
Q 2491 3084 2119 3084 
Q 1678 3084 1418 2786 
Q 1159 2488 1159 1978 
L 1159 0 
L 581 0 
L 581 3500 
L 1159 3500 
L 1159 2956 
Q 1356 3278 1631 3431 
Q 1906 3584 2284 3584 
Q 2666 3584 2933 3390 
Q 3200 3197 3328 2828 
z
" id="DejaVuSans-6d" transform="scale(0.015625)"/>
       <path d="M 3597 1894 
L 3597 1613 
L 953 1613 
Q 991 1019 1311 708 
Q 1631 397 2203 397 
Q 2534 397 2845 478 
Q 3156 559 3463 722 
L 3463 178 
Q 3153 47 2828 -22 
Q 2503 -91 2169 -91 
Q 1331 -91 842 396 
Q 353 884 353 1716 
Q 353 2575 817 3079 
Q 1281 3584 2069 3584 
Q 2775 3584 3186 3129 
Q 3597 2675 3597 1894 
z
M 3022 2063 
Q 3016 2534 2758 2815 
Q 2500 3097 2075 3097 
Q 1594 3097 1305 2825 
Q 1016 2553 972 2059 
L 3022 2063 
z
" id="DejaVuSans-65" transform="scale(0.015625)"/>
       <path d="M 1172 4494 
L 1172 3500 
L 2356 3500 
L 2356 3053 
L 1172 3053 
L 1172 1153 
Q 1172 725 1289 603 
Q 1406 481 1766 481 
L 2356 481 
L 2356 0 
L 1766 0 
Q 1100 0 847 248 
Q 594 497 594 1153 
L 594 3053 
L 172 3053 
L 172 3500 
L 594 3500 
L 594 4494 
L 1172 4494 
z
" id="DejaVuSans-74" transform="scale(0.015625)"/>
       <path id="DejaVuSans-20" transform="scale(0.015625)"/>
       <path d="M 2853 2969 
Q 2766 3016 2653 3041 
Q 2541 3066 2413 3066 
Q 1953 3066 1609 2717 
Q 1266 2369 1153 1784 
L 800 0 
L 225 0 
L 909 3500 
L 1484 3500 
L 1375 2956 
Q 1603 3259 1920 3421 
Q 2238 3584 2597 3584 
Q 2691 3584 2781 3573 
Q 2872 3563 2963 3538 
L 2853 2969 
z
" id="DejaVuSans-Oblique-72" transform="scale(0.015625)"/>
       <path d="M 1319 0 
L 500 4666 
L 1119 4666 
L 1797 653 
L 4063 4666 
L 4750 4666 
L 2053 0 
L 1319 0 
z
" id="DejaVuSans-Oblique-56" transform="scale(0.015625)"/>
       <path d="M 750 794 
L 1409 794 
L 1409 256 
L 897 -744 
L 494 -744 
L 750 256 
L 750 794 
z
" id="DejaVuSans-2c" transform="scale(0.015625)"/>
       <path d="M 628 4666 
L 1259 4666 
L 1259 2753 
L 3553 2753 
L 3553 4666 
L 4184 4666 
L 4184 0 
L 3553 0 
L 3553 2222 
L 1259 2222 
L 1259 0 
L 628 0 
L 628 4666 
z
" id="DejaVuSans-48" transform="scale(0.015625)"/>
       <path d="M 628 4666 
L 1478 4666 
L 3547 763 
L 3547 4666 
L 4159 4666 
L 4159 0 
L 3309 0 
L 1241 3903 
L 1241 0 
L 628 0 
L 628 4666 
z
" id="DejaVuSans-4e" transform="scale(0.015625)"/>
       <path d="M 750 794 
L 1409 794 
L 1409 0 
L 750 0 
L 750 794 
z
M 750 3309 
L 1409 3309 
L 1409 2516 
L 750 2516 
L 750 3309 
z
" id="DejaVuSans-3a" transform="scale(0.015625)"/>
       <path d="M 603 3500 
L 1178 3500 
L 1178 0 
L 603 0 
L 603 3500 
z
M 603 4863 
L 1178 4863 
L 1178 4134 
L 603 4134 
L 603 4863 
z
" id="DejaVuSans-69" transform="scale(0.015625)"/>
       <path d="M 1959 3097 
Q 1497 3097 1228 2736 
Q 959 2375 959 1747 
Q 959 1119 1226 758 
Q 1494 397 1959 397 
Q 2419 397 2687 759 
Q 2956 1122 2956 1747 
Q 2956 2369 2687 2733 
Q 2419 3097 1959 3097 
z
M 1959 3584 
Q 2709 3584 3137 3096 
Q 3566 2609 3566 1747 
Q 3566 888 3137 398 
Q 2709 -91 1959 -91 
Q 1206 -91 779 398 
Q 353 888 353 1747 
Q 353 2609 779 3096 
Q 1206 3584 1959 3584 
z
" id="DejaVuSans-6f" transform="scale(0.015625)"/>
      </defs>
      <use transform="translate(0 0.015625)" xlink:href="#DejaVuSans-50"/>
      <use transform="translate(60.302734 0.015625)" xlink:href="#DejaVuSans-61"/>
      <use transform="translate(121.582031 0.015625)" xlink:href="#DejaVuSans-72"/>
      <use transform="translate(162.695312 0.015625)" xlink:href="#DejaVuSans-61"/>
      <use transform="translate(223.974609 0.015625)" xlink:href="#DejaVuSans-6d"/>
      <use transform="translate(321.386719 0.015625)" xlink:href="#DejaVuSans-65"/>
      <use transform="translate(382.910156 0.015625)" xlink:href="#DejaVuSans-74"/>
      <use transform="translate(422.119141 0.015625)" xlink:href="#DejaVuSans-65"/>
      <use transform="translate(483.642578 0.015625)" xlink:href="#DejaVuSans-72"/>
      <use transform="translate(524.755859 0.015625)" xlink:href="#DejaVuSans-20"/>
      <use transform="translate(556.542969 0.015625)" xlink:href="#DejaVuSans-Oblique-72"/>
      <use transform="translate(597.65625 -16.390625)scale(0.7)" xlink:href="#DejaVuSans-Oblique-56"/>
      <use transform="translate(645.541992 -16.390625)scale(0.7)" xlink:href="#DejaVuSans-2c"/>
      <use transform="translate(681.430664 -16.390625)scale(0.7)" xlink:href="#DejaVuSans-Oblique-56"/>
      <use transform="translate(732.050781 0.015625)" xlink:href="#DejaVuSans-20"/>
      <use transform="translate(763.837891 0.015625)" xlink:href="#DejaVuSans-48"/>
      <use transform="translate(839.033203 0.015625)" xlink:href="#DejaVuSans-35"/>
      <use transform="translate(902.65625 0.015625)" xlink:href="#DejaVuSans-4e"/>
      <use transform="translate(977.460938 0.015625)" xlink:href="#DejaVuSans-31"/>
      <use transform="translate(1041.083984 0.015625)" xlink:href="#DejaVuSans-3a"/>
      <use transform="translate(1068.900391 0.015625)" xlink:href="#DejaVuSans-48"/>
      <use transform="translate(1144.095703 0.015625)" xlink:href="#DejaVuSans-31"/>
      <use transform="translate(1207.71875 0.015625)" xlink:href="#DejaVuSans-4e"/>
      <use transform="translate(1282.523438 0.015625)" xlink:href="#DejaVuSans-31"/>
      <use transform="translate(1346.146484 0.015625)" xlink:href="#DejaVuSans-20"/>
      <use transform="translate(1377.933594 0.015625)" xlink:href="#DejaVuSans-72"/>
      <use transform="translate(1419.046875 0.015625)" xlink:href="#DejaVuSans-61"/>
      <use transform="translate(1480.326172 0.015625)" xlink:href="#DejaVuSans-74"/>
      <use transform="translate(1519.535156 0.015625)" xlink:href="#DejaVuSans-69"/>
      <use transform="translate(1547.318359 0.015625)" xlink:href="#DejaVuSans-6f"/>
     </g>
    </g>
   </g>
   <g id="matplotlib.axis_2">
    <g id="ytick_1">
     <g id="line2d_6">
      <defs>
       <path d="M 0 0 
L -3.5 0 
" id="m1c2aecab4a" style="stroke:#000000;stroke-width:0.8;"/>
      </defs>
      <g>
       <use style="stroke:#000000;stroke-width:0.8;" x="62.425" xlink:href="#m1c2aecab4a" y="229.069447"/>
      </g>
     </g>
     <g id="text_7">
      <!-- −0.75 -->
      <g transform="translate(24.779688 232.868666)scale(0.1 -0.1)">
       <defs>
        <path d="M 678 2272 
L 4684 2272 
L 4684 1741 
L 678 1741 
L 678 2272 
z
" id="DejaVuSans-2212" transform="scale(0.015625)"/>
        <path d="M 525 4666 
L 3525 4666 
L 3525 4397 
L 1831 0 
L 1172 0 
L 2766 4134 
L 525 4134 
L 525 4666 
z
" id="DejaVuSans-37" transform="scale(0.015625)"/>
       </defs>
       <use xlink:href="#DejaVuSans-2212"/>
       <use x="83.789062" xlink:href="#DejaVuSans-30"/>
       <use x="147.412109" xlink:href="#DejaVuSans-2e"/>
       <use x="179.199219" xlink:href="#DejaVuSans-37"/>
       <use x="242.822266" xlink:href="#DejaVuSans-35"/>
      </g>
     </g>
    </g>
    <g id="ytick_2">
     <g id="line2d_7">
      <g>
       <use style="stroke:#000000;stroke-width:0.8;" x="62.425" xlink:href="#m1c2aecab4a" y="202.974342"/>
      </g>
     </g>
     <g id="text_8">
      <!-- −0.50 -->
      <g transform="translate(24.779688 206.773561)scale(0.1 -0.1)">
       <use xlink:href="#DejaVuSans-2212"/>
       <use x="83.789062" xlink:href="#DejaVuSans-30"/>
       <use x="147.412109" xlink:href="#DejaVuSans-2e"/>
       <use x="179.199219" xlink:href="#DejaVuSans-35"/>
       <use x="242.822266" xlink:href="#DejaVuSans-30"/>
      </g>
     </g>
    </g>
    <g id="ytick_3">
     <g id="line2d_8">
      <g>
       <use style="stroke:#000000;stroke-width:0.8;" x="62.425" xlink:href="#m1c2aecab4a" y="176.879237"/>
      </g>
     </g>
     <g id="text_9">
      <!-- −0.25 -->
      <g transform="translate(24.779688 180.678455)scale(0.1 -0.1)">
       <use xlink:href="#DejaVuSans-2212"/>
       <use x="83.789062" xlink:href="#DejaVuSans-30"/>
       <use x="147.412109" xlink:href="#DejaVuSans-2e"/>
       <use x="179.199219" xlink:href="#DejaVuSans-32"/>
       <use x="242.822266" xlink:href="#DejaVuSans-35"/>
      </g>
     </g>
    </g>
    <g id="ytick_4">
     <g id="line2d_9">
      <g>
       <use style="stroke:#000000;stroke-width:0.8;" x="62.425" xlink:href="#m1c2aecab4a" y="150.784131"/>
      </g>
     </g>
     <g id="text_10">
      <!-- 0.00 -->
      <g transform="translate(33.159375 154.58335)scale(0.1 -0.1)">
       <use xlink:href="#DejaVuSans-30"/>
       <use x="63.623047" xlink:href="#DejaVuSans-2e"/>
       <use x="95.410156" xlink:href="#DejaVuSans-30"/>
       <use x="159.033203" xlink:href="#DejaVuSans-30"/>
      </g>
     </g>
    </g>
    <g id="ytick_5">
     <g id="line2d_10">
      <g>
       <use style="stroke:#000000;stroke-width:0.8;" x="62.425" xlink:href="#m1c2aecab4a" y="124.689026"/>
      </g>
     </g>
     <g id="text_11">
      <!-- 0.25 -->
      <g transform="translate(33.159375 128.488244)scale(0.1 -0.1)">
       <use xlink:href="#DejaVuSans-30"/>
       <use x="63.623047" xlink:href="#DejaVuSans-2e"/>
       <use x="95.410156" xlink:href="#DejaVuSans-32"/>
       <use x="159.033203" xlink:href="#DejaVuSans-35"/>
      </g>
     </g>
    </g>
    <g id="ytick_6">
     <g id="line2d_11">
      <g>
       <use style="stroke:#000000;stroke-width:0.8;" x="62.425" xlink:href="#m1c2aecab4a" y="98.59392"/>
      </g>
     </g>
     <g id="text_12">
      <!-- 0.50 -->
      <g transform="translate(33.159375 102.393139)scale(0.1 -0.1)">
       <use xlink:href="#DejaVuSans-30"/>
       <use x="63.623047" xlink:href="#DejaVuSans-2e"/>
       <use x="95.410156" xlink:href="#DejaVuSans-35"/>
       <use x="159.033203" xlink:href="#DejaVuSans-30"/>
      </g>
     </g>
    </g>
    <g id="ytick_7">
     <g id="line2d_12">
      <g>
       <use style="stroke:#000000;stroke-width:0.8;" x="62.425" xlink:href="#m1c2aecab4a" y="72.498815"/>
      </g>
     </g>
     <g id="text_13">
      <!-- 0.75 -->
      <g transform="translate(33.159375 76.298034)scale(0.1 -0.1)">
       <use xlink:href="#DejaVuSans-30"/>
       <use x="63.623047" xlink:href="#DejaVuSans-2e"/>
       <use x="95.410156" xlink:href="#DejaVuSans-37"/>
       <use x="159.033203" xlink:href="#DejaVuSans-35"/>
      </g>
     </g>
    </g>
    <g id="ytick_8">
     <g id="line2d_13">
      <g>
       <use style="stroke:#000000;stroke-width:0.8;" x="62.425" xlink:href="#m1c2aecab4a" y="46.40371"/>
      </g>
     </g>
     <g id="text_14">
      <!-- 1.00 -->
      <g transform="translate(33.159375 50.202928)scale(0.1 -0.1)">
       <use xlink:href="#DejaVuSans-31"/>
       <use x="63.623047" xlink:href="#DejaVuSans-2e"/>
       <use x="95.410156" xlink:href="#DejaVuSans-30"/>
       <use x="159.033203" xlink:href="#DejaVuSans-30"/>
      </g>
     </g>
    </g>
    <g id="ytick_9">
     <g id="line2d_14">
      <g>
       <use style="stroke:#000000;stroke-width:0.8;" x="62.425" xlink:href="#m1c2aecab4a" y="20.308604"/>
      </g>
     </g>
     <g id="text_15">
      <!-- 1.25 -->
      <g transform="translate(33.159375 24.107823)scale(0.1 -0.1)">
       <use xlink:href="#DejaVuSans-31"/>
       <use x="63.623047" xlink:href="#DejaVuSans-2e"/>
       <use x="95.410156" xlink:href="#DejaVuSans-32"/>
       <use x="159.033203" xlink:href="#DejaVuSans-35"/>
      </g>
     </g>
    </g>
    <g id="text_16">
     <!-- SPOT Value -->
     <g transform="translate(18.7 154.449219)rotate(-90)scale(0.1 -0.1)">
      <defs>
       <path d="M 3425 4513 
L 3425 3897 
Q 3066 4069 2747 4153 
Q 2428 4238 2131 4238 
Q 1616 4238 1336 4038 
Q 1056 3838 1056 3469 
Q 1056 3159 1242 3001 
Q 1428 2844 1947 2747 
L 2328 2669 
Q 3034 2534 3370 2195 
Q 3706 1856 3706 1288 
Q 3706 609 3251 259 
Q 2797 -91 1919 -91 
Q 1588 -91 1214 -16 
Q 841 59 441 206 
L 441 856 
Q 825 641 1194 531 
Q 1563 422 1919 422 
Q 2459 422 2753 634 
Q 3047 847 3047 1241 
Q 3047 1584 2836 1778 
Q 2625 1972 2144 2069 
L 1759 2144 
Q 1053 2284 737 2584 
Q 422 2884 422 3419 
Q 422 4038 858 4394 
Q 1294 4750 2059 4750 
Q 2388 4750 2728 4690 
Q 3069 4631 3425 4513 
z
" id="DejaVuSans-53" transform="scale(0.015625)"/>
       <path d="M 2522 4238 
Q 1834 4238 1429 3725 
Q 1025 3213 1025 2328 
Q 1025 1447 1429 934 
Q 1834 422 2522 422 
Q 3209 422 3611 934 
Q 4013 1447 4013 2328 
Q 4013 3213 3611 3725 
Q 3209 4238 2522 4238 
z
M 2522 4750 
Q 3503 4750 4090 4092 
Q 4678 3434 4678 2328 
Q 4678 1225 4090 567 
Q 3503 -91 2522 -91 
Q 1538 -91 948 565 
Q 359 1222 359 2328 
Q 359 3434 948 4092 
Q 1538 4750 2522 4750 
z
" id="DejaVuSans-4f" transform="scale(0.015625)"/>
       <path d="M -19 4666 
L 3928 4666 
L 3928 4134 
L 2272 4134 
L 2272 0 
L 1638 0 
L 1638 4134 
L -19 4134 
L -19 4666 
z
" id="DejaVuSans-54" transform="scale(0.015625)"/>
       <path d="M 1831 0 
L 50 4666 
L 709 4666 
L 2188 738 
L 3669 4666 
L 4325 4666 
L 2547 0 
L 1831 0 
z
" id="DejaVuSans-56" transform="scale(0.015625)"/>
       <path d="M 603 4863 
L 1178 4863 
L 1178 0 
L 603 0 
L 603 4863 
z
" id="DejaVuSans-6c" transform="scale(0.015625)"/>
       <path d="M 544 1381 
L 544 3500 
L 1119 3500 
L 1119 1403 
Q 1119 906 1312 657 
Q 1506 409 1894 409 
Q 2359 409 2629 706 
Q 2900 1003 2900 1516 
L 2900 3500 
L 3475 3500 
L 3475 0 
L 2900 0 
L 2900 538 
Q 2691 219 2414 64 
Q 2138 -91 1772 -91 
Q 1169 -91 856 284 
Q 544 659 544 1381 
z
M 1991 3584 
L 1991 3584 
z
" id="DejaVuSans-75" transform="scale(0.015625)"/>
      </defs>
      <use xlink:href="#DejaVuSans-53"/>
      <use x="63.476562" xlink:href="#DejaVuSans-50"/>
      <use x="123.779297" xlink:href="#DejaVuSans-4f"/>
      <use x="202.490234" xlink:href="#DejaVuSans-54"/>
      <use x="263.574219" xlink:href="#DejaVuSans-20"/>
      <use x="295.361328" xlink:href="#DejaVuSans-56"/>
      <use x="356.019531" xlink:href="#DejaVuSans-61"/>
      <use x="417.298828" xlink:href="#DejaVuSans-6c"/>
      <use x="445.082031" xlink:href="#DejaVuSans-75"/>
      <use x="508.460938" xlink:href="#DejaVuSans-65"/>
     </g>
    </g>
   </g>
   <g id="LineCollection_1">
    <path clip-path="url(#pfd92a72f4d)" d="M 81.268589 127.522061 
L 81.268589 104.64614 
" style="fill:none;stroke:#1f77b4;stroke-width:1.5;"/>
    <path clip-path="url(#pfd92a72f4d)" d="M 144.091629 161.279843 
L 144.091629 133.431857 
" style="fill:none;stroke:#1f77b4;stroke-width:1.5;"/>
    <path clip-path="url(#pfd92a72f4d)" d="M 206.914669 198.053366 
L 206.914669 163.122161 
" style="fill:none;stroke:#1f77b4;stroke-width:1.5;"/>
    <path clip-path="url(#pfd92a72f4d)" d="M 269.73771 219.087641 
L 269.73771 180.192767 
" style="fill:none;stroke:#1f77b4;stroke-width:1.5;"/>
    <path clip-path="url(#pfd92a72f4d)" d="M 332.56075 230.631818 
L 332.56075 189.635967 
" style="fill:none;stroke:#1f77b4;stroke-width:1.5;"/>
   </g>
   <g id="LineCollection_2">
    <path clip-path="url(#pfd92a72f4d)" d="M 78.79394 129.578954 
L 78.79394 106.703033 
" style="fill:none;stroke:#ff7f0e;stroke-width:1.5;"/>
    <path clip-path="url(#pfd92a72f4d)" d="M 141.61698 158.830817 
L 141.61698 130.982832 
" style="fill:none;stroke:#ff7f0e;stroke-width:1.5;"/>
    <path clip-path="url(#pfd92a72f4d)" d="M 204.44002 191.901377 
L 204.44002 156.970172 
" style="fill:none;stroke:#ff7f0e;stroke-width:1.5;"/>
    <path clip-path="url(#pfd92a72f4d)" d="M 267.263061 211.071213 
L 267.263061 172.176339 
" style="fill:none;stroke:#ff7f0e;stroke-width:1.5;"/>
    <path clip-path="url(#pfd92a72f4d)" d="M 330.086101 221.091181 
L 330.086101 180.095329 
" style="fill:none;stroke:#ff7f0e;stroke-width:1.5;"/>
   </g>
   <g id="LineCollection_3">
    <path clip-path="url(#pfd92a72f4d)" d="M 93.331618 87.169511 
L 93.331618 64.29359 
" style="fill:none;stroke:#2ca02c;stroke-width:1.5;"/>
    <path clip-path="url(#pfd92a72f4d)" d="M 156.154659 81.268411 
L 156.154659 53.420426 
" style="fill:none;stroke:#2ca02c;stroke-width:1.5;"/>
    <path clip-path="url(#pfd92a72f4d)" d="M 218.977699 84.099599 
L 218.977699 49.168394 
" style="fill:none;stroke:#2ca02c;stroke-width:1.5;"/>
    <path clip-path="url(#pfd92a72f4d)" d="M 281.800739 86.570298 
L 281.800739 47.675424 
" style="fill:none;stroke:#2ca02c;stroke-width:1.5;"/>
    <path clip-path="url(#pfd92a72f4d)" d="M 344.623779 88.14537 
L 344.623779 47.149518 
" style="fill:none;stroke:#2ca02c;stroke-width:1.5;"/>
   </g>
   <g id="LineCollection_4">
    <path clip-path="url(#pfd92a72f4d)" d="M 75.863037 129.014891 
L 75.863037 106.13897 
" style="fill:none;stroke:#d62728;stroke-width:1.5;"/>
    <path clip-path="url(#pfd92a72f4d)" d="M 138.686077 162.395774 
L 138.686077 134.547789 
" style="fill:none;stroke:#d62728;stroke-width:1.5;"/>
    <path clip-path="url(#pfd92a72f4d)" d="M 201.509118 198.339886 
L 201.509118 163.408681 
" style="fill:none;stroke:#d62728;stroke-width:1.5;"/>
    <path clip-path="url(#pfd92a72f4d)" d="M 264.332158 217.044674 
L 264.332158 178.1498 
" style="fill:none;stroke:#d62728;stroke-width:1.5;"/>
    <path clip-path="url(#pfd92a72f4d)" d="M 327.155198 225.979946 
L 327.155198 184.984094 
" style="fill:none;stroke:#d62728;stroke-width:1.5;"/>
   </g>
   <g id="LineCollection_5">
    <path clip-path="url(#pfd92a72f4d)" d="M 86.090776 69.308345 
L 86.090776 46.432424 
" style="fill:none;stroke:#9467bd;stroke-width:1.5;"/>
    <path clip-path="url(#pfd92a72f4d)" d="M 148.913816 61.789925 
L 148.913816 33.94194 
" style="fill:none;stroke:#9467bd;stroke-width:1.5;"/>
    <path clip-path="url(#pfd92a72f4d)" d="M 211.736857 64.162815 
L 211.736857 29.234861 
" style="fill:none;stroke:#9467bd;stroke-width:1.5;"/>
    <path clip-path="url(#pfd92a72f4d)" d="M 274.559897 65.232762 
L 274.559897 26.341509 
" style="fill:none;stroke:#9467bd;stroke-width:1.5;"/>
    <path clip-path="url(#pfd92a72f4d)" d="M 337.382937 65.789835 
L 337.382937 24.797801 
" style="fill:none;stroke:#9467bd;stroke-width:1.5;"/>
   </g>
   <g id="LineCollection_6">
    <path clip-path="url(#pfd92a72f4d)" d="M 81.645364 66.123421 
L 81.645364 43.2475 
" style="fill:none;stroke:#8c564b;stroke-width:1.5;"/>
    <path clip-path="url(#pfd92a72f4d)" d="M 144.468404 58.18199 
L 144.468404 30.334005 
" style="fill:none;stroke:#8c564b;stroke-width:1.5;"/>
    <path clip-path="url(#pfd92a72f4d)" d="M 207.291444 60.544677 
L 207.291444 25.616723 
" style="fill:none;stroke:#8c564b;stroke-width:1.5;"/>
    <path clip-path="url(#pfd92a72f4d)" d="M 270.114484 61.66803 
L 270.114484 22.776777 
" style="fill:none;stroke:#8c564b;stroke-width:1.5;"/>
    <path clip-path="url(#pfd92a72f4d)" d="M 332.937525 62.260217 
L 332.937525 21.268182 
" style="fill:none;stroke:#8c564b;stroke-width:1.5;"/>
   </g>
   <g id="LineCollection_7">
    <path clip-path="url(#pfd92a72f4d)" d="M 84.406377 61.626654 
L 84.406377 38.752097 
" style="fill:none;stroke:#e377c2;stroke-width:1.5;"/>
    <path clip-path="url(#pfd92a72f4d)" d="M 147.229417 64.811155 
L 147.229417 36.973195 
" style="fill:none;stroke:#e377c2;stroke-width:1.5;"/>
    <path clip-path="url(#pfd92a72f4d)" d="M 210.052457 69.358019 
L 210.052457 34.440433 
" style="fill:none;stroke:#e377c2;stroke-width:1.5;"/>
    <path clip-path="url(#pfd92a72f4d)" d="M 272.875497 71.583807 
L 272.875497 32.704097 
" style="fill:none;stroke:#e377c2;stroke-width:1.5;"/>
    <path clip-path="url(#pfd92a72f4d)" d="M 335.698538 72.758359 
L 335.698538 31.778491 
" style="fill:none;stroke:#e377c2;stroke-width:1.5;"/>
   </g>
   <g id="LineCollection_8">
    <path clip-path="url(#pfd92a72f4d)" d="M 84.698641 61.648748 
L 84.698641 38.774191 
" style="fill:none;stroke:#7f7f7f;stroke-width:1.5;"/>
    <path clip-path="url(#pfd92a72f4d)" d="M 147.521681 64.829522 
L 147.521681 36.991563 
" style="fill:none;stroke:#7f7f7f;stroke-width:1.5;"/>
    <path clip-path="url(#pfd92a72f4d)" d="M 210.344721 69.381944 
L 210.344721 34.464358 
" style="fill:none;stroke:#7f7f7f;stroke-width:1.5;"/>
    <path clip-path="url(#pfd92a72f4d)" d="M 273.167762 71.60786 
L 273.167762 32.72815 
" style="fill:none;stroke:#7f7f7f;stroke-width:1.5;"/>
    <path clip-path="url(#pfd92a72f4d)" d="M 335.990802 72.783521 
L 335.990802 31.803653 
" style="fill:none;stroke:#7f7f7f;stroke-width:1.5;"/>
   </g>
   <g id="LineCollection_9">
    <path clip-path="url(#pfd92a72f4d)" d="M 89.114495 61.648838 
L 89.114495 38.77428 
" style="fill:none;stroke:#bcbd22;stroke-width:1.5;"/>
    <path clip-path="url(#pfd92a72f4d)" d="M 151.937535 64.837883 
L 151.937535 36.999924 
" style="fill:none;stroke:#bcbd22;stroke-width:1.5;"/>
    <path clip-path="url(#pfd92a72f4d)" d="M 214.760575 69.384239 
L 214.760575 34.466653 
" style="fill:none;stroke:#bcbd22;stroke-width:1.5;"/>
    <path clip-path="url(#pfd92a72f4d)" d="M 277.583616 71.617818 
L 277.583616 32.738108 
" style="fill:none;stroke:#bcbd22;stroke-width:1.5;"/>
    <path clip-path="url(#pfd92a72f4d)" d="M 340.406656 72.792053 
L 340.406656 31.812185 
" style="fill:none;stroke:#bcbd22;stroke-width:1.5;"/>
   </g>
   <g id="LineCollection_10">
    <path clip-path="url(#pfd92a72f4d)" d="M 83.511702 61.659546 
L 83.511702 38.784989 
" style="fill:none;stroke:#17becf;stroke-width:1.5;"/>
    <path clip-path="url(#pfd92a72f4d)" d="M 146.334742 64.842264 
L 146.334742 37.004305 
" style="fill:none;stroke:#17becf;stroke-width:1.5;"/>
    <path clip-path="url(#pfd92a72f4d)" d="M 209.157782 69.389159 
L 209.157782 34.471573 
" style="fill:none;stroke:#17becf;stroke-width:1.5;"/>
    <path clip-path="url(#pfd92a72f4d)" d="M 271.980822 71.618579 
L 271.980822 32.738869 
" style="fill:none;stroke:#17becf;stroke-width:1.5;"/>
    <path clip-path="url(#pfd92a72f4d)" d="M 334.803863 72.79188 
L 334.803863 31.812012 
" style="fill:none;stroke:#17becf;stroke-width:1.5;"/>
   </g>
   <g id="line2d_15">
    <defs>
     <path d="M 0 3 
C 0.795609 3 1.55874 2.683901 2.12132 2.12132 
C 2.683901 1.55874 3 0.795609 3 0 
C 3 -0.795609 2.683901 -1.55874 2.12132 -2.12132 
C 1.55874 -2.683901 0.795609 -3 0 -3 
C -0.795609 -3 -1.55874 -2.683901 -2.12132 -2.12132 
C -2.683901 -1.55874 -3 -0.795609 -3 0 
C -3 0.795609 -2.683901 1.55874 -2.12132 2.12132 
C -1.55874 2.683901 -0.795609 3 0 3 
z
" id="m02d413a53b" style="stroke:#1f77b4;"/>
    </defs>
    <g clip-path="url(#pfd92a72f4d)">
     <use style="fill:#1f77b4;stroke:#1f77b4;" x="81.268589" xlink:href="#m02d413a53b" y="116.084101"/>
     <use style="fill:#1f77b4;stroke:#1f77b4;" x="144.091629" xlink:href="#m02d413a53b" y="147.35585"/>
     <use style="fill:#1f77b4;stroke:#1f77b4;" x="206.914669" xlink:href="#m02d413a53b" y="180.587763"/>
     <use style="fill:#1f77b4;stroke:#1f77b4;" x="269.73771" xlink:href="#m02d413a53b" y="199.640204"/>
     <use style="fill:#1f77b4;stroke:#1f77b4;" x="332.56075" xlink:href="#m02d413a53b" y="210.133892"/>
    </g>
   </g>
   <g id="line2d_16">
    <defs>
     <path d="M 0 3 
C 0.795609 3 1.55874 2.683901 2.12132 2.12132 
C 2.683901 1.55874 3 0.795609 3 0 
C 3 -0.795609 2.683901 -1.55874 2.12132 -2.12132 
C 1.55874 -2.683901 0.795609 -3 0 -3 
C -0.795609 -3 -1.55874 -2.683901 -2.12132 -2.12132 
C -2.683901 -1.55874 -3 -0.795609 -3 0 
C -3 0.795609 -2.683901 1.55874 -2.12132 2.12132 
C -1.55874 2.683901 -0.795609 3 0 3 
z
" id="maa4ecc8d90" style="stroke:#ff7f0e;"/>
    </defs>
    <g clip-path="url(#pfd92a72f4d)">
     <use style="fill:#ff7f0e;stroke:#ff7f0e;" x="78.79394" xlink:href="#maa4ecc8d90" y="118.140993"/>
     <use style="fill:#ff7f0e;stroke:#ff7f0e;" x="141.61698" xlink:href="#maa4ecc8d90" y="144.906824"/>
     <use style="fill:#ff7f0e;stroke:#ff7f0e;" x="204.44002" xlink:href="#maa4ecc8d90" y="174.435775"/>
     <use style="fill:#ff7f0e;stroke:#ff7f0e;" x="267.263061" xlink:href="#maa4ecc8d90" y="191.623776"/>
     <use style="fill:#ff7f0e;stroke:#ff7f0e;" x="330.086101" xlink:href="#maa4ecc8d90" y="200.593255"/>
    </g>
   </g>
   <g id="line2d_17">
    <defs>
     <path d="M 0 3 
C 0.795609 3 1.55874 2.683901 2.12132 2.12132 
C 2.683901 1.55874 3 0.795609 3 0 
C 3 -0.795609 2.683901 -1.55874 2.12132 -2.12132 
C 1.55874 -2.683901 0.795609 -3 0 -3 
C -0.795609 -3 -1.55874 -2.683901 -2.12132 -2.12132 
C -2.683901 -1.55874 -3 -0.795609 -3 0 
C -3 0.795609 -2.683901 1.55874 -2.12132 2.12132 
C -1.55874 2.683901 -0.795609 3 0 3 
z
" id="m71aae77b63" style="stroke:#2ca02c;"/>
    </defs>
    <g clip-path="url(#pfd92a72f4d)">
     <use style="fill:#2ca02c;stroke:#2ca02c;" x="93.331618" xlink:href="#m71aae77b63" y="75.731551"/>
     <use style="fill:#2ca02c;stroke:#2ca02c;" x="156.154659" xlink:href="#m71aae77b63" y="67.344419"/>
     <use style="fill:#2ca02c;stroke:#2ca02c;" x="218.977699" xlink:href="#m71aae77b63" y="66.633997"/>
     <use style="fill:#2ca02c;stroke:#2ca02c;" x="281.800739" xlink:href="#m71aae77b63" y="67.122861"/>
     <use style="fill:#2ca02c;stroke:#2ca02c;" x="344.623779" xlink:href="#m71aae77b63" y="67.647444"/>
    </g>
   </g>
   <g id="line2d_18">
    <defs>
     <path d="M 0 3 
C 0.795609 3 1.55874 2.683901 2.12132 2.12132 
C 2.683901 1.55874 3 0.795609 3 0 
C 3 -0.795609 2.683901 -1.55874 2.12132 -2.12132 
C 1.55874 -2.683901 0.795609 -3 0 -3 
C -0.795609 -3 -1.55874 -2.683901 -2.12132 -2.12132 
C -2.683901 -1.55874 -3 -0.795609 -3 0 
C -3 0.795609 -2.683901 1.55874 -2.12132 2.12132 
C -1.55874 2.683901 -0.795609 3 0 3 
z
" id="m9f01f17bcd" style="stroke:#d62728;"/>
    </defs>
    <g clip-path="url(#pfd92a72f4d)">
     <use style="fill:#d62728;stroke:#d62728;" x="75.863037" xlink:href="#m9f01f17bcd" y="117.57693"/>
     <use style="fill:#d62728;stroke:#d62728;" x="138.686077" xlink:href="#m9f01f17bcd" y="148.471781"/>
     <use style="fill:#d62728;stroke:#d62728;" x="201.509118" xlink:href="#m9f01f17bcd" y="180.874284"/>
     <use style="fill:#d62728;stroke:#d62728;" x="264.332158" xlink:href="#m9f01f17bcd" y="197.597237"/>
     <use style="fill:#d62728;stroke:#d62728;" x="327.155198" xlink:href="#m9f01f17bcd" y="205.48202"/>
    </g>
   </g>
   <g id="line2d_19">
    <defs>
     <path d="M 0 3 
C 0.795609 3 1.55874 2.683901 2.12132 2.12132 
C 2.683901 1.55874 3 0.795609 3 0 
C 3 -0.795609 2.683901 -1.55874 2.12132 -2.12132 
C 1.55874 -2.683901 0.795609 -3 0 -3 
C -0.795609 -3 -1.55874 -2.683901 -2.12132 -2.12132 
C -2.683901 -1.55874 -3 -0.795609 -3 0 
C -3 0.795609 -2.683901 1.55874 -2.12132 2.12132 
C -1.55874 2.683901 -0.795609 3 0 3 
z
" id="m866f27f24a" style="stroke:#9467bd;"/>
    </defs>
    <g clip-path="url(#pfd92a72f4d)">
     <use style="fill:#9467bd;stroke:#9467bd;" x="86.090776" xlink:href="#m866f27f24a" y="57.870385"/>
     <use style="fill:#9467bd;stroke:#9467bd;" x="148.913816" xlink:href="#m866f27f24a" y="47.865933"/>
     <use style="fill:#9467bd;stroke:#9467bd;" x="211.736857" xlink:href="#m866f27f24a" y="46.698838"/>
     <use style="fill:#9467bd;stroke:#9467bd;" x="274.559897" xlink:href="#m866f27f24a" y="45.787135"/>
     <use style="fill:#9467bd;stroke:#9467bd;" x="337.382937" xlink:href="#m866f27f24a" y="45.293818"/>
    </g>
   </g>
   <g id="line2d_20">
    <defs>
     <path d="M 0 3 
C 0.795609 3 1.55874 2.683901 2.12132 2.12132 
C 2.683901 1.55874 3 0.795609 3 0 
C 3 -0.795609 2.683901 -1.55874 2.12132 -2.12132 
C 1.55874 -2.683901 0.795609 -3 0 -3 
C -0.795609 -3 -1.55874 -2.683901 -2.12132 -2.12132 
C -2.683901 -1.55874 -3 -0.795609 -3 0 
C -3 0.795609 -2.683901 1.55874 -2.12132 2.12132 
C -1.55874 2.683901 -0.795609 3 0 3 
z
" id="mc3a772ded1" style="stroke:#8c564b;"/>
    </defs>
    <g clip-path="url(#pfd92a72f4d)">
     <use style="fill:#8c564b;stroke:#8c564b;" x="81.645364" xlink:href="#mc3a772ded1" y="54.685461"/>
     <use style="fill:#8c564b;stroke:#8c564b;" x="144.468404" xlink:href="#mc3a772ded1" y="44.257997"/>
     <use style="fill:#8c564b;stroke:#8c564b;" x="207.291444" xlink:href="#mc3a772ded1" y="43.0807"/>
     <use style="fill:#8c564b;stroke:#8c564b;" x="270.114484" xlink:href="#mc3a772ded1" y="42.222403"/>
     <use style="fill:#8c564b;stroke:#8c564b;" x="332.937525" xlink:href="#mc3a772ded1" y="41.764199"/>
    </g>
   </g>
   <g id="line2d_21">
    <defs>
     <path d="M 0 3 
C 0.795609 3 1.55874 2.683901 2.12132 2.12132 
C 2.683901 1.55874 3 0.795609 3 0 
C 3 -0.795609 2.683901 -1.55874 2.12132 -2.12132 
C 1.55874 -2.683901 0.795609 -3 0 -3 
C -0.795609 -3 -1.55874 -2.683901 -2.12132 -2.12132 
C -2.683901 -1.55874 -3 -0.795609 -3 0 
C -3 0.795609 -2.683901 1.55874 -2.12132 2.12132 
C -1.55874 2.683901 -0.795609 3 0 3 
z
" id="md275e1d766" style="stroke:#e377c2;"/>
    </defs>
    <g clip-path="url(#pfd92a72f4d)">
     <use style="fill:#e377c2;stroke:#e377c2;" x="84.406377" xlink:href="#md275e1d766" y="50.189376"/>
     <use style="fill:#e377c2;stroke:#e377c2;" x="147.229417" xlink:href="#md275e1d766" y="50.892175"/>
     <use style="fill:#e377c2;stroke:#e377c2;" x="210.052457" xlink:href="#md275e1d766" y="51.899226"/>
     <use style="fill:#e377c2;stroke:#e377c2;" x="272.875497" xlink:href="#md275e1d766" y="52.143952"/>
     <use style="fill:#e377c2;stroke:#e377c2;" x="335.698538" xlink:href="#md275e1d766" y="52.268425"/>
    </g>
   </g>
   <g id="line2d_22">
    <defs>
     <path d="M 0 3 
C 0.795609 3 1.55874 2.683901 2.12132 2.12132 
C 2.683901 1.55874 3 0.795609 3 0 
C 3 -0.795609 2.683901 -1.55874 2.12132 -2.12132 
C 1.55874 -2.683901 0.795609 -3 0 -3 
C -0.795609 -3 -1.55874 -2.683901 -2.12132 -2.12132 
C -2.683901 -1.55874 -3 -0.795609 -3 0 
C -3 0.795609 -2.683901 1.55874 -2.12132 2.12132 
C -1.55874 2.683901 -0.795609 3 0 3 
z
" id="m8a26a96251" style="stroke:#7f7f7f;"/>
    </defs>
    <g clip-path="url(#pfd92a72f4d)">
     <use style="fill:#7f7f7f;stroke:#7f7f7f;" x="84.698641" xlink:href="#m8a26a96251" y="50.211469"/>
     <use style="fill:#7f7f7f;stroke:#7f7f7f;" x="147.521681" xlink:href="#m8a26a96251" y="50.910542"/>
     <use style="fill:#7f7f7f;stroke:#7f7f7f;" x="210.344721" xlink:href="#m8a26a96251" y="51.923151"/>
     <use style="fill:#7f7f7f;stroke:#7f7f7f;" x="273.167762" xlink:href="#m8a26a96251" y="52.168005"/>
     <use style="fill:#7f7f7f;stroke:#7f7f7f;" x="335.990802" xlink:href="#m8a26a96251" y="52.293587"/>
    </g>
   </g>
   <g id="line2d_23">
    <defs>
     <path d="M 0 3 
C 0.795609 3 1.55874 2.683901 2.12132 2.12132 
C 2.683901 1.55874 3 0.795609 3 0 
C 3 -0.795609 2.683901 -1.55874 2.12132 -2.12132 
C 1.55874 -2.683901 0.795609 -3 0 -3 
C -0.795609 -3 -1.55874 -2.683901 -2.12132 -2.12132 
C -2.683901 -1.55874 -3 -0.795609 -3 0 
C -3 0.795609 -2.683901 1.55874 -2.12132 2.12132 
C -1.55874 2.683901 -0.795609 3 0 3 
z
" id="m53cb147cae" style="stroke:#bcbd22;"/>
    </defs>
    <g clip-path="url(#pfd92a72f4d)">
     <use style="fill:#bcbd22;stroke:#bcbd22;" x="89.114495" xlink:href="#m53cb147cae" y="50.211559"/>
     <use style="fill:#bcbd22;stroke:#bcbd22;" x="151.937535" xlink:href="#m53cb147cae" y="50.918903"/>
     <use style="fill:#bcbd22;stroke:#bcbd22;" x="214.760575" xlink:href="#m53cb147cae" y="51.925446"/>
     <use style="fill:#bcbd22;stroke:#bcbd22;" x="277.583616" xlink:href="#m53cb147cae" y="52.177963"/>
     <use style="fill:#bcbd22;stroke:#bcbd22;" x="340.406656" xlink:href="#m53cb147cae" y="52.302119"/>
    </g>
   </g>
   <g id="line2d_24">
    <defs>
     <path d="M 0 3 
C 0.795609 3 1.55874 2.683901 2.12132 2.12132 
C 2.683901 1.55874 3 0.795609 3 0 
C 3 -0.795609 2.683901 -1.55874 2.12132 -2.12132 
C 1.55874 -2.683901 0.795609 -3 0 -3 
C -0.795609 -3 -1.55874 -2.683901 -2.12132 -2.12132 
C -2.683901 -1.55874 -3 -0.795609 -3 0 
C -3 0.795609 -2.683901 1.55874 -2.12132 2.12132 
C -1.55874 2.683901 -0.795609 3 0 3 
z
" id="m32123f81a7" style="stroke:#17becf;"/>
    </defs>
    <g clip-path="url(#pfd92a72f4d)">
     <use style="fill:#17becf;stroke:#17becf;" x="83.511702" xlink:href="#m32123f81a7" y="50.222267"/>
     <use style="fill:#17becf;stroke:#17becf;" x="146.334742" xlink:href="#m32123f81a7" y="50.923284"/>
     <use style="fill:#17becf;stroke:#17becf;" x="209.157782" xlink:href="#m32123f81a7" y="51.930366"/>
     <use style="fill:#17becf;stroke:#17becf;" x="271.980822" xlink:href="#m32123f81a7" y="52.178724"/>
     <use style="fill:#17becf;stroke:#17becf;" x="334.803863" xlink:href="#m32123f81a7" y="52.301946"/>
    </g>
   </g>
   <g id="patch_3">
    <path d="M 62.425 241.1 
L 62.425 10.8 
" style="fill:none;stroke:#000000;stroke-linecap:square;stroke-linejoin:miter;stroke-width:0.8;"/>
   </g>
   <g id="patch_4">
    <path d="M 358.061816 241.1 
L 358.061816 10.8 
" style="fill:none;stroke:#000000;stroke-linecap:square;stroke-linejoin:miter;stroke-width:0.8;"/>
   </g>
   <g id="patch_5">
    <path d="M 62.425 241.1 
L 358.061816 241.1 
" style="fill:none;stroke:#000000;stroke-linecap:square;stroke-linejoin:miter;stroke-width:0.8;"/>
   </g>
   <g id="patch_6">
    <path d="M 62.425 10.8 
L 358.061816 10.8 
" style="fill:none;stroke:#000000;stroke-linecap:square;stroke-linejoin:miter;stroke-width:0.8;"/>
   </g>
   <g id="legend_1">
    <g id="patch_7">
     <path d="M 367.061816 204.101562 
L 419.061816 204.101562 
Q 421.061816 204.101562 421.061816 202.101562 
L 421.061816 53.798437 
Q 421.061816 51.798437 419.061816 51.798437 
L 367.061816 51.798437 
Q 365.061816 51.798437 365.061816 53.798437 
L 365.061816 202.101562 
Q 365.061816 204.101562 367.061816 204.101562 
z
" style="fill:#4c4c4c;opacity:0.5;stroke:#4c4c4c;stroke-linejoin:miter;"/>
    </g>
    <g id="patch_8">
     <path d="M 365.061816 202.101562 
L 417.061816 202.101562 
Q 419.061816 202.101562 419.061816 200.101562 
L 419.061816 51.798437 
Q 419.061816 49.798437 417.061816 49.798437 
L 365.061816 49.798437 
Q 363.061816 49.798437 363.061816 51.798437 
L 363.061816 200.101562 
Q 363.061816 202.101562 365.061816 202.101562 
z
" style="fill:#ffffff;stroke:#cccccc;stroke-linejoin:miter;"/>
    </g>
    <g id="LineCollection_11">
     <path d="M 377.061816 62.896875 
L 377.061816 52.896875 
" style="fill:none;stroke:#1f77b4;stroke-width:1.5;"/>
    </g>
    <g id="line2d_25"/>
    <g id="line2d_26">
     <g>
      <use style="fill:#1f77b4;stroke:#1f77b4;" x="377.061816" xlink:href="#m02d413a53b" y="57.896875"/>
     </g>
    </g>
    <g id="text_17">
     <!-- $r_{V,V}$ -->
     <g transform="translate(395.061816 61.396875)scale(0.1 -0.1)">
      <use xlink:href="#DejaVuSans-Oblique-72"/>
      <use transform="translate(41.113281 -16.40625)scale(0.7)" xlink:href="#DejaVuSans-Oblique-56"/>
      <use transform="translate(88.999023 -16.40625)scale(0.7)" xlink:href="#DejaVuSans-2c"/>
      <use transform="translate(124.887695 -16.40625)scale(0.7)" xlink:href="#DejaVuSans-Oblique-56"/>
     </g>
    </g>
    <g id="LineCollection_12">
     <path d="M 377.061816 77.995312 
L 377.061816 67.995312 
" style="fill:none;stroke:#ff7f0e;stroke-width:1.5;"/>
    </g>
    <g id="line2d_27"/>
    <g id="line2d_28">
     <g>
      <use style="fill:#ff7f0e;stroke:#ff7f0e;" x="377.061816" xlink:href="#maa4ecc8d90" y="72.995312"/>
     </g>
    </g>
    <g id="text_18">
     <!-- $K_{V,V}$ -->
     <g transform="translate(395.061816 76.495312)scale(0.1 -0.1)">
      <defs>
       <path d="M 1081 4666 
L 1716 4666 
L 1331 2700 
L 3781 4666 
L 4622 4666 
L 1850 2438 
L 3878 0 
L 3109 0 
L 1247 2272 
L 806 0 
L 172 0 
L 1081 4666 
z
" id="DejaVuSans-Oblique-4b" transform="scale(0.015625)"/>
      </defs>
      <use transform="translate(0 0.09375)" xlink:href="#DejaVuSans-Oblique-4b"/>
      <use transform="translate(65.576172 -16.3125)scale(0.7)" xlink:href="#DejaVuSans-Oblique-56"/>
      <use transform="translate(113.461914 -16.3125)scale(0.7)" xlink:href="#DejaVuSans-2c"/>
      <use transform="translate(149.350586 -16.3125)scale(0.7)" xlink:href="#DejaVuSans-Oblique-56"/>
     </g>
    </g>
    <g id="LineCollection_13">
     <path d="M 377.061816 93.09375 
L 377.061816 83.09375 
" style="fill:none;stroke:#2ca02c;stroke-width:1.5;"/>
    </g>
    <g id="line2d_29"/>
    <g id="line2d_30">
     <g>
      <use style="fill:#2ca02c;stroke:#2ca02c;" x="377.061816" xlink:href="#m71aae77b63" y="88.09375"/>
     </g>
    </g>
    <g id="text_19">
     <!-- $r_{V,I}$ -->
     <g transform="translate(395.061816 91.59375)scale(0.1 -0.1)">
      <defs>
       <path d="M 1081 4666 
L 1716 4666 
L 806 0 
L 172 0 
L 1081 4666 
z
" id="DejaVuSans-Oblique-49" transform="scale(0.015625)"/>
      </defs>
      <use xlink:href="#DejaVuSans-Oblique-72"/>
      <use transform="translate(41.113281 -16.40625)scale(0.7)" xlink:href="#DejaVuSans-Oblique-56"/>
      <use transform="translate(88.999023 -16.40625)scale(0.7)" xlink:href="#DejaVuSans-2c"/>
      <use transform="translate(124.887695 -16.40625)scale(0.7)" xlink:href="#DejaVuSans-Oblique-49"/>
     </g>
    </g>
    <g id="LineCollection_14">
     <path d="M 377.061816 108.192187 
L 377.061816 98.192187 
" style="fill:none;stroke:#d62728;stroke-width:1.5;"/>
    </g>
    <g id="line2d_31"/>
    <g id="line2d_32">
     <g>
      <use style="fill:#d62728;stroke:#d62728;" x="377.061816" xlink:href="#m9f01f17bcd" y="103.192187"/>
     </g>
    </g>
    <g id="text_20">
     <!-- $d_{V}$ -->
     <g transform="translate(395.061816 106.692187)scale(0.1 -0.1)">
      <defs>
       <path d="M 2675 525 
Q 2444 222 2128 65 
Q 1813 -91 1428 -91 
Q 903 -91 598 267 
Q 294 625 294 1247 
Q 294 1766 478 2236 
Q 663 2706 1013 3078 
Q 1244 3325 1534 3454 
Q 1825 3584 2144 3584 
Q 2481 3584 2739 3421 
Q 2997 3259 3138 2956 
L 3513 4863 
L 4091 4863 
L 3144 0 
L 2566 0 
L 2675 525 
z
M 891 1350 
Q 891 897 1095 644 
Q 1300 391 1663 391 
Q 1931 391 2161 520 
Q 2391 650 2566 903 
Q 2750 1166 2856 1509 
Q 2963 1853 2963 2188 
Q 2963 2622 2758 2865 
Q 2553 3109 2194 3109 
Q 1922 3109 1687 2981 
Q 1453 2853 1288 2613 
Q 1106 2353 998 2009 
Q 891 1666 891 1350 
z
" id="DejaVuSans-Oblique-64" transform="scale(0.015625)"/>
      </defs>
      <use transform="translate(0 0.015625)" xlink:href="#DejaVuSans-Oblique-64"/>
      <use transform="translate(63.476562 -16.390625)scale(0.7)" xlink:href="#DejaVuSans-Oblique-56"/>
     </g>
    </g>
    <g id="LineCollection_15">
     <path d="M 377.061816 122.870312 
L 377.061816 112.870312 
" style="fill:none;stroke:#9467bd;stroke-width:1.5;"/>
    </g>
    <g id="line2d_33"/>
    <g id="line2d_34">
     <g>
      <use style="fill:#9467bd;stroke:#9467bd;" x="377.061816" xlink:href="#m866f27f24a" y="117.870312"/>
     </g>
    </g>
    <g id="text_21">
     <!-- $r_{I,V}$ -->
     <g transform="translate(395.061816 121.370312)scale(0.1 -0.1)">
      <use xlink:href="#DejaVuSans-Oblique-72"/>
      <use transform="translate(41.113281 -16.40625)scale(0.7)" xlink:href="#DejaVuSans-Oblique-49"/>
      <use transform="translate(61.757812 -16.40625)scale(0.7)" xlink:href="#DejaVuSans-2c"/>
      <use transform="translate(97.646484 -16.40625)scale(0.7)" xlink:href="#DejaVuSans-Oblique-56"/>
     </g>
    </g>
    <g id="LineCollection_16">
     <path d="M 377.061816 137.96875 
L 377.061816 127.96875 
" style="fill:none;stroke:#8c564b;stroke-width:1.5;"/>
    </g>
    <g id="line2d_35"/>
    <g id="line2d_36">
     <g>
      <use style="fill:#8c564b;stroke:#8c564b;" x="377.061816" xlink:href="#mc3a772ded1" y="132.96875"/>
     </g>
    </g>
    <g id="text_22">
     <!-- $d_{I}$ -->
     <g transform="translate(395.061816 136.46875)scale(0.1 -0.1)">
      <use transform="translate(0 0.015625)" xlink:href="#DejaVuSans-Oblique-64"/>
      <use transform="translate(63.476562 -16.390625)scale(0.7)" xlink:href="#DejaVuSans-Oblique-49"/>
     </g>
    </g>
    <g id="LineCollection_17">
     <path d="M 377.061816 152.646875 
L 377.061816 142.646875 
" style="fill:none;stroke:#e377c2;stroke-width:1.5;"/>
    </g>
    <g id="line2d_37"/>
    <g id="line2d_38">
     <g>
      <use style="fill:#e377c2;stroke:#e377c2;" x="377.061816" xlink:href="#md275e1d766" y="147.646875"/>
     </g>
    </g>
    <g id="text_23">
     <!-- $r_{M,I}$ -->
     <g transform="translate(395.061816 151.146875)scale(0.1 -0.1)">
      <defs>
       <path d="M 1081 4666 
L 2028 4666 
L 2572 1522 
L 4378 4666 
L 5350 4666 
L 4441 0 
L 3828 0 
L 4622 4091 
L 2791 897 
L 2175 897 
L 1581 4103 
L 788 0 
L 172 0 
L 1081 4666 
z
" id="DejaVuSans-Oblique-4d" transform="scale(0.015625)"/>
      </defs>
      <use xlink:href="#DejaVuSans-Oblique-72"/>
      <use transform="translate(41.113281 -16.40625)scale(0.7)" xlink:href="#DejaVuSans-Oblique-4d"/>
      <use transform="translate(101.508789 -16.40625)scale(0.7)" xlink:href="#DejaVuSans-2c"/>
      <use transform="translate(137.397461 -16.40625)scale(0.7)" xlink:href="#DejaVuSans-Oblique-49"/>
     </g>
    </g>
    <g id="LineCollection_18">
     <path d="M 377.061816 167.745312 
L 377.061816 157.745312 
" style="fill:none;stroke:#7f7f7f;stroke-width:1.5;"/>
    </g>
    <g id="line2d_39"/>
    <g id="line2d_40">
     <g>
      <use style="fill:#7f7f7f;stroke:#7f7f7f;" x="377.061816" xlink:href="#m8a26a96251" y="162.745312"/>
     </g>
    </g>
    <g id="text_24">
     <!-- $K_{M,I}$ -->
     <g transform="translate(395.061816 166.245312)scale(0.1 -0.1)">
      <use transform="translate(0 0.09375)" xlink:href="#DejaVuSans-Oblique-4b"/>
      <use transform="translate(65.576172 -16.3125)scale(0.7)" xlink:href="#DejaVuSans-Oblique-4d"/>
      <use transform="translate(125.97168 -16.3125)scale(0.7)" xlink:href="#DejaVuSans-2c"/>
      <use transform="translate(161.860352 -16.3125)scale(0.7)" xlink:href="#DejaVuSans-Oblique-49"/>
     </g>
    </g>
    <g id="LineCollection_19">
     <path d="M 377.061816 182.84375 
L 377.061816 172.84375 
" style="fill:none;stroke:#bcbd22;stroke-width:1.5;"/>
    </g>
    <g id="line2d_41"/>
    <g id="line2d_42">
     <g>
      <use style="fill:#bcbd22;stroke:#bcbd22;" x="377.061816" xlink:href="#m53cb147cae" y="177.84375"/>
     </g>
    </g>
    <g id="text_25">
     <!-- $d_{M}$ -->
     <g transform="translate(395.061816 181.34375)scale(0.1 -0.1)">
      <use transform="translate(0 0.015625)" xlink:href="#DejaVuSans-Oblique-64"/>
      <use transform="translate(63.476562 -16.390625)scale(0.7)" xlink:href="#DejaVuSans-Oblique-4d"/>
     </g>
    </g>
    <g id="LineCollection_20">
     <path d="M 377.061816 197.521875 
L 377.061816 187.521875 
" style="fill:none;stroke:#17becf;stroke-width:1.5;"/>
    </g>
    <g id="line2d_43"/>
    <g id="line2d_44">
     <g>
      <use style="fill:#17becf;stroke:#17becf;" x="377.061816" xlink:href="#m32123f81a7" y="192.521875"/>
     </g>
    </g>
    <g id="text_26">
     <!-- $n$ -->
     <g transform="translate(395.061816 196.021875)scale(0.1 -0.1)">
      <defs>
       <path d="M 3566 2113 
L 3156 0 
L 2578 0 
L 2988 2091 
Q 3016 2238 3031 2350 
Q 3047 2463 3047 2528 
Q 3047 2791 2881 2937 
Q 2716 3084 2419 3084 
Q 1956 3084 1622 2776 
Q 1288 2469 1184 1941 
L 800 0 
L 225 0 
L 903 3500 
L 1478 3500 
L 1363 2950 
Q 1603 3253 1940 3418 
Q 2278 3584 2650 3584 
Q 3113 3584 3367 3334 
Q 3622 3084 3622 2631 
Q 3622 2519 3608 2391 
Q 3594 2263 3566 2113 
z
" id="DejaVuSans-Oblique-6e" transform="scale(0.015625)"/>
      </defs>
      <use xlink:href="#DejaVuSans-Oblique-6e"/>
     </g>
    </g>
   </g>
  </g>
 </g>
 <defs>
  <clipPath id="pfd92a72f4d">
   <rect height="230.3" width="295.636816" x="62.425" y="10.8"/>
  </clipPath>
 </defs>
</svg>
