<?xml version="1.0" encoding="utf-8" standalone="no"?>
<!DOCTYPE svg PUBLIC "-//W3C//DTD SVG 1.1//EN"
  "http://www.w3.org/Graphics/SVG/1.1/DTD/svg11.dtd">
<svg height="288pt" version="1.1" viewBox="0 0 432 288" width="432pt" xmlns="http://www.w3.org/2000/svg" xmlns:xlink="http://www.w3.org/1999/xlink">
 <metadata>
  <rdf:RDF xmlns:cc="http://creativecommons.org/ns#" xmlns:dc="http://purl.org/dc/elements/1.1/" xmlns:rdf="http://www.w3.org/1999/02/22-rdf-syntax-ns#">
   <cc:Work>
    <dc:type rdf:resource="http://purl.org/dc/dcmitype/StillImage"/>
    <dc:date>2022-06-13T11:38:45.782389</dc:date>
    <dc:format>image/svg+xml</dc:format>
    <dc:creator>
     <cc:Agent>
      <dc:title>Matplotlib v3.4.3, https://matplotlib.org/</dc:title>
     </cc:Agent>
    </dc:creator>
   </cc:Work>
  </rdf:RDF>
 </metadata>
 <defs>
  <style type="text/css">*{stroke-linecap:butt;stroke-linejoin:round;}</style>
 </defs>
 <g id="figure_1">
  <g id="patch_1">
   <path d="M 0 288 
L 432 288 
L 432 0 
L 0 0 
z
" style="fill:none;"/>
  </g>
  <g id="axes_1">
   <g id="patch_2">
    <path d="M 46.55 241.1 
L 358.061816 241.1 
L 358.061816 10.8 
L 46.55 10.8 
z
" style="fill:#ffffff;"/>
   </g>
   <g id="matplotlib.axis_1">
    <g id="xtick_1">
     <g id="line2d_1">
      <defs>
       <path d="M 0 0 
L 0 3.5 
" id="mf6bec42d3a" style="stroke:#000000;stroke-width:0.8;"/>
      </defs>
      <g>
       <use style="stroke:#000000;stroke-width:0.8;" x="66.817066" xlink:href="#mf6bec42d3a" y="241.1"/>
      </g>
     </g>
     <g id="text_1">
      <!-- 1.25 -->
      <g transform="translate(55.684254 255.698438)scale(0.1 -0.1)">
       <defs>
        <path d="M 794 531 
L 1825 531 
L 1825 4091 
L 703 3866 
L 703 4441 
L 1819 4666 
L 2450 4666 
L 2450 531 
L 3481 531 
L 3481 0 
L 794 0 
L 794 531 
z
" id="DejaVuSans-31" transform="scale(0.015625)"/>
        <path d="M 684 794 
L 1344 794 
L 1344 0 
L 684 0 
L 684 794 
z
" id="DejaVuSans-2e" transform="scale(0.015625)"/>
        <path d="M 1228 531 
L 3431 531 
L 3431 0 
L 469 0 
L 469 531 
Q 828 903 1448 1529 
Q 2069 2156 2228 2338 
Q 2531 2678 2651 2914 
Q 2772 3150 2772 3378 
Q 2772 3750 2511 3984 
Q 2250 4219 1831 4219 
Q 1534 4219 1204 4116 
Q 875 4013 500 3803 
L 500 4441 
Q 881 4594 1212 4672 
Q 1544 4750 1819 4750 
Q 2544 4750 2975 4387 
Q 3406 4025 3406 3419 
Q 3406 3131 3298 2873 
Q 3191 2616 2906 2266 
Q 2828 2175 2409 1742 
Q 1991 1309 1228 531 
z
" id="DejaVuSans-32" transform="scale(0.015625)"/>
        <path d="M 691 4666 
L 3169 4666 
L 3169 4134 
L 1269 4134 
L 1269 2991 
Q 1406 3038 1543 3061 
Q 1681 3084 1819 3084 
Q 2600 3084 3056 2656 
Q 3513 2228 3513 1497 
Q 3513 744 3044 326 
Q 2575 -91 1722 -91 
Q 1428 -91 1123 -41 
Q 819 9 494 109 
L 494 744 
Q 775 591 1075 516 
Q 1375 441 1709 441 
Q 2250 441 2565 725 
Q 2881 1009 2881 1497 
Q 2881 1984 2565 2268 
Q 2250 2553 1709 2553 
Q 1456 2553 1204 2497 
Q 953 2441 691 2322 
L 691 4666 
z
" id="DejaVuSans-35" transform="scale(0.015625)"/>
       </defs>
       <use xlink:href="#DejaVuSans-31"/>
       <use x="63.623047" xlink:href="#DejaVuSans-2e"/>
       <use x="95.410156" xlink:href="#DejaVuSans-32"/>
       <use x="159.033203" xlink:href="#DejaVuSans-35"/>
      </g>
     </g>
    </g>
    <g id="xtick_2">
     <g id="line2d_2">
      <g>
       <use style="stroke:#000000;stroke-width:0.8;" x="133.013556" xlink:href="#mf6bec42d3a" y="241.1"/>
      </g>
     </g>
     <g id="text_2">
      <!-- 2.0 -->
      <g transform="translate(125.061993 255.698438)scale(0.1 -0.1)">
       <defs>
        <path d="M 2034 4250 
Q 1547 4250 1301 3770 
Q 1056 3291 1056 2328 
Q 1056 1369 1301 889 
Q 1547 409 2034 409 
Q 2525 409 2770 889 
Q 3016 1369 3016 2328 
Q 3016 3291 2770 3770 
Q 2525 4250 2034 4250 
z
M 2034 4750 
Q 2819 4750 3233 4129 
Q 3647 3509 3647 2328 
Q 3647 1150 3233 529 
Q 2819 -91 2034 -91 
Q 1250 -91 836 529 
Q 422 1150 422 2328 
Q 422 3509 836 4129 
Q 1250 4750 2034 4750 
z
" id="DejaVuSans-30" transform="scale(0.015625)"/>
       </defs>
       <use xlink:href="#DejaVuSans-32"/>
       <use x="63.623047" xlink:href="#DejaVuSans-2e"/>
       <use x="95.410156" xlink:href="#DejaVuSans-30"/>
      </g>
     </g>
    </g>
    <g id="xtick_3">
     <g id="line2d_3">
      <g>
       <use style="stroke:#000000;stroke-width:0.8;" x="199.210045" xlink:href="#mf6bec42d3a" y="241.1"/>
      </g>
     </g>
     <g id="text_3">
      <!-- 3.0 -->
      <g transform="translate(191.258483 255.698438)scale(0.1 -0.1)">
       <defs>
        <path d="M 2597 2516 
Q 3050 2419 3304 2112 
Q 3559 1806 3559 1356 
Q 3559 666 3084 287 
Q 2609 -91 1734 -91 
Q 1441 -91 1130 -33 
Q 819 25 488 141 
L 488 750 
Q 750 597 1062 519 
Q 1375 441 1716 441 
Q 2309 441 2620 675 
Q 2931 909 2931 1356 
Q 2931 1769 2642 2001 
Q 2353 2234 1838 2234 
L 1294 2234 
L 1294 2753 
L 1863 2753 
Q 2328 2753 2575 2939 
Q 2822 3125 2822 3475 
Q 2822 3834 2567 4026 
Q 2313 4219 1838 4219 
Q 1578 4219 1281 4162 
Q 984 4106 628 3988 
L 628 4550 
Q 988 4650 1302 4700 
Q 1616 4750 1894 4750 
Q 2613 4750 3031 4423 
Q 3450 4097 3450 3541 
Q 3450 3153 3228 2886 
Q 3006 2619 2597 2516 
z
" id="DejaVuSans-33" transform="scale(0.015625)"/>
       </defs>
       <use xlink:href="#DejaVuSans-33"/>
       <use x="63.623047" xlink:href="#DejaVuSans-2e"/>
       <use x="95.410156" xlink:href="#DejaVuSans-30"/>
      </g>
     </g>
    </g>
    <g id="xtick_4">
     <g id="line2d_4">
      <g>
       <use style="stroke:#000000;stroke-width:0.8;" x="265.406534" xlink:href="#mf6bec42d3a" y="241.1"/>
      </g>
     </g>
     <g id="text_4">
      <!-- 4.0 -->
      <g transform="translate(257.454972 255.698438)scale(0.1 -0.1)">
       <defs>
        <path d="M 2419 4116 
L 825 1625 
L 2419 1625 
L 2419 4116 
z
M 2253 4666 
L 3047 4666 
L 3047 1625 
L 3713 1625 
L 3713 1100 
L 3047 1100 
L 3047 0 
L 2419 0 
L 2419 1100 
L 313 1100 
L 313 1709 
L 2253 4666 
z
" id="DejaVuSans-34" transform="scale(0.015625)"/>
       </defs>
       <use xlink:href="#DejaVuSans-34"/>
       <use x="63.623047" xlink:href="#DejaVuSans-2e"/>
       <use x="95.410156" xlink:href="#DejaVuSans-30"/>
      </g>
     </g>
    </g>
    <g id="xtick_5">
     <g id="line2d_5">
      <g>
       <use style="stroke:#000000;stroke-width:0.8;" x="331.603024" xlink:href="#mf6bec42d3a" y="241.1"/>
      </g>
     </g>
     <g id="text_5">
      <!-- 5.0 -->
      <g transform="translate(323.651461 255.698438)scale(0.1 -0.1)">
       <use xlink:href="#DejaVuSans-35"/>
       <use x="63.623047" xlink:href="#DejaVuSans-2e"/>
       <use x="95.410156" xlink:href="#DejaVuSans-30"/>
      </g>
     </g>
    </g>
    <g id="text_6">
     <!-- Parameter $K_{V,V}$ H5N1:H1N1 ratio -->
     <g transform="translate(120.655908 269.378125)scale(0.1 -0.1)">
      <defs>
       <path d="M 1259 4147 
L 1259 2394 
L 2053 2394 
Q 2494 2394 2734 2622 
Q 2975 2850 2975 3272 
Q 2975 3691 2734 3919 
Q 2494 4147 2053 4147 
L 1259 4147 
z
M 628 4666 
L 2053 4666 
Q 2838 4666 3239 4311 
Q 3641 3956 3641 3272 
Q 3641 2581 3239 2228 
Q 2838 1875 2053 1875 
L 1259 1875 
L 1259 0 
L 628 0 
L 628 4666 
z
" id="DejaVuSans-50" transform="scale(0.015625)"/>
       <path d="M 2194 1759 
Q 1497 1759 1228 1600 
Q 959 1441 959 1056 
Q 959 750 1161 570 
Q 1363 391 1709 391 
Q 2188 391 2477 730 
Q 2766 1069 2766 1631 
L 2766 1759 
L 2194 1759 
z
M 3341 1997 
L 3341 0 
L 2766 0 
L 2766 531 
Q 2569 213 2275 61 
Q 1981 -91 1556 -91 
Q 1019 -91 701 211 
Q 384 513 384 1019 
Q 384 1609 779 1909 
Q 1175 2209 1959 2209 
L 2766 2209 
L 2766 2266 
Q 2766 2663 2505 2880 
Q 2244 3097 1772 3097 
Q 1472 3097 1187 3025 
Q 903 2953 641 2809 
L 641 3341 
Q 956 3463 1253 3523 
Q 1550 3584 1831 3584 
Q 2591 3584 2966 3190 
Q 3341 2797 3341 1997 
z
" id="DejaVuSans-61" transform="scale(0.015625)"/>
       <path d="M 2631 2963 
Q 2534 3019 2420 3045 
Q 2306 3072 2169 3072 
Q 1681 3072 1420 2755 
Q 1159 2438 1159 1844 
L 1159 0 
L 581 0 
L 581 3500 
L 1159 3500 
L 1159 2956 
Q 1341 3275 1631 3429 
Q 1922 3584 2338 3584 
Q 2397 3584 2469 3576 
Q 2541 3569 2628 3553 
L 2631 2963 
z
" id="DejaVuSans-72" transform="scale(0.015625)"/>
       <path d="M 3328 2828 
Q 3544 3216 3844 3400 
Q 4144 3584 4550 3584 
Q 5097 3584 5394 3201 
Q 5691 2819 5691 2113 
L 5691 0 
L 5113 0 
L 5113 2094 
Q 5113 2597 4934 2840 
Q 4756 3084 4391 3084 
Q 3944 3084 3684 2787 
Q 3425 2491 3425 1978 
L 3425 0 
L 2847 0 
L 2847 2094 
Q 2847 2600 2669 2842 
Q 2491 3084 2119 3084 
Q 1678 3084 1418 2786 
Q 1159 2488 1159 1978 
L 1159 0 
L 581 0 
L 581 3500 
L 1159 3500 
L 1159 2956 
Q 1356 3278 1631 3431 
Q 1906 3584 2284 3584 
Q 2666 3584 2933 3390 
Q 3200 3197 3328 2828 
z
" id="DejaVuSans-6d" transform="scale(0.015625)"/>
       <path d="M 3597 1894 
L 3597 1613 
L 953 1613 
Q 991 1019 1311 708 
Q 1631 397 2203 397 
Q 2534 397 2845 478 
Q 3156 559 3463 722 
L 3463 178 
Q 3153 47 2828 -22 
Q 2503 -91 2169 -91 
Q 1331 -91 842 396 
Q 353 884 353 1716 
Q 353 2575 817 3079 
Q 1281 3584 2069 3584 
Q 2775 3584 3186 3129 
Q 3597 2675 3597 1894 
z
M 3022 2063 
Q 3016 2534 2758 2815 
Q 2500 3097 2075 3097 
Q 1594 3097 1305 2825 
Q 1016 2553 972 2059 
L 3022 2063 
z
" id="DejaVuSans-65" transform="scale(0.015625)"/>
       <path d="M 1172 4494 
L 1172 3500 
L 2356 3500 
L 2356 3053 
L 1172 3053 
L 1172 1153 
Q 1172 725 1289 603 
Q 1406 481 1766 481 
L 2356 481 
L 2356 0 
L 1766 0 
Q 1100 0 847 248 
Q 594 497 594 1153 
L 594 3053 
L 172 3053 
L 172 3500 
L 594 3500 
L 594 4494 
L 1172 4494 
z
" id="DejaVuSans-74" transform="scale(0.015625)"/>
       <path id="DejaVuSans-20" transform="scale(0.015625)"/>
       <path d="M 1081 4666 
L 1716 4666 
L 1331 2700 
L 3781 4666 
L 4622 4666 
L 1850 2438 
L 3878 0 
L 3109 0 
L 1247 2272 
L 806 0 
L 172 0 
L 1081 4666 
z
" id="DejaVuSans-Oblique-4b" transform="scale(0.015625)"/>
       <path d="M 1319 0 
L 500 4666 
L 1119 4666 
L 1797 653 
L 4063 4666 
L 4750 4666 
L 2053 0 
L 1319 0 
z
" id="DejaVuSans-Oblique-56" transform="scale(0.015625)"/>
       <path d="M 750 794 
L 1409 794 
L 1409 256 
L 897 -744 
L 494 -744 
L 750 256 
L 750 794 
z
" id="DejaVuSans-2c" transform="scale(0.015625)"/>
       <path d="M 628 4666 
L 1259 4666 
L 1259 2753 
L 3553 2753 
L 3553 4666 
L 4184 4666 
L 4184 0 
L 3553 0 
L 3553 2222 
L 1259 2222 
L 1259 0 
L 628 0 
L 628 4666 
z
" id="DejaVuSans-48" transform="scale(0.015625)"/>
       <path d="M 628 4666 
L 1478 4666 
L 3547 763 
L 3547 4666 
L 4159 4666 
L 4159 0 
L 3309 0 
L 1241 3903 
L 1241 0 
L 628 0 
L 628 4666 
z
" id="DejaVuSans-4e" transform="scale(0.015625)"/>
       <path d="M 750 794 
L 1409 794 
L 1409 0 
L 750 0 
L 750 794 
z
M 750 3309 
L 1409 3309 
L 1409 2516 
L 750 2516 
L 750 3309 
z
" id="DejaVuSans-3a" transform="scale(0.015625)"/>
       <path d="M 603 3500 
L 1178 3500 
L 1178 0 
L 603 0 
L 603 3500 
z
M 603 4863 
L 1178 4863 
L 1178 4134 
L 603 4134 
L 603 4863 
z
" id="DejaVuSans-69" transform="scale(0.015625)"/>
       <path d="M 1959 3097 
Q 1497 3097 1228 2736 
Q 959 2375 959 1747 
Q 959 1119 1226 758 
Q 1494 397 1959 397 
Q 2419 397 2687 759 
Q 2956 1122 2956 1747 
Q 2956 2369 2687 2733 
Q 2419 3097 1959 3097 
z
M 1959 3584 
Q 2709 3584 3137 3096 
Q 3566 2609 3566 1747 
Q 3566 888 3137 398 
Q 2709 -91 1959 -91 
Q 1206 -91 779 398 
Q 353 888 353 1747 
Q 353 2609 779 3096 
Q 1206 3584 1959 3584 
z
" id="DejaVuSans-6f" transform="scale(0.015625)"/>
      </defs>
      <use transform="translate(0 0.015625)" xlink:href="#DejaVuSans-50"/>
      <use transform="translate(60.302734 0.015625)" xlink:href="#DejaVuSans-61"/>
      <use transform="translate(121.582031 0.015625)" xlink:href="#DejaVuSans-72"/>
      <use transform="translate(162.695312 0.015625)" xlink:href="#DejaVuSans-61"/>
      <use transform="translate(223.974609 0.015625)" xlink:href="#DejaVuSans-6d"/>
      <use transform="translate(321.386719 0.015625)" xlink:href="#DejaVuSans-65"/>
      <use transform="translate(382.910156 0.015625)" xlink:href="#DejaVuSans-74"/>
      <use transform="translate(422.119141 0.015625)" xlink:href="#DejaVuSans-65"/>
      <use transform="translate(483.642578 0.015625)" xlink:href="#DejaVuSans-72"/>
      <use transform="translate(524.755859 0.015625)" xlink:href="#DejaVuSans-20"/>
      <use transform="translate(556.542969 0.015625)" xlink:href="#DejaVuSans-Oblique-4b"/>
      <use transform="translate(622.119141 -16.390625)scale(0.7)" xlink:href="#DejaVuSans-Oblique-56"/>
      <use transform="translate(670.004883 -16.390625)scale(0.7)" xlink:href="#DejaVuSans-2c"/>
      <use transform="translate(705.893555 -16.390625)scale(0.7)" xlink:href="#DejaVuSans-Oblique-56"/>
      <use transform="translate(756.513672 0.015625)" xlink:href="#DejaVuSans-20"/>
      <use transform="translate(788.300781 0.015625)" xlink:href="#DejaVuSans-48"/>
      <use transform="translate(863.496094 0.015625)" xlink:href="#DejaVuSans-35"/>
      <use transform="translate(927.119141 0.015625)" xlink:href="#DejaVuSans-4e"/>
      <use transform="translate(1001.923828 0.015625)" xlink:href="#DejaVuSans-31"/>
      <use transform="translate(1065.546875 0.015625)" xlink:href="#DejaVuSans-3a"/>
      <use transform="translate(1093.363281 0.015625)" xlink:href="#DejaVuSans-48"/>
      <use transform="translate(1168.558594 0.015625)" xlink:href="#DejaVuSans-31"/>
      <use transform="translate(1232.181641 0.015625)" xlink:href="#DejaVuSans-4e"/>
      <use transform="translate(1306.986328 0.015625)" xlink:href="#DejaVuSans-31"/>
      <use transform="translate(1370.609375 0.015625)" xlink:href="#DejaVuSans-20"/>
      <use transform="translate(1402.396484 0.015625)" xlink:href="#DejaVuSans-72"/>
      <use transform="translate(1443.509766 0.015625)" xlink:href="#DejaVuSans-61"/>
      <use transform="translate(1504.789062 0.015625)" xlink:href="#DejaVuSans-74"/>
      <use transform="translate(1543.998047 0.015625)" xlink:href="#DejaVuSans-69"/>
      <use transform="translate(1571.78125 0.015625)" xlink:href="#DejaVuSans-6f"/>
     </g>
    </g>
   </g>
   <g id="matplotlib.axis_2">
    <g id="ytick_1">
     <g id="line2d_6">
      <defs>
       <path d="M 0 0 
L -3.5 0 
" id="mde18dd0445" style="stroke:#000000;stroke-width:0.8;"/>
      </defs>
      <g>
       <use style="stroke:#000000;stroke-width:0.8;" x="46.55" xlink:href="#mde18dd0445" y="224.278495"/>
      </g>
     </g>
     <g id="text_7">
      <!-- −4 -->
      <g transform="translate(24.807812 228.077714)scale(0.1 -0.1)">
       <defs>
        <path d="M 678 2272 
L 4684 2272 
L 4684 1741 
L 678 1741 
L 678 2272 
z
" id="DejaVuSans-2212" transform="scale(0.015625)"/>
       </defs>
       <use xlink:href="#DejaVuSans-2212"/>
       <use x="83.789062" xlink:href="#DejaVuSans-34"/>
      </g>
     </g>
    </g>
    <g id="ytick_2">
     <g id="line2d_7">
      <g>
       <use style="stroke:#000000;stroke-width:0.8;" x="46.55" xlink:href="#mde18dd0445" y="193.165669"/>
      </g>
     </g>
     <g id="text_8">
      <!-- −3 -->
      <g transform="translate(24.807812 196.964888)scale(0.1 -0.1)">
       <use xlink:href="#DejaVuSans-2212"/>
       <use x="83.789062" xlink:href="#DejaVuSans-33"/>
      </g>
     </g>
    </g>
    <g id="ytick_3">
     <g id="line2d_8">
      <g>
       <use style="stroke:#000000;stroke-width:0.8;" x="46.55" xlink:href="#mde18dd0445" y="162.052844"/>
      </g>
     </g>
     <g id="text_9">
      <!-- −2 -->
      <g transform="translate(24.807812 165.852062)scale(0.1 -0.1)">
       <use xlink:href="#DejaVuSans-2212"/>
       <use x="83.789062" xlink:href="#DejaVuSans-32"/>
      </g>
     </g>
    </g>
    <g id="ytick_4">
     <g id="line2d_9">
      <g>
       <use style="stroke:#000000;stroke-width:0.8;" x="46.55" xlink:href="#mde18dd0445" y="130.940018"/>
      </g>
     </g>
     <g id="text_10">
      <!-- −1 -->
      <g transform="translate(24.807812 134.739237)scale(0.1 -0.1)">
       <use xlink:href="#DejaVuSans-2212"/>
       <use x="83.789062" xlink:href="#DejaVuSans-31"/>
      </g>
     </g>
    </g>
    <g id="ytick_5">
     <g id="line2d_10">
      <g>
       <use style="stroke:#000000;stroke-width:0.8;" x="46.55" xlink:href="#mde18dd0445" y="99.827193"/>
      </g>
     </g>
     <g id="text_11">
      <!-- 0 -->
      <g transform="translate(33.1875 103.626411)scale(0.1 -0.1)">
       <use xlink:href="#DejaVuSans-30"/>
      </g>
     </g>
    </g>
    <g id="ytick_6">
     <g id="line2d_11">
      <g>
       <use style="stroke:#000000;stroke-width:0.8;" x="46.55" xlink:href="#mde18dd0445" y="68.714367"/>
      </g>
     </g>
     <g id="text_12">
      <!-- 1 -->
      <g transform="translate(33.1875 72.513586)scale(0.1 -0.1)">
       <use xlink:href="#DejaVuSans-31"/>
      </g>
     </g>
    </g>
    <g id="ytick_7">
     <g id="line2d_12">
      <g>
       <use style="stroke:#000000;stroke-width:0.8;" x="46.55" xlink:href="#mde18dd0445" y="37.601541"/>
      </g>
     </g>
     <g id="text_13">
      <!-- 2 -->
      <g transform="translate(33.1875 41.40076)scale(0.1 -0.1)">
       <use xlink:href="#DejaVuSans-32"/>
      </g>
     </g>
    </g>
    <g id="text_14">
     <!-- SPOT Value -->
     <g transform="translate(18.728125 154.449219)rotate(-90)scale(0.1 -0.1)">
      <defs>
       <path d="M 3425 4513 
L 3425 3897 
Q 3066 4069 2747 4153 
Q 2428 4238 2131 4238 
Q 1616 4238 1336 4038 
Q 1056 3838 1056 3469 
Q 1056 3159 1242 3001 
Q 1428 2844 1947 2747 
L 2328 2669 
Q 3034 2534 3370 2195 
Q 3706 1856 3706 1288 
Q 3706 609 3251 259 
Q 2797 -91 1919 -91 
Q 1588 -91 1214 -16 
Q 841 59 441 206 
L 441 856 
Q 825 641 1194 531 
Q 1563 422 1919 422 
Q 2459 422 2753 634 
Q 3047 847 3047 1241 
Q 3047 1584 2836 1778 
Q 2625 1972 2144 2069 
L 1759 2144 
Q 1053 2284 737 2584 
Q 422 2884 422 3419 
Q 422 4038 858 4394 
Q 1294 4750 2059 4750 
Q 2388 4750 2728 4690 
Q 3069 4631 3425 4513 
z
" id="DejaVuSans-53" transform="scale(0.015625)"/>
       <path d="M 2522 4238 
Q 1834 4238 1429 3725 
Q 1025 3213 1025 2328 
Q 1025 1447 1429 934 
Q 1834 422 2522 422 
Q 3209 422 3611 934 
Q 4013 1447 4013 2328 
Q 4013 3213 3611 3725 
Q 3209 4238 2522 4238 
z
M 2522 4750 
Q 3503 4750 4090 4092 
Q 4678 3434 4678 2328 
Q 4678 1225 4090 567 
Q 3503 -91 2522 -91 
Q 1538 -91 948 565 
Q 359 1222 359 2328 
Q 359 3434 948 4092 
Q 1538 4750 2522 4750 
z
" id="DejaVuSans-4f" transform="scale(0.015625)"/>
       <path d="M -19 4666 
L 3928 4666 
L 3928 4134 
L 2272 4134 
L 2272 0 
L 1638 0 
L 1638 4134 
L -19 4134 
L -19 4666 
z
" id="DejaVuSans-54" transform="scale(0.015625)"/>
       <path d="M 1831 0 
L 50 4666 
L 709 4666 
L 2188 738 
L 3669 4666 
L 4325 4666 
L 2547 0 
L 1831 0 
z
" id="DejaVuSans-56" transform="scale(0.015625)"/>
       <path d="M 603 4863 
L 1178 4863 
L 1178 0 
L 603 0 
L 603 4863 
z
" id="DejaVuSans-6c" transform="scale(0.015625)"/>
       <path d="M 544 1381 
L 544 3500 
L 1119 3500 
L 1119 1403 
Q 1119 906 1312 657 
Q 1506 409 1894 409 
Q 2359 409 2629 706 
Q 2900 1003 2900 1516 
L 2900 3500 
L 3475 3500 
L 3475 0 
L 2900 0 
L 2900 538 
Q 2691 219 2414 64 
Q 2138 -91 1772 -91 
Q 1169 -91 856 284 
Q 544 659 544 1381 
z
M 1991 3584 
L 1991 3584 
z
" id="DejaVuSans-75" transform="scale(0.015625)"/>
      </defs>
      <use xlink:href="#DejaVuSans-53"/>
      <use x="63.476562" xlink:href="#DejaVuSans-50"/>
      <use x="123.779297" xlink:href="#DejaVuSans-4f"/>
      <use x="202.490234" xlink:href="#DejaVuSans-54"/>
      <use x="263.574219" xlink:href="#DejaVuSans-20"/>
      <use x="295.361328" xlink:href="#DejaVuSans-56"/>
      <use x="356.019531" xlink:href="#DejaVuSans-61"/>
      <use x="417.298828" xlink:href="#DejaVuSans-6c"/>
      <use x="445.082031" xlink:href="#DejaVuSans-75"/>
      <use x="508.460938" xlink:href="#DejaVuSans-65"/>
     </g>
    </g>
   </g>
   <g id="LineCollection_1">
    <path clip-path="url(#p0c7983b38b)" d="M 66.405445 93.981252 
L 66.405445 87.659136 
" style="fill:none;stroke:#1f77b4;stroke-width:1.5;"/>
    <path clip-path="url(#p0c7983b38b)" d="M 132.601935 134.65784 
L 132.601935 117.16337 
" style="fill:none;stroke:#1f77b4;stroke-width:1.5;"/>
    <path clip-path="url(#p0c7983b38b)" d="M 198.798424 170.048748 
L 198.798424 144.070715 
" style="fill:none;stroke:#1f77b4;stroke-width:1.5;"/>
    <path clip-path="url(#p0c7983b38b)" d="M 264.994913 199.98895 
L 264.994913 166.438294 
" style="fill:none;stroke:#1f77b4;stroke-width:1.5;"/>
    <path clip-path="url(#p0c7983b38b)" d="M 331.191403 219.684648 
L 331.191403 181.061134 
" style="fill:none;stroke:#1f77b4;stroke-width:1.5;"/>
   </g>
   <g id="LineCollection_2">
    <path clip-path="url(#p0c7983b38b)" d="M 63.797913 96.172326 
L 63.797913 89.850209 
" style="fill:none;stroke:#ff7f0e;stroke-width:1.5;"/>
    <path clip-path="url(#p0c7983b38b)" d="M 129.994403 141.788477 
L 129.994403 124.294007 
" style="fill:none;stroke:#ff7f0e;stroke-width:1.5;"/>
    <path clip-path="url(#p0c7983b38b)" d="M 196.190892 181.258715 
L 196.190892 155.280683 
" style="fill:none;stroke:#ff7f0e;stroke-width:1.5;"/>
    <path clip-path="url(#p0c7983b38b)" d="M 262.387381 211.164829 
L 262.387381 177.614173 
" style="fill:none;stroke:#ff7f0e;stroke-width:1.5;"/>
    <path clip-path="url(#p0c7983b38b)" d="M 328.583871 230.631818 
L 328.583871 192.008304 
" style="fill:none;stroke:#ff7f0e;stroke-width:1.5;"/>
   </g>
   <g id="LineCollection_3">
    <path clip-path="url(#p0c7983b38b)" d="M 79.116231 79.063143 
L 79.116231 72.741027 
" style="fill:none;stroke:#2ca02c;stroke-width:1.5;"/>
    <path clip-path="url(#p0c7983b38b)" d="M 145.31272 95.589172 
L 145.31272 78.094702 
" style="fill:none;stroke:#2ca02c;stroke-width:1.5;"/>
    <path clip-path="url(#p0c7983b38b)" d="M 211.50921 90.500896 
L 211.50921 64.522864 
" style="fill:none;stroke:#2ca02c;stroke-width:1.5;"/>
    <path clip-path="url(#p0c7983b38b)" d="M 277.705699 94.11013 
L 277.705699 60.559474 
" style="fill:none;stroke:#2ca02c;stroke-width:1.5;"/>
    <path clip-path="url(#p0c7983b38b)" d="M 343.902188 97.855812 
L 343.902188 59.232298 
" style="fill:none;stroke:#2ca02c;stroke-width:1.5;"/>
   </g>
   <g id="LineCollection_4">
    <path clip-path="url(#p0c7983b38b)" d="M 60.709628 95.010379 
L 60.709628 88.688262 
" style="fill:none;stroke:#d62728;stroke-width:1.5;"/>
    <path clip-path="url(#p0c7983b38b)" d="M 126.906117 138.402064 
L 126.906117 120.907595 
" style="fill:none;stroke:#d62728;stroke-width:1.5;"/>
    <path clip-path="url(#p0c7983b38b)" d="M 193.102607 177.313718 
L 193.102607 151.335685 
" style="fill:none;stroke:#d62728;stroke-width:1.5;"/>
    <path clip-path="url(#p0c7983b38b)" d="M 259.299096 207.613429 
L 259.299096 174.062773 
" style="fill:none;stroke:#d62728;stroke-width:1.5;"/>
    <path clip-path="url(#p0c7983b38b)" d="M 325.495586 227.457575 
L 325.495586 188.834061 
" style="fill:none;stroke:#d62728;stroke-width:1.5;"/>
   </g>
   <g id="LineCollection_5">
    <path clip-path="url(#p0c7983b38b)" d="M 71.486572 70.755384 
L 71.486572 64.433267 
" style="fill:none;stroke:#9467bd;stroke-width:1.5;"/>
    <path clip-path="url(#p0c7983b38b)" d="M 137.683062 75.541284 
L 137.683062 58.046815 
" style="fill:none;stroke:#9467bd;stroke-width:1.5;"/>
    <path clip-path="url(#p0c7983b38b)" d="M 203.879551 59.063758 
L 203.879551 33.085725 
" style="fill:none;stroke:#9467bd;stroke-width:1.5;"/>
    <path clip-path="url(#p0c7983b38b)" d="M 270.076041 58.270684 
L 270.076041 24.720028 
" style="fill:none;stroke:#9467bd;stroke-width:1.5;"/>
    <path clip-path="url(#p0c7983b38b)" d="M 336.27253 59.891696 
L 336.27253 21.268182 
" style="fill:none;stroke:#9467bd;stroke-width:1.5;"/>
   </g>
   <g id="LineCollection_6">
    <path clip-path="url(#p0c7983b38b)" d="M 66.802452 68.703169 
L 66.802452 62.381053 
" style="fill:none;stroke:#8c564b;stroke-width:1.5;"/>
    <path clip-path="url(#p0c7983b38b)" d="M 132.998941 69.628819 
L 132.998941 52.149662 
" style="fill:none;stroke:#8c564b;stroke-width:1.5;"/>
    <path clip-path="url(#p0c7983b38b)" d="M 199.195431 83.678592 
L 199.195431 57.778268 
" style="fill:none;stroke:#8c564b;stroke-width:1.5;"/>
    <path clip-path="url(#p0c7983b38b)" d="M 265.39192 90.54821 
L 265.39192 57.097916 
" style="fill:none;stroke:#8c564b;stroke-width:1.5;"/>
    <path clip-path="url(#p0c7983b38b)" d="M 331.588409 98.75326 
L 331.588409 60.245282 
" style="fill:none;stroke:#8c564b;stroke-width:1.5;"/>
   </g>
   <g id="LineCollection_7">
    <path clip-path="url(#p0c7983b38b)" d="M 69.711725 71.852878 
L 69.711725 65.535954 
" style="fill:none;stroke:#e377c2;stroke-width:1.5;"/>
    <path clip-path="url(#p0c7983b38b)" d="M 135.908214 79.952088 
L 135.908214 62.479627 
" style="fill:none;stroke:#e377c2;stroke-width:1.5;"/>
    <path clip-path="url(#p0c7983b38b)" d="M 202.104703 81.693624 
L 202.104703 55.793301 
" style="fill:none;stroke:#e377c2;stroke-width:1.5;"/>
    <path clip-path="url(#p0c7983b38b)" d="M 268.301193 85.687787 
L 268.301193 52.237492 
" style="fill:none;stroke:#e377c2;stroke-width:1.5;"/>
    <path clip-path="url(#p0c7983b38b)" d="M 334.497682 88.083946 
L 334.497682 49.575968 
" style="fill:none;stroke:#e377c2;stroke-width:1.5;"/>
   </g>
   <g id="LineCollection_8">
    <path clip-path="url(#p0c7983b38b)" d="M 70.019683 71.875449 
L 70.019683 65.558525 
" style="fill:none;stroke:#7f7f7f;stroke-width:1.5;"/>
    <path clip-path="url(#p0c7983b38b)" d="M 136.216172 79.981094 
L 136.216172 62.508632 
" style="fill:none;stroke:#7f7f7f;stroke-width:1.5;"/>
    <path clip-path="url(#p0c7983b38b)" d="M 202.412662 81.927257 
L 202.412662 56.026934 
" style="fill:none;stroke:#7f7f7f;stroke-width:1.5;"/>
    <path clip-path="url(#p0c7983b38b)" d="M 268.609151 85.743456 
L 268.609151 52.293161 
" style="fill:none;stroke:#7f7f7f;stroke-width:1.5;"/>
    <path clip-path="url(#p0c7983b38b)" d="M 334.80564 88.309482 
L 334.80564 49.801503 
" style="fill:none;stroke:#7f7f7f;stroke-width:1.5;"/>
   </g>
   <g id="LineCollection_9">
    <path clip-path="url(#p0c7983b38b)" d="M 74.672658 71.891418 
L 74.672658 65.574494 
" style="fill:none;stroke:#bcbd22;stroke-width:1.5;"/>
    <path clip-path="url(#p0c7983b38b)" d="M 140.869147 80.046992 
L 140.869147 62.57453 
" style="fill:none;stroke:#bcbd22;stroke-width:1.5;"/>
    <path clip-path="url(#p0c7983b38b)" d="M 207.065637 82.29768 
L 207.065637 56.397357 
" style="fill:none;stroke:#bcbd22;stroke-width:1.5;"/>
    <path clip-path="url(#p0c7983b38b)" d="M 273.262126 86.082991 
L 273.262126 52.632697 
" style="fill:none;stroke:#bcbd22;stroke-width:1.5;"/>
    <path clip-path="url(#p0c7983b38b)" d="M 339.458615 88.689713 
L 339.458615 50.181735 
" style="fill:none;stroke:#bcbd22;stroke-width:1.5;"/>
   </g>
   <g id="LineCollection_10">
    <path clip-path="url(#p0c7983b38b)" d="M 68.769008 71.881606 
L 68.769008 65.564682 
" style="fill:none;stroke:#17becf;stroke-width:1.5;"/>
    <path clip-path="url(#p0c7983b38b)" d="M 134.965497 79.838374 
L 134.965497 62.365912 
" style="fill:none;stroke:#17becf;stroke-width:1.5;"/>
    <path clip-path="url(#p0c7983b38b)" d="M 201.161986 81.477162 
L 201.161986 55.576838 
" style="fill:none;stroke:#17becf;stroke-width:1.5;"/>
    <path clip-path="url(#p0c7983b38b)" d="M 267.358476 85.428512 
L 267.358476 51.978217 
" style="fill:none;stroke:#17becf;stroke-width:1.5;"/>
    <path clip-path="url(#p0c7983b38b)" d="M 333.554965 87.9035 
L 333.554965 49.395521 
" style="fill:none;stroke:#17becf;stroke-width:1.5;"/>
   </g>
   <g id="line2d_13">
    <defs>
     <path d="M 0 3 
C 0.795609 3 1.55874 2.683901 2.12132 2.12132 
C 2.683901 1.55874 3 0.795609 3 0 
C 3 -0.795609 2.683901 -1.55874 2.12132 -2.12132 
C 1.55874 -2.683901 0.795609 -3 0 -3 
C -0.795609 -3 -1.55874 -2.683901 -2.12132 -2.12132 
C -2.683901 -1.55874 -3 -0.795609 -3 0 
C -3 0.795609 -2.683901 1.55874 -2.12132 2.12132 
C -1.55874 2.683901 -0.795609 3 0 3 
z
" id="m607e65a407" style="stroke:#1f77b4;"/>
    </defs>
    <g clip-path="url(#p0c7983b38b)">
     <use style="fill:#1f77b4;stroke:#1f77b4;" x="66.405445" xlink:href="#m607e65a407" y="90.820194"/>
     <use style="fill:#1f77b4;stroke:#1f77b4;" x="132.601935" xlink:href="#m607e65a407" y="125.910605"/>
     <use style="fill:#1f77b4;stroke:#1f77b4;" x="198.798424" xlink:href="#m607e65a407" y="157.059731"/>
     <use style="fill:#1f77b4;stroke:#1f77b4;" x="264.994913" xlink:href="#m607e65a407" y="183.213622"/>
     <use style="fill:#1f77b4;stroke:#1f77b4;" x="331.191403" xlink:href="#m607e65a407" y="200.372891"/>
    </g>
   </g>
   <g id="line2d_14">
    <defs>
     <path d="M 0 3 
C 0.795609 3 1.55874 2.683901 2.12132 2.12132 
C 2.683901 1.55874 3 0.795609 3 0 
C 3 -0.795609 2.683901 -1.55874 2.12132 -2.12132 
C 1.55874 -2.683901 0.795609 -3 0 -3 
C -0.795609 -3 -1.55874 -2.683901 -2.12132 -2.12132 
C -2.683901 -1.55874 -3 -0.795609 -3 0 
C -3 0.795609 -2.683901 1.55874 -2.12132 2.12132 
C -1.55874 2.683901 -0.795609 3 0 3 
z
" id="mda72a9def3" style="stroke:#ff7f0e;"/>
    </defs>
    <g clip-path="url(#p0c7983b38b)">
     <use style="fill:#ff7f0e;stroke:#ff7f0e;" x="63.797913" xlink:href="#mda72a9def3" y="93.011268"/>
     <use style="fill:#ff7f0e;stroke:#ff7f0e;" x="129.994403" xlink:href="#mda72a9def3" y="133.041242"/>
     <use style="fill:#ff7f0e;stroke:#ff7f0e;" x="196.190892" xlink:href="#mda72a9def3" y="168.269699"/>
     <use style="fill:#ff7f0e;stroke:#ff7f0e;" x="262.387381" xlink:href="#mda72a9def3" y="194.389501"/>
     <use style="fill:#ff7f0e;stroke:#ff7f0e;" x="328.583871" xlink:href="#mda72a9def3" y="211.320061"/>
    </g>
   </g>
   <g id="line2d_15">
    <defs>
     <path d="M 0 3 
C 0.795609 3 1.55874 2.683901 2.12132 2.12132 
C 2.683901 1.55874 3 0.795609 3 0 
C 3 -0.795609 2.683901 -1.55874 2.12132 -2.12132 
C 1.55874 -2.683901 0.795609 -3 0 -3 
C -0.795609 -3 -1.55874 -2.683901 -2.12132 -2.12132 
C -2.683901 -1.55874 -3 -0.795609 -3 0 
C -3 0.795609 -2.683901 1.55874 -2.12132 2.12132 
C -1.55874 2.683901 -0.795609 3 0 3 
z
" id="m800e504530" style="stroke:#2ca02c;"/>
    </defs>
    <g clip-path="url(#p0c7983b38b)">
     <use style="fill:#2ca02c;stroke:#2ca02c;" x="79.116231" xlink:href="#m800e504530" y="75.902085"/>
     <use style="fill:#2ca02c;stroke:#2ca02c;" x="145.31272" xlink:href="#m800e504530" y="86.841937"/>
     <use style="fill:#2ca02c;stroke:#2ca02c;" x="211.50921" xlink:href="#m800e504530" y="77.51188"/>
     <use style="fill:#2ca02c;stroke:#2ca02c;" x="277.705699" xlink:href="#m800e504530" y="77.334802"/>
     <use style="fill:#2ca02c;stroke:#2ca02c;" x="343.902188" xlink:href="#m800e504530" y="78.544055"/>
    </g>
   </g>
   <g id="line2d_16">
    <defs>
     <path d="M 0 3 
C 0.795609 3 1.55874 2.683901 2.12132 2.12132 
C 2.683901 1.55874 3 0.795609 3 0 
C 3 -0.795609 2.683901 -1.55874 2.12132 -2.12132 
C 1.55874 -2.683901 0.795609 -3 0 -3 
C -0.795609 -3 -1.55874 -2.683901 -2.12132 -2.12132 
C -2.683901 -1.55874 -3 -0.795609 -3 0 
C -3 0.795609 -2.683901 1.55874 -2.12132 2.12132 
C -1.55874 2.683901 -0.795609 3 0 3 
z
" id="m7a503df57b" style="stroke:#d62728;"/>
    </defs>
    <g clip-path="url(#p0c7983b38b)">
     <use style="fill:#d62728;stroke:#d62728;" x="60.709628" xlink:href="#m7a503df57b" y="91.84932"/>
     <use style="fill:#d62728;stroke:#d62728;" x="126.906117" xlink:href="#m7a503df57b" y="129.65483"/>
     <use style="fill:#d62728;stroke:#d62728;" x="193.102607" xlink:href="#m7a503df57b" y="164.324702"/>
     <use style="fill:#d62728;stroke:#d62728;" x="259.299096" xlink:href="#m7a503df57b" y="190.838101"/>
     <use style="fill:#d62728;stroke:#d62728;" x="325.495586" xlink:href="#m7a503df57b" y="208.145818"/>
    </g>
   </g>
   <g id="line2d_17">
    <defs>
     <path d="M 0 3 
C 0.795609 3 1.55874 2.683901 2.12132 2.12132 
C 2.683901 1.55874 3 0.795609 3 0 
C 3 -0.795609 2.683901 -1.55874 2.12132 -2.12132 
C 1.55874 -2.683901 0.795609 -3 0 -3 
C -0.795609 -3 -1.55874 -2.683901 -2.12132 -2.12132 
C -2.683901 -1.55874 -3 -0.795609 -3 0 
C -3 0.795609 -2.683901 1.55874 -2.12132 2.12132 
C -1.55874 2.683901 -0.795609 3 0 3 
z
" id="m4040e19a16" style="stroke:#9467bd;"/>
    </defs>
    <g clip-path="url(#p0c7983b38b)">
     <use style="fill:#9467bd;stroke:#9467bd;" x="71.486572" xlink:href="#m4040e19a16" y="67.594325"/>
     <use style="fill:#9467bd;stroke:#9467bd;" x="137.683062" xlink:href="#m4040e19a16" y="66.794049"/>
     <use style="fill:#9467bd;stroke:#9467bd;" x="203.879551" xlink:href="#m4040e19a16" y="46.074741"/>
     <use style="fill:#9467bd;stroke:#9467bd;" x="270.076041" xlink:href="#m4040e19a16" y="41.495356"/>
     <use style="fill:#9467bd;stroke:#9467bd;" x="336.27253" xlink:href="#m4040e19a16" y="40.579939"/>
    </g>
   </g>
   <g id="line2d_18">
    <defs>
     <path d="M 0 3 
C 0.795609 3 1.55874 2.683901 2.12132 2.12132 
C 2.683901 1.55874 3 0.795609 3 0 
C 3 -0.795609 2.683901 -1.55874 2.12132 -2.12132 
C 1.55874 -2.683901 0.795609 -3 0 -3 
C -0.795609 -3 -1.55874 -2.683901 -2.12132 -2.12132 
C -2.683901 -1.55874 -3 -0.795609 -3 0 
C -3 0.795609 -2.683901 1.55874 -2.12132 2.12132 
C -1.55874 2.683901 -0.795609 3 0 3 
z
" id="m071f630f57" style="stroke:#8c564b;"/>
    </defs>
    <g clip-path="url(#p0c7983b38b)">
     <use style="fill:#8c564b;stroke:#8c564b;" x="66.802452" xlink:href="#m071f630f57" y="65.542111"/>
     <use style="fill:#8c564b;stroke:#8c564b;" x="132.998941" xlink:href="#m071f630f57" y="60.889241"/>
     <use style="fill:#8c564b;stroke:#8c564b;" x="199.195431" xlink:href="#m071f630f57" y="70.72843"/>
     <use style="fill:#8c564b;stroke:#8c564b;" x="265.39192" xlink:href="#m071f630f57" y="73.823063"/>
     <use style="fill:#8c564b;stroke:#8c564b;" x="331.588409" xlink:href="#m071f630f57" y="79.499271"/>
    </g>
   </g>
   <g id="line2d_19">
    <defs>
     <path d="M 0 3 
C 0.795609 3 1.55874 2.683901 2.12132 2.12132 
C 2.683901 1.55874 3 0.795609 3 0 
C 3 -0.795609 2.683901 -1.55874 2.12132 -2.12132 
C 1.55874 -2.683901 0.795609 -3 0 -3 
C -0.795609 -3 -1.55874 -2.683901 -2.12132 -2.12132 
C -2.683901 -1.55874 -3 -0.795609 -3 0 
C -3 0.795609 -2.683901 1.55874 -2.12132 2.12132 
C -1.55874 2.683901 -0.795609 3 0 3 
z
" id="m6f3337296e" style="stroke:#e377c2;"/>
    </defs>
    <g clip-path="url(#p0c7983b38b)">
     <use style="fill:#e377c2;stroke:#e377c2;" x="69.711725" xlink:href="#m6f3337296e" y="68.694416"/>
     <use style="fill:#e377c2;stroke:#e377c2;" x="135.908214" xlink:href="#m6f3337296e" y="71.215857"/>
     <use style="fill:#e377c2;stroke:#e377c2;" x="202.104703" xlink:href="#m6f3337296e" y="68.743462"/>
     <use style="fill:#e377c2;stroke:#e377c2;" x="268.301193" xlink:href="#m6f3337296e" y="68.96264"/>
     <use style="fill:#e377c2;stroke:#e377c2;" x="334.497682" xlink:href="#m6f3337296e" y="68.829957"/>
    </g>
   </g>
   <g id="line2d_20">
    <defs>
     <path d="M 0 3 
C 0.795609 3 1.55874 2.683901 2.12132 2.12132 
C 2.683901 1.55874 3 0.795609 3 0 
C 3 -0.795609 2.683901 -1.55874 2.12132 -2.12132 
C 1.55874 -2.683901 0.795609 -3 0 -3 
C -0.795609 -3 -1.55874 -2.683901 -2.12132 -2.12132 
C -2.683901 -1.55874 -3 -0.795609 -3 0 
C -3 0.795609 -2.683901 1.55874 -2.12132 2.12132 
C -1.55874 2.683901 -0.795609 3 0 3 
z
" id="mf419ef3f62" style="stroke:#7f7f7f;"/>
    </defs>
    <g clip-path="url(#p0c7983b38b)">
     <use style="fill:#7f7f7f;stroke:#7f7f7f;" x="70.019683" xlink:href="#mf419ef3f62" y="68.716987"/>
     <use style="fill:#7f7f7f;stroke:#7f7f7f;" x="136.216172" xlink:href="#mf419ef3f62" y="71.244863"/>
     <use style="fill:#7f7f7f;stroke:#7f7f7f;" x="202.412662" xlink:href="#mf419ef3f62" y="68.977095"/>
     <use style="fill:#7f7f7f;stroke:#7f7f7f;" x="268.609151" xlink:href="#mf419ef3f62" y="69.018308"/>
     <use style="fill:#7f7f7f;stroke:#7f7f7f;" x="334.80564" xlink:href="#mf419ef3f62" y="69.055492"/>
    </g>
   </g>
   <g id="line2d_21">
    <defs>
     <path d="M 0 3 
C 0.795609 3 1.55874 2.683901 2.12132 2.12132 
C 2.683901 1.55874 3 0.795609 3 0 
C 3 -0.795609 2.683901 -1.55874 2.12132 -2.12132 
C 1.55874 -2.683901 0.795609 -3 0 -3 
C -0.795609 -3 -1.55874 -2.683901 -2.12132 -2.12132 
C -2.683901 -1.55874 -3 -0.795609 -3 0 
C -3 0.795609 -2.683901 1.55874 -2.12132 2.12132 
C -1.55874 2.683901 -0.795609 3 0 3 
z
" id="m00cc4397e5" style="stroke:#bcbd22;"/>
    </defs>
    <g clip-path="url(#p0c7983b38b)">
     <use style="fill:#bcbd22;stroke:#bcbd22;" x="74.672658" xlink:href="#m00cc4397e5" y="68.732956"/>
     <use style="fill:#bcbd22;stroke:#bcbd22;" x="140.869147" xlink:href="#m00cc4397e5" y="71.310761"/>
     <use style="fill:#bcbd22;stroke:#bcbd22;" x="207.065637" xlink:href="#m00cc4397e5" y="69.347519"/>
     <use style="fill:#bcbd22;stroke:#bcbd22;" x="273.262126" xlink:href="#m00cc4397e5" y="69.357844"/>
     <use style="fill:#bcbd22;stroke:#bcbd22;" x="339.458615" xlink:href="#m00cc4397e5" y="69.435724"/>
    </g>
   </g>
   <g id="line2d_22">
    <defs>
     <path d="M 0 3 
C 0.795609 3 1.55874 2.683901 2.12132 2.12132 
C 2.683901 1.55874 3 0.795609 3 0 
C 3 -0.795609 2.683901 -1.55874 2.12132 -2.12132 
C 1.55874 -2.683901 0.795609 -3 0 -3 
C -0.795609 -3 -1.55874 -2.683901 -2.12132 -2.12132 
C -2.683901 -1.55874 -3 -0.795609 -3 0 
C -3 0.795609 -2.683901 1.55874 -2.12132 2.12132 
C -1.55874 2.683901 -0.795609 3 0 3 
z
" id="maa84fbe94f" style="stroke:#17becf;"/>
    </defs>
    <g clip-path="url(#p0c7983b38b)">
     <use style="fill:#17becf;stroke:#17becf;" x="68.769008" xlink:href="#maa84fbe94f" y="68.723144"/>
     <use style="fill:#17becf;stroke:#17becf;" x="134.965497" xlink:href="#maa84fbe94f" y="71.102143"/>
     <use style="fill:#17becf;stroke:#17becf;" x="201.161986" xlink:href="#maa84fbe94f" y="68.527"/>
     <use style="fill:#17becf;stroke:#17becf;" x="267.358476" xlink:href="#maa84fbe94f" y="68.703365"/>
     <use style="fill:#17becf;stroke:#17becf;" x="333.554965" xlink:href="#maa84fbe94f" y="68.64951"/>
    </g>
   </g>
   <g id="patch_3">
    <path d="M 46.55 241.1 
L 46.55 10.8 
" style="fill:none;stroke:#000000;stroke-linecap:square;stroke-linejoin:miter;stroke-width:0.8;"/>
   </g>
   <g id="patch_4">
    <path d="M 358.061816 241.1 
L 358.061816 10.8 
" style="fill:none;stroke:#000000;stroke-linecap:square;stroke-linejoin:miter;stroke-width:0.8;"/>
   </g>
   <g id="patch_5">
    <path d="M 46.55 241.1 
L 358.061816 241.1 
" style="fill:none;stroke:#000000;stroke-linecap:square;stroke-linejoin:miter;stroke-width:0.8;"/>
   </g>
   <g id="patch_6">
    <path d="M 46.55 10.8 
L 358.061816 10.8 
" style="fill:none;stroke:#000000;stroke-linecap:square;stroke-linejoin:miter;stroke-width:0.8;"/>
   </g>
   <g id="legend_1">
    <g id="patch_7">
     <path d="M 367.061816 204.101562 
L 419.061816 204.101562 
Q 421.061816 204.101562 421.061816 202.101562 
L 421.061816 53.798437 
Q 421.061816 51.798437 419.061816 51.798437 
L 367.061816 51.798437 
Q 365.061816 51.798437 365.061816 53.798437 
L 365.061816 202.101562 
Q 365.061816 204.101562 367.061816 204.101562 
z
" style="fill:#4c4c4c;opacity:0.5;stroke:#4c4c4c;stroke-linejoin:miter;"/>
    </g>
    <g id="patch_8">
     <path d="M 365.061816 202.101562 
L 417.061816 202.101562 
Q 419.061816 202.101562 419.061816 200.101562 
L 419.061816 51.798437 
Q 419.061816 49.798437 417.061816 49.798437 
L 365.061816 49.798437 
Q 363.061816 49.798437 363.061816 51.798437 
L 363.061816 200.101562 
Q 363.061816 202.101562 365.061816 202.101562 
z
" style="fill:#ffffff;stroke:#cccccc;stroke-linejoin:miter;"/>
    </g>
    <g id="LineCollection_11">
     <path d="M 377.061816 62.896875 
L 377.061816 52.896875 
" style="fill:none;stroke:#1f77b4;stroke-width:1.5;"/>
    </g>
    <g id="line2d_23"/>
    <g id="line2d_24">
     <g>
      <use style="fill:#1f77b4;stroke:#1f77b4;" x="377.061816" xlink:href="#m607e65a407" y="57.896875"/>
     </g>
    </g>
    <g id="text_15">
     <!-- $r_{V,V}$ -->
     <g transform="translate(395.061816 61.396875)scale(0.1 -0.1)">
      <defs>
       <path d="M 2853 2969 
Q 2766 3016 2653 3041 
Q 2541 3066 2413 3066 
Q 1953 3066 1609 2717 
Q 1266 2369 1153 1784 
L 800 0 
L 225 0 
L 909 3500 
L 1484 3500 
L 1375 2956 
Q 1603 3259 1920 3421 
Q 2238 3584 2597 3584 
Q 2691 3584 2781 3573 
Q 2872 3563 2963 3538 
L 2853 2969 
z
" id="DejaVuSans-Oblique-72" transform="scale(0.015625)"/>
      </defs>
      <use xlink:href="#DejaVuSans-Oblique-72"/>
      <use transform="translate(41.113281 -16.40625)scale(0.7)" xlink:href="#DejaVuSans-Oblique-56"/>
      <use transform="translate(88.999023 -16.40625)scale(0.7)" xlink:href="#DejaVuSans-2c"/>
      <use transform="translate(124.887695 -16.40625)scale(0.7)" xlink:href="#DejaVuSans-Oblique-56"/>
     </g>
    </g>
    <g id="LineCollection_12">
     <path d="M 377.061816 77.995312 
L 377.061816 67.995312 
" style="fill:none;stroke:#ff7f0e;stroke-width:1.5;"/>
    </g>
    <g id="line2d_25"/>
    <g id="line2d_26">
     <g>
      <use style="fill:#ff7f0e;stroke:#ff7f0e;" x="377.061816" xlink:href="#mda72a9def3" y="72.995312"/>
     </g>
    </g>
    <g id="text_16">
     <!-- $K_{V,V}$ -->
     <g transform="translate(395.061816 76.495312)scale(0.1 -0.1)">
      <use transform="translate(0 0.09375)" xlink:href="#DejaVuSans-Oblique-4b"/>
      <use transform="translate(65.576172 -16.3125)scale(0.7)" xlink:href="#DejaVuSans-Oblique-56"/>
      <use transform="translate(113.461914 -16.3125)scale(0.7)" xlink:href="#DejaVuSans-2c"/>
      <use transform="translate(149.350586 -16.3125)scale(0.7)" xlink:href="#DejaVuSans-Oblique-56"/>
     </g>
    </g>
    <g id="LineCollection_13">
     <path d="M 377.061816 93.09375 
L 377.061816 83.09375 
" style="fill:none;stroke:#2ca02c;stroke-width:1.5;"/>
    </g>
    <g id="line2d_27"/>
    <g id="line2d_28">
     <g>
      <use style="fill:#2ca02c;stroke:#2ca02c;" x="377.061816" xlink:href="#m800e504530" y="88.09375"/>
     </g>
    </g>
    <g id="text_17">
     <!-- $r_{V,I}$ -->
     <g transform="translate(395.061816 91.59375)scale(0.1 -0.1)">
      <defs>
       <path d="M 1081 4666 
L 1716 4666 
L 806 0 
L 172 0 
L 1081 4666 
z
" id="DejaVuSans-Oblique-49" transform="scale(0.015625)"/>
      </defs>
      <use xlink:href="#DejaVuSans-Oblique-72"/>
      <use transform="translate(41.113281 -16.40625)scale(0.7)" xlink:href="#DejaVuSans-Oblique-56"/>
      <use transform="translate(88.999023 -16.40625)scale(0.7)" xlink:href="#DejaVuSans-2c"/>
      <use transform="translate(124.887695 -16.40625)scale(0.7)" xlink:href="#DejaVuSans-Oblique-49"/>
     </g>
    </g>
    <g id="LineCollection_14">
     <path d="M 377.061816 108.192187 
L 377.061816 98.192187 
" style="fill:none;stroke:#d62728;stroke-width:1.5;"/>
    </g>
    <g id="line2d_29"/>
    <g id="line2d_30">
     <g>
      <use style="fill:#d62728;stroke:#d62728;" x="377.061816" xlink:href="#m7a503df57b" y="103.192187"/>
     </g>
    </g>
    <g id="text_18">
     <!-- $d_{V}$ -->
     <g transform="translate(395.061816 106.692187)scale(0.1 -0.1)">
      <defs>
       <path d="M 2675 525 
Q 2444 222 2128 65 
Q 1813 -91 1428 -91 
Q 903 -91 598 267 
Q 294 625 294 1247 
Q 294 1766 478 2236 
Q 663 2706 1013 3078 
Q 1244 3325 1534 3454 
Q 1825 3584 2144 3584 
Q 2481 3584 2739 3421 
Q 2997 3259 3138 2956 
L 3513 4863 
L 4091 4863 
L 3144 0 
L 2566 0 
L 2675 525 
z
M 891 1350 
Q 891 897 1095 644 
Q 1300 391 1663 391 
Q 1931 391 2161 520 
Q 2391 650 2566 903 
Q 2750 1166 2856 1509 
Q 2963 1853 2963 2188 
Q 2963 2622 2758 2865 
Q 2553 3109 2194 3109 
Q 1922 3109 1687 2981 
Q 1453 2853 1288 2613 
Q 1106 2353 998 2009 
Q 891 1666 891 1350 
z
" id="DejaVuSans-Oblique-64" transform="scale(0.015625)"/>
      </defs>
      <use transform="translate(0 0.015625)" xlink:href="#DejaVuSans-Oblique-64"/>
      <use transform="translate(63.476562 -16.390625)scale(0.7)" xlink:href="#DejaVuSans-Oblique-56"/>
     </g>
    </g>
    <g id="LineCollection_15">
     <path d="M 377.061816 122.870312 
L 377.061816 112.870312 
" style="fill:none;stroke:#9467bd;stroke-width:1.5;"/>
    </g>
    <g id="line2d_31"/>
    <g id="line2d_32">
     <g>
      <use style="fill:#9467bd;stroke:#9467bd;" x="377.061816" xlink:href="#m4040e19a16" y="117.870312"/>
     </g>
    </g>
    <g id="text_19">
     <!-- $r_{I,V}$ -->
     <g transform="translate(395.061816 121.370312)scale(0.1 -0.1)">
      <use xlink:href="#DejaVuSans-Oblique-72"/>
      <use transform="translate(41.113281 -16.40625)scale(0.7)" xlink:href="#DejaVuSans-Oblique-49"/>
      <use transform="translate(61.757812 -16.40625)scale(0.7)" xlink:href="#DejaVuSans-2c"/>
      <use transform="translate(97.646484 -16.40625)scale(0.7)" xlink:href="#DejaVuSans-Oblique-56"/>
     </g>
    </g>
    <g id="LineCollection_16">
     <path d="M 377.061816 137.96875 
L 377.061816 127.96875 
" style="fill:none;stroke:#8c564b;stroke-width:1.5;"/>
    </g>
    <g id="line2d_33"/>
    <g id="line2d_34">
     <g>
      <use style="fill:#8c564b;stroke:#8c564b;" x="377.061816" xlink:href="#m071f630f57" y="132.96875"/>
     </g>
    </g>
    <g id="text_20">
     <!-- $d_{I}$ -->
     <g transform="translate(395.061816 136.46875)scale(0.1 -0.1)">
      <use transform="translate(0 0.015625)" xlink:href="#DejaVuSans-Oblique-64"/>
      <use transform="translate(63.476562 -16.390625)scale(0.7)" xlink:href="#DejaVuSans-Oblique-49"/>
     </g>
    </g>
    <g id="LineCollection_17">
     <path d="M 377.061816 152.646875 
L 377.061816 142.646875 
" style="fill:none;stroke:#e377c2;stroke-width:1.5;"/>
    </g>
    <g id="line2d_35"/>
    <g id="line2d_36">
     <g>
      <use style="fill:#e377c2;stroke:#e377c2;" x="377.061816" xlink:href="#m6f3337296e" y="147.646875"/>
     </g>
    </g>
    <g id="text_21">
     <!-- $r_{M,I}$ -->
     <g transform="translate(395.061816 151.146875)scale(0.1 -0.1)">
      <defs>
       <path d="M 1081 4666 
L 2028 4666 
L 2572 1522 
L 4378 4666 
L 5350 4666 
L 4441 0 
L 3828 0 
L 4622 4091 
L 2791 897 
L 2175 897 
L 1581 4103 
L 788 0 
L 172 0 
L 1081 4666 
z
" id="DejaVuSans-Oblique-4d" transform="scale(0.015625)"/>
      </defs>
      <use xlink:href="#DejaVuSans-Oblique-72"/>
      <use transform="translate(41.113281 -16.40625)scale(0.7)" xlink:href="#DejaVuSans-Oblique-4d"/>
      <use transform="translate(101.508789 -16.40625)scale(0.7)" xlink:href="#DejaVuSans-2c"/>
      <use transform="translate(137.397461 -16.40625)scale(0.7)" xlink:href="#DejaVuSans-Oblique-49"/>
     </g>
    </g>
    <g id="LineCollection_18">
     <path d="M 377.061816 167.745312 
L 377.061816 157.745312 
" style="fill:none;stroke:#7f7f7f;stroke-width:1.5;"/>
    </g>
    <g id="line2d_37"/>
    <g id="line2d_38">
     <g>
      <use style="fill:#7f7f7f;stroke:#7f7f7f;" x="377.061816" xlink:href="#mf419ef3f62" y="162.745312"/>
     </g>
    </g>
    <g id="text_22">
     <!-- $K_{M,I}$ -->
     <g transform="translate(395.061816 166.245312)scale(0.1 -0.1)">
      <use transform="translate(0 0.09375)" xlink:href="#DejaVuSans-Oblique-4b"/>
      <use transform="translate(65.576172 -16.3125)scale(0.7)" xlink:href="#DejaVuSans-Oblique-4d"/>
      <use transform="translate(125.97168 -16.3125)scale(0.7)" xlink:href="#DejaVuSans-2c"/>
      <use transform="translate(161.860352 -16.3125)scale(0.7)" xlink:href="#DejaVuSans-Oblique-49"/>
     </g>
    </g>
    <g id="LineCollection_19">
     <path d="M 377.061816 182.84375 
L 377.061816 172.84375 
" style="fill:none;stroke:#bcbd22;stroke-width:1.5;"/>
    </g>
    <g id="line2d_39"/>
    <g id="line2d_40">
     <g>
      <use style="fill:#bcbd22;stroke:#bcbd22;" x="377.061816" xlink:href="#m00cc4397e5" y="177.84375"/>
     </g>
    </g>
    <g id="text_23">
     <!-- $d_{M}$ -->
     <g transform="translate(395.061816 181.34375)scale(0.1 -0.1)">
      <use transform="translate(0 0.015625)" xlink:href="#DejaVuSans-Oblique-64"/>
      <use transform="translate(63.476562 -16.390625)scale(0.7)" xlink:href="#DejaVuSans-Oblique-4d"/>
     </g>
    </g>
    <g id="LineCollection_20">
     <path d="M 377.061816 197.521875 
L 377.061816 187.521875 
" style="fill:none;stroke:#17becf;stroke-width:1.5;"/>
    </g>
    <g id="line2d_41"/>
    <g id="line2d_42">
     <g>
      <use style="fill:#17becf;stroke:#17becf;" x="377.061816" xlink:href="#maa84fbe94f" y="192.521875"/>
     </g>
    </g>
    <g id="text_24">
     <!-- $n$ -->
     <g transform="translate(395.061816 196.021875)scale(0.1 -0.1)">
      <defs>
       <path d="M 3566 2113 
L 3156 0 
L 2578 0 
L 2988 2091 
Q 3016 2238 3031 2350 
Q 3047 2463 3047 2528 
Q 3047 2791 2881 2937 
Q 2716 3084 2419 3084 
Q 1956 3084 1622 2776 
Q 1288 2469 1184 1941 
L 800 0 
L 225 0 
L 903 3500 
L 1478 3500 
L 1363 2950 
Q 1603 3253 1940 3418 
Q 2278 3584 2650 3584 
Q 3113 3584 3367 3334 
Q 3622 3084 3622 2631 
Q 3622 2519 3608 2391 
Q 3594 2263 3566 2113 
z
" id="DejaVuSans-Oblique-6e" transform="scale(0.015625)"/>
      </defs>
      <use xlink:href="#DejaVuSans-Oblique-6e"/>
     </g>
    </g>
   </g>
  </g>
 </g>
 <defs>
  <clipPath id="p0c7983b38b">
   <rect height="230.3" width="311.511816" x="46.55" y="10.8"/>
  </clipPath>
 </defs>
</svg>
