<?xml version="1.0" encoding="utf-8" standalone="no"?>
<!DOCTYPE svg PUBLIC "-//W3C//DTD SVG 1.1//EN"
  "http://www.w3.org/Graphics/SVG/1.1/DTD/svg11.dtd">
<svg height="288pt" version="1.1" viewBox="0 0 432 288" width="432pt" xmlns="http://www.w3.org/2000/svg" xmlns:xlink="http://www.w3.org/1999/xlink">
 <metadata>
  <rdf:RDF xmlns:cc="http://creativecommons.org/ns#" xmlns:dc="http://purl.org/dc/elements/1.1/" xmlns:rdf="http://www.w3.org/1999/02/22-rdf-syntax-ns#">
   <cc:Work>
    <dc:type rdf:resource="http://purl.org/dc/dcmitype/StillImage"/>
    <dc:date>2022-06-13T11:38:48.432241</dc:date>
    <dc:format>image/svg+xml</dc:format>
    <dc:creator>
     <cc:Agent>
      <dc:title>Matplotlib v3.4.3, https://matplotlib.org/</dc:title>
     </cc:Agent>
    </dc:creator>
   </cc:Work>
  </rdf:RDF>
 </metadata>
 <defs>
  <style type="text/css">*{stroke-linecap:butt;stroke-linejoin:round;}</style>
 </defs>
 <g id="figure_1">
  <g id="patch_1">
   <path d="M 0 288 
L 432 288 
L 432 0 
L 0 0 
z
" style="fill:none;"/>
  </g>
  <g id="axes_1">
   <g id="patch_2">
    <path d="M 47.675 241.1 
L 358.061816 241.1 
L 358.061816 10.8 
L 47.675 10.8 
z
" style="fill:#ffffff;"/>
   </g>
   <g id="matplotlib.axis_1">
    <g id="xtick_1">
     <g id="line2d_1">
      <defs>
       <path d="M 0 0 
L 0 3.5 
" id="m881766d554" style="stroke:#000000;stroke-width:0.8;"/>
      </defs>
      <g>
       <use style="stroke:#000000;stroke-width:0.8;" x="67.868873" xlink:href="#m881766d554" y="241.1"/>
      </g>
     </g>
     <g id="text_1">
      <!-- 1.25 -->
      <g transform="translate(56.736061 255.698438)scale(0.1 -0.1)">
       <defs>
        <path d="M 794 531 
L 1825 531 
L 1825 4091 
L 703 3866 
L 703 4441 
L 1819 4666 
L 2450 4666 
L 2450 531 
L 3481 531 
L 3481 0 
L 794 0 
L 794 531 
z
" id="DejaVuSans-31" transform="scale(0.015625)"/>
        <path d="M 684 794 
L 1344 794 
L 1344 0 
L 684 0 
L 684 794 
z
" id="DejaVuSans-2e" transform="scale(0.015625)"/>
        <path d="M 1228 531 
L 3431 531 
L 3431 0 
L 469 0 
L 469 531 
Q 828 903 1448 1529 
Q 2069 2156 2228 2338 
Q 2531 2678 2651 2914 
Q 2772 3150 2772 3378 
Q 2772 3750 2511 3984 
Q 2250 4219 1831 4219 
Q 1534 4219 1204 4116 
Q 875 4013 500 3803 
L 500 4441 
Q 881 4594 1212 4672 
Q 1544 4750 1819 4750 
Q 2544 4750 2975 4387 
Q 3406 4025 3406 3419 
Q 3406 3131 3298 2873 
Q 3191 2616 2906 2266 
Q 2828 2175 2409 1742 
Q 1991 1309 1228 531 
z
" id="DejaVuSans-32" transform="scale(0.015625)"/>
        <path d="M 691 4666 
L 3169 4666 
L 3169 4134 
L 1269 4134 
L 1269 2991 
Q 1406 3038 1543 3061 
Q 1681 3084 1819 3084 
Q 2600 3084 3056 2656 
Q 3513 2228 3513 1497 
Q 3513 744 3044 326 
Q 2575 -91 1722 -91 
Q 1428 -91 1123 -41 
Q 819 9 494 109 
L 494 744 
Q 775 591 1075 516 
Q 1375 441 1709 441 
Q 2250 441 2565 725 
Q 2881 1009 2881 1497 
Q 2881 1984 2565 2268 
Q 2250 2553 1709 2553 
Q 1456 2553 1204 2497 
Q 953 2441 691 2322 
L 691 4666 
z
" id="DejaVuSans-35" transform="scale(0.015625)"/>
       </defs>
       <use xlink:href="#DejaVuSans-31"/>
       <use x="63.623047" xlink:href="#DejaVuSans-2e"/>
       <use x="95.410156" xlink:href="#DejaVuSans-32"/>
       <use x="159.033203" xlink:href="#DejaVuSans-35"/>
      </g>
     </g>
    </g>
    <g id="xtick_2">
     <g id="line2d_2">
      <g>
       <use style="stroke:#000000;stroke-width:0.8;" x="133.826299" xlink:href="#m881766d554" y="241.1"/>
      </g>
     </g>
     <g id="text_2">
      <!-- 2.0 -->
      <g transform="translate(125.874737 255.698438)scale(0.1 -0.1)">
       <defs>
        <path d="M 2034 4250 
Q 1547 4250 1301 3770 
Q 1056 3291 1056 2328 
Q 1056 1369 1301 889 
Q 1547 409 2034 409 
Q 2525 409 2770 889 
Q 3016 1369 3016 2328 
Q 3016 3291 2770 3770 
Q 2525 4250 2034 4250 
z
M 2034 4750 
Q 2819 4750 3233 4129 
Q 3647 3509 3647 2328 
Q 3647 1150 3233 529 
Q 2819 -91 2034 -91 
Q 1250 -91 836 529 
Q 422 1150 422 2328 
Q 422 3509 836 4129 
Q 1250 4750 2034 4750 
z
" id="DejaVuSans-30" transform="scale(0.015625)"/>
       </defs>
       <use xlink:href="#DejaVuSans-32"/>
       <use x="63.623047" xlink:href="#DejaVuSans-2e"/>
       <use x="95.410156" xlink:href="#DejaVuSans-30"/>
      </g>
     </g>
    </g>
    <g id="xtick_3">
     <g id="line2d_3">
      <g>
       <use style="stroke:#000000;stroke-width:0.8;" x="199.783726" xlink:href="#m881766d554" y="241.1"/>
      </g>
     </g>
     <g id="text_3">
      <!-- 3.0 -->
      <g transform="translate(191.832163 255.698438)scale(0.1 -0.1)">
       <defs>
        <path d="M 2597 2516 
Q 3050 2419 3304 2112 
Q 3559 1806 3559 1356 
Q 3559 666 3084 287 
Q 2609 -91 1734 -91 
Q 1441 -91 1130 -33 
Q 819 25 488 141 
L 488 750 
Q 750 597 1062 519 
Q 1375 441 1716 441 
Q 2309 441 2620 675 
Q 2931 909 2931 1356 
Q 2931 1769 2642 2001 
Q 2353 2234 1838 2234 
L 1294 2234 
L 1294 2753 
L 1863 2753 
Q 2328 2753 2575 2939 
Q 2822 3125 2822 3475 
Q 2822 3834 2567 4026 
Q 2313 4219 1838 4219 
Q 1578 4219 1281 4162 
Q 984 4106 628 3988 
L 628 4550 
Q 988 4650 1302 4700 
Q 1616 4750 1894 4750 
Q 2613 4750 3031 4423 
Q 3450 4097 3450 3541 
Q 3450 3153 3228 2886 
Q 3006 2619 2597 2516 
z
" id="DejaVuSans-33" transform="scale(0.015625)"/>
       </defs>
       <use xlink:href="#DejaVuSans-33"/>
       <use x="63.623047" xlink:href="#DejaVuSans-2e"/>
       <use x="95.410156" xlink:href="#DejaVuSans-30"/>
      </g>
     </g>
    </g>
    <g id="xtick_4">
     <g id="line2d_4">
      <g>
       <use style="stroke:#000000;stroke-width:0.8;" x="265.741152" xlink:href="#m881766d554" y="241.1"/>
      </g>
     </g>
     <g id="text_4">
      <!-- 4.0 -->
      <g transform="translate(257.789589 255.698438)scale(0.1 -0.1)">
       <defs>
        <path d="M 2419 4116 
L 825 1625 
L 2419 1625 
L 2419 4116 
z
M 2253 4666 
L 3047 4666 
L 3047 1625 
L 3713 1625 
L 3713 1100 
L 3047 1100 
L 3047 0 
L 2419 0 
L 2419 1100 
L 313 1100 
L 313 1709 
L 2253 4666 
z
" id="DejaVuSans-34" transform="scale(0.015625)"/>
       </defs>
       <use xlink:href="#DejaVuSans-34"/>
       <use x="63.623047" xlink:href="#DejaVuSans-2e"/>
       <use x="95.410156" xlink:href="#DejaVuSans-30"/>
      </g>
     </g>
    </g>
    <g id="xtick_5">
     <g id="line2d_5">
      <g>
       <use style="stroke:#000000;stroke-width:0.8;" x="331.698578" xlink:href="#m881766d554" y="241.1"/>
      </g>
     </g>
     <g id="text_5">
      <!-- 5.0 -->
      <g transform="translate(323.747015 255.698438)scale(0.1 -0.1)">
       <use xlink:href="#DejaVuSans-35"/>
       <use x="63.623047" xlink:href="#DejaVuSans-2e"/>
       <use x="95.410156" xlink:href="#DejaVuSans-30"/>
      </g>
     </g>
    </g>
    <g id="text_6">
     <!-- Parameter $K_{M,I}$ H5N1:H1N1 ratio -->
     <g transform="translate(121.918408 269.378125)scale(0.1 -0.1)">
      <defs>
       <path d="M 1259 4147 
L 1259 2394 
L 2053 2394 
Q 2494 2394 2734 2622 
Q 2975 2850 2975 3272 
Q 2975 3691 2734 3919 
Q 2494 4147 2053 4147 
L 1259 4147 
z
M 628 4666 
L 2053 4666 
Q 2838 4666 3239 4311 
Q 3641 3956 3641 3272 
Q 3641 2581 3239 2228 
Q 2838 1875 2053 1875 
L 1259 1875 
L 1259 0 
L 628 0 
L 628 4666 
z
" id="DejaVuSans-50" transform="scale(0.015625)"/>
       <path d="M 2194 1759 
Q 1497 1759 1228 1600 
Q 959 1441 959 1056 
Q 959 750 1161 570 
Q 1363 391 1709 391 
Q 2188 391 2477 730 
Q 2766 1069 2766 1631 
L 2766 1759 
L 2194 1759 
z
M 3341 1997 
L 3341 0 
L 2766 0 
L 2766 531 
Q 2569 213 2275 61 
Q 1981 -91 1556 -91 
Q 1019 -91 701 211 
Q 384 513 384 1019 
Q 384 1609 779 1909 
Q 1175 2209 1959 2209 
L 2766 2209 
L 2766 2266 
Q 2766 2663 2505 2880 
Q 2244 3097 1772 3097 
Q 1472 3097 1187 3025 
Q 903 2953 641 2809 
L 641 3341 
Q 956 3463 1253 3523 
Q 1550 3584 1831 3584 
Q 2591 3584 2966 3190 
Q 3341 2797 3341 1997 
z
" id="DejaVuSans-61" transform="scale(0.015625)"/>
       <path d="M 2631 2963 
Q 2534 3019 2420 3045 
Q 2306 3072 2169 3072 
Q 1681 3072 1420 2755 
Q 1159 2438 1159 1844 
L 1159 0 
L 581 0 
L 581 3500 
L 1159 3500 
L 1159 2956 
Q 1341 3275 1631 3429 
Q 1922 3584 2338 3584 
Q 2397 3584 2469 3576 
Q 2541 3569 2628 3553 
L 2631 2963 
z
" id="DejaVuSans-72" transform="scale(0.015625)"/>
       <path d="M 3328 2828 
Q 3544 3216 3844 3400 
Q 4144 3584 4550 3584 
Q 5097 3584 5394 3201 
Q 5691 2819 5691 2113 
L 5691 0 
L 5113 0 
L 5113 2094 
Q 5113 2597 4934 2840 
Q 4756 3084 4391 3084 
Q 3944 3084 3684 2787 
Q 3425 2491 3425 1978 
L 3425 0 
L 2847 0 
L 2847 2094 
Q 2847 2600 2669 2842 
Q 2491 3084 2119 3084 
Q 1678 3084 1418 2786 
Q 1159 2488 1159 1978 
L 1159 0 
L 581 0 
L 581 3500 
L 1159 3500 
L 1159 2956 
Q 1356 3278 1631 3431 
Q 1906 3584 2284 3584 
Q 2666 3584 2933 3390 
Q 3200 3197 3328 2828 
z
" id="DejaVuSans-6d" transform="scale(0.015625)"/>
       <path d="M 3597 1894 
L 3597 1613 
L 953 1613 
Q 991 1019 1311 708 
Q 1631 397 2203 397 
Q 2534 397 2845 478 
Q 3156 559 3463 722 
L 3463 178 
Q 3153 47 2828 -22 
Q 2503 -91 2169 -91 
Q 1331 -91 842 396 
Q 353 884 353 1716 
Q 353 2575 817 3079 
Q 1281 3584 2069 3584 
Q 2775 3584 3186 3129 
Q 3597 2675 3597 1894 
z
M 3022 2063 
Q 3016 2534 2758 2815 
Q 2500 3097 2075 3097 
Q 1594 3097 1305 2825 
Q 1016 2553 972 2059 
L 3022 2063 
z
" id="DejaVuSans-65" transform="scale(0.015625)"/>
       <path d="M 1172 4494 
L 1172 3500 
L 2356 3500 
L 2356 3053 
L 1172 3053 
L 1172 1153 
Q 1172 725 1289 603 
Q 1406 481 1766 481 
L 2356 481 
L 2356 0 
L 1766 0 
Q 1100 0 847 248 
Q 594 497 594 1153 
L 594 3053 
L 172 3053 
L 172 3500 
L 594 3500 
L 594 4494 
L 1172 4494 
z
" id="DejaVuSans-74" transform="scale(0.015625)"/>
       <path id="DejaVuSans-20" transform="scale(0.015625)"/>
       <path d="M 1081 4666 
L 1716 4666 
L 1331 2700 
L 3781 4666 
L 4622 4666 
L 1850 2438 
L 3878 0 
L 3109 0 
L 1247 2272 
L 806 0 
L 172 0 
L 1081 4666 
z
" id="DejaVuSans-Oblique-4b" transform="scale(0.015625)"/>
       <path d="M 1081 4666 
L 2028 4666 
L 2572 1522 
L 4378 4666 
L 5350 4666 
L 4441 0 
L 3828 0 
L 4622 4091 
L 2791 897 
L 2175 897 
L 1581 4103 
L 788 0 
L 172 0 
L 1081 4666 
z
" id="DejaVuSans-Oblique-4d" transform="scale(0.015625)"/>
       <path d="M 750 794 
L 1409 794 
L 1409 256 
L 897 -744 
L 494 -744 
L 750 256 
L 750 794 
z
" id="DejaVuSans-2c" transform="scale(0.015625)"/>
       <path d="M 1081 4666 
L 1716 4666 
L 806 0 
L 172 0 
L 1081 4666 
z
" id="DejaVuSans-Oblique-49" transform="scale(0.015625)"/>
       <path d="M 628 4666 
L 1259 4666 
L 1259 2753 
L 3553 2753 
L 3553 4666 
L 4184 4666 
L 4184 0 
L 3553 0 
L 3553 2222 
L 1259 2222 
L 1259 0 
L 628 0 
L 628 4666 
z
" id="DejaVuSans-48" transform="scale(0.015625)"/>
       <path d="M 628 4666 
L 1478 4666 
L 3547 763 
L 3547 4666 
L 4159 4666 
L 4159 0 
L 3309 0 
L 1241 3903 
L 1241 0 
L 628 0 
L 628 4666 
z
" id="DejaVuSans-4e" transform="scale(0.015625)"/>
       <path d="M 750 794 
L 1409 794 
L 1409 0 
L 750 0 
L 750 794 
z
M 750 3309 
L 1409 3309 
L 1409 2516 
L 750 2516 
L 750 3309 
z
" id="DejaVuSans-3a" transform="scale(0.015625)"/>
       <path d="M 603 3500 
L 1178 3500 
L 1178 0 
L 603 0 
L 603 3500 
z
M 603 4863 
L 1178 4863 
L 1178 4134 
L 603 4134 
L 603 4863 
z
" id="DejaVuSans-69" transform="scale(0.015625)"/>
       <path d="M 1959 3097 
Q 1497 3097 1228 2736 
Q 959 2375 959 1747 
Q 959 1119 1226 758 
Q 1494 397 1959 397 
Q 2419 397 2687 759 
Q 2956 1122 2956 1747 
Q 2956 2369 2687 2733 
Q 2419 3097 1959 3097 
z
M 1959 3584 
Q 2709 3584 3137 3096 
Q 3566 2609 3566 1747 
Q 3566 888 3137 398 
Q 2709 -91 1959 -91 
Q 1206 -91 779 398 
Q 353 888 353 1747 
Q 353 2609 779 3096 
Q 1206 3584 1959 3584 
z
" id="DejaVuSans-6f" transform="scale(0.015625)"/>
      </defs>
      <use transform="translate(0 0.015625)" xlink:href="#DejaVuSans-50"/>
      <use transform="translate(60.302734 0.015625)" xlink:href="#DejaVuSans-61"/>
      <use transform="translate(121.582031 0.015625)" xlink:href="#DejaVuSans-72"/>
      <use transform="translate(162.695312 0.015625)" xlink:href="#DejaVuSans-61"/>
      <use transform="translate(223.974609 0.015625)" xlink:href="#DejaVuSans-6d"/>
      <use transform="translate(321.386719 0.015625)" xlink:href="#DejaVuSans-65"/>
      <use transform="translate(382.910156 0.015625)" xlink:href="#DejaVuSans-74"/>
      <use transform="translate(422.119141 0.015625)" xlink:href="#DejaVuSans-65"/>
      <use transform="translate(483.642578 0.015625)" xlink:href="#DejaVuSans-72"/>
      <use transform="translate(524.755859 0.015625)" xlink:href="#DejaVuSans-20"/>
      <use transform="translate(556.542969 0.015625)" xlink:href="#DejaVuSans-Oblique-4b"/>
      <use transform="translate(622.119141 -16.390625)scale(0.7)" xlink:href="#DejaVuSans-Oblique-4d"/>
      <use transform="translate(682.514648 -16.390625)scale(0.7)" xlink:href="#DejaVuSans-2c"/>
      <use transform="translate(718.40332 -16.390625)scale(0.7)" xlink:href="#DejaVuSans-Oblique-49"/>
      <use transform="translate(741.782227 0.015625)" xlink:href="#DejaVuSans-20"/>
      <use transform="translate(773.569336 0.015625)" xlink:href="#DejaVuSans-48"/>
      <use transform="translate(848.764648 0.015625)" xlink:href="#DejaVuSans-35"/>
      <use transform="translate(912.387695 0.015625)" xlink:href="#DejaVuSans-4e"/>
      <use transform="translate(987.192383 0.015625)" xlink:href="#DejaVuSans-31"/>
      <use transform="translate(1050.81543 0.015625)" xlink:href="#DejaVuSans-3a"/>
      <use transform="translate(1078.631836 0.015625)" xlink:href="#DejaVuSans-48"/>
      <use transform="translate(1153.827148 0.015625)" xlink:href="#DejaVuSans-31"/>
      <use transform="translate(1217.450195 0.015625)" xlink:href="#DejaVuSans-4e"/>
      <use transform="translate(1292.254883 0.015625)" xlink:href="#DejaVuSans-31"/>
      <use transform="translate(1355.87793 0.015625)" xlink:href="#DejaVuSans-20"/>
      <use transform="translate(1387.665039 0.015625)" xlink:href="#DejaVuSans-72"/>
      <use transform="translate(1428.77832 0.015625)" xlink:href="#DejaVuSans-61"/>
      <use transform="translate(1490.057617 0.015625)" xlink:href="#DejaVuSans-74"/>
      <use transform="translate(1529.266602 0.015625)" xlink:href="#DejaVuSans-69"/>
      <use transform="translate(1557.049805 0.015625)" xlink:href="#DejaVuSans-6f"/>
     </g>
    </g>
   </g>
   <g id="matplotlib.axis_2">
    <g id="ytick_1">
     <g id="line2d_6">
      <defs>
       <path d="M 0 0 
L -3.5 0 
" id="m3c6a044608" style="stroke:#000000;stroke-width:0.8;"/>
      </defs>
      <g>
       <use style="stroke:#000000;stroke-width:0.8;" x="47.675" xlink:href="#m3c6a044608" y="218.672094"/>
      </g>
     </g>
     <g id="text_7">
      <!-- 0.4 -->
      <g transform="translate(24.771875 222.471313)scale(0.1 -0.1)">
       <use xlink:href="#DejaVuSans-30"/>
       <use x="63.623047" xlink:href="#DejaVuSans-2e"/>
       <use x="95.410156" xlink:href="#DejaVuSans-34"/>
      </g>
     </g>
    </g>
    <g id="ytick_2">
     <g id="line2d_7">
      <g>
       <use style="stroke:#000000;stroke-width:0.8;" x="47.675" xlink:href="#m3c6a044608" y="188.676332"/>
      </g>
     </g>
     <g id="text_8">
      <!-- 0.5 -->
      <g transform="translate(24.771875 192.475551)scale(0.1 -0.1)">
       <use xlink:href="#DejaVuSans-30"/>
       <use x="63.623047" xlink:href="#DejaVuSans-2e"/>
       <use x="95.410156" xlink:href="#DejaVuSans-35"/>
      </g>
     </g>
    </g>
    <g id="ytick_3">
     <g id="line2d_8">
      <g>
       <use style="stroke:#000000;stroke-width:0.8;" x="47.675" xlink:href="#m3c6a044608" y="158.680569"/>
      </g>
     </g>
     <g id="text_9">
      <!-- 0.6 -->
      <g transform="translate(24.771875 162.479788)scale(0.1 -0.1)">
       <defs>
        <path d="M 2113 2584 
Q 1688 2584 1439 2293 
Q 1191 2003 1191 1497 
Q 1191 994 1439 701 
Q 1688 409 2113 409 
Q 2538 409 2786 701 
Q 3034 994 3034 1497 
Q 3034 2003 2786 2293 
Q 2538 2584 2113 2584 
z
M 3366 4563 
L 3366 3988 
Q 3128 4100 2886 4159 
Q 2644 4219 2406 4219 
Q 1781 4219 1451 3797 
Q 1122 3375 1075 2522 
Q 1259 2794 1537 2939 
Q 1816 3084 2150 3084 
Q 2853 3084 3261 2657 
Q 3669 2231 3669 1497 
Q 3669 778 3244 343 
Q 2819 -91 2113 -91 
Q 1303 -91 875 529 
Q 447 1150 447 2328 
Q 447 3434 972 4092 
Q 1497 4750 2381 4750 
Q 2619 4750 2861 4703 
Q 3103 4656 3366 4563 
z
" id="DejaVuSans-36" transform="scale(0.015625)"/>
       </defs>
       <use xlink:href="#DejaVuSans-30"/>
       <use x="63.623047" xlink:href="#DejaVuSans-2e"/>
       <use x="95.410156" xlink:href="#DejaVuSans-36"/>
      </g>
     </g>
    </g>
    <g id="ytick_4">
     <g id="line2d_9">
      <g>
       <use style="stroke:#000000;stroke-width:0.8;" x="47.675" xlink:href="#m3c6a044608" y="128.684806"/>
      </g>
     </g>
     <g id="text_10">
      <!-- 0.7 -->
      <g transform="translate(24.771875 132.484025)scale(0.1 -0.1)">
       <defs>
        <path d="M 525 4666 
L 3525 4666 
L 3525 4397 
L 1831 0 
L 1172 0 
L 2766 4134 
L 525 4134 
L 525 4666 
z
" id="DejaVuSans-37" transform="scale(0.015625)"/>
       </defs>
       <use xlink:href="#DejaVuSans-30"/>
       <use x="63.623047" xlink:href="#DejaVuSans-2e"/>
       <use x="95.410156" xlink:href="#DejaVuSans-37"/>
      </g>
     </g>
    </g>
    <g id="ytick_5">
     <g id="line2d_10">
      <g>
       <use style="stroke:#000000;stroke-width:0.8;" x="47.675" xlink:href="#m3c6a044608" y="98.689044"/>
      </g>
     </g>
     <g id="text_11">
      <!-- 0.8 -->
      <g transform="translate(24.771875 102.488263)scale(0.1 -0.1)">
       <defs>
        <path d="M 2034 2216 
Q 1584 2216 1326 1975 
Q 1069 1734 1069 1313 
Q 1069 891 1326 650 
Q 1584 409 2034 409 
Q 2484 409 2743 651 
Q 3003 894 3003 1313 
Q 3003 1734 2745 1975 
Q 2488 2216 2034 2216 
z
M 1403 2484 
Q 997 2584 770 2862 
Q 544 3141 544 3541 
Q 544 4100 942 4425 
Q 1341 4750 2034 4750 
Q 2731 4750 3128 4425 
Q 3525 4100 3525 3541 
Q 3525 3141 3298 2862 
Q 3072 2584 2669 2484 
Q 3125 2378 3379 2068 
Q 3634 1759 3634 1313 
Q 3634 634 3220 271 
Q 2806 -91 2034 -91 
Q 1263 -91 848 271 
Q 434 634 434 1313 
Q 434 1759 690 2068 
Q 947 2378 1403 2484 
z
M 1172 3481 
Q 1172 3119 1398 2916 
Q 1625 2713 2034 2713 
Q 2441 2713 2670 2916 
Q 2900 3119 2900 3481 
Q 2900 3844 2670 4047 
Q 2441 4250 2034 4250 
Q 1625 4250 1398 4047 
Q 1172 3844 1172 3481 
z
" id="DejaVuSans-38" transform="scale(0.015625)"/>
       </defs>
       <use xlink:href="#DejaVuSans-30"/>
       <use x="63.623047" xlink:href="#DejaVuSans-2e"/>
       <use x="95.410156" xlink:href="#DejaVuSans-38"/>
      </g>
     </g>
    </g>
    <g id="ytick_6">
     <g id="line2d_11">
      <g>
       <use style="stroke:#000000;stroke-width:0.8;" x="47.675" xlink:href="#m3c6a044608" y="68.693281"/>
      </g>
     </g>
     <g id="text_12">
      <!-- 0.9 -->
      <g transform="translate(24.771875 72.4925)scale(0.1 -0.1)">
       <defs>
        <path d="M 703 97 
L 703 672 
Q 941 559 1184 500 
Q 1428 441 1663 441 
Q 2288 441 2617 861 
Q 2947 1281 2994 2138 
Q 2813 1869 2534 1725 
Q 2256 1581 1919 1581 
Q 1219 1581 811 2004 
Q 403 2428 403 3163 
Q 403 3881 828 4315 
Q 1253 4750 1959 4750 
Q 2769 4750 3195 4129 
Q 3622 3509 3622 2328 
Q 3622 1225 3098 567 
Q 2575 -91 1691 -91 
Q 1453 -91 1209 -44 
Q 966 3 703 97 
z
M 1959 2075 
Q 2384 2075 2632 2365 
Q 2881 2656 2881 3163 
Q 2881 3666 2632 3958 
Q 2384 4250 1959 4250 
Q 1534 4250 1286 3958 
Q 1038 3666 1038 3163 
Q 1038 2656 1286 2365 
Q 1534 2075 1959 2075 
z
" id="DejaVuSans-39" transform="scale(0.015625)"/>
       </defs>
       <use xlink:href="#DejaVuSans-30"/>
       <use x="63.623047" xlink:href="#DejaVuSans-2e"/>
       <use x="95.410156" xlink:href="#DejaVuSans-39"/>
      </g>
     </g>
    </g>
    <g id="ytick_7">
     <g id="line2d_12">
      <g>
       <use style="stroke:#000000;stroke-width:0.8;" x="47.675" xlink:href="#m3c6a044608" y="38.697519"/>
      </g>
     </g>
     <g id="text_13">
      <!-- 1.0 -->
      <g transform="translate(24.771875 42.496737)scale(0.1 -0.1)">
       <use xlink:href="#DejaVuSans-31"/>
       <use x="63.623047" xlink:href="#DejaVuSans-2e"/>
       <use x="95.410156" xlink:href="#DejaVuSans-30"/>
      </g>
     </g>
    </g>
    <g id="text_14">
     <!-- SPOT Value -->
     <g transform="translate(18.692188 154.449219)rotate(-90)scale(0.1 -0.1)">
      <defs>
       <path d="M 3425 4513 
L 3425 3897 
Q 3066 4069 2747 4153 
Q 2428 4238 2131 4238 
Q 1616 4238 1336 4038 
Q 1056 3838 1056 3469 
Q 1056 3159 1242 3001 
Q 1428 2844 1947 2747 
L 2328 2669 
Q 3034 2534 3370 2195 
Q 3706 1856 3706 1288 
Q 3706 609 3251 259 
Q 2797 -91 1919 -91 
Q 1588 -91 1214 -16 
Q 841 59 441 206 
L 441 856 
Q 825 641 1194 531 
Q 1563 422 1919 422 
Q 2459 422 2753 634 
Q 3047 847 3047 1241 
Q 3047 1584 2836 1778 
Q 2625 1972 2144 2069 
L 1759 2144 
Q 1053 2284 737 2584 
Q 422 2884 422 3419 
Q 422 4038 858 4394 
Q 1294 4750 2059 4750 
Q 2388 4750 2728 4690 
Q 3069 4631 3425 4513 
z
" id="DejaVuSans-53" transform="scale(0.015625)"/>
       <path d="M 2522 4238 
Q 1834 4238 1429 3725 
Q 1025 3213 1025 2328 
Q 1025 1447 1429 934 
Q 1834 422 2522 422 
Q 3209 422 3611 934 
Q 4013 1447 4013 2328 
Q 4013 3213 3611 3725 
Q 3209 4238 2522 4238 
z
M 2522 4750 
Q 3503 4750 4090 4092 
Q 4678 3434 4678 2328 
Q 4678 1225 4090 567 
Q 3503 -91 2522 -91 
Q 1538 -91 948 565 
Q 359 1222 359 2328 
Q 359 3434 948 4092 
Q 1538 4750 2522 4750 
z
" id="DejaVuSans-4f" transform="scale(0.015625)"/>
       <path d="M -19 4666 
L 3928 4666 
L 3928 4134 
L 2272 4134 
L 2272 0 
L 1638 0 
L 1638 4134 
L -19 4134 
L -19 4666 
z
" id="DejaVuSans-54" transform="scale(0.015625)"/>
       <path d="M 1831 0 
L 50 4666 
L 709 4666 
L 2188 738 
L 3669 4666 
L 4325 4666 
L 2547 0 
L 1831 0 
z
" id="DejaVuSans-56" transform="scale(0.015625)"/>
       <path d="M 603 4863 
L 1178 4863 
L 1178 0 
L 603 0 
L 603 4863 
z
" id="DejaVuSans-6c" transform="scale(0.015625)"/>
       <path d="M 544 1381 
L 544 3500 
L 1119 3500 
L 1119 1403 
Q 1119 906 1312 657 
Q 1506 409 1894 409 
Q 2359 409 2629 706 
Q 2900 1003 2900 1516 
L 2900 3500 
L 3475 3500 
L 3475 0 
L 2900 0 
L 2900 538 
Q 2691 219 2414 64 
Q 2138 -91 1772 -91 
Q 1169 -91 856 284 
Q 544 659 544 1381 
z
M 1991 3584 
L 1991 3584 
z
" id="DejaVuSans-75" transform="scale(0.015625)"/>
      </defs>
      <use xlink:href="#DejaVuSans-53"/>
      <use x="63.476562" xlink:href="#DejaVuSans-50"/>
      <use x="123.779297" xlink:href="#DejaVuSans-4f"/>
      <use x="202.490234" xlink:href="#DejaVuSans-54"/>
      <use x="263.574219" xlink:href="#DejaVuSans-20"/>
      <use x="295.361328" xlink:href="#DejaVuSans-56"/>
      <use x="356.019531" xlink:href="#DejaVuSans-61"/>
      <use x="417.298828" xlink:href="#DejaVuSans-6c"/>
      <use x="445.082031" xlink:href="#DejaVuSans-75"/>
      <use x="508.460938" xlink:href="#DejaVuSans-65"/>
     </g>
    </g>
   </g>
   <g id="LineCollection_1">
    <path clip-path="url(#p0686d40065)" d="M 67.458739 219.563703 
L 67.458739 163.739481 
" style="fill:none;stroke:#1f77b4;stroke-width:1.5;"/>
    <path clip-path="url(#p0686d40065)" d="M 133.416165 219.575119 
L 133.416165 163.752359 
" style="fill:none;stroke:#1f77b4;stroke-width:1.5;"/>
    <path clip-path="url(#p0686d40065)" d="M 199.373591 219.565912 
L 199.373591 163.7447 
" style="fill:none;stroke:#1f77b4;stroke-width:1.5;"/>
    <path clip-path="url(#p0686d40065)" d="M 265.331017 219.56778 
L 265.331017 163.746441 
" style="fill:none;stroke:#1f77b4;stroke-width:1.5;"/>
    <path clip-path="url(#p0686d40065)" d="M 331.288443 219.563814 
L 331.288443 163.742552 
" style="fill:none;stroke:#1f77b4;stroke-width:1.5;"/>
   </g>
   <g id="LineCollection_2">
    <path clip-path="url(#p0686d40065)" d="M 64.860624 230.631818 
L 64.860624 174.807595 
" style="fill:none;stroke:#ff7f0e;stroke-width:1.5;"/>
    <path clip-path="url(#p0686d40065)" d="M 130.81805 230.614989 
L 130.81805 174.792229 
" style="fill:none;stroke:#ff7f0e;stroke-width:1.5;"/>
    <path clip-path="url(#p0686d40065)" d="M 196.775476 230.595968 
L 196.775476 174.774757 
" style="fill:none;stroke:#ff7f0e;stroke-width:1.5;"/>
    <path clip-path="url(#p0686d40065)" d="M 262.732902 230.601737 
L 262.732902 174.780398 
" style="fill:none;stroke:#ff7f0e;stroke-width:1.5;"/>
    <path clip-path="url(#p0686d40065)" d="M 328.690328 230.600248 
L 328.690328 174.778986 
" style="fill:none;stroke:#ff7f0e;stroke-width:1.5;"/>
   </g>
   <g id="LineCollection_3">
    <path clip-path="url(#p0686d40065)" d="M 80.123621 150.135769 
L 80.123621 94.311546 
" style="fill:none;stroke:#2ca02c;stroke-width:1.5;"/>
    <path clip-path="url(#p0686d40065)" d="M 146.081047 150.132975 
L 146.081047 94.310215 
" style="fill:none;stroke:#2ca02c;stroke-width:1.5;"/>
    <path clip-path="url(#p0686d40065)" d="M 212.038473 150.123657 
L 212.038473 94.302445 
" style="fill:none;stroke:#2ca02c;stroke-width:1.5;"/>
    <path clip-path="url(#p0686d40065)" d="M 277.995899 150.131237 
L 277.995899 94.309898 
" style="fill:none;stroke:#2ca02c;stroke-width:1.5;"/>
    <path clip-path="url(#p0686d40065)" d="M 343.953325 150.11902 
L 343.953325 94.297757 
" style="fill:none;stroke:#2ca02c;stroke-width:1.5;"/>
   </g>
   <g id="LineCollection_4">
    <path clip-path="url(#p0686d40065)" d="M 61.783492 224.519698 
L 61.783492 168.695475 
" style="fill:none;stroke:#d62728;stroke-width:1.5;"/>
    <path clip-path="url(#p0686d40065)" d="M 127.740918 224.507629 
L 127.740918 168.684869 
" style="fill:none;stroke:#d62728;stroke-width:1.5;"/>
    <path clip-path="url(#p0686d40065)" d="M 193.698344 224.499836 
L 193.698344 168.678625 
" style="fill:none;stroke:#d62728;stroke-width:1.5;"/>
    <path clip-path="url(#p0686d40065)" d="M 259.65577 224.498105 
L 259.65577 168.676766 
" style="fill:none;stroke:#d62728;stroke-width:1.5;"/>
    <path clip-path="url(#p0686d40065)" d="M 325.613196 224.499702 
L 325.613196 168.678439 
" style="fill:none;stroke:#d62728;stroke-width:1.5;"/>
   </g>
   <g id="LineCollection_5">
    <path clip-path="url(#p0686d40065)" d="M 72.521516 99.455159 
L 72.521516 43.630937 
" style="fill:none;stroke:#9467bd;stroke-width:1.5;"/>
    <path clip-path="url(#p0686d40065)" d="M 138.478942 99.459601 
L 138.478942 43.636841 
" style="fill:none;stroke:#9467bd;stroke-width:1.5;"/>
    <path clip-path="url(#p0686d40065)" d="M 204.436368 99.464117 
L 204.436368 43.642905 
" style="fill:none;stroke:#9467bd;stroke-width:1.5;"/>
    <path clip-path="url(#p0686d40065)" d="M 270.393794 99.457059 
L 270.393794 43.63572 
" style="fill:none;stroke:#9467bd;stroke-width:1.5;"/>
    <path clip-path="url(#p0686d40065)" d="M 336.35122 99.461958 
L 336.35122 43.640696 
" style="fill:none;stroke:#9467bd;stroke-width:1.5;"/>
   </g>
   <g id="LineCollection_6">
    <path clip-path="url(#p0686d40065)" d="M 67.854312 91.63825 
L 67.854312 35.814027 
" style="fill:none;stroke:#8c564b;stroke-width:1.5;"/>
    <path clip-path="url(#p0686d40065)" d="M 133.811738 91.629892 
L 133.811738 35.807132 
" style="fill:none;stroke:#8c564b;stroke-width:1.5;"/>
    <path clip-path="url(#p0686d40065)" d="M 199.769164 91.639399 
L 199.769164 35.818187 
" style="fill:none;stroke:#8c564b;stroke-width:1.5;"/>
    <path clip-path="url(#p0686d40065)" d="M 265.72659 91.640613 
L 265.72659 35.819274 
" style="fill:none;stroke:#8c564b;stroke-width:1.5;"/>
    <path clip-path="url(#p0686d40065)" d="M 331.684016 91.631239 
L 331.684016 35.809977 
" style="fill:none;stroke:#8c564b;stroke-width:1.5;"/>
   </g>
   <g id="LineCollection_7">
    <path clip-path="url(#p0686d40065)" d="M 70.753078 77.087959 
L 70.753078 21.268182 
" style="fill:none;stroke:#e377c2;stroke-width:1.5;"/>
    <path clip-path="url(#p0686d40065)" d="M 136.710504 77.109858 
L 136.710504 21.291543 
" style="fill:none;stroke:#e377c2;stroke-width:1.5;"/>
    <path clip-path="url(#p0686d40065)" d="M 202.66793 77.10787 
L 202.66793 21.291103 
" style="fill:none;stroke:#e377c2;stroke-width:1.5;"/>
    <path clip-path="url(#p0686d40065)" d="M 268.625356 77.109776 
L 268.625356 21.292882 
" style="fill:none;stroke:#e377c2;stroke-width:1.5;"/>
    <path clip-path="url(#p0686d40065)" d="M 334.582782 77.11242 
L 334.582782 21.295602 
" style="fill:none;stroke:#e377c2;stroke-width:1.5;"/>
   </g>
   <g id="LineCollection_8">
    <path clip-path="url(#p0686d40065)" d="M 71.059924 77.148785 
L 71.059924 21.329007 
" style="fill:none;stroke:#7f7f7f;stroke-width:1.5;"/>
    <path clip-path="url(#p0686d40065)" d="M 137.01735 77.141266 
L 137.01735 21.32295 
" style="fill:none;stroke:#7f7f7f;stroke-width:1.5;"/>
    <path clip-path="url(#p0686d40065)" d="M 202.974776 77.146188 
L 202.974776 21.329422 
" style="fill:none;stroke:#7f7f7f;stroke-width:1.5;"/>
    <path clip-path="url(#p0686d40065)" d="M 268.932202 77.144156 
L 268.932202 21.327261 
" style="fill:none;stroke:#7f7f7f;stroke-width:1.5;"/>
    <path clip-path="url(#p0686d40065)" d="M 334.889628 77.144488 
L 334.889628 21.32767 
" style="fill:none;stroke:#7f7f7f;stroke-width:1.5;"/>
   </g>
   <g id="LineCollection_9">
    <path clip-path="url(#p0686d40065)" d="M 75.696095 77.158463 
L 75.696095 21.338685 
" style="fill:none;stroke:#bcbd22;stroke-width:1.5;"/>
    <path clip-path="url(#p0686d40065)" d="M 141.653521 77.157185 
L 141.653521 21.33887 
" style="fill:none;stroke:#bcbd22;stroke-width:1.5;"/>
    <path clip-path="url(#p0686d40065)" d="M 207.610947 77.143453 
L 207.610947 21.326686 
" style="fill:none;stroke:#bcbd22;stroke-width:1.5;"/>
    <path clip-path="url(#p0686d40065)" d="M 273.568373 77.138077 
L 273.568373 21.321183 
" style="fill:none;stroke:#bcbd22;stroke-width:1.5;"/>
    <path clip-path="url(#p0686d40065)" d="M 339.525799 77.139622 
L 339.525799 21.322804 
" style="fill:none;stroke:#bcbd22;stroke-width:1.5;"/>
   </g>
   <g id="LineCollection_10">
    <path clip-path="url(#p0686d40065)" d="M 69.813766 77.17194 
L 69.813766 21.352162 
" style="fill:none;stroke:#17becf;stroke-width:1.5;"/>
    <path clip-path="url(#p0686d40065)" d="M 135.771192 77.161997 
L 135.771192 21.343682 
" style="fill:none;stroke:#17becf;stroke-width:1.5;"/>
    <path clip-path="url(#p0686d40065)" d="M 201.728618 77.167462 
L 201.728618 21.350695 
" style="fill:none;stroke:#17becf;stroke-width:1.5;"/>
    <path clip-path="url(#p0686d40065)" d="M 267.686044 77.157005 
L 267.686044 21.34011 
" style="fill:none;stroke:#17becf;stroke-width:1.5;"/>
    <path clip-path="url(#p0686d40065)" d="M 333.64347 77.156824 
L 333.64347 21.340006 
" style="fill:none;stroke:#17becf;stroke-width:1.5;"/>
   </g>
   <g id="line2d_13">
    <defs>
     <path d="M 0 3 
C 0.795609 3 1.55874 2.683901 2.12132 2.12132 
C 2.683901 1.55874 3 0.795609 3 0 
C 3 -0.795609 2.683901 -1.55874 2.12132 -2.12132 
C 1.55874 -2.683901 0.795609 -3 0 -3 
C -0.795609 -3 -1.55874 -2.683901 -2.12132 -2.12132 
C -2.683901 -1.55874 -3 -0.795609 -3 0 
C -3 0.795609 -2.683901 1.55874 -2.12132 2.12132 
C -1.55874 2.683901 -0.795609 3 0 3 
z
" id="mfce4ff902c" style="stroke:#1f77b4;"/>
    </defs>
    <g clip-path="url(#p0686d40065)">
     <use style="fill:#1f77b4;stroke:#1f77b4;" x="67.458739" xlink:href="#mfce4ff902c" y="191.651592"/>
     <use style="fill:#1f77b4;stroke:#1f77b4;" x="133.416165" xlink:href="#mfce4ff902c" y="191.663739"/>
     <use style="fill:#1f77b4;stroke:#1f77b4;" x="199.373591" xlink:href="#mfce4ff902c" y="191.655306"/>
     <use style="fill:#1f77b4;stroke:#1f77b4;" x="265.331017" xlink:href="#mfce4ff902c" y="191.657111"/>
     <use style="fill:#1f77b4;stroke:#1f77b4;" x="331.288443" xlink:href="#mfce4ff902c" y="191.653183"/>
    </g>
   </g>
   <g id="line2d_14">
    <defs>
     <path d="M 0 3 
C 0.795609 3 1.55874 2.683901 2.12132 2.12132 
C 2.683901 1.55874 3 0.795609 3 0 
C 3 -0.795609 2.683901 -1.55874 2.12132 -2.12132 
C 1.55874 -2.683901 0.795609 -3 0 -3 
C -0.795609 -3 -1.55874 -2.683901 -2.12132 -2.12132 
C -2.683901 -1.55874 -3 -0.795609 -3 0 
C -3 0.795609 -2.683901 1.55874 -2.12132 2.12132 
C -1.55874 2.683901 -0.795609 3 0 3 
z
" id="m24f4385e7d" style="stroke:#ff7f0e;"/>
    </defs>
    <g clip-path="url(#p0686d40065)">
     <use style="fill:#ff7f0e;stroke:#ff7f0e;" x="64.860624" xlink:href="#m24f4385e7d" y="202.719707"/>
     <use style="fill:#ff7f0e;stroke:#ff7f0e;" x="130.81805" xlink:href="#m24f4385e7d" y="202.703609"/>
     <use style="fill:#ff7f0e;stroke:#ff7f0e;" x="196.775476" xlink:href="#m24f4385e7d" y="202.685362"/>
     <use style="fill:#ff7f0e;stroke:#ff7f0e;" x="262.732902" xlink:href="#m24f4385e7d" y="202.691068"/>
     <use style="fill:#ff7f0e;stroke:#ff7f0e;" x="328.690328" xlink:href="#m24f4385e7d" y="202.689617"/>
    </g>
   </g>
   <g id="line2d_15">
    <defs>
     <path d="M 0 3 
C 0.795609 3 1.55874 2.683901 2.12132 2.12132 
C 2.683901 1.55874 3 0.795609 3 0 
C 3 -0.795609 2.683901 -1.55874 2.12132 -2.12132 
C 1.55874 -2.683901 0.795609 -3 0 -3 
C -0.795609 -3 -1.55874 -2.683901 -2.12132 -2.12132 
C -2.683901 -1.55874 -3 -0.795609 -3 0 
C -3 0.795609 -2.683901 1.55874 -2.12132 2.12132 
C -1.55874 2.683901 -0.795609 3 0 3 
z
" id="m3d529894d7" style="stroke:#2ca02c;"/>
    </defs>
    <g clip-path="url(#p0686d40065)">
     <use style="fill:#2ca02c;stroke:#2ca02c;" x="80.123621" xlink:href="#m3d529894d7" y="122.223657"/>
     <use style="fill:#2ca02c;stroke:#2ca02c;" x="146.081047" xlink:href="#m3d529894d7" y="122.221595"/>
     <use style="fill:#2ca02c;stroke:#2ca02c;" x="212.038473" xlink:href="#m3d529894d7" y="122.213051"/>
     <use style="fill:#2ca02c;stroke:#2ca02c;" x="277.995899" xlink:href="#m3d529894d7" y="122.220567"/>
     <use style="fill:#2ca02c;stroke:#2ca02c;" x="343.953325" xlink:href="#m3d529894d7" y="122.208389"/>
    </g>
   </g>
   <g id="line2d_16">
    <defs>
     <path d="M 0 3 
C 0.795609 3 1.55874 2.683901 2.12132 2.12132 
C 2.683901 1.55874 3 0.795609 3 0 
C 3 -0.795609 2.683901 -1.55874 2.12132 -2.12132 
C 1.55874 -2.683901 0.795609 -3 0 -3 
C -0.795609 -3 -1.55874 -2.683901 -2.12132 -2.12132 
C -2.683901 -1.55874 -3 -0.795609 -3 0 
C -3 0.795609 -2.683901 1.55874 -2.12132 2.12132 
C -1.55874 2.683901 -0.795609 3 0 3 
z
" id="ma8e37b20d9" style="stroke:#d62728;"/>
    </defs>
    <g clip-path="url(#p0686d40065)">
     <use style="fill:#d62728;stroke:#d62728;" x="61.783492" xlink:href="#ma8e37b20d9" y="196.607586"/>
     <use style="fill:#d62728;stroke:#d62728;" x="127.740918" xlink:href="#ma8e37b20d9" y="196.596249"/>
     <use style="fill:#d62728;stroke:#d62728;" x="193.698344" xlink:href="#ma8e37b20d9" y="196.589231"/>
     <use style="fill:#d62728;stroke:#d62728;" x="259.65577" xlink:href="#ma8e37b20d9" y="196.587436"/>
     <use style="fill:#d62728;stroke:#d62728;" x="325.613196" xlink:href="#ma8e37b20d9" y="196.589071"/>
    </g>
   </g>
   <g id="line2d_17">
    <defs>
     <path d="M 0 3 
C 0.795609 3 1.55874 2.683901 2.12132 2.12132 
C 2.683901 1.55874 3 0.795609 3 0 
C 3 -0.795609 2.683901 -1.55874 2.12132 -2.12132 
C 1.55874 -2.683901 0.795609 -3 0 -3 
C -0.795609 -3 -1.55874 -2.683901 -2.12132 -2.12132 
C -2.683901 -1.55874 -3 -0.795609 -3 0 
C -3 0.795609 -2.683901 1.55874 -2.12132 2.12132 
C -1.55874 2.683901 -0.795609 3 0 3 
z
" id="m7566af22fa" style="stroke:#9467bd;"/>
    </defs>
    <g clip-path="url(#p0686d40065)">
     <use style="fill:#9467bd;stroke:#9467bd;" x="72.521516" xlink:href="#m7566af22fa" y="71.543048"/>
     <use style="fill:#9467bd;stroke:#9467bd;" x="138.478942" xlink:href="#m7566af22fa" y="71.548221"/>
     <use style="fill:#9467bd;stroke:#9467bd;" x="204.436368" xlink:href="#m7566af22fa" y="71.553511"/>
     <use style="fill:#9467bd;stroke:#9467bd;" x="270.393794" xlink:href="#m7566af22fa" y="71.546389"/>
     <use style="fill:#9467bd;stroke:#9467bd;" x="336.35122" xlink:href="#m7566af22fa" y="71.551327"/>
    </g>
   </g>
   <g id="line2d_18">
    <defs>
     <path d="M 0 3 
C 0.795609 3 1.55874 2.683901 2.12132 2.12132 
C 2.683901 1.55874 3 0.795609 3 0 
C 3 -0.795609 2.683901 -1.55874 2.12132 -2.12132 
C 1.55874 -2.683901 0.795609 -3 0 -3 
C -0.795609 -3 -1.55874 -2.683901 -2.12132 -2.12132 
C -2.683901 -1.55874 -3 -0.795609 -3 0 
C -3 0.795609 -2.683901 1.55874 -2.12132 2.12132 
C -1.55874 2.683901 -0.795609 3 0 3 
z
" id="m0e4a943e61" style="stroke:#8c564b;"/>
    </defs>
    <g clip-path="url(#p0686d40065)">
     <use style="fill:#8c564b;stroke:#8c564b;" x="67.854312" xlink:href="#m0e4a943e61" y="63.726138"/>
     <use style="fill:#8c564b;stroke:#8c564b;" x="133.811738" xlink:href="#m0e4a943e61" y="63.718512"/>
     <use style="fill:#8c564b;stroke:#8c564b;" x="199.769164" xlink:href="#m0e4a943e61" y="63.728793"/>
     <use style="fill:#8c564b;stroke:#8c564b;" x="265.72659" xlink:href="#m0e4a943e61" y="63.729943"/>
     <use style="fill:#8c564b;stroke:#8c564b;" x="331.684016" xlink:href="#m0e4a943e61" y="63.720608"/>
    </g>
   </g>
   <g id="line2d_19">
    <defs>
     <path d="M 0 3 
C 0.795609 3 1.55874 2.683901 2.12132 2.12132 
C 2.683901 1.55874 3 0.795609 3 0 
C 3 -0.795609 2.683901 -1.55874 2.12132 -2.12132 
C 1.55874 -2.683901 0.795609 -3 0 -3 
C -0.795609 -3 -1.55874 -2.683901 -2.12132 -2.12132 
C -2.683901 -1.55874 -3 -0.795609 -3 0 
C -3 0.795609 -2.683901 1.55874 -2.12132 2.12132 
C -1.55874 2.683901 -0.795609 3 0 3 
z
" id="mac50a0c065" style="stroke:#e377c2;"/>
    </defs>
    <g clip-path="url(#p0686d40065)">
     <use style="fill:#e377c2;stroke:#e377c2;" x="70.753078" xlink:href="#mac50a0c065" y="49.178071"/>
     <use style="fill:#e377c2;stroke:#e377c2;" x="136.710504" xlink:href="#mac50a0c065" y="49.2007"/>
     <use style="fill:#e377c2;stroke:#e377c2;" x="202.66793" xlink:href="#mac50a0c065" y="49.199486"/>
     <use style="fill:#e377c2;stroke:#e377c2;" x="268.625356" xlink:href="#mac50a0c065" y="49.201329"/>
     <use style="fill:#e377c2;stroke:#e377c2;" x="334.582782" xlink:href="#mac50a0c065" y="49.204011"/>
    </g>
   </g>
   <g id="line2d_20">
    <defs>
     <path d="M 0 3 
C 0.795609 3 1.55874 2.683901 2.12132 2.12132 
C 2.683901 1.55874 3 0.795609 3 0 
C 3 -0.795609 2.683901 -1.55874 2.12132 -2.12132 
C 1.55874 -2.683901 0.795609 -3 0 -3 
C -0.795609 -3 -1.55874 -2.683901 -2.12132 -2.12132 
C -2.683901 -1.55874 -3 -0.795609 -3 0 
C -3 0.795609 -2.683901 1.55874 -2.12132 2.12132 
C -1.55874 2.683901 -0.795609 3 0 3 
z
" id="m601b689d36" style="stroke:#7f7f7f;"/>
    </defs>
    <g clip-path="url(#p0686d40065)">
     <use style="fill:#7f7f7f;stroke:#7f7f7f;" x="71.059924" xlink:href="#m601b689d36" y="49.238896"/>
     <use style="fill:#7f7f7f;stroke:#7f7f7f;" x="137.01735" xlink:href="#m601b689d36" y="49.232108"/>
     <use style="fill:#7f7f7f;stroke:#7f7f7f;" x="202.974776" xlink:href="#m601b689d36" y="49.237805"/>
     <use style="fill:#7f7f7f;stroke:#7f7f7f;" x="268.932202" xlink:href="#m601b689d36" y="49.235709"/>
     <use style="fill:#7f7f7f;stroke:#7f7f7f;" x="334.889628" xlink:href="#m601b689d36" y="49.236079"/>
    </g>
   </g>
   <g id="line2d_21">
    <defs>
     <path d="M 0 3 
C 0.795609 3 1.55874 2.683901 2.12132 2.12132 
C 2.683901 1.55874 3 0.795609 3 0 
C 3 -0.795609 2.683901 -1.55874 2.12132 -2.12132 
C 1.55874 -2.683901 0.795609 -3 0 -3 
C -0.795609 -3 -1.55874 -2.683901 -2.12132 -2.12132 
C -2.683901 -1.55874 -3 -0.795609 -3 0 
C -3 0.795609 -2.683901 1.55874 -2.12132 2.12132 
C -1.55874 2.683901 -0.795609 3 0 3 
z
" id="md3c941d2e6" style="stroke:#bcbd22;"/>
    </defs>
    <g clip-path="url(#p0686d40065)">
     <use style="fill:#bcbd22;stroke:#bcbd22;" x="75.696095" xlink:href="#md3c941d2e6" y="49.248574"/>
     <use style="fill:#bcbd22;stroke:#bcbd22;" x="141.653521" xlink:href="#md3c941d2e6" y="49.248027"/>
     <use style="fill:#bcbd22;stroke:#bcbd22;" x="207.610947" xlink:href="#md3c941d2e6" y="49.235069"/>
     <use style="fill:#bcbd22;stroke:#bcbd22;" x="273.568373" xlink:href="#md3c941d2e6" y="49.22963"/>
     <use style="fill:#bcbd22;stroke:#bcbd22;" x="339.525799" xlink:href="#md3c941d2e6" y="49.231213"/>
    </g>
   </g>
   <g id="line2d_22">
    <defs>
     <path d="M 0 3 
C 0.795609 3 1.55874 2.683901 2.12132 2.12132 
C 2.683901 1.55874 3 0.795609 3 0 
C 3 -0.795609 2.683901 -1.55874 2.12132 -2.12132 
C 1.55874 -2.683901 0.795609 -3 0 -3 
C -0.795609 -3 -1.55874 -2.683901 -2.12132 -2.12132 
C -2.683901 -1.55874 -3 -0.795609 -3 0 
C -3 0.795609 -2.683901 1.55874 -2.12132 2.12132 
C -1.55874 2.683901 -0.795609 3 0 3 
z
" id="m0a99e9ec98" style="stroke:#17becf;"/>
    </defs>
    <g clip-path="url(#p0686d40065)">
     <use style="fill:#17becf;stroke:#17becf;" x="69.813766" xlink:href="#m0a99e9ec98" y="49.262051"/>
     <use style="fill:#17becf;stroke:#17becf;" x="135.771192" xlink:href="#m0a99e9ec98" y="49.25284"/>
     <use style="fill:#17becf;stroke:#17becf;" x="201.728618" xlink:href="#m0a99e9ec98" y="49.259079"/>
     <use style="fill:#17becf;stroke:#17becf;" x="267.686044" xlink:href="#m0a99e9ec98" y="49.248557"/>
     <use style="fill:#17becf;stroke:#17becf;" x="333.64347" xlink:href="#m0a99e9ec98" y="49.248415"/>
    </g>
   </g>
   <g id="patch_3">
    <path d="M 47.675 241.1 
L 47.675 10.8 
" style="fill:none;stroke:#000000;stroke-linecap:square;stroke-linejoin:miter;stroke-width:0.8;"/>
   </g>
   <g id="patch_4">
    <path d="M 358.061816 241.1 
L 358.061816 10.8 
" style="fill:none;stroke:#000000;stroke-linecap:square;stroke-linejoin:miter;stroke-width:0.8;"/>
   </g>
   <g id="patch_5">
    <path d="M 47.675 241.1 
L 358.061816 241.1 
" style="fill:none;stroke:#000000;stroke-linecap:square;stroke-linejoin:miter;stroke-width:0.8;"/>
   </g>
   <g id="patch_6">
    <path d="M 47.675 10.8 
L 358.061816 10.8 
" style="fill:none;stroke:#000000;stroke-linecap:square;stroke-linejoin:miter;stroke-width:0.8;"/>
   </g>
   <g id="legend_1">
    <g id="patch_7">
     <path d="M 367.061816 204.101562 
L 419.061816 204.101562 
Q 421.061816 204.101562 421.061816 202.101562 
L 421.061816 53.798437 
Q 421.061816 51.798437 419.061816 51.798437 
L 367.061816 51.798437 
Q 365.061816 51.798437 365.061816 53.798437 
L 365.061816 202.101562 
Q 365.061816 204.101562 367.061816 204.101562 
z
" style="fill:#4c4c4c;opacity:0.5;stroke:#4c4c4c;stroke-linejoin:miter;"/>
    </g>
    <g id="patch_8">
     <path d="M 365.061816 202.101562 
L 417.061816 202.101562 
Q 419.061816 202.101562 419.061816 200.101562 
L 419.061816 51.798437 
Q 419.061816 49.798437 417.061816 49.798437 
L 365.061816 49.798437 
Q 363.061816 49.798437 363.061816 51.798437 
L 363.061816 200.101562 
Q 363.061816 202.101562 365.061816 202.101562 
z
" style="fill:#ffffff;stroke:#cccccc;stroke-linejoin:miter;"/>
    </g>
    <g id="LineCollection_11">
     <path d="M 377.061816 62.896875 
L 377.061816 52.896875 
" style="fill:none;stroke:#1f77b4;stroke-width:1.5;"/>
    </g>
    <g id="line2d_23"/>
    <g id="line2d_24">
     <g>
      <use style="fill:#1f77b4;stroke:#1f77b4;" x="377.061816" xlink:href="#mfce4ff902c" y="57.896875"/>
     </g>
    </g>
    <g id="text_15">
     <!-- $r_{V,V}$ -->
     <g transform="translate(395.061816 61.396875)scale(0.1 -0.1)">
      <defs>
       <path d="M 2853 2969 
Q 2766 3016 2653 3041 
Q 2541 3066 2413 3066 
Q 1953 3066 1609 2717 
Q 1266 2369 1153 1784 
L 800 0 
L 225 0 
L 909 3500 
L 1484 3500 
L 1375 2956 
Q 1603 3259 1920 3421 
Q 2238 3584 2597 3584 
Q 2691 3584 2781 3573 
Q 2872 3563 2963 3538 
L 2853 2969 
z
" id="DejaVuSans-Oblique-72" transform="scale(0.015625)"/>
       <path d="M 1319 0 
L 500 4666 
L 1119 4666 
L 1797 653 
L 4063 4666 
L 4750 4666 
L 2053 0 
L 1319 0 
z
" id="DejaVuSans-Oblique-56" transform="scale(0.015625)"/>
      </defs>
      <use xlink:href="#DejaVuSans-Oblique-72"/>
      <use transform="translate(41.113281 -16.40625)scale(0.7)" xlink:href="#DejaVuSans-Oblique-56"/>
      <use transform="translate(88.999023 -16.40625)scale(0.7)" xlink:href="#DejaVuSans-2c"/>
      <use transform="translate(124.887695 -16.40625)scale(0.7)" xlink:href="#DejaVuSans-Oblique-56"/>
     </g>
    </g>
    <g id="LineCollection_12">
     <path d="M 377.061816 77.995312 
L 377.061816 67.995312 
" style="fill:none;stroke:#ff7f0e;stroke-width:1.5;"/>
    </g>
    <g id="line2d_25"/>
    <g id="line2d_26">
     <g>
      <use style="fill:#ff7f0e;stroke:#ff7f0e;" x="377.061816" xlink:href="#m24f4385e7d" y="72.995312"/>
     </g>
    </g>
    <g id="text_16">
     <!-- $K_{V,V}$ -->
     <g transform="translate(395.061816 76.495312)scale(0.1 -0.1)">
      <use transform="translate(0 0.09375)" xlink:href="#DejaVuSans-Oblique-4b"/>
      <use transform="translate(65.576172 -16.3125)scale(0.7)" xlink:href="#DejaVuSans-Oblique-56"/>
      <use transform="translate(113.461914 -16.3125)scale(0.7)" xlink:href="#DejaVuSans-2c"/>
      <use transform="translate(149.350586 -16.3125)scale(0.7)" xlink:href="#DejaVuSans-Oblique-56"/>
     </g>
    </g>
    <g id="LineCollection_13">
     <path d="M 377.061816 93.09375 
L 377.061816 83.09375 
" style="fill:none;stroke:#2ca02c;stroke-width:1.5;"/>
    </g>
    <g id="line2d_27"/>
    <g id="line2d_28">
     <g>
      <use style="fill:#2ca02c;stroke:#2ca02c;" x="377.061816" xlink:href="#m3d529894d7" y="88.09375"/>
     </g>
    </g>
    <g id="text_17">
     <!-- $r_{V,I}$ -->
     <g transform="translate(395.061816 91.59375)scale(0.1 -0.1)">
      <use xlink:href="#DejaVuSans-Oblique-72"/>
      <use transform="translate(41.113281 -16.40625)scale(0.7)" xlink:href="#DejaVuSans-Oblique-56"/>
      <use transform="translate(88.999023 -16.40625)scale(0.7)" xlink:href="#DejaVuSans-2c"/>
      <use transform="translate(124.887695 -16.40625)scale(0.7)" xlink:href="#DejaVuSans-Oblique-49"/>
     </g>
    </g>
    <g id="LineCollection_14">
     <path d="M 377.061816 108.192187 
L 377.061816 98.192187 
" style="fill:none;stroke:#d62728;stroke-width:1.5;"/>
    </g>
    <g id="line2d_29"/>
    <g id="line2d_30">
     <g>
      <use style="fill:#d62728;stroke:#d62728;" x="377.061816" xlink:href="#ma8e37b20d9" y="103.192187"/>
     </g>
    </g>
    <g id="text_18">
     <!-- $d_{V}$ -->
     <g transform="translate(395.061816 106.692187)scale(0.1 -0.1)">
      <defs>
       <path d="M 2675 525 
Q 2444 222 2128 65 
Q 1813 -91 1428 -91 
Q 903 -91 598 267 
Q 294 625 294 1247 
Q 294 1766 478 2236 
Q 663 2706 1013 3078 
Q 1244 3325 1534 3454 
Q 1825 3584 2144 3584 
Q 2481 3584 2739 3421 
Q 2997 3259 3138 2956 
L 3513 4863 
L 4091 4863 
L 3144 0 
L 2566 0 
L 2675 525 
z
M 891 1350 
Q 891 897 1095 644 
Q 1300 391 1663 391 
Q 1931 391 2161 520 
Q 2391 650 2566 903 
Q 2750 1166 2856 1509 
Q 2963 1853 2963 2188 
Q 2963 2622 2758 2865 
Q 2553 3109 2194 3109 
Q 1922 3109 1687 2981 
Q 1453 2853 1288 2613 
Q 1106 2353 998 2009 
Q 891 1666 891 1350 
z
" id="DejaVuSans-Oblique-64" transform="scale(0.015625)"/>
      </defs>
      <use transform="translate(0 0.015625)" xlink:href="#DejaVuSans-Oblique-64"/>
      <use transform="translate(63.476562 -16.390625)scale(0.7)" xlink:href="#DejaVuSans-Oblique-56"/>
     </g>
    </g>
    <g id="LineCollection_15">
     <path d="M 377.061816 122.870312 
L 377.061816 112.870312 
" style="fill:none;stroke:#9467bd;stroke-width:1.5;"/>
    </g>
    <g id="line2d_31"/>
    <g id="line2d_32">
     <g>
      <use style="fill:#9467bd;stroke:#9467bd;" x="377.061816" xlink:href="#m7566af22fa" y="117.870312"/>
     </g>
    </g>
    <g id="text_19">
     <!-- $r_{I,V}$ -->
     <g transform="translate(395.061816 121.370312)scale(0.1 -0.1)">
      <use xlink:href="#DejaVuSans-Oblique-72"/>
      <use transform="translate(41.113281 -16.40625)scale(0.7)" xlink:href="#DejaVuSans-Oblique-49"/>
      <use transform="translate(61.757812 -16.40625)scale(0.7)" xlink:href="#DejaVuSans-2c"/>
      <use transform="translate(97.646484 -16.40625)scale(0.7)" xlink:href="#DejaVuSans-Oblique-56"/>
     </g>
    </g>
    <g id="LineCollection_16">
     <path d="M 377.061816 137.96875 
L 377.061816 127.96875 
" style="fill:none;stroke:#8c564b;stroke-width:1.5;"/>
    </g>
    <g id="line2d_33"/>
    <g id="line2d_34">
     <g>
      <use style="fill:#8c564b;stroke:#8c564b;" x="377.061816" xlink:href="#m0e4a943e61" y="132.96875"/>
     </g>
    </g>
    <g id="text_20">
     <!-- $d_{I}$ -->
     <g transform="translate(395.061816 136.46875)scale(0.1 -0.1)">
      <use transform="translate(0 0.015625)" xlink:href="#DejaVuSans-Oblique-64"/>
      <use transform="translate(63.476562 -16.390625)scale(0.7)" xlink:href="#DejaVuSans-Oblique-49"/>
     </g>
    </g>
    <g id="LineCollection_17">
     <path d="M 377.061816 152.646875 
L 377.061816 142.646875 
" style="fill:none;stroke:#e377c2;stroke-width:1.5;"/>
    </g>
    <g id="line2d_35"/>
    <g id="line2d_36">
     <g>
      <use style="fill:#e377c2;stroke:#e377c2;" x="377.061816" xlink:href="#mac50a0c065" y="147.646875"/>
     </g>
    </g>
    <g id="text_21">
     <!-- $r_{M,I}$ -->
     <g transform="translate(395.061816 151.146875)scale(0.1 -0.1)">
      <use xlink:href="#DejaVuSans-Oblique-72"/>
      <use transform="translate(41.113281 -16.40625)scale(0.7)" xlink:href="#DejaVuSans-Oblique-4d"/>
      <use transform="translate(101.508789 -16.40625)scale(0.7)" xlink:href="#DejaVuSans-2c"/>
      <use transform="translate(137.397461 -16.40625)scale(0.7)" xlink:href="#DejaVuSans-Oblique-49"/>
     </g>
    </g>
    <g id="LineCollection_18">
     <path d="M 377.061816 167.745312 
L 377.061816 157.745312 
" style="fill:none;stroke:#7f7f7f;stroke-width:1.5;"/>
    </g>
    <g id="line2d_37"/>
    <g id="line2d_38">
     <g>
      <use style="fill:#7f7f7f;stroke:#7f7f7f;" x="377.061816" xlink:href="#m601b689d36" y="162.745312"/>
     </g>
    </g>
    <g id="text_22">
     <!-- $K_{M,I}$ -->
     <g transform="translate(395.061816 166.245312)scale(0.1 -0.1)">
      <use transform="translate(0 0.09375)" xlink:href="#DejaVuSans-Oblique-4b"/>
      <use transform="translate(65.576172 -16.3125)scale(0.7)" xlink:href="#DejaVuSans-Oblique-4d"/>
      <use transform="translate(125.97168 -16.3125)scale(0.7)" xlink:href="#DejaVuSans-2c"/>
      <use transform="translate(161.860352 -16.3125)scale(0.7)" xlink:href="#DejaVuSans-Oblique-49"/>
     </g>
    </g>
    <g id="LineCollection_19">
     <path d="M 377.061816 182.84375 
L 377.061816 172.84375 
" style="fill:none;stroke:#bcbd22;stroke-width:1.5;"/>
    </g>
    <g id="line2d_39"/>
    <g id="line2d_40">
     <g>
      <use style="fill:#bcbd22;stroke:#bcbd22;" x="377.061816" xlink:href="#md3c941d2e6" y="177.84375"/>
     </g>
    </g>
    <g id="text_23">
     <!-- $d_{M}$ -->
     <g transform="translate(395.061816 181.34375)scale(0.1 -0.1)">
      <use transform="translate(0 0.015625)" xlink:href="#DejaVuSans-Oblique-64"/>
      <use transform="translate(63.476562 -16.390625)scale(0.7)" xlink:href="#DejaVuSans-Oblique-4d"/>
     </g>
    </g>
    <g id="LineCollection_20">
     <path d="M 377.061816 197.521875 
L 377.061816 187.521875 
" style="fill:none;stroke:#17becf;stroke-width:1.5;"/>
    </g>
    <g id="line2d_41"/>
    <g id="line2d_42">
     <g>
      <use style="fill:#17becf;stroke:#17becf;" x="377.061816" xlink:href="#m0a99e9ec98" y="192.521875"/>
     </g>
    </g>
    <g id="text_24">
     <!-- $n$ -->
     <g transform="translate(395.061816 196.021875)scale(0.1 -0.1)">
      <defs>
       <path d="M 3566 2113 
L 3156 0 
L 2578 0 
L 2988 2091 
Q 3016 2238 3031 2350 
Q 3047 2463 3047 2528 
Q 3047 2791 2881 2937 
Q 2716 3084 2419 3084 
Q 1956 3084 1622 2776 
Q 1288 2469 1184 1941 
L 800 0 
L 225 0 
L 903 3500 
L 1478 3500 
L 1363 2950 
Q 1603 3253 1940 3418 
Q 2278 3584 2650 3584 
Q 3113 3584 3367 3334 
Q 3622 3084 3622 2631 
Q 3622 2519 3608 2391 
Q 3594 2263 3566 2113 
z
" id="DejaVuSans-Oblique-6e" transform="scale(0.015625)"/>
      </defs>
      <use xlink:href="#DejaVuSans-Oblique-6e"/>
     </g>
    </g>
   </g>
  </g>
 </g>
 <defs>
  <clipPath id="p0686d40065">
   <rect height="230.3" width="310.386816" x="47.675" y="10.8"/>
  </clipPath>
 </defs>
</svg>
